<?xml version="1.0" encoding="UTF-8" standalone="no"?>
<svg
   xmlns:dc="http://purl.org/dc/elements/1.1/"
   xmlns:cc="http://creativecommons.org/ns#"
   xmlns:rdf="http://www.w3.org/1999/02/22-rdf-syntax-ns#"
   xmlns:svg="http://www.w3.org/2000/svg"
   xmlns="http://www.w3.org/2000/svg"
   id="svg1880"
   version="1.1"
   viewBox="0 0 86.477623 81.19091"
   height="81.19091mm"
   width="86.477623mm">
  <defs
     id="defs1874" />
  <metadata
     id="metadata1877">
    <rdf:RDF>
      <cc:Work
         rdf:about="">
        <dc:format>image/svg+xml</dc:format>
        <dc:type
           rdf:resource="http://purl.org/dc/dcmitype/StillImage" />
        <dc:title></dc:title>
      </cc:Work>
    </rdf:RDF>
  </metadata>
  <g
     transform="translate(-42.9436,-76.152346)"
     id="layer1">
    <g
       transform="matrix(-0.26458333,0,0,0.26458333,136.05047,57.467865)"
       id="g2465">
	<path
   style="opacity:0.2"
   d="m 186.9,284 c 22.7,-12.3 71.8,-34.2 38,-54.9 -31.5,-19.3 -75.1,8.2 -97.4,20 -32.8,17.5 -65.8,41.1 -45.8,53.7 20.6,12.9 62.4,4.4 105.2,-18.8 z"
   id="path2425" />

	<path
   style="fill:#762c07"
   d="m 181.9,201.4 c -4.6,12.9 -7,15.9 -6.6,21.2 0.4,5.3 0.2,7.6 -2,12.6 -2.2,5 -4.6,9.5 -0.7,11.9 4,2.5 13.3,0 15.3,-3.3 2,-3.3 1.7,-6 0.7,-9.3 -1,-3.3 -2.2,-5.5 0,-14.6 2.2,-9.1 13.3,-43.1 13.3,-43.1 0,0 -3.6,-5.8 -4.6,-8.6 -1,-2.8 0,-7.3 0,-7.3 L 182,173.5 c -0.1,0 4.6,15 -0.1,27.9 z"
   id="path2427" />

	<path
   style="opacity:0.15"
   d="m 181.9,201.4 c -4.6,12.9 -7,15.9 -6.6,21.2 0.4,5.3 0.2,7.6 -2,12.6 -2.2,5 -4.6,9.5 -0.7,11.9 4,2.5 13.3,0 15.3,-3.3 2,-3.3 1.7,-6 0.7,-9.3 -1,-3.3 -2.2,-5.5 0,-14.6 2.2,-9.1 13.3,-43.1 13.3,-43.1 0,0 -3.6,-5.8 -4.6,-8.6 -1,-2.8 0,-7.3 0,-7.3 L 182,173.5 c -0.1,0 4.6,15 -0.1,27.9 z"
   id="path2429" />

	<path
   style="fill:#762c07"
   d="M 225,95.3 C 214.2,83.9 207.7,84.6 193.2,86 165.8,88.7 162.7,105.1 144.8,109.9 126.9,114.7 112.5,102.1 94.4,89.3 76.3,76.5 61.5,75.7 53.9,78.7 46.3,81.7 39.2,94 38,95.9 c -1.2,2 1.3,10.6 -1.3,15.9 -2.7,5.3 -6.1,16.7 -9.3,20.6 -3.2,3.9 -4,13.9 3.3,18.6 7.3,4.7 11.3,0.8 15.3,-5.3 4,-6.1 9.5,-13.6 13.9,-14.6 4.4,-1 8,-4 8,-4 l 8,22.5 c 0,0 -4.6,7 -1.3,26.5 3.3,19.6 11.8,38.3 12.6,45.1 0.8,6.8 5.1,30.7 5.3,40.5 0.2,9.8 0.7,11.3 -3.3,14.6 -4,3.3 -8.5,8.8 -2,11.9 6.5,3.1 14.9,0.7 17.2,-2.7 2.3,-3.3 1.7,-18.7 0.7,-26.5 -1,-7.8 -4,-20.4 -3.3,-26.5 0.7,-6.1 2,-28.5 2,-28.5 l 8.6,3.3 c 0,0 2.2,21.9 4,33.8 1.8,11.9 5,23.9 3.3,34.5 -1.7,10.6 -9,21.1 -6.6,24.5 2.4,3.4 14.6,2.8 16.6,0 2,-2.8 0.5,-14.6 0,-23.9 -0.5,-9.3 2.7,-50.1 4,-59.7 1.3,-9.6 4,-18.6 4,-18.6 0,0 15.9,-4.6 25.9,-9.3 9.9,-4.6 19.2,-12.6 19.2,-12.6 l 14.6,-13.9 c 0,0 16.9,18.6 19.2,26.5 2.3,8 -3.5,30.7 -6.6,37.8 -3.2,7.1 -3.3,13.3 -2.7,15.9 0.7,2.7 0.5,8.1 -1.3,11.3 -1.8,3.2 -2,7.8 4.6,9.9 6.6,2.2 11.3,-2.3 12.6,-6.6 1.3,-4.3 -1.8,-8.8 -2.7,-11.9 -0.8,-3.2 4,-32.7 7.3,-39.8 3.3,-7.1 4.1,-5.1 3.3,-13.3 -0.8,-8.1 -1.3,-22.9 1.3,-35.8 2.6,-12.9 5.1,-47.7 -7.4,-60.8 z"
   id="path2431" />

	<path
   style="fill:#2d3134"
   d="m 214.4,88 c 0,0 4.1,-9.9 17.9,-9.9 13.8,0 22.5,7.8 32.5,29.2 9.9,21.4 22.5,27.9 22.5,27.9 0,0 -16.9,9.8 -29.8,-6.6 C 244.6,112.2 241.3,90.3 231,88 c -10.3,-2.3 -11.3,4.6 -11.3,4.6 z"
   id="path2433" />

	<path
   style="fill:#2d3134"
   d="m 172.6,247.1 c 4,2.5 13.3,0 15.3,-3.3 1.2,-2.1 1.6,-3.8 1.4,-5.7 -2.3,1.7 -14.7,3.1 -16.8,-1.1 -1.9,4.2 -3.4,8 0.1,10.1 z"
   id="path2435" />

	<path
   style="fill:#762c07"
   d="m 55.2,80 c 0,0 -14.3,-10.4 -15.3,-9.3 -1,1.1 4.5,12.7 7.3,14.6 2.9,1.9 8,-5.3 8,-5.3 z"
   id="path2437" />

	<path
   style="opacity:0.15"
   d="m 55.2,80 c 0,0 -14.3,-10.4 -15.3,-9.3 -1,1.1 4.5,12.7 7.3,14.6 2.9,1.9 8,-5.3 8,-5.3 z"
   id="path2439" />

	<path
   style="fill:#2d3134"
   d="m 53.3,107.2 7.3,-0.7 c 0,0 0.3,2.9 -3.3,3.3 -3.7,0.5 -4,-2.6 -4,-2.6 z"
   id="path2441" />

	<path
   style="fill:#2d3134"
   d="m 32,145 1.3,-6.6 c 0,0 3.2,1 2.7,4 -0.5,2.9 -4,2.6 -4,2.6 z"
   id="path2443" />

	<path
   style="opacity:0.15"
   d="m 36,139.7 c -3.3,-1.4 -6.4,-5 -8.3,-7.7 -0.1,0.1 -0.2,0.3 -0.3,0.4 -3.2,3.8 -4,13.9 3.3,18.6 7.3,4.7 11.3,0.8 15.3,-5.3 0.9,-1.4 1.9,-2.9 3,-4.4 -3.9,0.1 -9.5,-0.1 -13,-1.6 z"
   id="path2445" />

	<path
   style="fill:#2d3134"
   d="m 44.3,85.7 c -1.8,1.5 -3.6,6.8 1.3,8 4.9,1.2 10.1,-5 12.6,-6.6 2.5,-1.6 10.3,-5.5 19.2,-2 9,3.5 20.5,7.2 30.5,16.6 10.4,9.8 17.6,10.1 19.9,8.6 2.3,-1.5 -7.5,-2.2 -15.9,-10.6 C 105.8,93.6 93.8,84.8 78.7,79.8 63.8,74.8 56.6,75.3 44.3,85.7 Z"
   id="path2447" />

	<path
   style="opacity:0.15"
   d="m 116.3,142.4 -17.9,9.3 -19.9,-42.4 c 0,0 -1.1,4.6 -3.3,8.6 -2.2,4 -7.3,9.3 -7.3,9.3 l 8,22.5 c 0,0 -4.6,7 -1.3,26.5 3.3,19.6 11.8,38.3 12.6,45.1 0.8,6.8 5.1,30.7 5.3,40.5 0.2,9.8 0.7,11.3 -3.3,14.6 -4,3.3 -8.5,8.8 -2,11.9 6.5,3.1 14.9,0.7 17.2,-2.7 2.3,-3.3 1.7,-18.7 0.7,-26.5 -1,-7.8 -4,-20.4 -3.3,-26.5 0.7,-6.1 2,-28.5 2,-28.5 l 8.6,3.3 c 0,0 2.2,21.9 4,33.8 1.8,11.9 5,23.9 3.3,34.5 -1.7,10.6 -9,21.1 -6.6,24.5 0.9,1.4 3.5,2.2 6.4,2.3 l 4.8,-14.9 v -84.9 c 0,0 -7.1,-15.9 -10.6,-30.5 -3.5,-14.6 2.6,-29.8 2.6,-29.8 z"
   id="path2449" />

	<path
   style="opacity:0.15"
   d="m 197.2,162.3 c 0,0 16.9,18.6 19.2,26.5 2.3,8 -3.5,30.7 -6.6,37.8 -3.2,7.1 -3.3,13.3 -2.7,15.9 0.7,2.7 0.5,8.1 -1.3,11.3 -1.8,3.2 -2,7.8 4.6,9.9 0.2,0.1 0.4,0.1 0.6,0.2 1.3,-3.1 2.5,-6.1 2.7,-7.5 0.7,-3.5 1.3,-16.6 1.3,-19.9 0,-3.3 10.6,-41.1 10.6,-41.1 l -19.9,-39.1 z"
   id="path2451" />

	<g
   id="g2459">
		<path
   style="fill:#2d3134"
   d="m 87.1,288.3 c 6.5,3.2 14.9,0.7 17.2,-2.7 0.7,-1 1.1,-3.2 1.4,-5.9 -1.9,1 -5.9,2.5 -10.7,1.2 -3.8,-1 -5,-3.3 -5.3,-5.2 -0.2,0.2 -0.4,0.4 -0.6,0.6 -4,3.3 -8.5,8.8 -2,12 z"
   id="path2453" />

		<path
   style="fill:#2d3134"
   d="m 206.3,252.7 c -0.2,0.4 -0.3,0.7 -0.5,1.1 -1.8,3.2 -2,7.8 4.6,9.9 6.6,2.2 11.3,-2.3 12.6,-6.6 0.6,-2 0.3,-4 -0.4,-5.9 -1.9,1.8 -5,3.8 -8.9,3.9 -3.6,0.1 -6,-1.2 -7.4,-2.4 z"
   id="path2455" />

		<path
   style="fill:#2d3134"
   d="m 129.5,300.2 c 0.8,-1.1 1,-3.7 1,-7 -2.2,0.3 -5,0.6 -8.3,0.4 -3.4,-0.2 -6,-1.3 -7.7,-2.3 -1.6,4.1 -2.7,7.3 -1.6,8.9 2.4,3.5 14.6,2.8 16.6,0 z"
   id="path2457" />

	</g>

	<path
   style="fill:#762c07"
   d="m 59.2,87.3 c -1,-1 -0.9,-7.6 1.3,-8 2.2,-0.4 9.3,7.3 9.3,7.3 l -3.3,6 z"
   id="path2461" />

	<path
   style="opacity:0.1"
   d="m 59.2,87.3 c -1,-1 -0.9,-7.6 1.3,-8 2.2,-0.4 6,13.3 6,13.3 z"
   id="path2463" />

</g>
    <g
       transform="matrix(-0.26458333,0,0,0.26458333,136.26214,88.688698)"
       id="g2537">
	<path
   style="opacity:0.2"
   d="m 202,201.7 c 22.3,-12.1 93.7,-42.5 60.6,-62.8 -31,-18.9 -97,16.9 -118.8,28.6 -32.2,17.1 -64.6,40.4 -44.9,52.7 20,12.6 61.1,4.2 103.1,-18.5 z"
   id="path2495" />

	<path
   style="fill:#825012"
   d="m 234.5,22.4 c 2.4,-1.7 7.1,-4.7 14.5,0 7.4,4.7 7.5,18.3 11,26.9 5.5,13.6 14.6,19.6 13.8,23.4 C 272.9,76.5 264.2,71 259.3,61 254.5,51 246.9,27.9 246.9,27.9 Z"
   id="path2497" />

	<path
   style="fill:#2d3134"
   d="m 207,144.3 c 0,0 -0.9,3.3 -0.7,4.1 0.2,0.9 3.4,1.9 6.9,2.1 3.4,0.2 7.4,-2.4 7.6,-3.4 0.2,-1 -1.4,-10.3 -1.4,-10.3 z"
   id="path2499" />

	<path
   style="fill:#fbd7c7"
   d="m 233.2,116.7 c 0.9,2.4 2.3,9.2 -1.4,13.8 -1.9,2.4 -3.4,2.8 -3.4,2.8 0,0 0.3,6 -1.4,6.9 -1.7,0.9 -4.1,-5.5 -4.1,-5.5 z"
   id="path2501" />

	<path
   style="fill:#f8ebcb"
   d="m 52,121.6 c 0,0 -1.4,5.9 -4.8,9.6 -3.4,3.8 -2.8,11 0,14.5 2.8,3.4 6,10 3.4,17.9 -2.6,7.9 -6.4,10.3 -3.4,15.2 2.9,4.8 11.2,8.6 16.5,3.4 5.3,-5.2 17.9,-17.9 21.4,-20.7 3.4,-2.8 7.8,-12.1 11.7,-13.8 4.4,-1.9 7.8,-2.1 9.6,2.8 1.9,4.8 2,5.6 3.4,9 1.3,2.9 6.2,5.3 5.5,13.8 -0.7,8.4 -5.5,20.3 -4.8,22 0.7,1.7 4.8,4 9,4.1 4.1,0.2 7.4,-2.8 7.6,-4.1 0.2,-1.4 -2.2,-4.7 -2.8,-9.6 -0.5,-5 0.7,-15.8 0.7,-15.8 0,0 4.3,-0.2 9,-1.4 4.7,-1.2 9.8,-4.8 11.7,1.4 1.9,6.2 4,22 2.8,28.2 -1.2,6.2 -4.5,13.4 -3.4,15.2 1,1.7 4.7,2.8 7.6,2.8 2.9,0 6.7,-2.2 7.6,-3.4 0.9,-1.2 -2.8,-11.5 -2.8,-17.9 0,-6.4 5.5,-25.5 6.9,-30.3 1.4,-4.8 3.4,-12.4 3.4,-12.4 0,0 38.9,-1.2 51.7,-13.1 12.7,-11.9 17.2,-24.8 17.2,-24.8 0,0 3.3,6.2 4.1,10.3 0.9,4.1 7.1,5.3 8.3,14.5 1.2,9.2 -4,23.9 -4.1,25.5 -0.2,1.6 1.9,4.1 7.6,4.1 5.7,0 7.6,-2.6 7.6,-4.1 0,-1.5 -2.4,-19.6 -2.8,-24.8 -0.4,-5.2 2.6,-14 0.7,-18.6 -1.9,-4.7 -2.6,-8.3 -2.1,-17.2 0.5,-8.9 5.9,-46.7 1.4,-60.6 -4.5,-14 -7.8,-18.9 -22.7,-20.7 -14.9,-1.8 -21.4,3.6 -33.8,9 -12.4,5.3 -25.7,23.3 -42,29.6 -16.3,6.3 -26.7,7.8 -40,15.2 -13.3,7.4 -41,33.6 -53,34.4 -12.1,0.9 -22.7,-6.2 -22.7,-6.2 0,0 -0.4,15.6 8.8,17 z"
   id="path2503" />

	<path
   style="fill:#825012"
   d="m 73.3,170.1 c -2.3,1.6 -14.1,-5.2 -13.1,-14.5 1,-9.3 8.6,-16.5 15.2,-15.2 6.5,1.4 15.2,-2.4 14.1,5.2 -1,7.7 -4.5,16.6 -16.2,24.5 z"
   id="path2505" />

	<g
   id="g2513">
		<path
   style="fill:#2d3134"
   d="m 244.9,164.3 c -0.2,1.6 1.9,4.1 7.6,4.1 5.7,0 7.6,-2.6 7.6,-4.1 0,-0.6 -0.4,-3.8 -0.9,-7.8 -4.2,2.2 -8.3,2.5 -12,-0.9 -1.1,4.4 -2.3,8 -2.3,8.7 z"
   id="path2507" />

		<path
   style="fill:#2d3134"
   d="m 110.5,195.3 c 0.7,1.7 4.8,4 9,4.1 4.1,0.2 7.4,-2.8 7.6,-4.1 0.1,-1.1 -1.3,-3.3 -2.2,-6.5 -3.4,1.4 -8,1.1 -12.7,-0.1 -1.1,3.3 -2,5.8 -1.7,6.6 z"
   id="path2509" />

		<path
   style="fill:#2d3134"
   d="m 152.6,215.9 c 2.9,0 6.7,-2.2 7.6,-3.4 0.4,-0.6 -0.3,-3.7 -1.1,-7.4 -5.6,2 -9.7,1.5 -12.3,-0.5 -1.2,4 -2.4,7.4 -1.7,8.6 0.9,1.7 4.5,2.7 7.5,2.7 z"
   id="path2511" />

	</g>

	<path
   style="fill:#2d3134"
   d="m 67.1,152.6 c -0.4,-0.3 4.1,-4.1 5.5,-2.8 1.4,1.4 -1.2,6 -5.5,2.8 z"
   id="path2515" />

	<path
   style="opacity:0.15"
   d="m 76.8,131.2 c 0,0 6.5,1 12.4,1.4 5.9,0.3 9,0.7 9,0.7 0,0 -1.4,5 -4.8,6.2 -3.5,1.2 -11.8,-0.3 -16.6,-8.3 z"
   id="path2517" />

	<path
   style="opacity:0.15"
   d="m 60.9,178.7 c -0.5,-2.1 -1.7,-2.8 -3.4,-0.7 -1.4,1.7 -5.8,3.1 -9.4,1.9 3.1,3.8 9.4,6.4 14.2,3.3 -0.5,-1.4 -1.1,-3.3 -1.4,-4.5 z"
   id="path2519" />

	<path
   style="fill:#2d3134"
   d="m 270.1,65.6 -5.2,3.6 c 0,0 0.6,6.2 5.6,10.5 4.3,3.8 12.6,6 19.2,4.3 -5.3,-3.2 -6.9,-8.7 -9.9,-11.8 -4.6,-4.7 -9.7,-6.6 -9.7,-6.6 z"
   id="path2521" />

	<path
   style="fill:#825012"
   d="m 210.1,123.6 c -0.7,-11.4 -2.8,-13.1 -7.6,-8.6 -4.8,4.5 -20.3,16.5 -27.9,21.4 -5.4,3.5 -6.6,11.3 -6.8,15.5 0.8,0 14.6,-0.5 28.2,-3.4 1.8,-0.4 14.8,-13.5 14.1,-24.9 z"
   id="path2523" />

	<path
   style="fill:#825012"
   d="m 118.8,76.1 c -3.8,2.1 -8.7,5.8 -14.2,9.9 11.9,-0.9 27.6,-1.8 32.4,4.2 9.3,11.7 34.4,11 38.6,-2.4 4.1,-13.4 11.4,-10 14.8,-1.4 4.1,10.3 24.7,-17.3 10.7,-25.1 -9.3,-5.2 9,-13.3 1,-13 -2.3,0.1 4.9,-12.9 8.5,-21.6 -3,1.4 -6.2,3 -9.9,4.6 -12.4,5.3 -25.7,23.3 -42,29.6 -6.3,2.4 -21.5,7.9 -36.1,13.2 -1.2,0.6 -2.5,1.3 -3.8,2 z"
   id="path2525" />

	<path
   style="fill:#825012"
   d="m 132.2,129.5 c -12.1,-11.4 -5.2,-18.3 -12.1,-13.8 -6.9,4.5 -9,16.9 -16.9,25.8 0,0 0.3,2.3 0.7,5.7 0.9,0.6 1.8,1.7 2.4,3.3 1.9,4.8 2,5.6 3.4,9 1.2,2.7 15.2,10.3 15.2,10.3 0,0 4.3,-0.2 9,-1.4 3.5,-0.9 7.2,-3.1 9.7,-1.6 7.3,-3 7.8,-7.5 9.6,-18 2.1,-12.1 -8.9,-7.9 -21,-19.3 z"
   id="path2527" />

	<path
   style="fill:#825012"
   d="m 231.8,33 c -6.9,3.3 8.3,16.9 0.3,20 -7.9,3.1 -18.9,0 -14.8,7.6 4.1,7.6 1.7,21.4 5.5,26.2 3.8,4.8 9,16.9 11.7,5.2 2.7,-11.7 4.8,-20 12.7,-21.7 7.9,-1.7 8.6,-7.6 7.6,-16.2 -1,-8.7 -14.4,-25.2 -23,-21.1 z"
   id="path2529" />

	<path
   style="fill:#825012"
   d="m 76.8,131.2 21.4,2.1 c 0,0 -6.2,-7.1 -11.3,-7.3 -5.1,-0.2 -10.1,5.2 -10.1,5.2 z"
   id="path2531" />

	<path
   style="fill:#825012"
   d="m 43,104.3 c 0,0 -0.2,15.8 9,17.2 0,0 13.6,-5 17.1,-2.8 4.3,2.8 11.2,0.5 11.4,-4.3 0.1,-2.7 -1.2,-6.4 -2.4,-9.1 -4.8,2.9 -9,4.9 -12.2,5.1 -12.2,1 -22.9,-6.1 -22.9,-6.1 z"
   id="path2533" />

	<path
   style="opacity:0.15"
   d="m 51.9,121.5 c 0.7,-1 1.6,-3 -0.6,-4.8 -3.1,-2.6 -6.4,-7.6 -8.3,-12.4 0,0 -0.2,15.8 8.9,17.2 z"
   id="path2535" />

</g>
    <g
       transform="matrix(0.26458333,0,0,0.26458333,40.033183,104.37849)"
       id="g2600">
	<path
   style="opacity:0.2"
   d="M 77.8,116.2 C 67,122 32.4,136.7 48.4,146.6 c 15,9.2 47,-8.2 57.5,-13.8 15.6,-8.3 31.3,-19.6 21.8,-25.5 -9.7,-6.2 -29.6,-2.2 -49.9,8.9 z"
   id="path2568" />

	<path
   style="fill:#656565"
   d="m 100.3,83.5 c 2.1,3.6 3.3,7.7 3.5,13.6 0.3,7.2 -2.1,12.3 -2.3,12.6 -0.4,0.9 7.5,0.3 7.9,-0.6 0.1,-0.2 0.2,-3.6 0.2,-4 0,-0.4 -0.6,-1.5 -0.5,-2.1 0.1,-0.7 0.9,-0.8 0.6,-2.4 -0.3,-1.6 -1,-2.3 -0.7,-5.6 0.3,-3.3 1.7,-18.9 1.7,-18.9 z"
   id="path2570" />

	<path
   style="fill:#2d3134"
   d="m 102.7,106.5 c -0.5,1.9 -1.1,3.1 -1.2,3.3 -0.4,0.9 2.5,1.8 3.5,1.7 2.7,-0.3 4,-1.4 4.4,-2.3 0.1,-0.2 0.1,-2 0.2,-3.2 -1,1.1 -5.2,2.5 -6.9,0.5 z"
   id="path2572" />

	<path
   style="fill:#656565"
   d="m 49.5,97.1 c 1.8,4.1 5.2,12.7 5,22.2 -0.2,9.5 -2.2,15.5 -2.2,16 0,0.5 7.1,0.2 7.5,-1.2 0.4,-1.4 -0.4,-3.8 -0.5,-5.1 -0.1,-1.2 1.5,-0.9 1.2,-3.2 -0.3,-2.3 -1.3,-6.2 -1.2,-10.3 0.1,-4.1 1.8,-17.1 1.8,-17.1 z"
   id="path2574" />

	<path
   style="fill:#656565"
   d="m 64.6,100.8 c 0,0 2.6,9.2 3.6,15.8 1,6.6 0.4,15.5 0.1,18.2 -0.3,2.7 -2.1,7.5 -2.3,8.1 -0.2,0.6 8.1,-0.6 8.4,-1.4 0.3,-0.8 -0.4,-4.8 -0.5,-5.6 -0.1,-0.8 1.5,-0.6 1.2,-3.3 -0.3,-2.7 -1.6,-5.4 -1,-9.6 0.6,-4.2 1.7,-12.8 4.6,-19.3 2.9,-6.5 4.7,-13.2 4.7,-13.2 z"
   id="path2576" />

	<path
   style="fill:#656565"
   d="m 105.9,79.9 c 2.7,0.7 10.6,7.9 12.3,13.9 1.7,6 1.6,13.5 1,17.1 -0.6,3.6 -2.4,6.2 -2.4,6.9 0,0.7 8.1,-0.8 8.5,-1.8 0.4,-1 -0.4,-4.6 -0.4,-5.3 0,-0.7 1.2,-0.3 1,-2.5 -0.2,-2.2 -1.7,-11.4 -1.3,-14.4 0.4,-3 0.9,-7 0.4,-8.2 -0.5,-1.2 -2.3,-4.9 -2.4,-7.3 -0.1,-2.4 -0.7,-9.8 -0.7,-11.9 0,-2.1 -16,13.5 -16,13.5 z"
   id="path2578" />

	<path
   style="fill:#2d3134"
   d="m 53.1,132.3 c -0.4,1.8 -0.7,2.8 -0.7,3 0,0.5 1.1,1.1 2.3,1.2 1.2,0.1 4.8,-1.1 5.2,-2.4 0.2,-0.5 0.2,-1.1 0.1,-1.7 -2.6,0.7 -5,0.7 -6.9,-0.1 z"
   id="path2580" />

	<path
   style="fill:#2d3134"
   d="m 69.3,139.9 c -0.7,-0.2 -1.3,-0.6 -1.9,-1 -0.6,2 -1.2,3.8 -1.4,4.1 -0.2,0.6 2.1,1.4 3.3,1.3 3,-0.1 4.8,-1.9 5.1,-2.8 0.1,-0.2 0.1,-0.7 0.1,-1.3 -1.6,0.3 -3.4,0.2 -5.2,-0.3 z"
   id="path2582" />

	<path
   style="fill:#2d3134"
   d="m 116.8,117.8 c 0,0.7 2.1,1.2 3.1,1.1 2.9,-0.2 5,-1.9 5.4,-3 0.1,-0.3 0.1,-0.9 0.1,-1.6 -1.6,0.9 -5.7,1 -6.8,-1 -0.8,2.4 -1.8,4 -1.8,4.5 z"
   id="path2584" />

	<path
   style="fill:#f8ebcb"
   d="m 130.5,57.4 c 0,-2 -1.2,-3.6 -3,-4.3 0.3,-0.6 0.5,-1.3 0.5,-2 0,-1.6 -0.8,-3.1 -2.1,-3.9 0.1,-0.4 0.2,-0.9 0.2,-1.4 0,-2.2 -1.6,-4.1 -3.7,-4.5 0.1,-0.4 0.1,-0.7 0.1,-1.1 0,-2.5 -2.1,-4.6 -4.6,-4.6 -0.4,0 -0.7,0 -1,0.1 -0.7,-1.7 -2.3,-3 -4.3,-3 -0.6,0 -1.2,0.1 -1.7,0.3 -0.7,-1.6 -2.3,-2.8 -4.2,-2.8 -1.6,0 -3.1,0.9 -3.9,2.2 -0.7,-0.5 -1.6,-0.7 -2.5,-0.7 -2,0 -3.6,1.2 -4.3,2.9 -0.6,-0.3 -1.3,-0.5 -2.1,-0.5 -2.3,0 -4.2,1.7 -4.5,3.8 -0.8,-0.7 -1.9,-1.2 -3,-1.2 -2,0 -3.8,1.3 -4.4,3.2 -0.8,-0.9 -2.1,-1.5 -3.4,-1.5 -2.2,0 -4,1.5 -4.5,3.5 -0.7,-0.4 -1.5,-0.6 -2.3,-0.6 -2.4,0 -4.3,1.8 -4.6,4.1 -0.7,-0.5 -1.6,-0.8 -2.6,-0.8 -1.8,0 -3.3,1 -4.1,2.5 -0.8,-0.5 -1.7,-0.9 -2.7,-0.9 -0.4,0 -0.8,0.1 -1.1,0.1 -0.8,-1.2 -2.2,-2 -3.8,-2 -0.8,0 -1.6,0.2 -2.3,0.6 -0.8,-1.1 -2.2,-1.8 -3.7,-1.8 -2.5,0 -4.6,2.1 -4.6,4.6 0,0.3 0,0.6 0.1,0.9 -1.4,0.8 -2.3,2.3 -2.3,4 0,1.5 0.7,2.9 1.9,3.7 l -0.4,1.2 c -0.4,-0.1 -0.9,-0.2 -1.3,-0.2 -2.5,0 -4.6,2.1 -4.6,4.6 0,0.9 0.2,1.7 0.7,2.4 -1.9,0.6 -3.3,2.3 -3.3,4.4 0,1.6 0.8,3.1 2.1,3.9 -0.9,0.8 -1.4,2 -1.4,3.3 0,1.9 1.2,3.6 2.9,4.3 -0.6,0.8 -0.9,1.7 -0.9,2.8 0,1.7 1,3.3 2.4,4 -0.2,0.5 -0.2,1 -0.2,1.5 0,1.6 0.8,3.1 2.1,3.9 -0.1,0.4 -0.2,0.8 -0.2,1.2 0,2.5 2.1,4.6 4.6,4.6 0.1,0 0.2,0 0.4,0 0,0.2 0,0.4 0,0.6 0,2.5 2.1,4.6 4.6,4.6 1.3,0 2.5,-0.5 3.3,-1.4 0.8,1.4 2.3,2.4 4.1,2.4 1.7,0 3.1,-0.9 3.9,-2.2 0.7,0.6 1.6,1 2.5,1.1 0.6,1.9 2.3,3.3 4.4,3.3 0.8,0 1.5,-0.2 2.1,-0.5 0.8,0.7 1.9,1.1 3,1.1 2,0 3.7,-1.2 4.3,-3 0.3,0.1 0.7,0.1 1,0.1 2.3,0 4.2,-1.6 4.5,-3.8 2.5,-0.1 4.5,-2.1 4.5,-4.6 0,-0.6 -0.1,-1.1 -0.3,-1.6 1.5,-0.7 2.5,-2.2 2.5,-4 0.5,0.2 1.1,0.3 1.8,0.3 1.8,0 3.3,-1 4.1,-2.5 0.5,0.1 0.9,0.2 1.4,0.2 2.5,0 4.6,-2.1 4.6,-4.6 0,-0.1 0,-0.2 0,-0.3 0.6,0.3 1.3,0.4 2,0.4 0.8,0 1.6,-0.2 2.3,-0.6 0.8,1.5 2.3,2.5 4.1,2.5 1.4,0 2.7,-0.7 3.6,-1.7 0.8,0.8 2,1.3 3.2,1.3 2.4,0 4.4,-1.8 4.6,-4.2 2.4,-0.1 4.4,-2.1 4.4,-4.6 0,-0.4 -0.1,-0.8 -0.2,-1.2 2,-0.5 3.5,-2.3 3.5,-4.5 0,-1 -0.4,-2 -0.9,-2.8 1.4,-0.8 2.3,-2.3 2.3,-4 0,-1.3 -0.5,-2.4 -1.3,-3.3 1,-0.5 1.7,-1.8 1.7,-3.3 z"
   id="path2586" />

	<path
   style="fill:#656565"
   d="m 21.6,48 c -1.4,2.6 -10,19 -7.5,23.1 2.8,4.6 7.7,5 13.2,0.2 2.1,-1.8 3.9,-2.6 5.3,-2.7 0.2,0 0.3,0 0.5,-0.1 3.7,-0.7 6.7,-3.3 8.1,-6.8 L 45.8,49.6 34.6,41 c 0,0 -6.4,1.4 -10.6,-1 -4.2,-2.4 -13,0 -13,0 0,0 1.7,4.2 4.9,5.9 3.1,1.7 5.7,2.1 5.7,2.1 z"
   id="path2588" />

	<path
   style="fill:#2d3134"
   d="m 30.3,58.4 c 0,0 0.3,-2.7 2.4,-3.4 2.2,-0.7 2.6,0.2 2.6,0.2 0,0 0,2.2 -1.6,3 -1.5,0.7 -3.4,0.2 -3.4,0.2 z"
   id="path2590" />

	<path
   style="fill:#2d3134"
   d="m 17,69.6 c 1.4,0 3.2,-0.9 3.4,-1 0.2,-0.1 0.2,-0.3 0.1,-0.4 -0.1,-0.2 -0.3,-0.2 -0.4,-0.1 -0.7,0.4 -2.9,1.2 -3.8,0.8 -1.1,-0.5 -0.9,-1.6 -0.9,-1.7 0,-0.2 -0.1,-0.3 -0.2,-0.4 -0.2,0 -0.3,0.1 -0.4,0.2 -0.1,0.6 0,1.8 1.2,2.3 0,0 0,0 0.1,0 -0.4,2.2 0.6,4 1.2,4.8 0.3,0.1 0.6,0.3 0.9,0.3 0,-0.1 0,-0.2 -0.1,-0.2 0,0 -1.9,-2.1 -1.5,-4.7 0.2,0.1 0.3,0.1 0.4,0.1 z"
   id="path2592" />

	<path
   style="fill:#656565"
   d="m 40.1,52.6 c 8,-4 13.4,8.5 13.4,8.5 0,0 -5.4,3.7 -9.9,0.7 -4.5,-3 -5.5,-8.2 -3.5,-9.2 z"
   id="path2594" />

	<path
   style="fill:#f8ebcb"
   d="m 47.5,44.2 c 0,-2.5 -2.1,-4.6 -4.6,-4.6 -0.9,0 -1.7,0.2 -2.4,0.7 -0.7,-1.6 -2.3,-2.7 -4.2,-2.7 -1.2,0 -2.3,0.5 -3.2,1.3 -0.8,-0.7 -1.9,-1.2 -3.1,-1.2 -2.5,0 -4.6,2.1 -4.6,4.6 -1.2,0.8 -2,2.2 -2,3.8 0,2.5 1.9,4.5 4.4,4.6 0.8,1.2 2.2,2.1 3.8,2.1 1.4,0 2.6,-0.6 3.5,-1.6 0.8,1 2.1,1.6 3.5,1.6 0.8,0 1.5,-0.2 2.1,-0.5 0.6,0.5 1.4,0.9 2.3,0.9 1.9,0 3.5,-1.5 3.5,-3.5 0,-0.7 -0.2,-1.4 -0.6,-1.9 1,-0.9 1.6,-2.2 1.6,-3.6 z"
   id="path2596" />

	<path
   style="opacity:0.15"
   d="m 125.3,76.8 c 0,-0.4 -0.1,-0.8 -0.2,-1.2 2,-0.5 3.5,-2.3 3.5,-4.5 0,-1 -0.4,-2 -0.9,-2.8 -1.2,0 -4,-0.1 -4.3,2.1 -0.2,1 0.3,2 0.7,2.8 -0.8,0.3 -1.4,0.8 -1.8,1.5 -0.4,-0.2 -0.8,-0.2 -1.3,-0.2 -1.6,0 -2.9,1 -3.4,2.3 -0.7,-0.8 -1.7,-1.4 -2.9,-1.4 -0.6,0 -1.2,0.2 -1.7,0.4 -0.6,-1.3 -1.9,-2.1 -3.3,-2.1 -0.9,0 -1.6,0.3 -2.3,0.8 -0.6,-1.2 -1.8,-2 -3.3,-2 -1.3,0 -2.5,0.7 -3.1,1.7 -0.6,-0.4 -1.3,-0.7 -2.1,-0.7 -1.2,0 -2.3,0.6 -3,1.5 -0.4,-0.2 -0.9,-0.3 -1.3,-0.3 -2,0 -3.6,1.6 -3.7,3.5 -0.3,-0.1 -0.7,-0.2 -1.1,-0.2 -1.7,0 -3.1,1.2 -3.6,2.7 -0.3,-0.1 -0.6,-0.1 -0.9,-0.1 -2,0 -3.7,1.7 -3.7,3.7 0,0.4 0.1,0.7 0.2,1.1 0,0 0,0 0,0 -2,0 -3.7,1.7 -3.7,3.7 0,0.8 0.3,1.6 0.8,2.2 -1.7,0.4 -2.9,1.8 -2.9,3.6 0,0.6 0.1,1.1 0.3,1.6 -1.1,0.6 -1.9,1.8 -1.9,3.2 0,0.3 -1.8,-0.4 -3,-0.4 -1.2,0 -2.5,0.7 -3.4,1.4 0.1,-0.3 0.1,-0.5 0.1,-0.8 0,-2 -1.7,-3.7 -3.7,-3.7 -0.2,0 -0.3,0 -0.5,0 -0.2,-1.6 -1.4,-2.9 -2.9,-3.2 0.3,-0.5 0.5,-1.1 0.5,-1.8 0,-2 -1.7,-3.7 -3.7,-3.7 -0.2,0 -0.4,0 -0.6,0.1 0.1,-0.3 0.1,-0.6 0.1,-1 0,-2 -1.7,-3.7 -3.7,-3.7 -2,0 -3.7,1.7 -3.7,3.7 0,0.6 0.1,1.1 0.3,1.6 -0.9,0.5 -1.6,1.4 -1.8,2.4 0,0 0,0 0,0 -3,-0.8 -7,4 -3.9,7.5 0.1,0.1 0.2,0 0.4,0 0,0.2 0,0.4 0,0.6 0,2.5 2.1,4.6 4.6,4.6 1.3,0 2.5,-0.5 3.3,-1.4 0.8,1.4 2.3,2.4 4.1,2.4 1.7,0 3.1,-0.9 3.9,-2.2 0.7,0.6 1.6,1 2.5,1.1 0.6,1.9 2.3,3.3 4.4,3.3 0.8,0 1.5,-0.2 2.1,-0.5 0.8,0.7 1.9,1.1 3,1.1 2,0 3.7,-1.2 4.3,-3 0.3,0.1 0.7,0.1 1,0.1 2.3,0 4.2,-1.6 4.5,-3.8 2.5,-0.1 4.5,-2.1 4.5,-4.6 0,-0.6 -0.1,-1.1 -0.3,-1.6 1.5,-0.7 2.5,-2.2 2.5,-4 0.5,0.2 1.1,0.3 1.8,0.3 1.8,0 3.3,-1 4.1,-2.5 0.5,0.1 0.9,0.2 1.4,0.2 2.5,0 4.6,-2.1 4.6,-4.6 0,-0.1 0,-0.2 0,-0.3 0.6,0.3 1.3,0.4 2,0.4 0.8,0 1.6,-0.2 2.3,-0.6 0.8,1.5 2.3,2.5 4.1,2.5 1.4,0 2.7,-0.7 3.6,-1.7 0.8,0.8 2,1.3 3.2,1.3 2.4,0 4.4,-1.8 4.6,-4.2 2.3,0.2 4.3,-1.8 4.3,-4.2 z"
   id="path2598" />

</g>
    <g
       transform="matrix(-0.26458333,0,0,0.26458333,103.42735,111.33703)"
       id="g2650">
	<path
   style="fill:#fbd7c7"
   d="m 111.7,81.3 c -1.3,7 0.1,10.3 -0.5,11.5 -0.6,1.2 -1.6,0.6 -1.6,0.6 0,0 -2.5,5.9 -4.3,5.9 -1.8,0 -1.8,-3.6 -1.8,-3.6 0,0 -1.2,3.2 -3.4,2.8 -1.9,-0.4 -0.5,-2.5 1.6,-7.7 2.2,-5.6 2.8,-11.5 2.8,-11.5 0,0 8.4,-5 7.2,2 z"
   id="path2626" />

	<path
   style="opacity:0.2"
   d="m 104.2,132.9 c 16.5,-8.9 57.4,-26.6 32.9,-41.6 -22.9,-14 -60.9,6.8 -77.1,15.4 -23.8,12.7 -47.8,29.9 -33.2,39 14.9,9.3 46.4,4 77.4,-12.8 z"
   id="path2628" />

	<path
   style="opacity:0.15"
   d="m 111.7,81.3 c -1.3,7 0.1,10.3 -0.5,11.5 -0.6,1.2 -1.6,0.6 -1.6,0.6 0,0 -2.5,5.9 -4.3,5.9 -1.8,0 -1.8,-3.6 -1.8,-3.6 0,0 -1.2,3.2 -3.4,2.8 -1.9,-0.4 -0.5,-2.5 1.6,-7.7 2.2,-5.6 2.8,-11.5 2.8,-11.5 0,0 8.4,-5 7.2,2 z"
   id="path2630" />

	<path
   style="fill:#2d3134"
   d="m 109.2,94.2 c -1.5,-0.1 -4.7,-0.5 -7.9,-2.2 -1.8,4.4 -2.9,6.2 -1.1,6.6 2.1,0.4 3.4,-2.8 3.4,-2.8 0,0 0,3.6 1.8,3.6 1.3,-0.1 3.1,-3.6 3.8,-5.2 z"
   id="path2632" />

	<g
   id="g2640">
		<path
   style="fill:#fbd7c7"
   d="m 146.8,52.3 c 2.3,-12.6 -1.6,-25.4 -12.9,-33.7 0.9,-3.7 1.4,-8.6 -1.4,-9.6 -3,-1.1 -5.6,1.1 -5.6,1.1 0,0 2.9,-0.8 3.2,1.9 0.2,1.6 -0.5,2.8 -1.1,3.5 -1.7,-0.9 -3.4,-1.7 -5.3,-2.4 -22.4,-8.5 -48.3,12.8 -63.3,21.3 -15,8.5 -25.2,16.4 -28.9,20.4 -2.8,3 -4.7,6.2 -5.9,9.4 -1.1,-0.1 -9.3,-0.6 -11.1,2.1 -0.4,0.6 2.1,9.5 2.1,9.5 0,0 -3.1,7 -2.3,13.6 0.8,6.6 -3.5,17.8 -4.7,19 -1.2,1.2 -2.6,2.5 -2.7,3.9 -0.2,3 4.1,7.8 8.3,8.3 3.6,0.5 14,-4.6 20.5,-7.5 -0.9,4.6 -1.9,7.9 -3.6,12.6 -1.5,3.9 -3.3,6.4 -3.7,8.5 -0.4,2.1 4.5,-0.6 4.5,-0.6 0,0 -0.5,2.7 1.4,3.4 1.9,0.7 4.6,-5.6 4.6,-5.6 0,0 0.4,1.1 1.3,0.8 0.9,-0.3 1.3,-4.1 1.6,-6.4 0.7,-4.6 3.9,-11.5 6.2,-15.9 1.9,0.8 3.7,1.2 5.3,1.2 4.4,0 11,-0.7 14.8,1.9 0.1,0 0.1,0.1 0.2,0.1 1.2,2.9 2.2,5.8 2.5,8 1.7,13.1 -2.4,18.9 -1.6,21.5 0.8,2.6 4.2,-2.1 4.2,-2.1 0,0 -0.3,2.7 1.4,3.2 1.7,0.5 5,-7.4 5,-7.4 0,0 1.6,1.8 2.1,0.6 0.5,-1.2 -0.3,-8.5 0.5,-13 0.7,-4 5.1,-15.6 6.4,-22.7 1.9,-1.8 3.8,-3.3 5.9,-4.2 9.1,-3.9 24.3,-10.6 35.8,-19.6 0.7,0.9 1.3,1.9 1.6,3.1 3.5,14.8 0.3,23.9 1,26.3 0.8,3 3.4,-1.2 3.4,-1.2 0,0 -0.4,2.5 1.7,2.8 2.1,0.3 3.5,-5.9 3.8,-6.6 0.3,-0.7 1.1,1.8 1.8,1 0.6,-0.8 -0.6,-6.1 -1,-8 -0.4,-1.9 -0.6,-19.2 0.5,-22.7 1,-3.4 5.2,-10.9 3.5,-19.8 z"
   id="path2634" />

		<path
   style="fill:#2d3134"
   d="m 33.8,101.9 c 0,0 0.1,-2 2.2,-2.9 2,-0.9 4.5,-0.3 4.5,-0.3 0,0 -0.1,2.5 -2,3.2 -2,0.7 -4.7,0 -4.7,0 z"
   id="path2636" />

		<path
   style="opacity:0.15"
   d="m 42.9,82.3 c 1.6,-3.8 8.6,-3.3 13.1,-2.2 4.5,1.2 7.6,0.3 7.6,0.3 0,0 -1,7.4 -3.9,10.8 -2.9,3.3 -6.6,4.2 -9.3,3.9 C 47.7,94.8 41,86.9 42.9,82.3 Z"
   id="path2638" />

	</g>

	<path
   style="fill:#2d3134"
   d="m 35.8,131.6 c -1.9,-0.7 -3.5,-1.3 -5.1,-2.5 -1.1,2.2 -2,3.8 -2.2,5.2 -0.3,2.1 4.5,-0.6 4.5,-0.6 0,0 -0.5,2.7 1.4,3.4 1.5,0.5 3.4,-3 4.2,-4.7 -0.8,-0.3 -1.8,-0.5 -2.8,-0.8 z"
   id="path2642" />

	<path
   style="fill:#2d3134"
   d="m 141.6,103 c -1.5,-0.1 -4.8,-0.4 -8.2,-2.3 -0.3,3.1 -0.7,5.2 -0.4,6.2 0.8,3 3.4,-1.2 3.4,-1.2 0,0 -0.4,2.5 1.7,2.8 1.7,0.2 2.9,-3.6 3.5,-5.5 z"
   id="path2644" />

	<path
   style="opacity:0.15"
   d="m 14.5,113 c -1.5,-1.7 -4.7,-2.9 -6.8,-2.6 -0.5,0.6 -0.8,1.2 -0.8,1.9 -0.2,3 4.1,7.8 8.3,8.3 0.8,0.1 1.8,0 3,-0.3 -0.1,-2.8 -2.2,-5.6 -3.7,-7.3 z"
   id="path2646" />

	<path
   style="fill:#2d3134"
   d="m 69.2,142.6 c 0.8,2.6 4.2,-2.1 4.2,-2.1 0,0 -0.3,2.7 1.4,3.2 1.3,0.4 3.4,-3.9 4.4,-6.1 -1.1,0 -4.9,-0.2 -8.8,-2.4 -0.7,3.8 -1.6,6 -1.2,7.4 z"
   id="path2648" />

</g>
    <g
       transform="matrix(0.26458333,0,0,0.26458333,56.569642,106.97141)"
       id="g2690">
	
		<ellipse
   style="opacity:0.2"
   transform="matrix(0.9564,-0.2919,0.2919,0.9564,-38.1725,17.888)"
   cx="40.900002"
   cy="136.89999"
   rx="26.799999"
   ry="14.6"
   id="ellipse2672" />

	<path
   style="fill:#825012"
   d="m 41.1,114.4 c 0,0 -12.3,0.8 -17.3,2.2 -5,1.4 -3.7,8.6 0.8,11.3 4.5,2.7 7.4,3.8 7.4,3.8 0,0 -7.3,0.1 -9.2,1 -1.9,0.9 -6,2.7 -5.6,5.4 0.4,2.7 3.8,4.1 6.3,3.1 2.4,-1 6.2,-4.2 8.3,-4.7 2.1,-0.5 8.3,0 8.8,-0.5 0.5,-0.5 0.9,-1.3 0.9,-1.3 l 3.5,0.9 12.7,-12.9 z"
   id="path2674" />

	<path
   style="opacity:0.2"
   d="m 41.1,114.4 c 0,0 -12.3,0.8 -17.3,2.2 -5,1.4 -3.7,8.6 0.8,11.3 4.5,2.7 7.4,3.8 7.4,3.8 0,0 -7.3,0.1 -9.2,1 -1.9,0.9 -6,2.7 -5.6,5.4 0.4,2.7 3.8,4.1 6.3,3.1 2.4,-1 6.2,-4.2 8.3,-4.7 2.1,-0.5 8.3,0 8.8,-0.5 0.5,-0.5 0.9,-1.3 0.9,-1.3 l 3.5,0.9 12.7,-12.9 z"
   id="path2676" />

	<path
   style="fill:#825012"
   d="m 63.7,127.2 c -0.2,-2.9 -4.9,-6.2 -10.4,-4.4 -5.5,1.8 -10.4,7.2 -10,10.4 0.4,3.2 4.1,6.8 4.1,6.8 0,0 -4.3,-0.1 -5.9,1.3 -1.7,1.4 -1.4,2.4 -2.7,4.2 -1.3,1.8 -3.1,4.2 -0.3,5.2 2.8,1 5,0.9 6.4,-0.6 1.4,-1.5 1.8,-4.9 1.8,-4.9 0,0 5.1,-1.2 6.4,-1.9 2.6,-1.4 1.4,-4.6 1.4,-4.6 0,0 4.3,-1 6.6,-4.2 2.3,-3.2 2.9,-3.4 2.6,-7.3 z"
   id="path2678" />

	<path
   style="fill:#2d3134"
   d="m 14.5,64.7 c 2.5,-2.4 7.6,-5.6 8.1,-6.7 0.5,-1.2 -0.7,-5.2 0.4,-5.9 1.1,-0.7 3.5,-1.4 3.5,-1.4 0,0 0,-2.1 0.8,-4.8 0.8,-2.7 1,-5.3 1,-5.3 0,0 2.3,2.6 2.8,4.1 0.5,1.5 2.2,3.5 2.2,3.5 0,0 2.3,-0.7 4.5,0.4 1.9,0.9 2.5,1.8 2.5,1.8 L 41.2,46 c 0,0 2.5,2.6 3.1,6.1 0.5,3 0.4,3.8 0.4,3.8 0,0 2.2,4.6 2.4,9.5 0.2,4.9 2.3,9.8 5.6,14.3 3.3,4.5 9,11 10.1,17.3 1.1,6.3 4.2,17.6 3.9,22.7 -0.3,5.4 -0.8,13.8 -5.7,17.2 -3.3,2.3 -6.4,1.8 -6.4,1.8 0,0 -4.9,-4.2 -5,-5.1 -0.1,-0.9 7,-6.8 8.8,-8.3 1.8,-1.4 0.5,-2.6 0.5,-2.6 0,0 -4.3,-1.1 -6.2,-1.5 -4.6,-1.2 -9,-4 -9,-4 0,0 -1.5,5.3 -1.3,8.7 0.3,3.4 0.4,6.9 -1.1,9.1 -1.5,2.2 -3.4,6.4 -3.5,8.7 -0.1,2.3 -0.6,5.3 -2.9,6.4 -2.3,1.2 -6.6,-0.2 -6.6,-1.5 0,-1.3 1.5,-3.2 3,-4.8 1.5,-1.6 5.3,-10.1 5.7,-12.6 0.4,-2.5 0.5,-18.2 0.5,-18.2 l -5.6,-2 c 0,0 0.1,8.7 0.2,11.4 0.1,2.8 -0.2,6.3 -1.5,10.2 -1.3,3.9 -2.6,9.3 -3.1,10.7 -0.5,1.3 -2,3.2 -3.9,3.5 -3.2,0.4 -6.2,-1.5 -5.3,-3.3 0.9,-1.7 3.7,-3.8 5,-6 1.4,-2.4 3.2,-6.2 3.4,-10.3 0.3,-8 -1.9,-19.9 -2.3,-22.1 -0.4,-2.2 -3,-4.7 -2,-11 1,-6.3 5.1,-10.9 5.2,-13.1 0.1,-2.2 1.3,-8.3 -0.4,-9 -1.7,-0.7 -6.3,2 -10.5,-1.3 -4.2,-3.2 -2.2,-6 -2.2,-6 z"
   id="path2680" />

	<path
   style="fill:#825012"
   d="m 39.9,65.8 c -0.4,-1 -7.1,-1 -12.8,-2.1 C 23.6,63 19.3,62.9 16.6,63 c -0.8,0.6 -1.5,1.2 -2.1,1.8 0,0 -2,2.8 2.1,6.1 4.1,3.3 8.8,0.5 10.5,1.3 0.5,0.2 0.8,1 0.9,2 0.6,1.2 1.6,2.5 2.6,2.2 1.8,-0.6 9.7,-9.6 9.3,-10.6 z"
   id="path2682" />

	<path
   d="m 28.5,59.5 c -0.1,-0.7 3.8,-0.7 3.9,-0.1 0.1,0.6 -3.7,1.4 -3.9,0.1 z"
   id="path2684" />

	<path
   style="fill:#825012"
   d="m 39.7,59.9 c -1.4,-0.7 -1.2,-3.9 0,-6.3 1.2,-2.3 2.1,-5.3 2.1,-5.3 0,0 2.4,4.7 2,7.4 -0.4,2.6 -1.8,5.3 -4.1,4.2 z"
   id="path2686" />

	<path
   style="fill:#262626"
   d="m 15.8,66.9 c -0.7,-0.6 -1.9,-2.2 -1.3,-3.7 0.6,-1.4 4,-2.9 5.6,-1.6 1.6,1.3 0.2,4.1 -0.5,4.9 -0.8,0.9 -2.7,1.3 -3.8,0.4 z"
   id="path2688" />

</g>
    <g
       transform="matrix(0.26458333,0,0,0.26458333,53.474017,117.8987)"
       id="g2800">
	<path
   style="opacity:0.2"
   d="m 103.2,117 c 12.7,8.2 34.5,15.5 14.8,27.5 -18.4,11.2 -39.2,-0.4 -49.5,-10.6 -20.7,-20.6 -56.1,-20.3 -31.1,-23.8 1.9,-0.3 15.8,0 29.6,2 14.3,2 32.4,2.4 36.2,4.9 z"
   id="path2772" />

	<path
   style="fill:#825012"
   d="m 96.1,110.4 c 0,0 2,4.7 1.9,6.2 -0.1,1.5 -0.8,3.5 0.1,4.3 0.9,0.7 7.8,5.2 9.1,7.1 1.3,1.9 2,5.2 6.6,3 4.6,-2.2 3.1,-5.5 0.9,-6.4 -2.1,-0.9 -6.5,-1.7 -8.8,-3.9 -2.3,-2.2 -3.2,-2.9 -1.2,-6.3 2,-3.4 2.9,-6.1 2.9,-6.1 z"
   id="path2774" />

	<path
   style="opacity:0.2"
   d="m 96.1,110.4 c 0,0 2,4.7 1.9,6.2 -0.1,1.5 -0.8,3.5 0.1,4.3 0.9,0.7 7.8,5.2 9.1,7.1 1.3,1.9 2,5.2 6.6,3 4.6,-2.2 3.1,-5.5 0.9,-6.4 -2.1,-0.9 -6.5,-1.7 -8.8,-3.9 -2.3,-2.2 -3.2,-2.9 -1.2,-6.3 2,-3.4 2.9,-6.1 2.9,-6.1 z"
   id="path2776" />

	<path
   style="fill:#825012"
   d="m 86.8,47.8 c 0.8,-1.5 2.6,-3.6 5.5,-5 2.9,-1.4 5,-1.9 5,-1.9 0,0 1.7,-3.1 5.5,-1.8 3.8,1.3 7.5,8.5 8.4,11.6 0.9,3.1 2.2,8.7 1,9.4 -1.2,0.7 -3,-2.1 -3,-2.1 0,0 1,4.5 1.8,7.3 0.7,2.8 -0.1,7.7 0.7,9.3 0.7,1.6 4.2,7.5 3.8,13.7 -0.4,6.2 -2.8,12.2 -2.9,14.8 -0.1,2.6 3.4,16.8 4,17.9 0.6,1.1 0.2,4.4 1.2,6.4 1,2 8.7,3.9 6.2,7.8 -2.4,3.9 -9.3,2 -10.3,-0.2 -1,-2.2 0.1,-4.6 -1.1,-8.8 -1.2,-4.2 -6.7,-15.8 -6.7,-15.8 0,0 -2,0.6 -4.8,0.9 -2.9,0.4 -5.9,3.9 -4.9,9.7 1,5.8 2,8 2.6,9.4 0.6,1.4 0.2,4.6 1.1,6.4 0.9,1.9 7.2,4.2 4.8,7.3 -2.4,3.1 -7.5,3.2 -10.2,0.6 -2.7,-2.6 -0.4,-3.8 -2.2,-10.2 -1.9,-6.4 -4,-13.8 -4,-13.8 l -6.3,1.5 -4.4,9.3 c 0,0 3.8,2.8 5.7,3.9 1.9,1.1 5.7,0.2 7,1.9 1.3,1.7 1.8,5.5 -2.2,7 -4,1.5 -6.3,-3.4 -7.7,-4.5 -1.4,-1 -7,-3.3 -8.5,-5 -1.5,-1.7 -0.2,-5.8 -0.2,-5.8 0,0 -5.9,-0.6 -8.8,-4.4 -2.9,-3.8 -2.5,-4.6 -3.7,-5.5 -1.2,-0.9 -3.1,-1.7 -8.8,-1.1 -5.7,0.6 -12.7,-1.8 -15.7,-5.2 -3.1,-3.4 -3.7,-11.3 -2.9,-12 0.8,-0.7 2.2,4.5 3.8,5.7 1.6,1.2 5.3,4.2 9.7,3.8 4.4,-0.4 12.5,-3.6 12.5,-3.6 0,0 4.6,-12.8 10.8,-19.7 6.2,-7 14.6,-11.7 15.9,-16.8 1.1,-5.1 1,-19.9 2.3,-22.4 z"
   id="path2778" />

	<g
   id="g2782">
		<path
   style="opacity:0.2"
   d="m 84.6,108.1 c 0,0 -1.2,1.6 -4,1.6 -1.5,0 -3.7,-0.2 -5.3,-0.4 0.6,0.1 1.4,0.3 2.2,0.6 2.8,0.9 3.9,2.1 5.1,4.6 1.1,2.5 -0.8,7.7 -0.8,7.7 l 6.3,-1.5 c 0,0 -0.7,-2.1 -1,-3.2 -0.3,-1 -2.6,-6.6 -2.5,-9.4 z"
   id="path2780" />

	</g>

	<path
   style="opacity:0.2"
   d="m 94.9,65.4 c -0.4,-1.5 -1.8,-5.1 -4,-7.5 -1.6,-1.8 -3,-5.8 -3.6,-8.3 l -1.1,0.3 c -0.6,3.7 -0.8,10.7 -1.3,15.8 0.9,0.7 4.2,1.9 5.3,2.5 4.7,2.6 5.5,0.5 4.7,-2.8 z"
   id="path2784" />

	<path
   style="fill:#262626"
   d="m 93.7,52.8 c 0,0 -0.1,-2.2 0.8,-3.1 0.8,-0.9 2.5,-0.6 1.7,1.3 -0.8,2 -2.5,1.8 -2.5,1.8 z"
   id="path2786" />

	<path
   style="fill:#262626"
   d="m 102.9,45.7 c 0,0 -0.2,-1.1 0.7,-1.5 0.9,-0.3 1.8,1.5 1.8,1.5 z"
   id="path2788" />

	<path
   style="fill:#262626"
   d="m 111.1,53.4 c 0,0 -0.3,-0.6 -1,-0.8 -0.6,-0.2 -1.3,-0.1 -2.1,0.2 l -0.9,-1.8 -0.3,0.2 0.9,1.8 c -1.3,0.7 -1.9,1.5 -2.6,2.5 -0.4,0.6 -0.9,1.3 -1.6,1.9 -1.8,1.8 -2.8,2.1 -2.8,2.1 -0.1,0 -0.1,0.1 -0.1,0.2 0,0.1 0.1,0.1 0.2,0.1 0,0 0,0 0.1,0 0,0 1.1,-0.4 3,-2.2 0.7,-0.7 1.2,-1.4 1.6,-2 0.7,-1 1.3,-1.8 2.6,-2.5 0.8,-0.4 1.4,-0.5 1.9,-0.3 0.6,0.2 0.8,0.6 0.8,0.6 0,0.1 0.2,0.1 0.2,0.1 0.1,0.1 0.1,0 0.1,-0.1 z"
   id="path2790" />

	<path
   style="fill:#825012"
   d="m 87.4,47.1 c -0.8,-0.5 -2.7,0.7 -4.1,3.4 -1.4,2.7 -3.4,7.5 -1.8,9.9 1.6,2.4 4.3,4.5 6.7,5.4 2.3,0.9 5,2.6 5.7,2.1 0.7,-0.5 -1.1,-5.7 -3,-8.4 -1.9,-2.7 -4,-5.8 -4,-5.8 0,0 2.5,-5.3 0.5,-6.6 z"
   id="path2792" />

	<path
   style="opacity:0.2"
   d="m 111.1,50.6 c 0.7,1.7 0.5,3.5 -0.1,5.2 -0.6,1.6 -1.7,2.3 -1.7,2.3 v 0.1 c 0.3,0.5 1.8,2.7 2.9,2 1.2,-0.7 -0.1,-6.3 -1,-9.4 -0.9,-3.1 -4.6,-10.2 -8.4,-11.6 -3.5,-1.2 -5.2,1.3 -5.5,1.7 1.6,0 4.4,0.4 5.9,1.9 1.6,1.5 2.6,2.4 3.6,3.8 1,1.4 3.5,2.2 4.3,4 z"
   id="path2794" />

	<path
   style="fill:#262626"
   d="m 102.6,48.5 c -0.7,1.6 1.8,4 4.3,2.9 2.5,-1.2 1.5,-4 0.7,-4.6 -0.8,-0.7 -4.2,-0.2 -5,1.7 z"
   id="path2796" />

	<path
   style="fill:#262626"
   d="M 112.2,69.8 C 108,70.5 102.9,70.9 97.7,70.6 90,70.3 85.7,69 84,68 c -0.1,0.7 -0.2,1.4 -0.4,2 -0.2,0.6 -0.4,1.3 -0.8,1.9 4,2 10.5,2.6 14.7,2.7 1.1,0 2.2,0.1 3.3,0.1 3.7,0 7.7,-0.2 11.5,-0.9 -0.2,-1 -0.1,-2.5 -0.1,-4 z"
   id="path2798" />

</g>
    <g
       transform="matrix(0.26458333,0,0,0.26458333,52.4686,116.99912)"
       id="g2848">
	<path
   style="opacity:0.2"
   d="m 54.4,127.4 c 9.1,5.9 23.5,12.9 10.6,19.8 C 51.3,154.5 33.1,145.9 26.3,138 17.2,127.5 6.9,124 2.4,122.8 c -3.7,-1 -3.8,-3.1 4.4,-1.8 1.4,0.2 11.6,1.5 21.6,2.9 10.2,1.4 23.2,1.7 26,3.5 z"
   id="path2824" />

	<path
   style="fill:#999999"
   d="m 46.3,127.9 c 0,0 0.8,2.9 2.8,4.1 2,1.2 6.1,3.4 6.5,4.3 0.4,0.9 1.4,3 3.5,2.6 2.1,-0.4 4.8,-2.2 4.1,-3.5 -0.7,-1.3 -1.7,-0.9 -3.8,-1.4 -2.1,-0.5 -5.2,-2.4 -6,-3.7 -0.9,-1.3 -1.7,-4 -1.7,-4 z"
   id="path2826" />

	<path
   style="opacity:0.2"
   d="m 46.3,127.9 c 0,0 0.8,2.9 2.8,4.1 2,1.2 6.1,3.4 6.5,4.3 0.4,0.9 1.4,3 3.5,2.6 2.1,-0.4 4.8,-2.2 4.1,-3.5 -0.7,-1.3 -1.7,-0.9 -3.8,-1.4 -2.1,-0.5 -5.2,-2.4 -6,-3.7 -0.9,-1.3 -1.7,-4 -1.7,-4 z"
   id="path2828" />

	<path
   style="fill:#999999"
   d="m 19.4,120.4 c 0,0 -8.5,-1.5 -12,-8.3 C 4,105.3 5.4,99.8 4.5,98.2 3.6,96.6 1.4,97 0.9,98.8 c -0.5,1.8 -1.2,13.5 4.9,19.8 6.3,6.3 13.8,7.8 13.8,7.8 0,0 1.8,6.3 5.5,8 3.7,1.7 5.1,0.5 5.1,0.5 0,0 -0.9,2 -0.2,3.1 0.7,1 8.4,3.1 9.5,4 1.1,1 2.1,3.8 4.9,2.8 2.8,-1 3.7,-2.1 3,-3.4 -0.7,-1.3 -2.6,-1.8 -4,-1.9 -1.4,-0.1 -6.5,-2.5 -6.5,-2.5 0,0 2.2,-2.1 2.7,-3.7 0.5,-1.6 0.3,-2.7 0.3,-2.7 l 6.9,-2.6 c 0,0 1.2,5.4 1.5,9.2 0.3,3.8 0.5,5.6 0.9,7.4 0.4,1.9 0.2,4.3 3.3,4 3.1,-0.3 4.3,-1.1 3.9,-2.3 -0.4,-1.2 -2.4,-2.4 -2.8,-4.6 -0.4,-2.1 0.1,-12.9 0.4,-14 0.2,-1.1 2.5,-7.1 2.5,-7.1 l 2.5,-0.5 c 0,0 1.1,7.8 1.5,11.3 0.4,3.5 0.7,9.2 0.7,10.4 0,1.2 0.7,2.6 2.2,2.7 1.5,0.2 4.6,-0.8 4.5,-2.1 -0.1,-1.3 -2.3,-3.1 -2.5,-4.6 -0.2,-1.5 -0.5,-14.8 0.9,-19.4 1.4,-4.6 2.4,-7.1 2.4,-7.1 L 60,91.5 c 0,0 -3.5,0.8 -7.9,0.7 -4.5,-0.1 -17.8,-0.1 -25.4,9.5 -7.8,9.7 -7.3,18.7 -7.3,18.7 z"
   id="path2830" />

	<path
   style="fill:#e5e5e5"
   d="m 56.3,120.7 c 0,0 2.5,-2.1 2.7,-4.9 0.2,-2.8 1.8,-5.1 3.2,-6 1.4,-1 6.2,-3.4 6.2,-3.4 0,0 1.3,4.3 -0.5,7.3 -1.8,3 -4.8,5.4 -7.3,6.2 -2.5,0.8 -4.3,0.8 -4.3,0.8 z"
   id="path2832" />

	<path
   style="opacity:0.2"
   d="m 46.8,128 c 0,0 -0.7,-3.1 -1,-5.4 -0.2,-2.4 -0.9,-6 -0.9,-6 0,0 -0.9,2.1 -2.8,3 -1.9,0.9 -3.7,1.3 -5.3,0.6 -1.6,-0.7 -5.4,-2.7 -5.4,-2.7 0,0 5.7,3.8 6.8,6.9 1.2,3.1 1.6,6.3 1.6,6.3 z"
   id="path2834" />

	<path
   style="fill:#999999"
   d="m 58.2,96 c 0,0 -0.5,2.8 0.7,5.7 1.3,2.9 4,5.2 5.4,6.9 1.3,1.6 2.8,3.2 5.8,2.9 3,-0.4 3.2,-1.9 4.1,-3.1 0.9,-1.2 4.1,-5.7 4.6,-8.7 0.5,-3.1 0.1,-5.3 0.1,-5.3 0,0 2.1,-7.3 0.5,-8.2 -1.6,-0.9 -3.2,2.7 -5.1,2.9 -2,0.2 -2.9,-0.3 -5.1,-0.2 -2.2,0.1 -5.7,1 -5.7,1 0,0 -3.3,-3.4 -5.3,-2.7 -2.4,0.9 0,8.8 0,8.8 z"
   id="path2836" />

	<path
   style="fill:#2d3134"
   d="m 69.7,110.5 c -0.6,0 -1.7,-1 -1.6,-1.5 0.1,-0.5 2.9,-0.5 3.1,0.1 0.2,0.5 -0.9,1.4 -1.5,1.4 z"
   id="path2838" />

	<path
   style="fill:#2d3134"
   d="m 72,104.4 c 0,0 0.3,-1.8 1.8,-2.4 1.5,-0.6 2.1,-0.3 2.1,-0.3 0,0 -0.3,1.7 -1.5,2.3 -1.1,0.6 -2.4,0.4 -2.4,0.4 z"
   id="path2840" />

	<path
   style="fill:#2d3134"
   d="m 67.3,104.4 c 0,0 -0.6,-1.8 -2,-2.3 -1.4,-0.5 -2.4,0 -2.4,0 0,0 0.2,1.5 1.4,2 1.2,0.5 3,0.3 3,0.3 z"
   id="path2842" />

	<path
   style="opacity:0.2"
   d="m 72.9,93.3 c 0,0 4.8,-7.5 6.4,-6.9 1.2,0.4 -0.4,8 -0.4,8 0,0 -1.3,-1.2 -3,-1.5 -1.6,-0.3 -3,0.4 -3,0.4 z"
   id="path2844" />

	<path
   style="opacity:0.2"
   d="m 65.2,93.2 c 0,0 -5.3,-6.3 -6.9,-5.8 -2.2,0.7 -0.1,8.6 -0.1,8.6 0,0 1.6,-2.1 2.9,-2.6 1.3,-0.5 4.1,-0.2 4.1,-0.2 z"
   id="path2846" />

</g>
  </g>
</svg>
