<?xml version="1.0" encoding="UTF-8" standalone="no"?>
<svg
   xmlns:dc="http://purl.org/dc/elements/1.1/"
   xmlns:cc="http://creativecommons.org/ns#"
   xmlns:rdf="http://www.w3.org/1999/02/22-rdf-syntax-ns#"
   xmlns:svg="http://www.w3.org/2000/svg"
   xmlns="http://www.w3.org/2000/svg"
   id="svg8"
   version="1.1"
   viewBox="0 0 266.66669 99.999999"
   height="100mm"
   width="266.66666mm">
  <defs
     id="defs2" />
  <metadata
     id="metadata5">
    <rdf:RDF>
      <cc:Work
         rdf:about="">
        <dc:format>image/svg+xml</dc:format>
        <dc:type
           rdf:resource="http://purl.org/dc/dcmitype/StillImage" />
        <dc:title></dc:title>
      </cc:Work>
    </rdf:RDF>
  </metadata>
  <g
     transform="translate(-47.923483,-94.65767)"
     id="layer1">
    <g
       transform="matrix(0.26458333,0,0,0.26458333,112.6786,130.55759)"
       id="g1195">
      <path
         style="opacity:0.2"
         d="m 27.8,120.5 c 2.9,-4.4 6.5,-4.8 17.4,-1.4 10.9,3.4 33.9,-1.9 42.7,1.3 8.8,3.1 32,7.3 36.2,9.8 4.2,2.6 11.4,6.6 -1.5,15 -12.9,8.4 -29.6,5.3 -34.5,2.5 -4.9,-2.8 -5.3,-3.7 -9.3,-2.5 -6.6,2.1 -10.9,5.3 -21.4,0.1 -9.4,-4.6 -8.1,-15.3 -14.6,-18 -6.5,-2.7 -18,-2.4 -15,-6.8 z"
         id="path1149" />
      <path
         style="fill:#262626"
         d="m 88.1,143.9 c -0.1,2 -1,3 0.2,3.4 1.2,0.4 18.6,1.5 20.5,1.5 3.2,0 8.1,-1.9 9.8,-3.5 1,-1 1.5,-5.7 -3.6,-6.8 -5.1,-1.2 -12.8,1.3 -12.8,1.3 z"
         id="path1151" />
      <path
         style="fill:#ffffff"
         d="m 95.2,143.8 c 3.5,0.5 10.5,1.6 13.7,1.5 3.5,-0.1 8.3,-1.1 8.5,-2.9 0.2,-1.4 -0.9,-3.8 -6.2,-3 C 108,139.9 99.9,139 99.9,139 Z"
         id="path1153" />
      <path
         style="fill:#262626"
         d="m 107.6,143.6 c 2.4,0.1 11.8,-1 13.6,-1.5 3.3,-0.9 6.4,-4.3 6.6,-7.5 0.2,-3.2 -2.4,-7.5 -6.4,-6.5 -3.5,0.8 -4.5,2.9 -6.3,3.6 -1.8,0.7 -6.9,1.1 -6.9,1.1 l -1.1,10.6 z"
         id="path1155" />
      <path
         style="fill:#ffffff"
         d="m 109,139.7 c 0,0 5.8,0.2 9.5,-0.2 3.5,-0.4 8.8,-3.2 8.4,-7.1 -0.4,-3.9 -4.7,-5 -7.7,-3 -2.8,1.8 -6.3,2.7 -8.3,1.9 -2,-0.8 -1.9,8.4 -1.9,8.4 z"
         id="path1157" />
      <path
         style="fill:#06547a"
         d="m 86.9,146.8 c 0.6,0.3 7.9,-0.5 11.6,-1.4 3.7,-0.9 8.6,-3.6 8.6,-3.6 0,0 -10.6,-26.4 -12.6,-27.8 -2,-1.4 -17,2.8 -17,2.8 l 0.3,12.3 c 0,0 3.1,6.9 5.5,8.3 2.4,1.5 2.6,2.8 2.8,4.3 0.2,1.5 -0.3,4.5 0.8,5.1 z"
         id="path1159" />
      <path
         style="opacity:0.2"
         d="m 86.9,146.8 c 0.6,0.3 7.9,-0.5 11.6,-1.4 3.7,-0.9 8.6,-3.6 8.6,-3.6 0,0 -10.6,-26.4 -12.6,-27.8 -2,-1.4 -17,2.8 -17,2.8 l 0.3,12.3 c 0,0 3.1,6.9 5.5,8.3 2.4,1.5 2.6,2.8 2.8,4.3 0.2,1.5 -0.3,4.5 0.8,5.1 z"
         id="path1161" />
      <path
         style="fill:#06547a"
         d="m 47.3,129.4 c 0,0 2.5,13.1 10.2,16 7.6,2.8 18.5,0.5 23.9,-6 5.4,-6.5 10.1,-18.4 10.1,-18.4 0,0 1.9,4.2 3.2,7.3 1.4,3 4.7,7.2 5.9,8.8 1.2,1.7 2.5,5.4 4,6.5 1.6,1.1 6.1,-0.4 9.6,-3.7 3.5,-3.3 4.4,-6.6 3.6,-8.5 -0.8,-1.9 -2.5,-0.4 -3.6,-2.4 -1.4,-2.4 -5.9,-11.7 -9.2,-19.9 -3.3,-8.2 -3.7,-15.9 -6.3,-18.3 -2.6,-2.4 -6,-7 -13.1,-2.2 -7.2,4.8 -10,14.9 -13,20.7 -2.1,4.2 -3.8,7.9 -3.8,7.9 z"
         id="path1163" />
      <path
         style="fill:#fbd7c7"
         d="m 47.4,122.8 c -1.3,1.2 -2,2.6 -4.1,2.4 -2.1,-0.2 -8,-1.8 -10.1,-1.9 -1.5,-0.1 -2.9,-0.2 -4.1,-0.1 -0.3,0 -1.3,-0.4 -0.2,-0.9 -0.6,0.1 -0.9,-0.1 -0.9,-0.1 -0.6,-0.8 2.6,-1.9 2.1,-1.7 -0.8,0.2 -1.5,0.5 -1.9,0.2 -0.6,-0.5 1.8,-1.7 3.6,-2 1.2,-0.2 2.3,0 2.3,0 0,0 -0.3,-0.2 -1.2,-0.4 -0.9,-0.2 -2.2,0.9 -2.9,0.3 -0.6,-0.5 2.4,-2 3.6,-1.9 1.2,0.1 3.5,1.2 4,1.2 0.5,0 3.7,0 3.7,0 0,0 -0.9,-2.2 -1.2,-3.6 -0.4,-1.4 -1.1,-9.8 -1.1,-9.8 l 7.7,-2.4 z"
         id="path1165" />
      <path
         style="fill:#fbd7c7"
         d="m 57.1,72 c 0,0 -0.9,-3.9 0.3,-5.5 1.2,-1.6 1.3,-2.4 3.3,-2.8 2,-0.5 3.2,-0.7 3.4,-2 0.2,-1.3 1.3,-14 -1.2,-18.1 -2.9,-4.6 -13.1,-8.5 -19,-0.1 -5,7 1.3,13.7 1.5,17 0.2,3.1 -3.1,6.1 -4.9,7.3 -1.8,1.2 0.8,4.5 5,5 4.1,0.6 11.6,-0.8 11.6,-0.8 z"
         id="path1167" />
      <path
         style="fill:#825012"
         d="m 60,43.4 c 0.1,-1 0.6,-1.3 1.3,-1.5 -4,-3.7 -12.4,-5.7 -17.6,1.6 -4.7,6.6 0.7,13 1.4,16.5 0.6,1 1.4,1.8 2.9,2.1 3.9,1 7.5,-5.6 7.5,-6.2 0,-0.6 0,-1.4 1.4,-2.4 1.4,-1 2.4,1 2.4,1 h 1 c 0,0 0.5,-2.1 0.8,-4.8 C 61.5,47 59.8,45 60,43.4 Z"
         id="path1169" />
      <path
         style="fill:#e5e5e5"
         d="m 40.3,67.8 c 0,0 -0.1,2.6 3.4,2.5 3.5,-0.1 10.8,0.1 13.8,1 3,1 11.3,3.3 12.5,4.5 1.8,1.9 -0.6,9.7 -1.7,14.2 -1.1,4.5 -2.3,6.9 -2.1,8.5 0.3,3.3 5.5,13 5.5,13 0,0 -0.9,1.6 -1.7,4.1 -0.6,1.8 -1,3.3 -2.1,4.5 -1,1.2 -8.9,6.3 -13.4,8.5 -3.3,1.6 -6,2.3 -7.1,1.9 -1.2,-0.4 -1.1,-7.9 -3.7,-12.2 -2.6,-4.3 -9.9,-17.5 -11.5,-31.6 -1.4,-12.8 -1,-17.3 2.3,-18.5 3.3,-1.2 5.8,-0.4 5.8,-0.4 z"
         id="path1171" />
      <path
         style="fill:#fbd7c7"
         d="m 98.7,90.8 c 0,0 -2.4,-2.2 -3.7,-1.9 -2,0.5 -2,2.1 -4.4,3.1 -2.4,1 -3.9,0.9 -7.1,0 -3.1,-0.9 -10.1,-1.1 -14.1,-2.2 -3.9,-1 -4.4,-0.9 -4.4,-0.9 0,0 -1.8,-4.4 0.2,-8.4 2,-4.2 3.9,-4.8 4.6,-4.5 0.8,0.3 2.9,3.5 6,4.6 3.1,1 7.8,2.4 10.7,2.5 2.9,0.1 8.6,1.7 9.4,2.8 1,1.1 3.8,4 2.8,4.9 z"
         id="path1173" />
    </g>
    <g
       transform="matrix(-0.26458333,0,0,0.26458333,242.60918,94.602189)"
       id="g871">
      <path
         style="fill:#825012"
         d="m 0,80 v 150 l 4,2 160,-80 V 2 l -4,-2 z"
         id="path815" />
      <path
         style="opacity:0.11000001"
         d="m 0,80 v 150 l 4,2 V 82 Z"
         id="path817" />
      <path
         style="fill:#2d3134"
         d="M 8,84.5 160,8.5 V 147 L 8,223 Z"
         id="path819" />
      <path
         style="opacity:0.28999999"
         d="M 164,2 4,82 v 150 l 160,-80 z"
         id="path821" />
      <path
         style="fill:#825012"
         d="m 174,151 -3,1.5 -7,-3.5 -160,80 v 3 l 12,6 160,-80 v -6 z"
         id="path823" />
      <path
         style="opacity:0.28999999"
         d="m 16,232 v 6 l 160,-80 v -6 z"
         id="path825" />
      <path
         style="opacity:0.11000001"
         d="m 14,231 v 3 L 4,229 v 3 l 12,6 v -6 z"
         id="path827" />
      <path
         style="fill:#28896d"
         d="m 143,155 v 5 l 7,3 12,-6 v -5 l -7,-3 z"
         id="path829" />
      <path
         style="opacity:0.11000001"
         d="m 150,163 -7,-3 v -5 l 7,3 z"
         id="path831" />
      <path
         style="opacity:0.28999999"
         d="m 150,163 12,-6 v -5 l -12,6 z"
         id="path833" />
      <path
         style="fill:#e5e5e5"
         d="m 111,176 v 3 l 2,1 12,-6 v -3 l -2,-1 z"
         id="path835" />
      <path
         style="opacity:0.11000001"
         d="m 113,180 -2,-1 v -3 l 2,1 z"
         id="path837" />
      <path
         style="opacity:0.28999999"
         d="m 113,180 12,-6 v -3 l -12,6 z"
         id="path839" />
      <path
         style="fill:#e5e5e5"
         d="m 87,188 v 3 l 2,1 10,-5 v -3 l -2,-1 z"
         id="path841" />
      <path
         style="opacity:0.11000001"
         d="m 89,192 -2,-1 v -3 l 2,1 z"
         id="path843" />
      <path
         style="opacity:0.28999999"
         d="m 89,192 10,-5 v -3 l -10,5 z"
         id="path845" />
    </g>
    <g
       transform="matrix(0.26458333,0,0,0.26458333,197.92106,106.90531)"
       id="g938">
      <path
         style="opacity:0.2"
         d="M 73.8,231.5 C 91,221.9 78,214.5 62,206.8 44.2,198.3 37.1,195 21.4,205.2 c -9.5,6.1 -2.5,16 13.8,23.6 18.5,8.6 26.4,9.5 38.6,2.7 z"
         id="path873" />
      <path
         style="fill:#262626"
         d="m 21.8,214.7 c 0,2.1 -0.1,5.9 3.8,5.9 3.9,0 5.9,-2.9 6.2,-3.8 0.3,-1 -0.1,-3 1.3,-3.8 1.3,-0.8 6.3,-2.5 6.6,-7.1 0.4,-4.9 -1.8,-5 -3.5,-5 -1.7,0 -5.9,0.3 -5.9,0.3 z"
         id="path875" />
      <path
         style="opacity:0.5"
         d="m 38.2,201.2 c 1.2,1.5 1,3.9 0.1,5.7 -1.9,3.6 -6.4,3.1 -6.8,5.2 -0.4,2.1 -2.7,5.6 -5.4,6 -2,0.3 -3.2,-0.3 -4.2,-1.2 0.2,1.8 1,3.6 3.8,3.6 4,0 5.9,-2.9 6.2,-3.8 0.3,-1 -0.1,-3 1.3,-3.8 1.3,-0.8 6.3,-2.5 6.6,-7.1 0.2,-2.9 -0.6,-4.1 -1.6,-4.6 z"
         id="path877" />
      <path
         style="fill:#656565"
         d="m 21.2,126.7 c -0.3,6 1.4,21.3 1.2,32.8 -0.2,11.5 -2.8,43.9 -2.5,47.7 0.3,3.8 -0.3,8.8 3.8,9.6 3.2,0.6 7.4,-1.8 9,-4.3 1.6,-2.5 2.6,-6.2 2.7,-10.5 0.1,-4.3 9.4,-58.5 9.5,-60.7 0.1,-2.2 -1,-13.8 -1,-13.8 z"
         id="path879" />
      <path
         style="opacity:0.3"
         d="m 21.2,126.7 c -0.3,6 1.4,21.3 1.2,32.8 -0.2,11.5 -2.8,43.9 -2.5,47.7 0.3,3.8 -0.3,8.8 3.8,9.6 3.2,0.6 7.4,-1.8 9,-4.3 1.6,-2.5 2.6,-6.2 2.7,-10.5 0.1,-4.3 9.4,-58.5 9.5,-60.7 0.1,-2.2 -1,-13.8 -1,-13.8 z"
         id="path881" />
      <path
         style="fill:#fbd7c7"
         d="m 50.1,28.7 c 2.5,1 4.3,3.8 4.8,10.3 0.5,6.5 0,11.6 -1.5,12.3 -1.5,0.7 -2.5,0.4 -2.5,0.4 L 52,58.8 35.2,54.1 c 0,0 0.3,-4 -0.6,-6.4 -0.9,-2.4 -3.5,-11.3 -0.8,-15.2 2.7,-3.9 8.3,-6.9 16.3,-3.8 z"
         id="path883" />
      <path
         style="fill:#fbd7c7"
         d="m 10.4,115 c 0,0 -0.8,7 -0.5,8.7 0.3,1.7 3.5,9.6 5.3,10 1.8,0.4 3.6,-1 3.4,-2.3 -0.2,-1.2 -2,-3.3 -2.2,-5.4 -0.2,-2.2 -0.1,-5.3 0.8,-5.7 0.9,-0.5 2.9,2 3.8,3.1 0.9,1.1 2.5,0.7 2.5,-0.2 0,-0.9 -1.9,-2.6 -2.3,-4.1 -0.4,-1.5 -1.2,-2.7 -2.3,-4 -1.1,-1.3 -1.5,-2.3 -1.5,-2.3 z"
         id="path885" />
      <path
         style="fill:#ffffff"
         d="m 9.1,112.9 c 0,0 -0.6,3.1 0.5,3.8 0.9,0.5 4.5,1.2 6.8,0.3 2,-0.8 3.1,-1.5 3.3,-2.2 0.2,-0.7 -0.8,-2 -0.8,-2 z"
         id="path887" />
      <path
         style="fill:#262626"
         d="m 48.9,225.5 v 4.1 c 0,0 0.1,2.9 4.3,2.6 4.2,-0.3 6.4,-1.2 6.6,-1.5 0.2,-0.3 0.7,-1.1 0.7,-1.1 0,0 7.3,0.6 12.4,-1.6 5.4,-2.3 8.6,-7.3 4,-9.4 -2.8,-1.3 -4.4,0.3 -8.6,-0.2 -4.5,-0.5 -7.1,-2.7 -7.1,-2.7 z"
         id="path889" />
      <path
         style="opacity:0.5"
         d="m 73,227.8 c 5.4,-2.3 8.6,-7.3 4,-9.4 4.8,4.5 -4.5,8.7 -8.6,9 -2.7,0.2 -8.6,0.5 -12.4,1.3 -3.1,0.6 -6.2,0.4 -7.1,-0.8 v 1.7 c 0,0.8 0.1,2.9 4.3,2.6 4.2,-0.3 6.4,-1.2 6.6,-1.5 0.2,-0.3 0.7,-1.1 0.7,-1.1 0,0 7.3,0.4 12.5,-1.8 z"
         id="path891" />
      <path
         style="fill:#656565"
         d="m 38.3,129.7 c -0.4,6.2 2.3,19.4 3.4,26.9 1,7.4 2.9,38.8 3.7,46.6 0.6,6.3 2.7,23.4 3.9,24.3 1.2,0.9 9.6,-0.3 13.1,-2.6 2.3,-1.6 4.9,-4.7 4.5,-6.8 -0.4,-2.1 -3.1,-4.1 -3.5,-14.9 -0.3,-10.8 0.9,-30.2 0.6,-45 -0.3,-14.8 -1,-31.6 -1,-31.6 z"
         id="path893" />
      <path
         style="opacity:0.15"
         d="m 38.3,129.7 c -0.4,6.2 2.3,19.4 3.4,26.9 1,7.4 2.9,38.8 3.7,46.6 0.6,6.3 2.7,23.4 3.9,24.3 1.2,0.9 9.6,-0.3 13.1,-2.6 2.3,-1.6 4.9,-4.7 4.5,-6.8 -0.4,-2.1 -3.1,-4.1 -3.5,-14.9 -0.3,-10.8 0.9,-30.2 0.6,-45 -0.3,-14.8 -1,-31.6 -1,-31.6 z"
         id="path895" />
      <path
         style="fill:#656565"
         d="m 17.5,57.2 c -1.2,1.4 -2,5.5 -2.3,7.6 -0.3,2.1 -5.7,19.4 -6.6,22.7 -0.9,3.4 -0.8,9.1 -0.6,14.4 0.2,5.3 0.2,11.7 0.3,12.7 0.1,1 4,2 6.9,1.6 2.9,-0.4 4.6,-1.2 4.9,-3.6 0.3,-2.4 1.8,-13.9 3.8,-18.1 2,-4.2 4.9,-11.7 4.9,-11.7 z"
         id="path897" />
      <path
         style="opacity:0.15"
         d="m 17.5,57.2 c -1.2,1.4 -2,5.5 -2.3,7.6 -0.3,2.1 -5.7,19.4 -6.6,22.7 -0.9,3.4 -0.8,9.1 -0.6,14.4 0.2,5.3 0.2,11.7 0.3,12.7 0.1,1 4,2 6.9,1.6 2.9,-0.4 4.6,-1.2 4.9,-3.6 0.3,-2.4 1.8,-13.9 3.8,-18.1 2,-4.2 4.9,-11.7 4.9,-11.7 z"
         id="path899" />
      <path
         style="fill:#656565"
         d="m 35.1,50.6 -3.6,0.8 0.1,0.9 c 0,0 -5.5,-0.7 -9.4,1.4 -3.9,2.1 -6.2,4 -5.6,7.3 0.6,3.4 3.9,15.1 6.1,21.1 2.2,6 3.5,9.3 2.9,14.2 -0.6,4.9 -7.1,27.8 -6.7,31.3 0.4,3.5 5.8,6.2 12.5,7.9 6.9,1.8 31.9,3.2 32.4,-1.9 0.5,-5.1 0.5,-18.9 0.5,-18.9 0,0 -0.6,-22.5 -0.6,-30.4 C 63.7,76.4 64,70.7 60.5,67 57,63.3 52.9,58.1 49.7,56.9 45.4,55.3 34.4,55.6 35.1,50.6 Z"
         id="path901" />
      <path
         style="opacity:0.2"
         d="m 32.5,51.2 c 0,0 0.1,5.2 7.4,6.1 6.9,0.9 19,8.5 19,8.5 0,0 -13.1,-7.2 -18.9,-7.7 -8.8,-0.7 -8.4,-6.8 -8.4,-6.8 z"
         id="path903" />
      <path
         style="fill:#762c07"
         d="m 48.6,44.1 c 0.1,0.8 1,-1.3 1.7,-3.1 0.7,-1.9 2,-4.3 2.7,-7 0.7,-2.7 1.3,-1.7 1.4,-2.9 0.1,-1.2 -5.7,-8.9 -16.4,-5.2 -10.7,3.7 -8,16 -7.1,19.4 1,3.4 4.1,7.3 7.1,7.3 3,-0.1 6.5,-2.4 6.9,-6.8 0.4,-4.4 3.6,-3.5 3.7,-1.7 z"
         id="path905" />
      <path
         style="fill:#fbd7c7"
         d="m 107,61.3 c 0,0 1.1,-1.2 1.3,-2.5 0.1,-1.3 -0.6,-5.7 0.4,-7.6 1,-1.8 1.5,-4.1 2.1,-4.6 0.9,-0.9 1.3,-3.4 2.1,-3.4 0.8,0 1.4,1 0.7,3.5 -0.7,2.5 -1.6,4.9 -1.6,4.9 0,0 3,-2 4.2,-5 0.8,-2.2 -0.1,-4.4 1,-4.5 1.1,-0.1 5.1,1.2 5.8,4.2 0.7,3 0.5,5.7 -0.6,8.8 -1.3,3.5 -3.9,7.8 -5.8,8.3 -1.8,0.5 -4.6,2.9 -4.6,2.9 z"
         id="path907" />
      <path
         style="fill:#656565"
         d="m 54.1,66.9 c 0,0 3.9,-0.7 5.9,0 2,0.7 4.1,3.5 8.4,5.5 4.3,2 15.1,5.5 15.1,5.5 0,0 8.6,-5.9 12.5,-9.3 3.9,-3.4 10.6,-9.6 10.6,-9.6 l 8,8.1 c 0,0 -14.4,16.1 -16.8,18.4 -2.4,2.3 -7.8,6.5 -10.6,6.9 -2.8,0.4 -26,-2.1 -26,-2.1 0,0 -8.2,-4.7 -8.4,-10.9 -0.1,-6.1 1.3,-12.5 1.3,-12.5 z"
         id="path909" />
    </g>
    <g
       transform="matrix(-0.26458333,0,0,0.26458333,181.86714,122.11738)"
       id="g1074">
      <path
         style="opacity:0.2"
         d="m 92.9,182.3 c 7.3,4.5 7.9,9.9 -1.6,15 -10.4,5.6 -16.5,4.4 -24.6,-0.3 -7.1,-4.1 -5.5,-9.7 6.5,-14.4 9.6,-3.9 14.5,-3.5 19.7,-0.3 z"
         id="path940" />
      <path
         style="opacity:0.2"
         d="m 90,199.9 40,20 40,-20 -40,-20 z"
         id="path942" />
      <path
         style="fill:#fbd7c7"
         d="m 128.6,129.7 c 0.4,3.6 -15.7,11.4 -18.6,18.3 -3.8,9.1 -9,14.1 -11.2,18.1 -2,3.7 -5.4,8.6 -6,10.6 -0.6,2.4 2.1,3.9 -0.1,5.3 -1.8,1.2 -0.9,-0.7 -9.7,1.8 -11.8,3.3 -9,-2.4 -3.2,-3 2.1,-0.2 3.9,-4.7 5.7,-8 2.5,-4.7 5.3,-11.7 7.6,-19.5 3.6,-12.1 5.4,-17.9 7.3,-23.2 2.1,-5.8 6.7,-4.8 11.4,-4.6 5.5,0.1 16.3,0.6 16.8,4.2 z"
         id="path944" />
      <path
         style="fill:#656565"
         d="m 92.8,177.2 c 0,0 2,2.6 1.6,4.7 -0.3,2.1 -2.2,5.2 -2.3,6.4 -0.1,1.2 -0.3,3 -0.3,3 l -1.7,0.8 -1.4,-0.8 c 0,0 1.1,-4.9 0,-5.8 -1.1,-0.9 -4.6,1.4 -7,1.8 -2.3,0.3 -7.7,-0.7 -9.7,-1.7 -2,-1 -0.1,-3.4 1.8,-4.3 2.5,-1.1 6.4,-0.5 6.4,-0.5 0,0 -1.3,0.3 -2.8,1.6 -2.8,2.3 4.2,3.4 11.1,-1.5 2.9,-2.2 4.3,-3.7 4.3,-3.7 z"
         id="path946" />
      <path
         style="fill:#fbd7c7"
         d="m 100.6,142.5 c -1.7,8.7 -5.6,15.1 -11.1,27.1 -4.4,9.6 -5.5,12.9 -5.3,14.5 0.2,1.9 2.6,2.5 0.9,4.6 -2.3,2.8 -8.1,2.7 -10.8,3.7 -3.1,1.2 -6.9,1.3 -7.7,-0.2 -0.8,-1.5 0.1,-3.7 3.5,-3.3 2.9,0.3 5.3,-4.3 6.4,-6.3 1,-2 3.7,-14.5 6.4,-26.8 3.2,-14.6 3.8,-18.1 5.1,-21.2 1.7,-4.2 10.1,-8.2 21.3,-5.3 9.3,2.6 -7.6,7.1 -8.7,13.2 z"
         id="path948" />
      <path
         style="fill:#656565"
         d="m 84.4,184.7 c 0,0 2.1,2 1.9,4.4 -0.2,2.4 -2.4,4.9 -2.9,6.7 -0.5,1.9 -0.4,3.2 -0.4,3.2 l -1.8,0.7 -1.7,-0.9 c 0,0 1.9,-5.2 0.4,-5.7 -1.5,-0.5 -6.6,2.9 -9.6,2.6 -2.9,-0.2 -6.5,-4.2 -6.4,-5.6 0.1,-1.4 3.4,-2.6 5.3,-2.3 1.9,0.3 2.6,0.8 2.6,0.8 0,0 -3,1 -3.5,1.9 -0.5,0.9 0.4,1.7 1.6,2 2.4,0.7 4.9,-1.3 9.1,-4.1 3.7,-2.4 5.4,-3.7 5.4,-3.7 z"
         id="path950" />
      <path
         style="fill:#825012"
         d="m 128,154.9 36,18 2,-1 v -2 l -36,-18 -2,1 z"
         id="path952" />
      <path
         style="opacity:0.11000001"
         d="m 128,154.9 36,18 v -2 l -36,-18 z"
         id="path954" />
      <path
         style="fill:#825012"
         d="m 166,199.9 2,1 2,-1 v -42 l -4,-2 -4,2 z"
         id="path956" />
      <path
         style="opacity:0.11000001"
         d="m 166,199.9 2,1 -2,-41 -4,-2 z"
         id="path958" />
      <path
         style="opacity:0.28999999"
         d="m 168,200.9 2,-1 v -42 l -4,2 z"
         id="path960" />
      <path
         style="fill:#825012"
         d="m 90,199.9 2,1 2,-1 4,-42 -4,-2 -4,2 z"
         id="path962" />
      <path
         style="opacity:0.11000001"
         d="m 90,199.9 2,1 2,-41 -4,-2 z"
         id="path964" />
      <path
         style="opacity:0.28999999"
         d="m 92,200.9 2,-1 4,-42 -4,2 z"
         id="path966" />
      <path
         style="fill:#825012"
         d="m 131,181.9 2,1 32,-16 v -2 l -2,-1 -32,16 z"
         id="path968" />
      <path
         style="opacity:0.11000001"
         d="m 131,181.9 2,1 v -2 l -2,-1 z"
         id="path970" />
      <path
         style="opacity:0.28999999"
         d="m 133,182.9 32,-16 v -2 l -32,16 z"
         id="path972" />
      <path
         style="fill:#825012"
         d="m 94,171.9 36,18 2,-1 v -2 l -36,-18 -2,1 z"
         id="path974" />
      <path
         style="opacity:0.11000001"
         d="m 94,171.9 36,18 v -2 l -36,-18 z"
         id="path976" />
      <path
         style="fill:#825012"
         d="m 128,218.9 2,1 2,-1 2,-43 -4,-2 -4,2 z"
         id="path978" />
      <path
         style="opacity:0.11000001"
         d="m 128,218.9 2,1 v -42 l -4,-2 z"
         id="path980" />
      <path
         style="opacity:0.28999999"
         d="m 130,219.9 2,-1 2,-43 -4,2 z"
         id="path982" />
      <path
         style="fill:#825012"
         d="m 90,152.9 v 6 l 40,20 40,-20 v -6 l -40,-20 z"
         id="path984" />
      <path
         style="opacity:0.11000001"
         d="m 130,178.9 -40,-20 v -6 l 40,20 z"
         id="path986" />
      <path
         style="opacity:0.28999999"
         d="m 130,178.9 40,-20 v -6 l -40,20 z"
         id="path988" />
      <path
         style="fill:#2d3134"
         d="m 151.5,119.8 c 0,0 7,11.6 8.3,17.8 1.9,8.9 -0.6,18.6 -9.6,21.9 -9.7,3.6 -18.1,4.3 -29.3,0.6 -11.2,-3.7 -23.1,-10.7 -25.5,-11.8 -4.3,-2 -7.8,-10.8 -1.3,-16 3,-2.4 11.7,-6.5 15.4,-6.7 6,-0.4 13.3,1 13.3,1 l 0.8,-1.3 z"
         id="path990" />
      <path
         style="fill:#fbd7c7"
         d="m 88.3,124.3 c 0,0 -5.9,-1.3 -6.9,-3.2 -1,-1.9 -0.6,-3.9 1.1,-5.9 1.7,-2 4.5,-3.8 6.1,-3.2 1.6,0.6 4.5,3.6 4.4,4.1 -0.1,0.4 -4.7,8.2 -4.7,8.2 z"
         id="path992" />
      <path
         style="fill:#3399cc"
         d="m 120.8,79.8 c -5.4,2.8 -9.3,9.6 -9.8,17.6 -0.5,8 -5.3,17.2 -5.3,17.2 0,0 -11,-0.9 -13.4,-0.2 -2.3,0.7 -6.1,4 -5.1,8.5 1,4.6 3.9,4.9 9.2,4.8 5.4,-0.1 11.2,1.2 14.5,-0.9 3.3,-2.1 7.9,-10.6 7.9,-10.6 0,0 -0.1,9.5 -1.6,13.3 -0.6,1.4 8,4.7 17.2,2.9 9.2,-1.8 18.5,-6.2 18.8,-6.5 0.3,-0.3 0.5,-0.1 1.2,-0.9 0.7,-0.8 -0.3,-17.3 -0.3,-17.3 0,0 5.6,1.4 6.9,-1.9 1.2,-3.3 0,-10.4 -2.4,-16 -2.4,-5.6 -0.1,-15.8 -6.2,-18.7 -6.2,-2.9 -8.9,2.2 -14.7,3.4 -5.8,1.2 -16.9,5.3 -16.9,5.3 z"
         id="path994" />
      <path
         style="fill:#fbd7c7"
         d="m 124.7,44.3 c -3.4,1.6 -4.4,4.8 -4.3,11.2 0.1,6.4 1.3,10.3 1.9,11.3 0.6,1 4.6,1.9 5.7,3.4 1.1,1.5 2.1,4.5 1.7,5.2 -0.9,1.4 -2.3,2 -2.3,2 0,0 7.8,1.6 12.6,-0.8 3.1,-1.5 2.7,-3.5 2,-4.1 -0.7,-0.6 -2.1,-3.5 -1.7,-5.1 0.4,-1.7 7,-9 3.8,-16.3 -3.7,-8.9 -12.5,-10.2 -19.4,-6.8 z"
         id="path996" />
      <path
         style="fill:#762c07"
         d="m 128.8,69.5 c -2.8,-1.2 -6.2,-9.9 -6.2,-9.9 0,0 -0.5,1.3 -0.3,4.5 -1.9,-1 -4.9,-13.6 -0.5,-18.5 8.3,-9.2 16.7,-7 19.7,-4.3 -3,-0.8 -3.5,-0.1 -3.7,-0.3 0,0 9,1.6 11.3,10.7 2,8.2 -1.2,13 -2.8,15 -0.1,-1.2 -0.8,-3.4 -0.8,-3.4 0,0 0.6,8.5 -5.8,11 -9,-1.7 -10.9,-10 -10.9,-10 0,0 -0.6,1.8 0,5.2 z"
         id="path998" />
      <path
         style="fill:#825012"
         d="m 162,152.9 4,2 4,-2 v -48 l -4,-2 -4,2 z"
         id="path1000" />
      <path
         style="opacity:0.11000001"
         d="m 162,152.9 4,2 v -48 l -4,-2 z"
         id="path1002" />
      <path
         style="opacity:0.28999999"
         d="m 166,154.9 4,-2 v -48 l -4,2 z"
         id="path1004" />
      <path
         style="fill:#825012"
         d="m 131,134.9 2,1 32,-16 v -9 l -2,-1 -32,16 z"
         id="path1006" />
      <path
         style="opacity:0.11000001"
         d="m 131,134.9 2,1 v -9 l -2,-1 z"
         id="path1008" />
      <path
         style="opacity:0.28999999"
         d="m 133,135.9 32,-16 v -9 l -32,16 z"
         id="path1010" />
      <path
         style="fill:#825012"
         d="m 131,147.9 2,1 32,-16 v -5 l -2,-1 -32,16 z"
         id="path1012" />
      <path
         style="opacity:0.11000001"
         d="m 131,147.9 2,1 v -5 l -2,-1 z"
         id="path1014" />
      <path
         style="opacity:0.28999999"
         d="m 133,148.9 32,-16 v -5 l -32,16 z"
         id="path1016" />
      <path
         style="fill:#825012"
         d="m 126,170.9 4,2 4,-2 v -48 l -4,-2 -4,2 z"
         id="path1018" />
      <path
         style="opacity:0.11000001"
         d="m 126,170.9 4,2 v -48 l -4,-2 z"
         id="path1020" />
      <path
         style="opacity:0.28999999"
         d="m 130,172.9 4,-2 v -48 l -4,2 z"
         id="path1022" />
    </g>
    <g
       transform="matrix(-0.26458333,0,0,0.26458333,196.86902,130.21364)"
       id="g1147">
      <path
         style="opacity:0.2"
         d="m 76.6,185.2 c -11.7,-7 0.8,-12.1 17.6,-17.6 11.7,-3.8 12.3,-12.8 28.2,-2.7 12.8,8.1 -10.3,12.4 -16.8,15.4 -9,4.3 -13.8,14 -29,4.9 z"
         id="path1076" />
      <g
         style="fill:#2d3134"
         id="g1084">
        <path
           d="m 124,168.7 c -0.1,1.5 -1,4.1 -3.7,4 -2.7,-0.1 -4.9,-1.9 -6.4,-3.7 -1.5,-1.8 -6.8,-4.1 -6.4,-7.8 0.3,-3.8 3.5,-3.7 5.3,-2.9 1.6,0.7 11.4,7.7 11.2,10.4 z"
           id="path1078" />
        <path
           d="m 96.8,156.9 35.8,17.6 c 0.9,0.4 1.9,0.4 2.7,0 l 0.9,-0.5 c 0.7,-0.4 0.7,-1.4 0,-1.8 L 99.4,154.3 c -0.3,-0.1 -0.6,-0.1 -0.9,0 l -1.8,0.9 c -0.7,0.3 -0.6,1.3 0.1,1.7 z"
           id="path1080" />
        <path
           d="m 134,138.4 35.8,17.6 c 0.9,0.4 1.9,0.4 2.7,0 l 0.9,-0.5 c 0.7,-0.4 0.7,-1.4 0,-1.8 l -36.8,-17.9 c -0.3,-0.1 -0.6,-0.1 -0.9,0 l -1.8,0.9 c -0.7,0.3 -0.7,1.4 0.1,1.7 z"
           id="path1082" />
      </g>
      <path
         style="opacity:0.2"
         d="m 98.6,197.4 29,14.5 c 3.7,1.9 8.1,1.9 11.8,0 l 29,-14.5 c 2.1,-1.1 2.1,-4 0,-5.1 l -30.1,-15 c -3,-1.5 -6.6,-1.5 -9.7,0 l -30.1,15 c -2,1 -2,4 0.1,5.1 z"
         id="path1086" />
      <path
         style="fill:#2d3134"
         d="m 133,214.1 c -1.8,0 -3.5,-0.4 -5.2,-1.2 L 98.1,198.5 C 95.6,197.3 94,194.7 94,191.9 v -38.7 c 0,-1.1 0.9,-2 2,-2 1.1,0 2,0.9 2,2 v 38.7 c 0,1.3 0.7,2.4 1.9,3 l 29.7,14.4 c 2.2,1.1 4.7,1.1 6.9,0 l 30.6,-14.9 c 0,0 0.1,0 0.1,-0.1 0,-0.1 0,-0.1 -0.1,-0.1 l -30.7,-13.7 c -2.6,-1.2 -4.3,-3.8 -4.3,-6.7 v -4.6 c 0,-1.1 0.9,-2 2,-2 1.1,0 2,0.9 2,2 v 4.6 c 0,1.3 0.8,2.5 2,3 l 30.7,13.7 c 1.5,0.7 2.4,2.1 2.4,3.7 0,1.6 -0.9,3.1 -2.3,3.8 l -30.6,14.9 c -1.7,0.8 -3.5,1.2 -5.3,1.2 z"
         id="path1088" />
      <path
         style="opacity:0.2;fill:#ffffff"
         d="m 167.6,191.5 -30.7,-13.7 c -1.3,-0.6 -2.3,-1.7 -2.6,-3 -0.4,0 -0.7,0 -1,-0.1 0.4,1.8 1.6,3.3 3.3,4.1 l 30.7,13.7 c 0.6,0.3 0.9,0.8 1,1.4 0,0.6 -0.3,1.2 -0.9,1.5 l -30.6,14.9 c -2.6,1.3 -5.6,1.3 -8.2,0 L 98.9,195.9 c -1.6,-0.8 -2.7,-2.5 -2.7,-4.3 v -38.7 c 0,-0.3 -0.2,-0.5 -0.5,-0.5 -0.3,0 -0.5,0.2 -0.5,0.5 v 38.7 c 0,2.2 1.3,4.3 3.3,5.2 l 29.7,14.4 c 1.4,0.7 3,1.1 4.5,1.1 1.6,0 3.1,-0.4 4.6,-1.1 l 30.6,-14.9 c 0.9,-0.4 1.5,-1.4 1.5,-2.4 0,-1 -0.9,-2 -1.8,-2.4 z"
         id="path1090" />
      <path
         style="fill:#ff9900"
         d="m 94,150.2 v 4 l 40,20 40,-20 v -4 l -40,-20 z"
         id="path1092" />
      <path
         style="opacity:0.11000001"
         d="m 134,174.2 -40,-20 v -4 l 40,20 z"
         id="path1094" />
      <path
         style="fill:#2d3134"
         d="m 94,180 c 0,0 0.2,3.7 0,6 -0.1,1.3 -1.3,2.2 -6,0.6 -4.7,-1.6 -11.4,-3.8 -12.9,-6.5 -1.5,-2.7 0.8,-4.8 3.4,-4.8 2.6,0.1 8,0 8.7,0.3 0.8,0.3 6.8,4.4 6.8,4.4 z"
         id="path1096" />
      <path
         style="fill:#06547a"
         d="m 137.6,133.2 c 1.4,2.2 4.2,9.5 0.6,15.1 -2.7,4.2 -6.2,4.9 -9.1,4.7 -3.6,-0.3 -8.9,-6.5 -8.9,-6.5 0,0 -12.4,-6 -13,-8.4 -0.6,-2.4 -1.6,-8 1,-10.4 2.6,-2.4 7,-3.4 12.1,-1.6 5.1,1.8 14.3,2.2 17.3,7.1 z"
         id="path1098" />
      <path
         style="opacity:0.2"
         d="m 137.6,133.2 c 1.4,2.2 4.2,9.5 0.6,15.1 -2.7,4.2 -6.2,4.9 -9.1,4.7 -3.6,-0.3 -8.9,-6.5 -8.9,-6.5 0,0 -12.4,-6 -13,-8.4 -0.6,-2.4 -1.6,-8 1,-10.4 2.6,-2.4 7,-3.4 12.1,-1.6 5.1,1.8 14.3,2.2 17.3,7.1 z"
         id="path1100" />
      <path
         style="fill:#06547a"
         d="m 131.6,137.3 c 3.1,2.5 4,14.3 -3,18.1 -6.9,3.9 -18.8,0.8 -22.6,-0.3 -3.8,-1.1 -12,-2.2 -12,-2.2 0,0 0,15.5 0,20 0,4.5 0,12 0,12 0,0 -11.4,-0.9 -12.6,-4 -1.2,-3.1 -1,-4.5 -0.8,-7 0.2,-2.6 -1.2,-19 -1.6,-23.7 -0.4,-4.8 0.2,-9.5 4.7,-11.2 4.5,-1.7 14.8,-3.5 20.5,-3.4 5.7,0.1 22.3,-2.5 27.4,1.7 z"
         id="path1102" />
      <path
         style="fill:#fbd7c7"
         d="m 122.6,65.6 c 5.5,1.9 10.2,7 7.4,14.1 -2.7,7.1 -5.6,8.7 -3.6,11.3 2,2.6 4.5,1.8 4.5,1.8 0,0 -0.9,3.6 -6.3,5.1 -5.4,1.5 -11.6,-0.4 -11.6,-0.4 0,0 2.3,-1.2 2.4,-2.6 0.1,-1.5 -0.2,-5.2 -1.6,-6.2 -1.4,-1 -4.8,-3.8 -5.2,-7.3 -0.4,-3.5 -0.8,-10.7 2.4,-13.3 3.2,-2.6 6.3,-4.3 11.6,-2.5 z"
         id="path1104" />
      <path
         style="fill:#762c07"
         d="m 112.2,83.3 c 0,0 -1.4,-0.8 -1.4,-3.1 0,-2.4 0,-4.5 -1.4,-4.9 -1.4,-0.5 -2.6,-1.8 -1.8,-5 0.8,-3.2 9.5,-11 19,-5.1 8.4,5.3 5.1,15.1 3.1,18.7 -2.1,3.6 -3.8,5.2 -6.4,5.4 -2.6,0.1 -7.1,-2 -7.8,-4.9 -0.7,-2.9 -1.2,-3.7 -2.4,-3.6 -1.1,0.1 -0.9,2.5 -0.9,2.5 z"
         id="path1106" />
      <path
         style="fill:#fbd7c7"
         d="m 107.4,119.2 c 0,0 -4.5,12.7 -5.7,13.5 -1.3,0.8 -7.3,2.9 -7.8,2.9 -0.5,0 -1.3,1.1 -2.9,1.4 -2.1,0.4 -5.3,1.7 -6.7,1.7 -1.4,0 -3.4,-0.4 -3,-2.1 0.5,-1.6 3.7,-3.6 5.7,-3.6 2,0 3,-0.5 3,-0.5 0,0 6.6,-4.4 7.2,-5.2 0.6,-0.8 3.6,-11.5 3.6,-11.5 z"
         id="path1108" />
      <path
         style="fill:#e5e5e5"
         d="m 126.8,91.2 c 0,0 4,-4.1 7.6,-2.3 3.7,1.8 3.8,6.2 3.6,10.4 -0.2,4.2 -2.2,18.1 -1.6,24.2 0.6,6.1 3.9,10.9 3.1,12.3 -0.8,1.4 -6.8,5.3 -15.6,5.9 -8.7,0.7 -15.2,-6.2 -15.2,-6.2 0,0 0.7,-11 0.7,-12 0,-1 -0.3,-6.7 -0.3,-6.7 0,0 -0.7,2.6 -1.3,2.9 -0.6,0.3 -8,-2.7 -8.1,-4 -0.1,-1.3 2.6,-11.7 4.7,-14 2.1,-2.3 9.8,-5.4 9.8,-5.4 0,0 4,1.6 9.3,-0.3 5.2,-1.8 3.3,-4.8 3.3,-4.8 z"
         id="path1110" />
      <path
         style="fill:#ff9900"
         d="m 178,102.2 -4,-2 -40,20 -1.6,6.4 c -1.6,6.4 -2.4,12.9 -2.4,19.5 v 22.1 l 4,2 40,-20 v -22.1 c 0,-6.6 0.8,-13.1 2.4,-19.5 z"
         id="path1112" />
      <path
         style="opacity:0.11000001"
         d="m 138,122.2 -4,-2 -1.6,6.4 c -1.6,6.4 -2.4,12.9 -2.4,19.5 v 22.1 l 4,2 v -22.1 c 0,-6.6 0.8,-13.1 2.4,-19.5 z"
         id="path1114" />
      <path
         style="opacity:0.28999999"
         d="m 138,122.2 -1.6,6.4 c -1.6,6.4 -2.4,12.9 -2.4,19.5 v 22.1 4 l 40,-20 v -4 -22.1 c 0,-6.6 0.8,-13.1 2.4,-19.5 l 1.6,-6.4 z"
         id="path1116" />
    </g>
    <g
       transform="matrix(-0.26458333,0,0,0.26458333,186.02032,152.81865)"
       id="g1203">
	<path
   style="opacity:0.2"
   d="M 26.8,139.9 C 16.4,135.4 -1,128.6 13.7,119.6 c 13.8,-8.4 27.4,2.7 37.1,7.9 5.7,3 4.4,11.8 8.7,17 6.3,7.5 19.5,12.6 17.5,13.3 -4.2,1.4 -11.9,-1.6 -21.8,-9.6 -9.4,-7.8 -14.6,-2.4 -28.4,-8.3 z"
   id="path1197" />

	<path
   style="fill:#999999"
   d="m 10,66.4 h 5.3 c 0,0 4.6,-5.4 6.5,-4.9 1.9,0.5 1.8,5.3 1.3,7.5 -0.4,2.3 -1,3.3 -1,4 0,0.7 -0.3,3.6 -0.3,3.6 0,0 18.3,13.4 24.2,22.6 5.9,9.2 9.8,20.5 10.6,25.5 0.7,5 -0.1,10.1 0.4,11.9 0.4,1.7 5.1,8.2 10.7,12.2 4.5,3.2 5.5,3.2 5.5,3.2 0,0 1.3,-2.2 3.4,-1.3 2.1,0.9 2.3,6.3 -1.6,6.7 -3.9,0.4 -12,-4.1 -16.8,-8.7 -4.2,-4.1 -7.3,-8.6 -7.3,-8.6 0,0 -3.5,3.5 -10.1,2.2 -6.6,-1.3 -9.3,-6.5 -9.3,-6.5 0,0 -0.5,1.6 -1.7,1.7 -1.2,0.1 -5.9,-2.8 -8.4,-3.6 -2.5,-0.8 -6,-2.5 -4.4,-5.2 1.6,-2.7 3.8,-0.9 4.3,-0.1 0.5,0.8 1.1,1.6 1.1,1.6 l 1.8,0.3 c 0,0 -3.7,-8.6 -1.5,-11.9 2.2,-3.3 6.4,-2 6.4,-2 L 18.5,106.5 c 0,0 -0.9,10.5 -0.9,12.8 0,2.3 -0.4,6.5 -0.8,7.6 -0.4,1 -2.8,1.7 -4.4,1.1 -1.7,-0.6 -2.7,-2.2 -1.8,-3.5 1,-1.3 2.3,-0.9 2.3,-1.5 0.1,-0.6 -0.4,-14.1 -0.9,-16.1 -0.5,-2 -3.4,-8.1 -3.1,-12.3 0.3,-4.2 1.4,-6.7 1,-7.5 C 9.5,86.3 3.8,82.4 2.8,75.9 1.8,69.4 1.1,61.9 3.2,61.3 5.5,60.9 10,66.4 10,66.4 Z"
   id="path1199" />

	<path
   style="opacity:0.2"
   d="m 18.6,106.5 0.4,-6.4 c 0,0 4.9,5.9 7.2,8.5 2.3,2.6 9.1,12 9.1,12 0,0 -2.6,-2.3 -4,-3.1 -1.4,-0.7 -2,-1 -2,-1 z"
   id="path1201" />

</g>
  </g>
</svg>
