<?xml version="1.0" encoding="UTF-8" standalone="no"?>
<svg
   xmlns:dc="http://purl.org/dc/elements/1.1/"
   xmlns:cc="http://creativecommons.org/ns#"
   xmlns:rdf="http://www.w3.org/1999/02/22-rdf-syntax-ns#"
   xmlns:svg="http://www.w3.org/2000/svg"
   xmlns="http://www.w3.org/2000/svg"
   id="svg2369"
   version="1.1"
   viewBox="0 0 69.691246 81.358612"
   height="81.358612mm"
   width="69.691246mm">
  <defs
     id="defs2363" />
  <metadata
     id="metadata2366">
    <rdf:RDF>
      <cc:Work
         rdf:about="">
        <dc:format>image/svg+xml</dc:format>
        <dc:type
           rdf:resource="http://purl.org/dc/dcmitype/StillImage" />
        <dc:title></dc:title>
      </cc:Work>
    </rdf:RDF>
  </metadata>
  <g
     transform="translate(-99.655863,-118.61041)"
     id="layer1">
    <g
       id="g3263"
       transform="matrix(-0.79374999,0,0,0.79374999,182.04711,117.83897)">
      <path
         id="path3243"
         d="m 24.5,61.8 c -6.5,4 -6.9,8.7 1.4,13.2 9.2,4.9 14.6,3.9 21.7,-0.3 6.2,-3.6 4.8,-8.5 -5.7,-12.8 C 33.5,58.6 29.1,59 24.5,61.8 Z"
         style="opacity:0.2" />
      <path
         id="path3245"
         d="m 39.7,61.7 c -0.1,1.1 -1.5,7.6 -2.3,8.7 -0.8,1.1 -5.8,4.2 -5.8,4.2 l 5.2,-1.7 1.2,3.1 0.7,-3.4 4.1,-1.8 -3.4,-0.3 c 0,0 1.5,-4.9 1.9,-6.2 0.4,-1.3 0.6,-2.5 0.6,-2.5 z"
         style="fill:#baa794" />
      <path
         id="path3247"
         d="m 32.6,58.1 c 0,0 -1.7,7.3 -2.1,8.1 -0.4,0.9 -6.1,3.6 -6.1,3.6 l 5,-1.4 0.7,3 1.3,-3 4.1,-1.3 -3,-0.6 c 0,0 1.4,-5.4 1.8,-6.8 0.4,-1.4 0.2,-1.9 0.2,-1.9 z"
         style="fill:#baa794" />
      <path
         id="path3249"
         d="m 25.5,25.8 c 3.9,-2.7 11.7,-4.7 16.2,-4.3 4.5,0.4 12.4,2.8 13.5,4.6 1.1,1.9 7.9,16.1 0.4,25.6 -4.5,5.7 -9.1,5.7 -9.1,5.7 0,0 -1.3,4.9 -5.3,4.9 -3.6,0 -5.8,-3.6 -5.8,-3.6 0,0 -1.5,0.3 -3.3,-0.1 -1.9,-0.4 -3.3,-2.5 -3.3,-2.5 0,0 -8.9,-0.6 -10.8,-10.4 -2.1,-11 2.9,-16.7 7.5,-19.9 z"
         style="fill:#825012" />
      <path
         id="path3251"
         d="M 41.4,22.3 C 41,21.6 43.4,16.5 45.2,11.2 47,5.6 47.4,1.6 49,1.4 c 1.6,-0.2 1.9,1.5 1.9,1.5 0,0 0.5,-2.2 2.1,-1.9 1.6,0.3 1.3,2.5 1.3,2.5 0,0 0.6,-1.1 1.9,-0.3 1.3,0.7 0.5,3.2 0.5,3.2 0,0 0.9,-1.1 2,-0.4 1.6,0.9 1.7,8.8 1.2,13.7 -0.7,7.2 -2.2,12.3 -2.2,12.3 0,0 -3.7,-6.2 -7.8,-7 -4.1,-0.8 -7.6,-0.9 -8.5,-2.7 z"
         style="fill:#762c07" />
      <path
         id="path3253"
         d="m 20.2,16.9 c 0.6,-1 2.7,-3.4 5.3,-2.3 2.6,1.1 4.6,4.2 6.4,7.7 1.8,3.5 2.1,5.4 4,6.9 1.1,0.9 5.2,2.6 5.2,2.6 l -6.4,0.6 0.2,4.1 -5,-2.1 -1.5,5.2 -3.5,-4.4 -4.1,4.2 -0.1,-4.4 -3.5,1.6 c 0,0 1.2,-1.8 1.9,-3.3 3.5,-7.7 -0.8,-13.5 1.1,-16.4 z"
         style="fill:#762c07" />
      <path
         id="path3255"
         d="m 17.8,18.3 c -1.3,0.6 -1.8,4.9 -1.8,4.9 0,0 2,-1.4 3.4,-1.8 1.5,-0.4 -0.5,-3.6 -1.6,-3.1 z"
         style="fill:#baa794" />
      <path
         id="path3257"
         d="m 19.6,18 c 1.1,0 0.9,-1.3 2.7,-2.8 1.5,-1.3 2.6,-1.8 2.6,-2.6 0,-1.4 -2.5,-2 -2.7,-0.7 -0.1,0.7 -1.1,-0.5 -2,0.3 -0.8,0.6 -0.3,1.5 -0.5,1.8 -0.1,0.3 -1.4,0.2 -1.9,1 -0.4,0.8 -0.1,3 1.8,3 z"
         style="fill:#cc291f" />
      <path
         id="path3259"
         d="m 19.9,20.5 c -1.3,0.4 -2.2,2.7 -0.5,3.7 1.9,1.2 3,-2.8 3,-2.8 0,0 3.4,-2.1 3,-3.2 C 25,17.1 20.5,18 20.5,18 c 0,0 -1.8,-0.4 -2.7,0.3 -0.9,0.7 -0.9,1.1 -0.9,1.1 0,0 1.2,-0.3 2.2,0.2 1,0.5 0.8,0.9 0.8,0.9 z"
         style="fill:#cc291f" />
      <path
         id="path3261"
         d="m 23.3,18.2 c 0.6,-0.2 1.1,0.9 0.3,1.1 -0.7,0.3 -1.1,-0.8 -0.3,-1.1 z"
         style="fill:#2d3134" />
    </g>
    <g
       id="g3343"
       transform="matrix(0.26458333,0,0,0.26458333,96.85128,138.82043)">
      <path
         id="path3283"
         d="m 119.4,180.6 c 14.5,8.7 25,3.3 40.8,-3.7 17.5,-7.7 27.1,-19.8 18.5,-24.9 -8.6,-5.1 -22.6,-1.2 -37.5,4.9 -13.8,5.6 -31.1,18.2 -21.8,23.7 z"
         style="opacity:0.2" />
      <path
         id="path3285"
         d="m 23.4,206.9 c -9.5,5.8 -10.2,12.8 2.1,19.4 13.5,7.2 21.4,5.7 31.9,-0.4 9.2,-5.3 7.1,-12.5 -8.4,-18.7 -12.5,-5 -18.8,-4.4 -25.6,-0.3 z"
         style="opacity:0.2" />
      <path
         id="path3287"
         d="m 11.7,114.9 c 0.2,6.2 2.3,21.9 3.8,26.3 1.5,4.4 3.2,11.2 2.5,14.8 -0.7,3.6 -3,9.6 -1.7,18 1.4,8.3 5.5,21.2 4.6,26.9 -0.9,5.7 -2.7,8.4 -0.8,10.1 1.9,1.7 2.9,3 6.6,2.8 3.6,-0.2 4,0.2 6.6,1.5 2.6,1.3 9,0.5 9.4,-1.8 0.4,-2.3 -7.5,-1.3 -9.1,-4.1 -1.7,-2.8 -4.3,-9.3 -3.4,-15.6 0.9,-6.3 2.9,-23.1 2.9,-28.2 0.1,-3.8 2.4,-17.3 4.3,-24.6 2.5,-9.3 4.3,-29.6 4.3,-29.6 l -26.3,-9.6 c 0,-0.1 -3.9,6.1 -3.7,13.1 z"
         style="opacity:1;fill:#fbd7c7" />
      <g
         id="g3293">
        <path
           id="path3289"
           d="m 19.9,205.3 c 0,0 3,1.4 5,2.2 2.7,1.2 7.6,-0.8 7.6,-0.8 0,0 0.8,2.3 2.2,2.6 1.4,0.3 6.6,-0.5 7.8,0.1 1.2,0.6 4.6,1.6 2.2,3.5 -2.4,1.8 -7.9,4.4 -10.4,3.9 -2.6,-0.5 -7.2,-1.8 -8.4,-1.4 -1.2,0.4 -0.5,4.5 -0.5,4.5 l -2,1 -2.4,-1.2 c 0,0 0,-1.4 -0.3,-3 -0.4,-1.6 -2.1,-2.3 -2.1,-5.2 -0.1,-2.9 1.3,-6.2 1.3,-6.2 z"
           style="opacity:1;fill:#e5e5e5" />
        <path
           id="path3291"
           d="m 18.5,211.9 c 0.1,2.6 1.7,3.3 2.1,4.7 0.4,1.6 0.3,3 0.3,3 l 2.4,1.2 2,-1 c 0,0 -0.7,-4.1 0.5,-4.5 1.2,-0.4 5.9,0.9 8.4,1.4 2.6,0.5 8,-2 10.4,-3.9 0.7,-0.5 0.9,-1.1 0.8,-1.6 -1.4,1.1 -6.1,5.5 -14.1,3.5 -4.7,-1.1 -7.8,-0.9 -12.8,-2.8 z"
           style="opacity:0.4" />
      </g>
      <path
         id="path3295"
         d="m 30.3,110.3 c 0,0 -4.7,7.4 -2.9,14 1.8,6.7 3.7,8.3 3.7,8.3 0,0 1.4,7.9 2.6,11.2 1.2,3.3 4.6,13.3 4.3,15.2 -0.3,1.9 -3.9,10.6 -3.5,17 0.4,6.4 1.9,20 2.4,25.5 0.4,5.3 0.8,6.7 -0.2,9.3 -1,2.7 -3.4,7.2 0.8,8.6 4.2,1.4 6.3,-0.1 9.3,2 3,2.1 8,2.8 9.8,0.5 1.8,-2.3 -3,-3.3 -3.7,-3.5 -0.7,-0.2 -4.3,-4.4 -5.1,-9.6 -0.9,-5.9 0.1,-19.1 1.5,-24.5 1.4,-5.4 1.4,-14.1 1.7,-16.5 0.3,-2.4 5.9,-16.9 5.9,-25.6 0,-8.7 -3.8,-26.1 -3.8,-26.1 z"
         style="opacity:1;fill:#fbd7c7" />
      <path
         id="path3297"
         d="m 36.3,211.3 c 0,0 3.3,1.2 5.8,2.3 1.5,0.6 4.5,0.5 5.4,0.3 0.9,-0.3 2,-0.7 2,-0.7 0,0 1.3,3.5 2.3,3.8 0.9,0.3 4.3,-0.7 6,1.1 1.8,1.8 1.3,2.8 0.4,3.9 -0.9,1 -4.4,3.5 -7.1,3 -1.9,-0.4 -7.9,-2.7 -9.1,-2.5 -1.2,0.2 -0.7,4.6 -0.7,4.6 l -2.3,1.1 -2,-1 c 0,0 -0.1,-2.1 -0.7,-3.6 -0.7,-1.4 -1.9,-3.1 -1.9,-6.2 0,-3.1 1.9,-6.1 1.9,-6.1 z"
         style="opacity:1;fill:#e5e5e5" />
      <path
         id="path3299"
         d="m 58.9,219.8 c -0.1,1.9 -5.3,4.8 -7.6,4.1 -6.9,-2.1 -12.6,-3.9 -16.9,-6.3 v 0 c 0,3 1.3,4.6 1.9,6 0.7,1.4 0.7,3.6 0.7,3.6 l 2,1 2.3,-1.1 c 0,0 -0.6,-4.4 0.7,-4.6 1.2,-0.3 7.2,2.1 9.1,2.5 2.6,0.5 6.2,-2 7.1,-3 0.6,-0.7 0.9,-1.3 0.7,-2.2 z"
         style="opacity:0.4" />
      <path
         id="path3301"
         d="m 27.7,113.7 c 0,0 -16,-3.2 -16.1,-2.3 -0.6,7.1 -0.4,16.8 1.2,22.9 1.7,6.8 3.5,16.5 2.9,22.1 -0.7,5.6 -0.8,14.9 0.1,22.6 0.9,7.7 1.8,15.7 1.8,15.7 0,0 3.5,2 7.6,2 4.1,0 6.8,-1 6.8,-1 0,0 1.3,-20.6 1.6,-25.9 0.3,-5.4 2.1,-19.2 2.1,-19.2 0,0 0.8,-16.5 -0.7,-21.7 -1.4,-5.4 -7.3,-15.2 -7.3,-15.2 z"
         style="opacity:1;fill:#06547a" />
      <path
         id="path3303"
         d="m 27.7,113.7 c 0,0 -16,-3.2 -16.1,-2.3 -0.6,7.1 -0.4,16.8 1.2,22.9 1.7,6.8 3.5,16.5 2.9,22.1 -0.7,5.6 -0.8,14.9 0.1,22.6 0.9,7.7 1.8,15.7 1.8,15.7 0,0 3.5,2 7.6,2 4.1,0 6.8,-1 6.8,-1 0,0 1.3,-20.6 1.6,-25.9 0.3,-5.4 2.1,-19.2 2.1,-19.2 0,0 0.8,-16.5 -0.7,-21.7 -1.4,-5.4 -7.3,-15.2 -7.3,-15.2 z"
         style="opacity:0.15" />
      <path
         id="path3305"
         d="m 36.3,159.2 c -0.8,4.8 -2.5,9.4 -2.5,16 0,6.5 1.2,25.5 1.2,25.5 0,0 3.4,1.3 7.2,1.4 3.8,0.1 8.6,-1.2 8.6,-1.2 0,0 -0.3,-20.3 0.3,-24.4 0.5,-4.1 2.7,-13 4.6,-22.3 2.4,-11.4 1.4,-21.7 0,-27.9 -1.4,-6.2 -2.6,-11.8 -2.6,-11.8 0,0 -3.1,-1.8 -7.5,-4 l -21.1,1 c 0,0 -2.3,15.7 0.1,20.6 2.6,5.4 5.3,5.5 7.3,9.2 2.4,4.3 3.8,9.2 3.8,9.2 0,0 1.4,3.8 0.6,8.7 z"
         style="opacity:1;fill:#06547a" />
      <g
         id="g3325">
        <path
           id="path3307"
           d="m 150.7,144.6 c 0.5,2.2 -0.1,6.2 -0.5,7.6 -0.8,2.6 -0.8,4.9 0.1,5.8 1.4,1.5 3.9,1.5 5.5,1 1.6,-0.5 2.9,-2.3 2,-3.6 -0.9,-1.3 -2.3,-1.5 -2.3,-1.5 0,0 0.4,-1.8 0.8,-4 0.5,-2.5 0.3,-5.8 0.3,-5.8 z"
           style="opacity:1;fill:#f8ebcb" />
        <path
           id="path3309"
           d="m 134,146.5 c -0.7,3.5 -2.6,7.7 -4.9,10.6 -2.2,3 -3.5,4.5 -4,6.3 -0.4,1.5 -1.2,6.6 -0.6,7.1 0.6,0.5 2.3,0.4 2.9,2.9 0.4,1.6 -2.5,3.1 -4.7,2.9 -2.1,-0.2 -4.3,-1.2 -4,-4.8 0.3,-3.6 3.5,-26.6 3.5,-26.6 l 8.2,-2 z"
           style="opacity:1;fill:#f8ebcb" />
        <path
           id="path3311"
           d="m 150.7,144.6 c 0.5,2.2 -0.1,6.2 -0.5,7.6 -0.8,2.6 -0.8,4.9 0.1,5.8 1.4,1.5 3.9,1.5 5.5,1 1.6,-0.5 2.9,-2.3 2,-3.6 -0.9,-1.3 -2.3,-1.5 -2.3,-1.5 0,0 0.4,-1.8 0.8,-4 0.5,-2.5 0.3,-5.8 0.3,-5.8 z"
           style="opacity:0.2" />
        <path
           id="path3313"
           d="m 134,146.5 c -0.7,3.5 -2.6,7.7 -4.9,10.6 -2.2,3 -3.5,4.5 -4,6.3 -0.4,1.5 -1.2,6.6 -0.6,7.1 0.6,0.5 2.3,0.4 2.9,2.9 0.4,1.6 -2.5,3.1 -4.7,2.9 -2.1,-0.2 -4.3,-1.2 -4,-4.8 0.3,-3.6 3.5,-26.6 3.5,-26.6 l 8.2,-2 z"
           style="opacity:0.2" />
        <path
           id="path3315"
           d="m 182.5,92.9 c 0,0 3.9,-3.3 4.2,-7.1 0.2,-3 -0.1,-5.2 -0.9,-5.8 -0.8,-0.6 -2.7,-1.1 -4.7,0.1 -2,1.2 -3,1.9 -3.6,1.7 -0.6,-0.2 -1,-2 -3.3,-1.3 -2.3,0.7 -3.9,1.4 -5,1.3 -1.1,-0.1 -2.5,-1 -4.7,1 -2.2,2 -5.5,6 -5.5,7.6 0,1.6 3.1,2.9 3.1,4.2 0.1,1.3 -2.1,7.9 -6.9,14.1 -4.9,6.4 -6.6,8.7 -13.3,11 -6.7,2.3 -13.9,4.9 -17.3,10.5 -3.4,5.6 -3.2,9.4 -3.6,12.4 -1.1,7.6 -3.9,15.2 -8.3,21.9 -1.3,1.9 -2.1,5 1.8,1.9 3.9,-3.1 6.7,-8.4 7.3,-9.7 0.6,-1.3 5.6,-11.3 7.8,-10.8 2.3,0.5 5.5,5.6 5.9,8.8 0.4,3.3 0.1,7.9 -1,10.2 -1.3,2.9 -2.4,6.8 -2.4,10.2 0,3.4 0.6,6 2,7.2 2,1.6 5.6,0.7 6.8,-0.2 1.2,-0.9 0.9,-3.1 -0.6,-3.9 -1,-0.6 -2.1,-0.7 -2.3,-1.5 -0.3,-0.8 0.1,-4.9 1.7,-7.7 1.4,-2.4 6.3,-10.1 8.3,-15.9 2,-5.9 2.2,-7.3 2.2,-7.3 0,0 6.4,0 9.7,-2 3.8,-2.3 5.6,-5.9 6.9,-5 1.3,0.9 1.9,11.6 1.2,16.5 -0.4,3.1 -3.4,6 -1.8,9.2 1,1.9 4.5,2.3 6.6,1.5 2.1,-0.8 2.1,-2.8 1.5,-3.6 -0.6,-0.8 -2.6,-1.4 -2.6,-1.7 0,-0.3 1.3,-2.3 1.8,-4.4 1.1,-4.7 1.4,-13.4 3.5,-19 2.1,-5.6 3.6,-13.1 3.2,-17.6 -0.4,-4.5 -2.3,-4.7 -2,-9.8 0.3,-5.1 2.1,-8.9 2.1,-8.9 0,0 1.1,0.1 1.8,-0.2 0.9,-0.6 0.4,-7.9 0.4,-7.9 z"
           style="opacity:1;fill:#f8ebcb" />
        <path
           id="path3317"
           d="m 182.4,79.5 c 1.3,0 3.8,1.4 4.2,2.9 1.6,-0.8 -0.5,-6.2 -4.2,-2.9 z"
           style="opacity:1;fill:#262626" />
        <path
           id="path3319"
           d="m 181.9,84.5 c 0.2,0.9 -0.3,2.8 -0.3,2.8 0,0 0.9,-1.1 0.8,-1.9 0,-0.7 -0.5,-0.9 -0.5,-0.9 z"
           style="opacity:1;fill:#262626" />
        <path
           id="path3321"
           d="m 163.2,91.6 c 0,0 -0.9,0.3 -1.9,0.1 -0.8,-0.1 -1.6,-0.6 -2.2,-1 0.3,1.4 3,2.7 3.1,3.9 v 0 c 0.5,-1.6 1,-3 1,-3 z"
           style="opacity:0.2" />
        <path
           id="path3323"
           d="m 174.1,96.3 c 2.3,3.7 5.5,5.2 7.8,4.4 0.1,0 -4.1,-0.4 -7.8,-4.4 z"
           style="opacity:0.2" />
      </g>
      <path
         id="path3327"
         d="m 36.9,112 c -0.3,0 -0.6,-0.2 -0.6,-0.5 0,-0.3 0.2,-0.6 0.6,-0.6 l 122.9,-9 c 0,0 0,0 0,0 0.3,0 0.6,0.2 0.6,0.5 0,0.3 -0.2,0.6 -0.6,0.6 l -122.9,9 c 0,0 0,0 0,0 z"
         style="opacity:1;fill:#262626" />
      <path
         id="path3329"
         d="m 17,62.4 c 0,0 -3.7,13 -3.7,15.7 0,2.7 5.4,15.9 5.8,16.8 0.4,0.9 5.2,-4.1 5.2,-4.1 0,0 -2.9,-8.4 -2.9,-10.8 0,-2.4 1.8,-8.2 1.8,-8.2 z"
         style="opacity:1;fill:#fbd7c7" />
      <path
         id="path3331"
         d="m 33.2,50 c -1.3,-0.2 -9,-3.4 -12.8,-1.5 -2.7,1.3 -3.9,3.6 -4,5.7 -0.1,1.7 0.4,5.9 -0.2,8.3 -0.3,1.3 -0.9,4 -0.9,4 l 2.5,1.7 c 0,0 1,8.5 0.4,14.9 -0.6,6.4 -3,15.7 -5.1,20.4 -2.2,5.1 -2.5,9.6 -2.5,16.1 0,8 17.5,12.8 25.5,13 7.7,0.1 22.8,-1.3 22.5,-7.6 -0.8,-14.9 -4,-38.2 -2.3,-41 1.7,-2.8 4,-7.2 1,-11.9 -3,-4.7 -5.6,-6.7 -5.9,-7.7 -0.3,-1 -0.2,-3 -2.4,-5.1 C 46.7,56.7 40.4,51.1 33.2,50 Z"
         style="opacity:1;fill:#993399" />
      <path
         id="path3333"
         d="m 29.8,22.7 c 6.9,-1.6 14.3,0.7 15.6,10.3 1.3,9.6 -1,11.7 -2.1,12.4 -1.1,0.7 -2.4,3.3 -2.9,4.9 -0.5,1.6 0.2,2.6 0.2,2.6 0,0 -7.7,4.5 -12.4,2.7 -4,-1.5 -4.5,-3.5 -2.8,-6.6 1.6,-3.1 -2.3,-5 -3.5,-9.6 -1.2,-4.6 -1.3,-14.6 7.9,-16.7 z"
         style="opacity:1;fill:#fbd7c7" />
      <path
         id="path3335"
         d="m 38.7,20.7 c 3.5,1.1 6.4,6 6.4,6 l -2.6,-1.5 2.5,3.7 -2.3,-1.6 2.2,5 -1.4,-0.7 c 0,0 0.8,1.8 0.3,4.6 -0.3,1.9 -1.4,3.4 -1.4,3.4 v -3.4 c 0,0 -0.3,4.4 -2.5,7.4 0,0 1,-4.5 0.6,-5.2 -0.5,-0.7 -1,1.6 -1,1.6 l -0.7,-2 -0.4,2.1 -1.8,-0.9 c 0,0 0.6,2.2 -1.1,5.6 -1,2 -3.9,4.8 -3.9,4.8 l 0.9,-4.3 -3.6,6.3 -0.9,-3.4 -0.6,2.4 -0.6,-1.8 -0.8,2 c 0,0 -0.9,-3.6 -1.3,-4.4 -0.3,-0.7 -0.8,0.7 -0.8,0.7 L 22,42.5 21.3,43.9 20.5,38.5 19.9,39.6 19.3,34 18.2,35.2 c 0,0 0.2,-5.4 1.9,-7.7 1.2,-1.7 2.4,-2 2.4,-2 l -1.7,-0.1 c 0,0 2.7,-3.9 7,-4.4 3.7,-0.5 4.1,0.3 4.1,0.3 0,0 2.6,-1.9 6.8,-0.6 z"
         style="opacity:1;fill:#656565" />
      <path
         id="path3337"
         d="m 55.5,80.6 c -3.2,1.3 -5.6,0.6 -5.6,0.6 0,0 -0.4,2.2 -0.4,4.2 0,1.2 0.1,3 0.1,3 0,0 3.7,-2 6.7,-4.5 0,0 0,-0.1 0.1,-0.1 0.9,-1.5 2,-3.4 2.3,-5.6 -0.8,1 -1.9,1.9 -3.2,2.4 z"
         style="opacity:0.15" />
      <path
         id="path3339"
         d="m 39,79.3 c 0,0 3.8,0.9 6.4,0.5 2.6,-0.4 4.9,-1.4 4.9,-1.4 0,0 -0.6,5.3 -0.5,9.3 0.1,3.9 -0.2,7.3 1.7,11.8 1.9,4.5 3.1,12.6 4.3,15.1 1.2,2.5 5.2,7.9 5.2,10.1 0,2.2 0,7.3 -0.8,8.6 -0.8,1.2 -4,4.4 -5.4,3.8 -1.4,-0.6 -0.9,-5.5 -0.9,-6.3 0,-0.8 0.8,-4.1 0.2,-5.2 C 53.5,124.5 45.3,112.7 43.7,108.8 42.1,104.9 39.3,97.1 39.1,90.7 39,84.3 39,79.3 39,79.3 Z"
         style="opacity:1;fill:#fbd7c7" />
      <path
         id="path3341"
         d="m 159.9,100.3 c 0,0 5,2.4 9.6,3.2 5.1,0.9 9.7,0.9 9.7,0.9 l -0.8,3.3 c 0,0 -3.1,0.6 -9.4,-0.6 -5.1,-1 -10.9,-3.4 -10.9,-3.4 z"
         style="opacity:1;fill:#262626" />
    </g>
  </g>
</svg>
