<?xml version="1.0" encoding="UTF-8" standalone="no"?>
<svg
   xmlns:dc="http://purl.org/dc/elements/1.1/"
   xmlns:cc="http://creativecommons.org/ns#"
   xmlns:rdf="http://www.w3.org/1999/02/22-rdf-syntax-ns#"
   xmlns:svg="http://www.w3.org/2000/svg"
   xmlns="http://www.w3.org/2000/svg"
   id="svg8"
   version="1.1"
   viewBox="0 0 51.940838 44.651821"
   height="44.651821mm"
   width="51.940838mm">
  <defs
     id="defs2" />
  <metadata
     id="metadata5">
    <rdf:RDF>
      <cc:Work
         rdf:about="">
        <dc:format>image/svg+xml</dc:format>
        <dc:type
           rdf:resource="http://purl.org/dc/dcmitype/StillImage" />
        <dc:title></dc:title>
      </cc:Work>
    </rdf:RDF>
  </metadata>
  <g
     transform="translate(-84.094311,-88.416913)"
     id="layer1">
    <g
       transform="matrix(0.26458333,0,0,0.26458333,84.094311,77.83358)"
       id="g856">
      <ellipse
         style="opacity:0.2"
         cx="80"
         cy="160"
         rx="70"
         ry="35"
         id="ellipse815" />
      <path
         style="fill:#825012"
         d="m 100,80 c -2.8,0 -5,1.1 -5,2.5 l 35,97 c 0,1.4 2.2,2.5 5,2.5 2.8,0 5,-1.1 5,-2.5 l -35,-97 c 0,-1.4 -2.2,-2.5 -5,-2.5 z"
         id="path817" />
      <path
         style="opacity:0.2"
         d="m 100,85 c -2.8,0 -5,-1.1 -5,-2.5 l 35,97 c 0,1.4 2.2,2.5 5,2.5 2.8,0 5,-1.1 5,-2.5 l -35,-97 c 0,1.4 -2.2,2.5 -5,2.5 z"
         id="path819" />
      <path
         style="fill:#825012"
         d="m 100,73 c -2.8,0 -5,1.1 -5,2.5 l 35,63 c 0,1.4 2.2,2.5 5,2.5 2.8,0 5,-1.1 5,-2.5 l -35,-63 c 0,-1.4 -2.2,-2.5 -5,-2.5 z"
         id="path821" />
      <path
         style="opacity:0.2"
         d="m 100,78 c -2.8,0 -5,-1.1 -5,-2.5 l 35,63 c 0,1.4 2.2,2.5 5,2.5 2.8,0 5,-1.1 5,-2.5 l -35,-63 c 0,1.4 -2.2,2.5 -5,2.5 z"
         id="path823" />
      <path
         style="fill:#825012"
         d="m 60,80 c 2.8,0 5,1.1 5,2.5 l -35,97 c 0,1.4 -2.2,2.5 -5,2.5 -2.8,0 -5,-1.1 -5,-2.5 l 35,-97 C 55,81.1 57.2,80 60,80 Z"
         id="path825" />
      <path
         style="opacity:0.2"
         d="m 60,85 c 2.8,0 5,-1.1 5,-2.5 l -35,97 c 0,1.4 -2.2,2.5 -5,2.5 -2.8,0 -5,-1.1 -5,-2.5 l 35,-97 c 0,1.4 2.2,2.5 5,2.5 z"
         id="path827" />
      <path
         style="fill:#825012"
         d="m 60,73 c 2.8,0 5,1.1 5,2.5 l -35,63 c 0,1.4 -2.2,2.5 -5,2.5 -2.8,0 -5,-1.1 -5,-2.5 l 35,-63 C 55,74.1 57.2,73 60,73 Z"
         id="path829" />
      <path
         style="opacity:0.2"
         d="m 60,78 c 2.8,0 5,-1.1 5,-2.5 l -35,63 c 0,1.4 -2.2,2.5 -5,2.5 -2.8,0 -5,-1.1 -5,-2.5 l 35,-63 c 0,1.4 2.2,2.5 5,2.5 z"
         id="path831" />
      <path
         style="fill:#825012"
         d="M 80,40 C 35.8,40 0,57.9 0,80 v 10 c 0,22.1 35.8,40 80,40 44.2,0 80,-17.9 80,-40 V 80 C 160,57.9 124.2,40 80,40 Z"
         id="path833" />
      <path
         style="opacity:0.2"
         d="M 80,120 C 35.8,120 0,102.1 0,80 v 10 c 0,22.1 35.8,40 80,40 44.2,0 80,-17.9 80,-40 V 80 c 0,22.1 -35.8,40 -80,40 z"
         id="path835" />
    </g>
    <g
       transform="matrix(-0.26458333,0,0,0.26458333,136.03202,93.39108)"
       id="g882">
	<path
   style="opacity:0.2"
   d="m 54.4,127.4 c 9.1,5.9 23.5,12.9 10.6,19.8 C 51.3,154.5 33.1,145.9 26.3,138 17.2,127.5 6.9,124 2.4,122.8 c -3.7,-1 -3.8,-3.1 4.4,-1.8 1.4,0.2 11.6,1.5 21.6,2.9 10.2,1.4 23.2,1.7 26,3.5 z"
   id="path858" />

	<path
   style="fill:#999999"
   d="m 46.3,127.9 c 0,0 0.8,2.9 2.8,4.1 2,1.2 6.1,3.4 6.5,4.3 0.4,0.9 1.4,3 3.5,2.6 2.1,-0.4 4.8,-2.2 4.1,-3.5 -0.7,-1.3 -1.7,-0.9 -3.8,-1.4 -2.1,-0.5 -5.2,-2.4 -6,-3.7 -0.9,-1.3 -1.7,-4 -1.7,-4 z"
   id="path860" />

	<path
   style="opacity:0.2"
   d="m 46.3,127.9 c 0,0 0.8,2.9 2.8,4.1 2,1.2 6.1,3.4 6.5,4.3 0.4,0.9 1.4,3 3.5,2.6 2.1,-0.4 4.8,-2.2 4.1,-3.5 -0.7,-1.3 -1.7,-0.9 -3.8,-1.4 -2.1,-0.5 -5.2,-2.4 -6,-3.7 -0.9,-1.3 -1.7,-4 -1.7,-4 z"
   id="path862" />

	<path
   style="fill:#999999"
   d="m 19.4,120.4 c 0,0 -8.5,-1.5 -12,-8.3 C 4,105.3 5.4,99.8 4.5,98.2 3.6,96.6 1.4,97 0.9,98.8 c -0.5,1.8 -1.2,13.5 4.9,19.8 6.3,6.3 13.8,7.8 13.8,7.8 0,0 1.8,6.3 5.5,8 3.7,1.7 5.1,0.5 5.1,0.5 0,0 -0.9,2 -0.2,3.1 0.7,1 8.4,3.1 9.5,4 1.1,1 2.1,3.8 4.9,2.8 2.8,-1 3.7,-2.1 3,-3.4 -0.7,-1.3 -2.6,-1.8 -4,-1.9 -1.4,-0.1 -6.5,-2.5 -6.5,-2.5 0,0 2.2,-2.1 2.7,-3.7 0.5,-1.6 0.3,-2.7 0.3,-2.7 l 6.9,-2.6 c 0,0 1.2,5.4 1.5,9.2 0.3,3.8 0.5,5.6 0.9,7.4 0.4,1.9 0.2,4.3 3.3,4 3.1,-0.3 4.3,-1.1 3.9,-2.3 -0.4,-1.2 -2.4,-2.4 -2.8,-4.6 -0.4,-2.1 0.1,-12.9 0.4,-14 0.2,-1.1 2.5,-7.1 2.5,-7.1 l 2.5,-0.5 c 0,0 1.1,7.8 1.5,11.3 0.4,3.5 0.7,9.2 0.7,10.4 0,1.2 0.7,2.6 2.2,2.7 1.5,0.2 4.6,-0.8 4.5,-2.1 -0.1,-1.3 -2.3,-3.1 -2.5,-4.6 -0.2,-1.5 -0.5,-14.8 0.9,-19.4 1.4,-4.6 2.4,-7.1 2.4,-7.1 L 60,91.5 c 0,0 -3.5,0.8 -7.9,0.7 -4.5,-0.1 -17.8,-0.1 -25.4,9.5 -7.8,9.7 -7.3,18.7 -7.3,18.7 z"
   id="path864" />

	<path
   style="fill:#e5e5e5"
   d="m 56.3,120.7 c 0,0 2.5,-2.1 2.7,-4.9 0.2,-2.8 1.8,-5.1 3.2,-6 1.4,-1 6.2,-3.4 6.2,-3.4 0,0 1.3,4.3 -0.5,7.3 -1.8,3 -4.8,5.4 -7.3,6.2 -2.5,0.8 -4.3,0.8 -4.3,0.8 z"
   id="path866" />

	<path
   style="opacity:0.2"
   d="m 46.8,128 c 0,0 -0.7,-3.1 -1,-5.4 -0.2,-2.4 -0.9,-6 -0.9,-6 0,0 -0.9,2.1 -2.8,3 -1.9,0.9 -3.7,1.3 -5.3,0.6 -1.6,-0.7 -5.4,-2.7 -5.4,-2.7 0,0 5.7,3.8 6.8,6.9 1.2,3.1 1.6,6.3 1.6,6.3 z"
   id="path868" />

	<path
   style="fill:#999999"
   d="m 58.2,96 c 0,0 -0.5,2.8 0.7,5.7 1.3,2.9 4,5.2 5.4,6.9 1.3,1.6 2.8,3.2 5.8,2.9 3,-0.4 3.2,-1.9 4.1,-3.1 0.9,-1.2 4.1,-5.7 4.6,-8.7 0.5,-3.1 0.1,-5.3 0.1,-5.3 0,0 2.1,-7.3 0.5,-8.2 -1.6,-0.9 -3.2,2.7 -5.1,2.9 -2,0.2 -2.9,-0.3 -5.1,-0.2 -2.2,0.1 -5.7,1 -5.7,1 0,0 -3.3,-3.4 -5.3,-2.7 -2.4,0.9 0,8.8 0,8.8 z"
   id="path870" />

	<path
   style="fill:#2d3134"
   d="m 69.7,110.5 c -0.6,0 -1.7,-1 -1.6,-1.5 0.1,-0.5 2.9,-0.5 3.1,0.1 0.2,0.5 -0.9,1.4 -1.5,1.4 z"
   id="path872" />

	<path
   style="fill:#2d3134"
   d="m 72,104.4 c 0,0 0.3,-1.8 1.8,-2.4 1.5,-0.6 2.1,-0.3 2.1,-0.3 0,0 -0.3,1.7 -1.5,2.3 -1.1,0.6 -2.4,0.4 -2.4,0.4 z"
   id="path874" />

	<path
   style="fill:#2d3134"
   d="m 67.3,104.4 c 0,0 -0.6,-1.8 -2,-2.3 -1.4,-0.5 -2.4,0 -2.4,0 0,0 0.2,1.5 1.4,2 1.2,0.5 3,0.3 3,0.3 z"
   id="path876" />

	<path
   style="opacity:0.2"
   d="m 72.9,93.3 c 0,0 4.8,-7.5 6.4,-6.9 1.2,0.4 -0.4,8 -0.4,8 0,0 -1.3,-1.2 -3,-1.5 -1.6,-0.3 -3,0.4 -3,0.4 z"
   id="path878" />

	<path
   style="opacity:0.2"
   d="m 65.2,93.2 c 0,0 -5.3,-6.3 -6.9,-5.8 -2.2,0.7 -0.1,8.6 -0.1,8.6 0,0 1.6,-2.1 2.9,-2.6 1.3,-0.5 4.1,-0.2 4.1,-0.2 z"
   id="path880" />

</g>
  </g>
</svg>
