<?xml version="1.0" encoding="UTF-8" standalone="no"?>
<svg
   xmlns:dc="http://purl.org/dc/elements/1.1/"
   xmlns:cc="http://creativecommons.org/ns#"
   xmlns:rdf="http://www.w3.org/1999/02/22-rdf-syntax-ns#"
   xmlns:svg="http://www.w3.org/2000/svg"
   xmlns="http://www.w3.org/2000/svg"
   width="117.96189mm"
   height="74.080925mm"
   viewBox="0 0 117.96189 74.080923"
   version="1.1"
   id="svg3748">
  <defs
     id="defs3742" />
  <metadata
     id="metadata3745">
    <rdf:RDF>
      <cc:Work
         rdf:about="">
        <dc:format>image/svg+xml</dc:format>
        <dc:type
           rdf:resource="http://purl.org/dc/dcmitype/StillImage" />
        <dc:title></dc:title>
      </cc:Work>
    </rdf:RDF>
  </metadata>
  <rect
     style="fill:#99cc33;fill-opacity:1;stroke-width:0.2903116"
     id="rect4530"
     width="117.96189"
     height="74.080925"
     x="1.0587912e-22"
     y="1.0658141e-14" />
  <g
     transform="matrix(0.79374999,0,0,0.79374999,8.3512845,15.103635)"
     id="g4340">
    <path
       style="opacity:1;fill:#baa794"
       d="m 64,0 -12,4 -4,4 -8,4 -8,8 h -8 l -8,4 -4,4 -12,4 12,4 4,4 8,4 8,8 h 8 l 8,4 4,4 12,4 12,-4 4,-4 8,-4 h 8 l 8,-8 8,-4 4,-4 12,-4 -12,-4 -4,-4 -8,-4 H 96 L 88,12 80,8 76,4 Z"
       id="path4293" />
    <path
       style="opacity:0.11000001"
       d="m 64,0 12,4 4,4 8,4 8,8 h 8 l 8,4 4,4 12,4 -12,4 -4,4 -8,4 -8,8 -8,-8 -8,-4 -4,-4 -12,-4 z"
       id="path4295" />
    <path
       style="opacity:0.28999999"
       d="m 64,0 v 32 l -12,4 -4,4 -8,4 -8,8 -8,-8 -8,-4 -4,-4 -12,-4 12,-4 4,-4 8,-4 h 8 l 8,-8 8,-4 4,-4 z"
       id="path4297" />
    <path
       style="opacity:0.1;fill:#ffffff"
       d="m 16,24 8,-4 v 24 l -8,-4 z"
       id="path4299" />
    <path
       style="opacity:0.1;fill:#ffffff"
       d="m 48,8 4,-4 v 32 l -4,4 z"
       id="path4301" />
    <path
       style="opacity:0.1"
       d="M 52,4 64,0 v 32 l -12,4 z"
       id="path4303" />
    <path
       style="opacity:0.15"
       d="m 40,12 -8,8 v 32 l 8,-8 z"
       id="path4305" />
    <path
       style="opacity:0.1"
       d="M 12,36 0,32 12,28 Z"
       id="path4307" />
    <path
       style="opacity:0.1;fill:#ffffff"
       d="m 112,24 -8,-4 v 24 l 8,-4 z"
       id="path4309" />
    <path
       style="opacity:0.1;fill:#ffffff"
       d="M 80,8 76,4 v 32 l 4,4 z"
       id="path4311" />
    <path
       style="opacity:0.1"
       d="M 76,4 64,0 v 32 l 12,4 z"
       id="path4313" />
    <path
       style="opacity:0.15"
       d="m 88,12 8,8 v 32 l -8,-8 z"
       id="path4315" />
    <path
       style="opacity:0.1"
       d="m 116,36 12,-4 -12,-4 z"
       id="path4317" />
  </g>
  <g
     id="g884"
     transform="matrix(0.26458333,0,0,0.26458333,41.556492,-4.4755305)">
    <path
       id="path848"
       d="m 101.9,233 c 0,0 -13.9,-2.6 -22.7,-5.9 -8.8,-3.3 -13.3,-1.1 -20.1,-0.1 -6.8,1 -11,2.4 -22.7,-8.9 -11.7,-11.3 19.8,-13.2 28.4,-15.3 8.6,-2.1 35.2,-9.8 36.7,2.5 1.6,12.4 0.4,27.7 0.4,27.7 z"
       style="opacity:0.2" />
    <path
       id="path850"
       d="m 72.4,208.9 31.1,-14.5 3.5,8.5 c 2.7,6.6 2.5,14 -0.5,20.5 l -4.6,9.7 -10.3,-3.2 c -6.5,-2 -11.9,-6.6 -15,-12.7 z"
       style="fill:#656565" />
    <path
       id="path852"
       d="m 37.9,210.3 c 0,0 -1.3,4.6 -0.9,5.2 0.4,0.6 4,4.3 4,4.3 0,0 1.1,-0.4 1.8,0.1 0.6,0.5 4.2,8.8 15,6.9 10.2,-1.8 1,-10.8 -0.5,-11.7 -1.5,-0.9 -5.6,-7 -5.6,-7 z"
       style="fill:#825012" />
    <path
       id="path854"
       d="m 57.7,226.9 c 3.8,-0.7 4.9,-2.3 4.7,-4.2 -1,1 -2.6,2.1 -4.9,2.6 -4.7,1 -11.3,-2 -13.3,-5.4 -1.4,-2.4 -5,-5.8 -7,-7.6 -0.3,1.3 -0.6,2.9 -0.4,3.2 0.4,0.6 4,4.3 4,4.3 0,0 1.1,-0.4 1.8,0.1 0.7,0.6 4.3,8.9 15.1,7 z"
       style="opacity:0.5" />
    <path
       id="path856"
       d="m 38.6,70.6 c 0.5,-1.4 7.1,-6.1 9.9,-8.3 2.7,-2.2 8.5,-7.3 10.7,-8.2 2.4,-0.9 5.8,-1 7.9,-0.1 2.2,0.9 6.8,3.4 9.4,4.4 2.6,1 11.3,7.3 15.1,10.3 3.8,3 17,13.4 19.1,19.1 2,5.7 -14.8,14.4 -14.8,14.4 0,0 -3,-0.3 -5.3,5.7 -1,2.6 -1.5,7.8 -1.5,7.8 l -37.8,-0.5 c 0,0 4.9,-21.6 8.1,-29 C 62.6,78.9 66.5,74 66.5,74 66.5,74 65.6,71 65,69.6 64.4,68.2 61.1,66 61.1,66 c 0,0 -3.7,2.1 -6.7,3.6 -3,1.6 -10.6,7.1 -11.3,7.1 -0.7,0 -5.2,-3.8 -4.5,-6.1 z"
       style="fill:#cc291f" />
    <path
       id="path858"
       d="m 89.7,65.9 c 0,0 -0.5,-2.4 -1.7,-1.7 -1.3,0.7 -1.6,6.2 -1.2,6.9 0.4,0.7 1.3,0.4 1,1.3 -0.3,0.9 -0.4,3.8 -1.9,6.4 C 85,80.4 85,93.4 85,93.4 c 0,0 9.5,-4.5 11.4,-5.9 1.9,-1.4 4.7,-3.6 4.9,-4.9 0.2,-1.3 0.7,-2.3 0.7,-2.3 l 1.7,-2.4 c 0,0 3.6,-2.9 4.2,-4.9 0.6,-2 -0.7,-1.7 -0.7,-1.7 0,0 5.7,-12.5 -3.8,-14.7 -9.5,-2.3 -13.7,9.3 -13.7,9.3 z"
       style="fill:#fbd7c7" />
    <path
       id="path860"
       d="m 89.1,69.1 c 0.1,0.3 1.1,-2.2 1.9,-2 0.8,0.1 1.4,-2.4 1.8,-3.2 0.4,-0.8 0.8,-1.6 1.6,-1.2 0.8,0.4 3,3 5.8,4 2.9,1 6.6,-0.2 6.9,0.5 0.3,0.7 -1.8,4.2 -1.8,5 0.1,0.8 0,1.8 0.2,1.8 0.2,0 4.5,-5.3 4.5,-10.5 0.1,-8.5 -13.1,-12.7 -17.3,-6.4 -4.2,6.2 -3.7,11.4 -3.6,12 z"
       style="fill:#762c07" />
    <path
       id="path862"
       d="m 39.2,71.4 c 0,0 -0.9,0.8 -1.9,1.4 -1,0.6 -4.6,2.9 -5.9,4.4 -1.9,2 -2.8,6.5 -1.8,8.4 0.3,0.6 3.1,1.8 4.1,0.8 0.9,-1 1.2,-6.3 1.8,-6.3 0.6,0 1.2,0.7 1.2,0.7 L 42,74 Z"
       style="fill:#fbd7c7" />
    <g
       id="g870">
      <path
         id="path864"
         d="m 83,188.5 c -0.9,2.8 -2.2,4.3 -1.9,5.9 0.3,1.6 5.7,5.9 6.1,5.9 0.4,0 1.8,0 1.8,0 0,0 3.3,4.1 6.8,5.5 3.4,1.4 14,2.7 14.7,-0.9 0.6,-3.6 -0.5,-6.5 -5,-8 -4.5,-1.5 -8.7,-4.2 -9.4,-6.4 -0.7,-2.2 -13.1,-2 -13.1,-2 z"
         style="fill:#825012" />
      <path
         id="path866"
         d="m 110.4,204.8 c 0.1,-0.7 0.2,-1.3 0.2,-2 -2.8,4.7 -15.9,2 -19.8,-2.9 -1.8,-2.2 -6.5,-6 -9,-8.5 -0.5,1.1 -0.9,2 -0.7,2.9 0.3,1.5 5.7,5.9 6.1,5.9 0.4,0 1.8,0 1.8,0 0,0 3.3,4.1 6.8,5.5 3.4,1.4 13.9,2.7 14.6,-0.9 z"
         style="opacity:0.5" />
      <path
         id="path868"
         d="m 83.7,62.8 c 0,0 -6.3,6.4 -9.5,13.5 -1.9,4.3 -5.5,16.6 -5.5,16.6 l -2.2,-0.4 c 0,0 -3.7,12.7 -4,13.5 -0.3,0.8 -9.6,-1.4 -9.6,-1.4 0,0 -2.9,9.3 -3.7,16.7 -0.8,7.4 -4.2,32.1 -5.1,34.7 -0.9,2.5 -1,8.9 -2.5,13.3 -1.5,4.3 -5.5,19.9 -6,25 -0.5,5.1 -0.8,15.7 0.5,16.9 1.3,1.2 9.7,1.7 12.1,1.1 2.4,-0.5 6.4,-1.9 6.4,-3.6 0,-1.7 3.3,-27.5 4.5,-30.6 1.1,-3.1 7,-13.6 8.9,-21.3 1.9,-7.6 3.7,-14.8 4.5,-16.9 0.8,-2.2 2.2,-7.9 2.2,-7.9 0,0 11.8,12.2 15.2,14.7 2.8,2 7.5,6.1 7.5,6.1 0,0 -8.5,13 -10.7,17.3 -2.2,4.3 -6.2,14.7 -6.6,16.3 -0.4,1.7 -0.9,4.1 1.8,4.8 2.7,0.7 9.6,2.3 11.9,2 2.3,-0.3 3.7,-1.1 3.8,-2.4 0.1,-1.3 3.8,-6.4 6.4,-9.8 2.5,-3.4 7.1,-12.4 8.3,-14.9 1.1,-2.5 5.4,-8.9 5.7,-13 0.4,-4 -2.4,-9.6 -7,-15.4 -4.3,-5.5 -15.4,-17.5 -16.6,-19.1 -1.1,-1.7 -2.8,-5.6 -3.6,-7.6 -0.8,-2 0.4,-5.4 1.2,-7.2 0.6,-1.3 1.3,-2.7 1.3,-2.7 l -0.8,-0.8 c 0,0 8.5,-10 10.7,-13.1 2.1,-2.9 4.1,-6.1 4.1,-6.1 l -3.1,-2.2 c 0,0 -0.3,0.8 -3.5,5.5 -3.3,5 -12.1,14 -12.1,14 L 73.3,93.5 c 0,0 2.6,-11.5 5.2,-17 3.3,-7.2 7.9,-12.4 7.9,-12.4 z"
         style="fill:#06547a" />
    </g>
    <path
       id="path872"
       d="m 70.4,141.7 c 0,0 -3.3,0.7 -5,2.6 -1.7,1.9 -3.1,4.1 -3.8,4 -0.7,-0.1 -3,-0.2 -3.7,0.5 -0.8,0.8 -1.4,3.1 0.3,4.6 1.8,1.5 5.7,2.6 7,1.9 1.3,-0.7 5.6,-2.8 6.1,-4.4 0.5,-1.6 2.4,-3.1 2.4,-3.1 l 0.9,-0.5 z"
       style="fill:#fbd7c7" />
    <path
       id="path874"
       d="m 88.4,206.1 c -0.9,0 -1.7,-0.5 -2.1,-1.4 L 24.3,65.4 c -0.5,-1.2 0,-2.5 1.2,-3 1.2,-0.5 2.5,0 3,1.2 l 62,139.3 c 0.5,1.2 0,2.5 -1.2,3 -0.3,0.1 -0.6,0.2 -0.9,0.2 z"
       style="fill:#656565" />
    <path
       id="path876"
       d="m 88.4,206.1 c -0.9,0 -1.7,-0.5 -2.1,-1.4 L 24.3,65.4 c -0.5,-1.2 0,-2.5 1.2,-3 1.2,-0.5 2.5,0 3,1.2 l 62,139.3 c 0.5,1.2 0,2.5 -1.2,3 -0.3,0.1 -0.6,0.2 -0.9,0.2 z"
       style="opacity:0.2" />
    <path
       id="path878"
       d="m 68.3,142.1 c 0.1,0.8 2.3,3.2 4.1,3.9 1.8,0.7 2,2.3 2.4,1.9 0.4,-0.4 17.5,-13 19.8,-15.2 2.3,-2.2 5.2,-8.6 7.5,-13.8 2.2,-5.2 7.6,-12.7 9.5,-17.9 1.8,-5.2 0.5,-11.6 -1,-13.3 -0.8,-1 -14.7,14.5 -14.7,14.5 0,0 -3.7,12.2 -6.5,16.6 -1.4,2.2 -2.9,5.6 -5.7,8.8 -2.9,3.2 -7.1,6.3 -9.4,8.6 -2.3,2.4 -6,5.1 -6,5.9 z"
       style="fill:#cc291f" />
    <path
       id="path880"
       d="m 43,75.2 c 0,0 -0.5,2.5 -1.6,3.8 -1.1,1.4 -4,4.2 -4.5,5 -0.5,0.8 -1.8,2.1 -2.7,1.8 -0.8,-0.4 -0.9,-1.8 0.6,-3.5 0.7,-0.9 1.5,-1.1 1.1,-2.1 -0.4,-1.1 -0.2,-0.9 0.1,-1.9 0.3,-1 5.1,-5.1 5.1,-5.1 L 42,74 Z"
       style="fill:#fbd7c7" />
    <path
       id="path882"
       d="m 68,149 c -0.3,1.1 -1.9,2.7 -2.5,3.6 -0.6,0.9 -1.1,1.7 -0.7,2.2 0.4,0.5 2.1,-0.4 3.8,-1.3 1.7,-0.9 3.2,-1 3.6,-2.7 0.4,-1.7 0.4,-4.1 -1.3,-3.8 -1.8,0.3 -3.1,2.4 -3.1,2.4 z"
       style="fill:#fbd7c7" />
  </g>
  <g
     id="g973"
     transform="matrix(-0.52916666,0,0,0.52916666,45.561121,5.8045505)">
    <path
       id="path947"
       d="M 44,40 52,37 62,31 40,8 34,5 20,4 0,24 l 16,8 6,4 10,4 z"
       style="opacity:1;fill:#baa794" />
    <path
       id="path949"
       d="M 29,7 26,6 18,16 13.2,20 8,28 16,32 22,20.5 25,12 Z"
       style="opacity:0.15;fill:#ffffff" />
    <path
       id="path951"
       d="M 20,4 0,24 8,28 Z"
       style="opacity:0.1" />
    <path
       id="path953"
       d="m 22,36 10,4 4,-31 h -2 l -5,13 -4,5.3 z"
       style="opacity:0.1" />
    <path
       id="path955"
       d="M 44,40 H 32 l 4,-31 2,17 4.1,4 z"
       style="opacity:0.15;fill:#ffffff" />
    <path
       id="path957"
       d="M 52,37 62,31 40,8 Z"
       style="opacity:0.1" />
  </g>
</svg>
