<?xml version="1.0" encoding="UTF-8" standalone="no"?>
<svg
   xmlns:dc="http://purl.org/dc/elements/1.1/"
   xmlns:cc="http://creativecommons.org/ns#"
   xmlns:rdf="http://www.w3.org/1999/02/22-rdf-syntax-ns#"
   xmlns:svg="http://www.w3.org/2000/svg"
   xmlns="http://www.w3.org/2000/svg"
   id="svg3224"
   version="1.1"
   viewBox="0 0 59.61245 70.499222"
   height="70.499222mm"
   width="59.61245mm">
  <defs
     id="defs3218" />
  <metadata
     id="metadata3221">
    <rdf:RDF>
      <cc:Work
         rdf:about="">
        <dc:format>image/svg+xml</dc:format>
        <dc:type
           rdf:resource="http://purl.org/dc/dcmitype/StillImage" />
        <dc:title></dc:title>
      </cc:Work>
    </rdf:RDF>
  </metadata>
  <g
     transform="translate(-88.343584,-110.07279)"
     id="layer1">
    <g
       transform="matrix(0.26458333,0,0,0.26458333,84.450135,135.51291)"
       id="g3804">
      <path
         style="opacity:0.2"
         d="m 209.7,107.5 c 0,0 27.3,5.5 24.9,7.4 -2.4,1.9 -17.2,3.7 -24.6,3.4 -9.9,-0.4 -30.8,4.1 -37.8,7 -9.5,3.8 -18.1,11.7 -20.8,14.1 -2.7,2.4 -15.4,11.1 -23.4,12 -21.1,2.3 -42.2,-5.7 -42.2,-5.7 0,0 -19.5,3 -26.8,7.5 -11.9,7.4 -12.2,2.7 -9.5,0.8 7.4,-5 37.1,-19.7 37.1,-19.7 l 17.7,-8.2 46.9,-9.5 c 0,0 -16.4,9.1 -25.2,11.7 -6.6,1.9 -15,2.3 -20.4,5.6 -4.5,2.7 -12.6,7.5 -12.6,7.5 l 44.6,-3.4 24,-19.2 25.9,-11.4 z"
         id="path3769" />
      <path
         style="fill:#fbd7c7"
         d="m 145.3,118.1 c -3.5,0.6 -8.1,4.1 -12.9,8.1 -4.8,4 -12.3,11.5 -13.7,11.7 -1.4,0.2 -9.5,-3.1 -19.8,-1.9 -10.3,1.2 -19.9,1.4 -22.2,0.4 -2.3,-1 -5.4,-5.2 -9.1,-3.9 -3.8,1.3 -8.5,4.2 -13.4,4.4 -5,0.1 -11.5,1 -11.1,3.4 0.4,2.5 3,6.7 6.8,6.4 3.7,-0.3 13.4,-3.4 19.9,-2.8 6.4,0.6 25.4,6.2 34.9,6.9 9.5,0.7 17.2,0 23.7,-1.4 6.5,-1.4 16.1,-3.3 27.5,-14.8 11.4,-11.5 14.8,-13.4 14.8,-13.4 0,0 -10.1,-5.7 -25.4,-3.1 z"
         id="path3771" />
      <path
         style="opacity:0.15"
         d="m 85.4,136.9 c 2.9,-0.1 6.3,-0.3 9.8,-0.6 -1.9,1 -6,3.6 -8.6,5.6 -1.8,1.4 -3.4,3 -4.5,4.3 -5.3,-1.2 -10,-2.3 -12.6,-2.5 -0.6,-0.1 -1.2,-0.1 -1.8,-0.1 l -0.3,-0.1 z"
         id="path3773" />
      <path
         style="fill:#fbd7c7"
         d="m 44.2,160.7 c 1,2.5 3.8,9 5.8,9.5 2,0.5 2,-0.9 1.8,-2.8 -0.2,-2 0.1,-6.6 2.3,-10.4 2.3,-3.8 13.8,-8.8 21,-11.5 7.2,-2.7 19.2,-8.1 24.5,-11.7 5.3,-3.6 11.1,-2.9 20.9,-5.8 9.8,-2.8 13,-5.4 14.6,-5.3 1.5,0.1 12.8,-1.4 13,-1.4 0.2,0 19.8,0.7 21.8,0 2,-0.7 11.1,-1.2 21.1,-2 9.9,-0.8 15.2,-2.6 19.2,-4.1 4,-1.5 14.2,-2.9 20.2,-3.2 6.6,-0.4 8.7,-2.8 9.5,-5.4 0.8,-2.6 -2.4,-4.8 -7.4,-7 -5,-2.1 -13.6,-4.7 -14.8,-5 -1.2,-0.3 -1.3,-2.3 -1.3,-3.6 0,-0.2 -0.1,-0.5 -0.3,-0.8 0.1,-0.3 0.2,-0.5 0.3,-0.7 0.2,-1 -0.9,-1.5 -0.9,-1.5 0,0 8.1,-8.1 3.4,-12.9 -4.7,-4.8 -8.3,-3.3 -13.3,-0.7 -5,2.5 -7.1,7.4 -7.6,8 0,0 -1.1,0.8 -5,1.1 -1.7,0.1 -3.2,-0.6 -4.4,-1.4 -0.5,-0.5 -1.7,-2.3 -1.9,-2.5 -1.7,-2.1 -3.3,-6.5 -9.4,-5.4 -6.1,1.1 -14.6,14 -20.3,18.5 -5.7,4.4 -13.6,4.5 -26.8,8.7 -13.2,4.2 -24.2,13.9 -29.9,17.8 -5.7,3.9 -12.1,3.6 -20.3,8 -8.3,4.4 -22.2,18 -24.2,19.5 -2,1.5 -4.8,2.7 -6.6,3.4 -2,0.8 -5,0.6 -6,2.8 -0.5,0.8 0,5.3 1,7.8 z M 209.7,101 c -3.7,-0.2 -5.2,-1.9 -7.9,-3.4 0.1,-0.3 0.3,-0.7 0.7,-1.2 0.3,-0.4 1.5,-1.2 2.7,-2 1.5,1.4 3.1,2.6 4.1,3.2 1.8,1.1 6.6,3.2 6.6,3.2 0,0 -2,0.4 -6.2,0.2 z"
         id="path3775" />
      <path
         style="fill:#2d3134"
         d="m 170,121.7 c -1.3,1.4 -3.5,3.5 -5.4,5.6 -5.5,5.9 -15.7,14.1 -15.7,14.1 0,0 -3,-4.2 -6.8,-6.6 -6.9,-4.5 -8.9,-9.5 -8.9,-9.5 l 1.7,-1.9 -3.6,1.1 c 0,0 -2.1,-6.3 -6.7,-9.5 -6.4,-4.4 -5.6,-9 -5.6,-9 0,0 6.3,-4.5 14.3,-7 7.6,-2.4 15.4,-2.8 15.4,-2.8 0,0 2.2,4.1 7,10.2 4.7,6 14.3,15.3 14.3,15.3 z"
         id="path3777" />
      <path
         style="fill:#cc291f"
         d="m 204.8,99.3 c 0,0 -6.4,1 -11.8,6.8 -5.4,5.9 -4.5,13.6 -4.5,13.6 0,0 -12.6,1.1 -16.3,2.8 -3.7,1.7 -9.1,6.6 -9.1,6.6 0,0 -5.3,-5.5 -9.3,-9.8 -5.6,-6 -6.9,-14 -9.4,-17.3 -2.5,-3.3 -5.4,-4.9 -5.4,-4.9 0,0 5.6,-1 11.8,-2.5 7,-1.7 13.5,-8.6 14.7,-9.2 2,-1 19.8,-8.2 19.8,-8.2 l 1.9,2.5 c 0,0 -6.8,3.9 -3.5,10.7 3.3,6.9 8.8,7.9 12.1,7.6 5.6,-0.5 6.4,-0.7 6.4,-0.7 z"
         id="path3779" />
      <path
         style="opacity:0.15"
         d="m 157,92.6 c 2.7,-2.1 6,-6.1 9.4,-9.7 -2,3.2 -5.2,8.6 -5.4,9.5 -0.2,1.3 4.5,5 7.1,13.4 0.3,0.8 0.9,2.2 0.9,2.7 -0.2,1.5 -2.8,0 -3.1,1.5 -0.5,2.4 -2,5.5 -2.4,5.8 -8.8,6 -11.2,-14.1 -11.2,-14.1 l -3.5,-5.3 c 3.2,-0.9 5.9,-2 8.2,-3.8 z"
         id="path3781" />
      <path
         style="fill:#fbd7c7"
         d="m 184.4,76.7 c 0,0 -3.5,-6.8 -9.3,-5.6 -5.8,1.3 -9.7,7.5 -11.6,8.9 -1.9,1.5 -11.4,7.4 -13.5,8.5 -2.1,1.1 -5.1,4 -5.1,5.6 0,1.6 0.7,2.3 2.1,2.1 1.3,-0.1 5.7,1 5.7,1 0,0 -0.3,4.4 0.4,7.3 0.7,2.9 2.5,9.7 4.9,11.6 1.1,0.8 3.2,1 4.7,0.3 1.6,-0.8 2.1,-3.8 1.9,-7.3 -0.2,-3.2 0.1,-4.7 0.1,-4.7 0,0 0.3,2.2 1.1,3.1 0.8,0.9 2.5,1.6 2.8,0.9 0.3,-0.7 -0.6,-1.4 -1.3,-2.7 -0.7,-1.3 -0.9,-4 -2.1,-5.2 -1.1,-1.2 -4.4,-6.4 -5.9,-7 -1.2,-0.5 -2.4,-0.7 -2.4,-0.7 0,0 7.4,-6.7 10.6,-9.4 3.2,-2.7 9.1,-7.2 10.7,-7.5 1.6,-0.4 6.2,0.8 6.2,0.8 z"
         id="path3783" />
      <path
         style="fill:#762c07"
         d="m 216.6,73.2 c 4.6,2.8 5.3,7.4 3,12.9 -2.1,5.1 -5.3,6.4 -7.5,6.9 -1.9,0.4 -4.5,-0.1 -4.5,-0.1 l 4,-1.6 c 0,0 1.1,0.7 2.4,0.4 1.7,-0.4 2.6,-1.8 2.1,-2.7 -0.5,-0.9 -1.7,-0.7 -1.7,-0.7 l -0.6,-0.4 c 0,0 3.9,-3.5 4.7,-6.4 1.6,-6 -1.9,-8.3 -1.9,-8.3 z"
         id="path3785" />
    </g>
    <g
       transform="matrix(0.26458333,0,0,0.26458333,81.089927,106.85854)"
       id="g4150">
      <path
         style="opacity:0.2"
         d="m 38.8,160.9 6.8,-3.6 141.4,71.3 -6.8,3.6 z"
         id="path3806" />
      <path
         style="fill:#cc291f"
         d="m 128.9,116.1 h 3.6 v 48.2 h -3.6 z"
         transform="matrix(0.702,0.7121,-0.7121,0.702,138.7409,-51.285)"
         id="path3808" />
      <path
         style="fill:#cc291f"
         d="m 61.2,141.8 h 55.9 v 2.6 H 61.2 Z"
         transform="matrix(0.8849,0.4657,-0.4657,0.8849,76.911,-25.0529)"
         id="path3810" />
      <path
         style="fill:#2d3134"
         d="m 113.7,156.3 -2.2,-5.1 -8.7,-8.1 -5.8,-4.9 c -0.1,-0.1 -0.2,-0.3 -0.2,-0.5 0,-0.2 0.1,-0.3 0.3,-0.4 l 1.6,-0.7 0.4,0.9 -0.9,0.3 5.2,4.4 8.8,8.1 c 0,0 0.1,0.1 0.1,0.2 l 2.2,5.2 z"
         id="path3812" />
      <path
         style="fill:#fbd7c7"
         d="m 110,74.6 c 0,0 12.5,9.6 16.6,15.2 4.1,5.6 12.5,18.5 13.1,21.2 1,4.4 -0.5,7.9 -6.3,9.9 -4.6,1.6 -16.1,5.5 -18.5,7.2 -2.4,1.7 -4.2,2.6 -4.5,4.5 -0.3,1.9 1.2,6 -0.5,6.8 -1.7,0.8 -10.2,-8.4 -9.9,-10.4 0.3,-1.9 3.2,-2.8 6.3,-4.5 3.2,-1.7 8,-7.2 11.3,-9.5 2.9,-2 7.2,-3.2 7.2,-3.2 0,0 -9.2,-6.8 -14.9,-11.7 C 104.3,95.1 98.6,87 98.6,87 Z"
         id="path3814" />
      <path
         style="fill:#2d3134"
         d="M 101.2,139.5 96,136.9 V 135 l 9.1,-4.6 5.2,2.6 v 2 z"
         id="path3816" />
      <path
         style="opacity:0.11000001"
         d="m 96,135 v 1.9 l 5.2,2.6 v -1.9 z"
         id="path3818" />
      <path
         style="fill:#cc291f"
         d="m 110.3,133 v 2 l -9.1,4.5 v -1.9 z"
         id="path3820" />
      <path
         style="opacity:0.28999999"
         d="m 110.3,133 v 2 l -9.1,4.5 v -1.9 z"
         id="path3822" />
      <path
         style="fill:#cc291f"
         d="m 173.3,184.6 c -0.5,0.1 -1,-0.2 -1.1,-0.7 -4.1,-14.6 -11.7,-41.4 -12.7,-44 -1,-2.5 -7.8,-6 -9,-6.4 l 0.7,-2.8 c 0.5,0.1 9.3,4 10.9,8.2 1.2,3.2 10.1,37.9 11.9,44.5 0.2,0.5 -0.1,1.1 -0.7,1.2 z"
         id="path3824" />
      <path
         style="fill:#656565"
         d="m 148.9,195.4 c -9.3,-18.6 -8.7,-38.1 0.9,-45.1 -0.9,0.2 -1.8,0.6 -2.6,1 -11.5,5.7 -12.8,26.5 -2.8,46.3 9.9,19.8 27.2,31.2 38.7,25.5 0.7,-0.3 1.3,-0.7 1.9,-1.2 -11.3,3 -26.9,-8.1 -36.1,-26.5 z"
         id="path3826" />
      <path
         style="opacity:0.2"
         d="m 148.9,195.4 c -9.3,-18.6 -8.7,-38.1 0.9,-45.1 -0.9,0.2 -1.8,0.6 -2.6,1 -11.5,5.7 -12.8,26.5 -2.8,46.3 9.9,19.8 27.2,31.2 38.7,25.5 0.7,-0.3 1.3,-0.7 1.9,-1.2 -11.3,3 -26.9,-8.1 -36.1,-26.5 z"
         id="path3828" />
      <path
         style="fill:#2d3134"
         d="m 170.3,221.2 h -0.2 l 3.3,-37.1 1.9,-25.7 h 0.2 l -1.9,25.7 z"
         id="path3830" />
      <path
         style="fill:#2d3134"
         d="M 188.9,220.9 173.4,184.2 159,149 l 0.2,-0.1 14.4,35.2 15.5,36.7 z"
         id="path3832" />
      <path
         style="fill:#2d3134"
         d="m 156.3,209.2 -0.2,-0.1 17.3,-25 10.3,-14.4 0.2,0.1 -10.3,14.4 z"
         id="path3834" />
      <path
         style="fill:#2d3134"
         d="m 194.5,205.6 -21.1,-21.4 -30.3,-27.3 0.1,-0.2 30.4,27.3 21,21.5 z"
         id="path3836" />
      <path
         style="fill:#2d3134"
         d="m 193.9,193 -20.5,-8.8 -33.2,-13.7 0.1,-0.2 33.2,13.7 20.5,8.8 z"
         id="path3838" />
      <path
         style="fill:#2d3134"
         d="m 173.5,184.2 -30.7,-0.3 v -0.3 l 30.7,0.4 h 19.4 v 0.2 z"
         id="path3840" />
      <path
         style="fill:#2d3134"
         d="m 148.1,197.8 -0.1,-0.2 25.4,-13.6 13.6,-7.5 0.1,0.2 -13.6,7.5 z"
         id="path3842" />
      <ellipse
         style="fill:#999999"
         cx="173.39999"
         cy="184"
         rx="2.0999999"
         ry="3.5999999"
         transform="matrix(0.8945,-0.4471,0.4471,0.8945,-63.9911,96.9322)"
         id="ellipse3844" />
      <path
         style="fill:#999999"
         d="m 163,186.4 8.5,-4.3 c 1.2,-0.6 1.8,0.3 2.4,1.5 0.6,1.2 0.9,2.2 -0.3,2.8 l -8.5,4.3 z"
         id="path3846" />
      <path
         style="opacity:0.2"
         d="m 174.2,184.1 c -0.1,0.2 -0.3,0.4 -0.7,0.6 l -8.5,4.3 -1.4,-2.9 -0.5,0.3 2.1,4.3 8.5,-4.3 c 1,-0.5 0.9,-1.3 0.5,-2.3 z"
         id="path3848" />
      <g
         style="fill:#2d3134"
         id="g3866">
        <path
           d="m 163.4,216.7 h -0.2 l 0.2,-27.9 1.8,-35.2 h 0.2 l -1.8,35.2 z"
           id="path3850" />
        <path
           d="m 175.3,222.6 -11.9,-33.8 -9.3,-39.1 h 0.2 l 9.3,39 11.9,33.8 z"
           id="path3852" />
        <path
           d="m 151.7,205.4 -0.2,-0.2 11.9,-16.5 14.8,-23.5 0.2,0.1 -14.8,23.5 z"
           id="path3854" />
        <path
           d="m 185.4,221.6 -22,-32.8 -18.4,-34.8 0.2,-0.1 18.4,34.8 21.9,32.8 z"
           id="path3856" />
        <path
           d="m 192.2,214.8 -28.8,-25.9 -23.9,-26.5 0.2,-0.1 23.9,26.4 28.8,26 z"
           id="path3858" />
        <path
           d="m 194.2,202.8 -30.7,-13.9 -24.6,-13.1 0.1,-0.2 24.6,13.1 30.7,13.9 z"
           id="path3860" />
        <path
           d="m 143.2,191.1 v -0.2 l 20.3,-2.2 27.5,-4.1 v 0.3 l -27.5,4 z"
           id="path3862" />
        <path
           d="m 192.6,173.5 c -11.1,-22.2 -31.3,-34.7 -45,-27.8 -13.8,6.9 -15.9,30.5 -4.8,52.7 11.1,22.2 31.3,34.7 45,27.8 13.8,-6.9 15.9,-30.5 4.8,-52.7 z m -9.5,49.5 c -11.5,5.7 -28.8,-5.7 -38.7,-25.5 -9.9,-19.8 -8.6,-40.5 2.8,-46.3 11.5,-5.7 28.8,5.7 38.7,25.5 10,19.9 8.7,40.6 -2.8,46.3 z"
           id="path3864" />
      </g>
      <path
         style="fill:#999999"
         d="m 176.6,225 c -5.4,0 -11.6,-2.7 -17.4,-7.5 -6,-4.9 -11.2,-11.8 -15.2,-19.8 -10,-20 -8.6,-41.1 3.1,-46.9 2,-1 4.3,-1.5 6.7,-1.5 5.4,0 11.6,2.7 17.4,7.5 6,4.9 11.2,11.8 15.2,19.8 10,20 8.6,41.1 -3.1,46.9 -2,1 -4.3,1.5 -6.7,1.5 z m -22.9,-74.7 c -2.3,0 -4.4,0.5 -6.3,1.4 -11.2,5.6 -12.4,26.1 -2.6,45.6 7.9,15.7 20.9,26.7 31.8,26.7 2.3,0 4.4,-0.5 6.3,-1.4 11.2,-5.6 12.4,-26.1 2.6,-45.6 -7.8,-15.7 -20.9,-26.7 -31.8,-26.7 z"
         id="path3868" />
      <ellipse
         style="fill:#999999"
         cx="163.60001"
         cy="188.8"
         rx="2.0999999"
         ry="3.5999999"
         transform="matrix(0.8945,-0.4471,0.4471,0.8945,-67.1622,93.071)"
         id="ellipse3870" />
      <path
         style="fill:#ffffff"
         d="m 108.7,122.6 c 0,0 -1.5,3.9 0.2,6 1.7,2 2.6,2.3 2.6,2.3 0,0 -1.4,1.4 -0.7,2.6 0.7,1.1 1.8,3.8 -0.4,5 -2.3,1.1 -9.8,-5 -9.8,-7.2 0,-2.2 0.9,-5.4 0.9,-5.4 0,0 2.4,-0.3 4.1,-1 1.7,-0.9 3.1,-2.3 3.1,-2.3 z"
         id="path3872" />
      <path
         style="fill:#656565"
         d="M 40.6,141.1 C 31.3,122.5 31.9,103 41.5,96 c -0.9,0.2 -1.8,0.6 -2.6,1 -11.5,5.7 -12.8,26.5 -2.8,46.3 9.9,19.8 27.2,31.2 38.7,25.5 0.7,-0.3 1.3,-0.7 1.9,-1.2 -11.3,3 -26.9,-8.2 -36.1,-26.5 z"
         id="path3874" />
      <path
         style="opacity:0.2"
         d="M 40.6,141.1 C 31.3,122.5 31.9,103 41.5,96 c -0.9,0.2 -1.8,0.6 -2.6,1 -11.5,5.7 -12.8,26.5 -2.8,46.3 9.9,19.8 27.2,31.2 38.7,25.5 0.7,-0.3 1.3,-0.7 1.9,-1.2 -11.3,3 -26.9,-8.2 -36.1,-26.5 z"
         id="path3876" />
      <path
         style="fill:#2d3134"
         d="m 61.9,166.9 -0.2,-0.1 3.3,-37 1.9,-25.7 h 0.2 l -1.8,25.7 z"
         id="path3878" />
      <path
         style="fill:#2d3134"
         d="M 80.6,166.6 65.1,129.9 50.7,94.7 l 0.2,-0.1 14.4,35.2 15.5,36.7 z"
         id="path3880" />
      <path
         style="fill:#2d3134"
         d="m 47.9,154.9 -0.1,-0.1 17.3,-25.1 10.3,-14.3 0.2,0.1 -10.3,14.4 z"
         id="path3882" />
      <path
         style="fill:#2d3134"
         d="m 86.1,151.3 -21,-21.4 -30.3,-27.4 0.1,-0.1 30.3,27.3 21.1,21.5 z"
         id="path3884" />
      <path
         style="fill:#2d3134"
         d="M 85.5,138.7 65.1,129.9 31.9,116.2 32,116 l 33.2,13.7 20.4,8.7 z"
         id="path3886" />
      <path
         style="fill:#2d3134"
         d="m 65.2,129.9 -30.7,-0.3 v -0.3 l 30.7,0.4 h 19.4 v 0.2 z"
         id="path3888" />
      <path
         style="fill:#2d3134"
         d="m 39.8,143.5 -0.1,-0.2 25.4,-13.6 13.6,-7.5 0.1,0.2 -13.6,7.5 z"
         id="path3890" />
      <ellipse
         style="fill:#999999"
         cx="65"
         cy="129.7"
         rx="2.0999999"
         ry="3.5999999"
         transform="matrix(0.8945,-0.4471,0.4471,0.8945,-51.1376,42.7607)"
         id="ellipse3892" />
      <path
         style="fill:#999999"
         d="m 54.7,132.1 9.1,-4.6 2.1,4.3 -9.1,4.6 z"
         id="path3894" />
      <path
         style="fill:#2d3134"
         d="m 55.1,162.4 h -0.2 l 0.2,-27.9 1.7,-35.2 h 0.3 l -1.8,35.2 z"
         id="path3896" />
      <path
         style="fill:#2d3134"
         d="M 66.9,168.3 55.1,134.5 45.8,95.4 46,95.3 l 9.3,39.1 11.8,33.8 z"
         id="path3898" />
      <path
         style="fill:#2d3134"
         d="m 43.4,151.1 -0.2,-0.2 11.9,-16.5 14.8,-23.6 0.2,0.2 -14.8,23.5 z"
         id="path3900" />
      <path
         style="fill:#2d3134"
         d="M 77,167.3 55.1,134.5 36.7,99.7 l 0.2,-0.2 18.4,34.9 21.9,32.8 z"
         id="path3902" />
      <path
         style="fill:#2d3134"
         d="m 83.9,160.5 -28.8,-26 -23.9,-26.4 0.1,-0.1 24,26.4 28.7,25.9 z"
         id="path3904" />
      <path
         style="fill:#2d3134"
         d="m 85.9,148.5 -30.8,-13.9 -24.5,-13.1 0.1,-0.2 24.5,13.1 30.7,13.9 z"
         id="path3906" />
      <path
         style="fill:#2d3134"
         d="m 34.8,136.8 v -0.2 l 20.4,-2.3 27.4,-4 0.1,0.2 -27.5,4.1 z"
         id="path3908" />
      <path
         style="fill:#2d3134"
         d="M 84.3,119.1 C 73.2,96.9 53,84.5 39.3,91.3 25.6,98.1 23.4,121.8 34.5,144 c 11.1,22.2 31.3,34.7 45,27.8 13.8,-6.8 15.9,-30.4 4.8,-52.7 z m -9.5,49.6 C 63.3,174.4 46,163 36.1,143.2 c -9.9,-19.8 -8.6,-40.5 2.8,-46.3 11.5,-5.7 28.8,5.7 38.7,25.5 9.9,19.9 8.7,40.6 -2.8,46.3 z"
         id="path3910" />
      <path
         style="fill:#999999"
         d="m 68.3,170.7 c -5.4,0 -11.6,-2.7 -17.4,-7.5 -6,-4.9 -11.2,-11.8 -15.2,-19.8 -10,-20 -8.6,-41.1 3.1,-46.9 2,-1 4.3,-1.5 6.7,-1.5 5.4,0 11.6,2.7 17.4,7.5 6,4.9 11.2,11.8 15.2,19.8 10,20 8.6,41.1 -3.1,46.9 -2,1 -4.3,1.5 -6.7,1.5 z M 45.4,96 c -2.3,0 -4.4,0.5 -6.3,1.4 -11.2,5.6 -12.4,26.1 -2.6,45.6 7.9,15.7 20.9,26.7 31.8,26.7 2.3,0 4.4,-0.5 6.3,-1.4 C 85.8,162.7 87,142.2 77.2,122.7 69.3,106.9 56.3,96 45.4,96 Z"
         id="path3912" />
      <ellipse
         style="fill:#999999"
         cx="55.299999"
         cy="134.5"
         rx="2.0999999"
         ry="3.5999999"
         transform="matrix(0.8945,-0.4471,0.4471,0.8945,-54.3087,38.8995)"
         id="ellipse3914" />
      <ellipse
         style="fill:#656565"
         cx="56.400002"
         cy="134.10001"
         rx="4.5"
         ry="7.6999998"
         transform="matrix(0.8945,-0.4471,0.4471,0.8945,-53.989,39.3609)"
         id="ellipse3916" />
      <ellipse
         style="opacity:0.2"
         cx="56.400002"
         cy="134.10001"
         rx="4.5"
         ry="7.6999998"
         transform="matrix(0.8945,-0.4471,0.4471,0.8945,-53.989,39.3609)"
         id="ellipse3918" />
      <path
         style="fill:#333399"
         d="m 103.6,125.6 c 0,0 -2.1,-0.6 -3.2,0.2 -1,0.8 -2.5,2 -2.6,4.2 -0.1,2.2 5.1,6.5 6.6,10 1.6,3.5 5.8,7.7 6.6,8.2 2.4,1.5 5.2,0 5.6,-1.7 0.3,-1.7 -0.9,-7 -2.8,-9.8 -1.3,-1.9 -2.9,-3.6 -2.9,-3.6 0,0 -0.2,2.5 -1.9,3.2 -1.7,0.7 -4.4,-1 -5.4,-2.6 -1,-1.6 -2.9,-5.7 -2.1,-6.9 0.7,-1.1 2.1,-1.2 2.1,-1.2 z"
         id="path3920" />
      <path
         style="fill:#cc291f"
         d="m 70.3,126.4 h 59.9 V 130 H 70.3 Z"
         transform="matrix(0.3582,0.9336,-0.9336,0.3582,183.9552,-11.3189)"
         id="path3922" />
      <path
         style="fill:#cc291f"
         d="m 70.3,126.4 h 59.9 V 130 H 70.3 Z"
         transform="matrix(0.3582,0.9336,-0.9336,0.3582,183.9552,-11.3189)"
         id="path3924" />
      <path
         style="fill:#2d3134"
         d="m 110.3,171.4 c -1.5,-0.7 -23.7,-13.4 -44.5,-25.3 -5.1,-2.9 -8.9,-5.1 -9,-5.2 -1.5,-0.8 -3.5,-2 -4.8,-4.6 -1,-1.9 -1.4,-3.9 -1.3,-5.7 0.1,-1.9 0.9,-3.2 2.1,-3.8 1,-0.5 2.4,-0.4 3.7,0.3 l 51.9,18.9 c 3.3,1.3 6.5,4.6 8.6,8.8 1.7,3.4 2.5,6.9 2.2,10 -0.2,3.2 -1.5,5.5 -3.7,6.6 -0.8,0.4 -1.7,0.6 -2.6,0.6 -0.5,0 -1.1,-0.1 -1.6,-0.2 z m 0.4,-0.9 0.2,0.1 c 0.7,0.2 1.4,0.3 2.1,0.3 0.8,0 1.5,-0.2 2.1,-0.5 1.8,-0.9 2.9,-3 3.1,-5.8 0.2,-2.9 -0.5,-6.3 -2.1,-9.5 -2.1,-4.1 -5.2,-7.3 -8.3,-8.4 L 107.5,146.6 56,127.9 c -1.1,-0.6 -2.1,-0.7 -2.8,-0.3 -0.9,0.5 -1.4,1.5 -1.5,3 -0.1,1.6 0.3,3.4 1.2,5.2 1.2,2.3 2.9,3.5 4.3,4.2 0.1,0.1 3,1.7 9.1,5.2 14,8.1 43.3,24.8 44.4,25.3 z"
         id="path3926" />
      <path
         style="fill:#cc291f"
         d="M 107.8,160.9 54.6,135.7 c -0.5,-0.2 -0.7,-0.7 -0.7,-1.2 0,-0.5 0.3,-1 0.8,-1.2 l 39,-17.4 0.9,2.5 -36.3,16.1 50.6,24 z"
         id="path3928" />
      <path
         style="fill:#cc291f"
         d="m 146.8,123.4 -49.6,-4.7 c -0.5,0 -0.9,-0.3 -1.1,-0.7 -0.5,-1.1 -0.1,-2.3 1,-2.9 l 50,4.8 z"
         id="path3930" />
      <path
         style="fill:#cc291f"
         d="m 149.9,133.9 -7,-20.7 0.2,-1.3 3.1,-0.1 7.1,21 z"
         id="path3932" />
      <path
         style="fill:#cc291f"
         d="m 163.6,189.7 c -0.6,0.2 -1.2,0 -1.5,-0.6 -2.9,-7.2 -15.8,-39.5 -16.1,-44.5 -0.3,-6.1 3.8,-13.3 3.9,-13.7 l 2.5,1.4 c 0,0.1 -3.8,6.9 -3.6,12 0.2,3.6 8.8,27.9 15.2,43.8 0.4,0.8 0.2,1.4 -0.4,1.6 z"
         id="path3934" />
      <path
         style="fill:#cc291f"
         d="m 144.2,110.7 c 0.4,-0.2 0.7,-0.2 0.9,-0.1 l 4.4,2.2 c 0.3,0.1 0.4,0.4 0.4,0.8 0,0.8 -0.6,1.7 -1.4,2 -0.4,0.2 -0.7,0.2 -1,0.1 0,0 -4.4,-2.2 -4.5,-2.3 -0.2,-0.1 -0.4,-0.4 -0.4,-0.7 0.2,-0.7 0.8,-1.7 1.6,-2 z"
         id="path3936" />
      <path
         style="opacity:0.1"
         d="m 147.6,115.7 c -0.1,0 -4.4,-2.2 -4.5,-2.3 -0.2,-0.1 -0.4,-0.4 -0.4,-0.7 0,-0.3 0.1,-0.6 0.3,-0.9 l 4.4,2.2 c -0.2,0.3 -0.3,0.6 -0.3,0.9 0.2,0.4 0.3,0.7 0.5,0.8 z"
         id="path3938" />
      <path
         style="opacity:0.11000001"
         d="m 147.3,114.9 c 0,0.8 0.6,1.1 1.4,0.7 0.8,-0.4 1.4,-1.3 1.4,-2 0,-0.7 -0.6,-1.1 -1.4,-0.7 -0.8,0.4 -1.4,1.3 -1.4,2 z"
         id="path3940" />
      <path
         style="fill:#cc291f"
         d="m 114.2,153.5 c -0.7,-0.4 -1.4,-0.4 -1.9,-0.2 l -6,3.1 c -0.5,0.2 -0.8,0.8 -0.8,1.5 0,1.5 1.2,3.3 2.7,4.1 0.7,0.4 1.4,0.4 1.9,0.2 0,0 6,-3.1 6.2,-3.2 0.4,-0.3 0.7,-0.8 0.7,-1.5 -0.1,-1.4 -1.3,-3.2 -2.8,-4 z"
         id="path3942" />
      <path
         style="opacity:0.2"
         d="m 110,162.2 c 0.2,-0.1 6,-3.1 6.1,-3.1 0.4,-0.3 0.7,-0.8 0.7,-1.5 0,-0.6 -0.2,-1.3 -0.5,-1.9 l -6,3.1 c 0.3,0.6 0.5,1.3 0.5,1.9 0,0.7 -0.3,1.2 -0.8,1.5 z"
         id="path3944" />
      <path
         style="opacity:0.11000001"
         d="m 110.8,160.7 c 0,1.5 -1.2,2.1 -2.7,1.4 -1.5,-0.7 -2.7,-2.6 -2.7,-4.1 0,-1.5 1.2,-2.1 2.7,-1.4 1.5,0.8 2.7,2.6 2.7,4.1 z"
         id="path3946" />
      <path
         style="fill:#656565"
         d="m 112.8,171.2 c -3.8,0 -8.2,-3.6 -10.9,-9 -3.4,-6.8 -2.9,-13.6 1.2,-15.7 0.7,-0.4 1.5,-0.5 2.4,-0.5 3.8,0 8.2,3.6 10.9,9 3.4,6.8 2.9,13.6 -1.2,15.7 -0.8,0.3 -1.6,0.5 -2.4,0.5 z m -7.3,-23.9 c -0.6,0 -1.2,0.1 -1.8,0.4 -3.3,1.7 -3.6,7.9 -0.6,13.9 2.4,4.9 6.4,8.3 9.7,8.3 0.6,0 1.2,-0.1 1.8,-0.4 3.3,-1.7 3.6,-7.9 0.6,-13.9 -2.4,-4.9 -6.4,-8.3 -9.7,-8.3 z"
         id="path3948" />
      <path
         style="fill:#656565"
         d="m 112.5,169.3 c -3,0 -6.7,-3.2 -9,-7.8 -2.9,-5.7 -2.7,-11.4 0.4,-13 0.5,-0.3 1.1,-0.4 1.7,-0.4 3,0 6.7,3.2 9,7.8 2.9,5.7 2.7,11.4 -0.4,13 -0.5,0.2 -1.1,0.4 -1.7,0.4 z m -6.9,-20.2 c -0.4,0 -0.8,0.1 -1.2,0.3 -2.5,1.3 -2.5,6.6 0,11.6 2.1,4.2 5.5,7.3 8.1,7.3 0.4,0 0.8,-0.1 1.2,-0.3 2.5,-1.3 2.5,-6.6 0,-11.6 -2.1,-4.3 -5.5,-7.3 -8.1,-7.3 z"
         id="path3950" />
      <ellipse
         style="fill:#656565"
         cx="108.9"
         cy="159.2"
         rx="2.9000001"
         ry="4.5999999"
         transform="matrix(0.8945,-0.4471,0.4471,0.8945,-59.68,65.4881)"
         id="ellipse3952" />
      <path
         style="opacity:0.2"
         d="m 112.8,171.2 c -3.8,0 -8.2,-3.6 -10.9,-9 -3.4,-6.8 -2.9,-13.6 1.2,-15.7 0.7,-0.4 1.5,-0.5 2.4,-0.5 3.8,0 8.2,3.6 10.9,9 3.4,6.8 2.9,13.6 -1.2,15.7 -0.8,0.3 -1.6,0.5 -2.4,0.5 z m -7.3,-23.9 c -0.6,0 -1.2,0.1 -1.8,0.4 -3.3,1.7 -3.6,7.9 -0.6,13.9 2.4,4.9 6.4,8.3 9.7,8.3 0.6,0 1.2,-0.1 1.8,-0.4 3.3,-1.7 3.6,-7.9 0.6,-13.9 -2.4,-4.9 -6.4,-8.3 -9.7,-8.3 z"
         id="path3954" />
      <path
         style="opacity:0.2"
         d="m 112.5,169.3 c -3,0 -6.7,-3.2 -9,-7.8 -2.9,-5.7 -2.7,-11.4 0.4,-13 0.5,-0.3 1.1,-0.4 1.7,-0.4 3,0 6.7,3.2 9,7.8 2.9,5.7 2.7,11.4 -0.4,13 -0.5,0.2 -1.1,0.4 -1.7,0.4 z m -6.9,-20.2 c -0.4,0 -0.8,0.1 -1.2,0.3 -2.5,1.3 -2.5,6.6 0,11.6 2.1,4.2 5.5,7.3 8.1,7.3 0.4,0 0.8,-0.1 1.2,-0.3 2.5,-1.3 2.5,-6.6 0,-11.6 -2.1,-4.3 -5.5,-7.3 -8.1,-7.3 z"
         id="path3956" />
      <ellipse
         style="opacity:0.2"
         cx="108.9"
         cy="159.2"
         rx="2.9000001"
         ry="4.5999999"
         transform="matrix(0.8945,-0.4471,0.4471,0.8945,-59.68,65.4881)"
         id="ellipse3958" />
      <path
         style="fill:#762c07"
         d="m 168.1,102.6 c -0.5,-0.2 -0.9,-0.3 -1.2,-0.1 l -10.2,5 c -0.3,0.2 -0.6,0.5 -0.6,1 0,1 0.8,2.2 1.8,2.6 0.5,0.2 0.9,0.3 1.2,0.1 0,0 10.2,-5 10.3,-5 0.3,-0.2 0.5,-0.5 0.5,-1 -0.1,-0.9 -0.9,-2.1 -1.8,-2.6 z"
         id="path3960" />
      <path
         style="opacity:0.2"
         d="m 159.1,111.2 c 0.1,-0.1 10.2,-5 10.2,-5 0.3,-0.2 0.5,-0.5 0.5,-1 0,-0.4 -0.1,-0.8 -0.3,-1.2 l -10.2,5 c 0.2,0.4 0.3,0.8 0.3,1.2 0,0.5 -0.2,0.9 -0.5,1 z"
         id="path3962" />
      <path
         style="opacity:0.11000001"
         d="m 159.6,110.2 c 0,1 -0.8,1.4 -1.8,0.9 -1,-0.5 -1.8,-1.7 -1.8,-2.6 0,-0.9 0.8,-1.4 1.8,-0.9 1,0.5 1.8,1.7 1.8,2.6 z"
         id="path3964" />
      <path
         style="fill:#2d3134"
         d="m 105.6,183.9 -0.4,-0.9 2.4,-1 -3.9,-5 c -0.1,-0.1 -0.1,-0.2 -0.1,-0.3 l -0.3,-5.7 -5.4,-6.7 c -0.1,-0.1 -0.1,-0.3 -0.1,-0.4 0,-0.1 0.1,-0.3 0.3,-0.3 l 10.1,-4.9 0.4,0.9 -9.5,4.6 5.1,6.4 c 0.1,0.1 0.1,0.2 0.1,0.3 l 0.3,5.7 4.1,5.4 c 0.1,0.1 0.1,0.3 0.1,0.4 0,0.1 -0.1,0.3 -0.3,0.3 z"
         id="path3966" />
      <path
         style="fill:#2d3134"
         d="M 100.9,190.6 95.7,188 v -2 l 9.1,-4.5 5.2,2.6 v 1.9 z"
         id="path3968" />
      <path
         style="opacity:0.11000001"
         d="m 95.7,186 v 2 l 5.2,2.6 v -2 z"
         id="path3970" />
      <path
         style="fill:#cc291f"
         d="m 110,184.1 v 1.9 l -9.1,4.6 v -2 z"
         id="path3972" />
      <path
         style="opacity:0.28999999"
         d="m 110,184.1 v 1.9 l -9.1,4.6 v -2 z"
         id="path3974" />
      <ellipse
         style="fill:#cc291f"
         cx="89.5"
         cy="100.2"
         rx="1.8"
         ry="0.80000001"
         transform="matrix(0.942,-0.3356,0.3356,0.942,-28.4242,35.8386)"
         id="ellipse3976" />
      <path
         style="fill:#656565"
         d="m 90.6,99.6 -10.8,-28.4 -2.4,0.9 10.8,28.3 c 0.1,0.3 0.8,0.4 1.4,0.1 0.7,-0.1 1.2,-0.6 1,-0.9 z"
         id="path3978" />
      <path
         style="opacity:0.2"
         d="M 90.6,99.6 79.8,71.2 77.4,72.1 77.6,72.6 79.1,72 90,100.3 c 0.4,-0.1 0.7,-0.4 0.6,-0.7 z"
         id="path3980" />
      <path
         style="fill:#762c07"
         d="m 71.8,71.3 c -4.1,2.6 -6.3,8.5 -2.5,13 2.7,3.2 9,1.4 14.1,2.9 5.1,1.5 9.9,4.8 13,2.9 1.2,-0.7 0.5,-3.7 -2.5,-6.5 -3.1,-2.8 -7.4,-8.3 -7.6,-8.7 -1,-1.8 -8,-7.7 -14.5,-3.6 z"
         id="path3982" />
      <path
         style="opacity:0.2"
         d="M 83.9,85.4 C 78.8,83.9 72.5,85.8 69.8,82.5 68.1,80.4 67.6,78.1 68,75.9 c -1.1,2.7 -0.9,5.8 1.3,8.5 2.7,3.2 9,1.4 14.1,2.9 5.1,1.5 9.9,4.8 13,2.9 0.5,-0.3 0.6,-0.9 0.5,-1.8 -3.2,1.8 -8,-1.5 -13,-3 z"
         id="path3984" />
      <path
         style="fill:#fbd7c7"
         d="m 81.2,65.2 c 0,0 -8.7,5 -8.6,13.1 0.1,8.1 7,26.9 8.6,32.9 1.6,6 5.1,13.4 5,19.4 -0.1,6 -1.2,14.1 0.8,20.6 2,6.4 8.6,18.1 8.6,19.8 0,1.7 0.1,7.4 1.8,9 1.7,1.6 9,2 9.9,1.8 0.9,-0.2 -1.4,-5 -3.2,-8.6 -1.8,-3.6 -4.6,-10.8 -5,-18 -0.3,-7.2 -2,-17.7 -1.8,-19.4 0.2,-1.7 0.3,-4.3 0.5,-6.8 0.2,-2.5 0.3,-7.8 -0.5,-12.6 -0.8,-4.8 -4.1,-23.2 -4.1,-26.1 0,-2.9 0,-10.4 0,-10.4 z"
         id="path3986" />
      <path
         style="fill:#fbd7c7"
         d="m 132.7,42.3 c 0,0 5.1,7.7 7.8,13.8 2.7,6.1 3.2,9.3 4.5,10.8 1.3,1.5 8.4,12.6 10.6,17.6 2.1,4.8 4.2,9.1 5.8,10.6 1.2,1.1 3.7,4.4 4.8,6.2 1.1,1.8 2.8,7.3 0.4,8.8 -2.3,1.5 -5,-0.5 -5,-0.5 l -2,-3.5 -1.5,0.6 c 0,0 -2.5,-4.3 -2.2,-5.7 0.3,-1.5 0.2,-2.8 -0.3,-3.7 -0.4,-0.9 -7.7,-8.6 -11.9,-15 -4.2,-6.4 -8.2,-13.8 -8.4,-14.5 -0.2,-0.7 -9.5,-13.5 -10,-16.7 -0.5,-3.2 7.4,-8.8 7.4,-8.8 z"
         id="path3988" />
      <path
         style="fill:#333399"
         d="m 94.2,86.3 c 0,0 7.7,7.7 11.7,11.2 4,3.5 12.6,9.9 12.6,9.9 l 12.6,-11.7 c 0,0 -6.1,-8.5 -9.3,-12 C 118.6,80.2 110,71 110,71 l -4.1,-1.8 -12.1,17.1 z"
         id="path3990" />
      <path
         style="fill:#333399"
         d="m 107.7,70.6 c 0,0 -13.9,-4.7 -17.1,-6.8 -3.2,-2.1 -7.2,-5.4 -7.2,-5.4 0,0 -10.1,8.4 -12.6,14.9 -2.5,6.5 1.1,17.9 3.6,23.4 2.5,5.5 7.8,18.9 7.8,18.9 l 15,-2 c 0,0 -0.2,-9.2 -0.7,-15.9 C 96.1,93 95.1,85 95.1,85 Z"
         id="path3992" />
      <path
         style="fill:#993399"
         d="m 104.1,33.2 c 0,0 -10.5,4.1 -13.1,7.7 -2.6,3.6 -3,5.1 -6.3,10.4 -2.6,4.2 -8.4,12.3 -10.6,15.3 -0.5,0.7 -0.5,1.7 0.1,2.3 1.6,1.7 4.9,4.8 9.1,6.2 6.8,2.2 16.1,0.6 21.7,-0.9 4.6,-1.2 5.8,-5.5 7.8,-6.4 2,-0.9 5.9,0.2 10.1,-3.5 1.8,-1.6 4.5,-10.8 4.5,-10.8 0,0 2.8,-2.7 5,-3.6 2.1,-0.9 4.1,-1.8 4.1,-1.8 0,0 -1.8,-6.5 -3.6,-9.5 -1.8,-3 -8.8,-6.1 -14.9,-5.9 -6,0.3 -13.9,0.5 -13.9,0.5 z"
         id="path3994" />
      <path
         style="fill:#ffffff"
         d="m 93.8,166.7 c 0,0 1.2,0.6 3.6,0.3 2.4,-0.3 3.8,-1.4 3.8,-1.4 0,0 2.1,4.7 2.9,6.5 0.8,1.8 2.2,4.4 2.2,4.4 0,0 -1.9,3.5 -4.8,3.7 -2.9,0.2 -7.2,-3.5 -7.2,-3.5 0,0 1.2,-2.9 0.8,-5.5 -0.2,-1.4 -1.3,-4.5 -1.3,-4.5 z"
         id="path3996" />
      <path
         style="fill:#333399"
         d="m 94.4,175.9 c 0,0 -0.9,2.6 -0.9,4 0,1.4 0.3,2.4 2.6,3.1 0.3,0.1 2,0.7 4,1.5 2.5,1 6.1,3.4 7.8,3.7 5.2,0.9 8.5,-2.1 7.5,-3.5 -0.6,-0.9 -5.3,-2.9 -6.5,-4.5 -1.2,-1.6 -2.6,-4.1 -2.6,-4.1 0,0 -0.4,0.6 -1.7,1.2 -1.8,0.9 -4.2,0.9 -5.7,0.5 -1.5,-0.4 -4.5,-1.9 -4.5,-1.9 z"
         id="path3998" />
      <path
         style="fill:#825012"
         d="m 128.9,19.3 c 1,1.1 2.6,7.3 2.7,13.1 0.1,5.8 2.8,5.6 2.8,5.6 0,0 -2.2,3.3 -5.5,2.1 -3,-1.1 -5,-10.4 -5,-10.4 z"
         id="path4000" />
      <path
         style="fill:#fbd7c7"
         d="m 129.3,21.1 c 1.2,2.2 1.6,18.4 -1.8,21.2 -1.7,1.4 -3.7,1.4 -5.6,0.8 -1.8,-0.5 -6.2,1.3 -7.1,0.7 -1.7,-1.3 -2.9,-12.3 -0.4,-20 2.5,-7.8 12.5,-7 14.9,-2.7 z"
         id="path4002" />
      <path
         style="fill:#825012"
         d="m 128.9,23.3 c -2.9,1.3 -5.1,1.4 -5,3.6 0.1,2.2 0.5,9.4 -2.3,10.8 -2.8,1.5 -5,0.5 -5,0.5 0,0 -0.1,3 1.9,4.1 2.2,1.2 4.4,0.4 4.4,0.4 0,0 -4.9,5.8 -11.7,3.5 -6.8,-2.3 -10.2,-12.8 -5.4,-24.2 4.8,-11.5 13.8,-11 18.9,-8.1 5.1,2.9 6.4,5.8 5.9,7.2 -0.5,1.4 -1.7,2.2 -1.7,2.2 z"
         id="path4004" />
      <path
         style="fill:#762c07"
         d="m 158.9,106.3 c -0.7,-0.3 -1.3,-0.4 -1.7,-0.2 l -1.9,0.9 c -0.5,0.2 -0.8,0.7 -0.8,1.4 0,1.4 1.1,3 2.5,3.7 0.7,0.3 1.3,0.4 1.7,0.2 0,0 1.9,-0.9 2,-1 0.4,-0.2 0.6,-0.7 0.6,-1.3 0,-1.4 -1.1,-3 -2.4,-3.7 z"
         id="path4006" />
      <path
         style="opacity:0.2"
         d="m 158.8,112.3 c 0.2,-0.1 1.8,-0.9 1.9,-1 0.4,-0.2 0.6,-0.7 0.6,-1.3 0,-0.5 -0.2,-1.1 -0.5,-1.7 l -1.9,0.9 c 0.3,0.6 0.5,1.2 0.5,1.7 0.1,0.7 -0.2,1.2 -0.6,1.4 z"
         id="path4008" />
      <path
         style="opacity:0.1"
         d="m 159.5,110.9 c 0,1.4 -1.1,1.9 -2.5,1.2 -1.4,-0.7 -2.5,-2.3 -2.5,-3.7 0,-1.4 1.1,-1.9 2.5,-1.2 1.4,0.7 2.5,2.4 2.5,3.7 z"
         id="path4010" />
      <path
         style="fill:#656565"
         d="m 133.3,123.5 c -0.6,0 -1.2,-0.3 -1.5,-0.9 -0.4,-0.8 -0.1,-1.9 0.8,-2.3 L 156,108.6 c 0.8,-0.4 1.9,-0.1 2.3,0.8 0.4,0.8 0.1,1.9 -0.8,2.3 L 134,123.3 c -0.2,0.1 -0.5,0.2 -0.7,0.2 z"
         id="path4012" />
      <path
         style="opacity:0.2"
         d="m 157.9,109.9 -23.4,11.7 c -0.2,0.1 -0.5,0.2 -0.8,0.2 -0.6,0 -1.2,-0.3 -1.5,-0.9 0,-0.1 -0.1,-0.2 -0.1,-0.2 -0.5,0.5 -0.7,1.3 -0.4,2 0.3,0.6 0.9,0.9 1.5,0.9 0.3,0 0.5,-0.1 0.8,-0.2 l 23.4,-11.7 c 0.8,-0.4 1.1,-1.3 0.9,-2 -0.1,0 -0.3,0.1 -0.4,0.2 z"
         id="path4014" />
      <path
         style="fill:#762c07"
         d="m 140,115.8 c -0.7,-0.3 -1.3,-0.4 -1.7,-0.2 l -1.9,0.9 c -0.5,0.2 -0.8,0.7 -0.8,1.4 0,1.4 1.1,3 2.5,3.7 0.7,0.3 1.3,0.4 1.7,0.2 0,0 1.9,-0.9 2,-1 0.4,-0.2 0.6,-0.7 0.6,-1.3 0.1,-1.4 -1.1,-3.1 -2.4,-3.7 z"
         id="path4016" />
      <path
         style="opacity:0.2"
         d="m 139.9,121.7 c 0.2,-0.1 1.8,-0.9 1.9,-1 0.4,-0.2 0.6,-0.7 0.6,-1.3 0,-0.5 -0.2,-1.1 -0.5,-1.7 l -1.9,0.9 c 0.3,0.6 0.5,1.2 0.5,1.7 0.1,0.7 -0.2,1.2 -0.6,1.4 z"
         id="path4018" />
      <path
         style="opacity:0.1"
         d="m 140.6,120.4 c 0,1.4 -1.1,1.9 -2.5,1.2 -1.4,-0.7 -2.5,-2.3 -2.5,-3.7 0,-1.4 1.1,-1.9 2.5,-1.2 1.4,0.7 2.5,2.3 2.5,3.7 z"
         id="path4020" />
      <path
         style="fill:#762c07"
         d="m 137.9,117.5 c -0.5,-0.2 -0.9,-0.3 -1.2,-0.1 l -10.2,5 c -0.3,0.2 -0.6,0.5 -0.6,1 0,1 0.8,2.2 1.8,2.6 0.5,0.2 0.9,0.3 1.2,0.1 0,0 10.2,-5 10.3,-5 0.3,-0.2 0.5,-0.5 0.5,-1 -0.1,-1 -0.9,-2.1 -1.8,-2.6 z"
         id="path4022" />
      <path
         style="opacity:0.2"
         d="m 128.9,126.1 c 0.1,-0.1 10.2,-5 10.2,-5 0.3,-0.2 0.5,-0.5 0.5,-1 0,-0.4 -0.1,-0.8 -0.3,-1.2 l -10.2,5 c 0.2,0.4 0.3,0.8 0.3,1.2 0,0.5 -0.2,0.8 -0.5,1 z"
         id="path4024" />
      <path
         style="opacity:0.1"
         d="m 129.4,125.1 c 0,1 -0.8,1.4 -1.8,0.9 -1,-0.5 -1.8,-1.7 -1.8,-2.6 0,-0.9 0.8,-1.4 1.8,-0.9 1,0.5 1.8,1.6 1.8,2.6 z"
         id="path4026" />
      <path
         style="fill:#fbd7c7"
         d="m 91.1,68.3 c 0,0 6,14.2 7.2,16.7 2.2,4.5 2.8,5.9 7.2,10.4 4.4,4.5 17.5,17.3 19,19 1.6,1.7 3.3,4.4 3.3,5 0.1,0.6 3.4,5.7 5.4,6.4 1.5,0.5 4,-1.1 4.8,-2.1 0.8,-1 0,-3.2 0,-3.2 l -2.7,-2.7 1.4,-0.5 c 0,0 -2,-2.5 -3.2,-3.2 -1.2,-0.7 -3.8,-2.9 -4.1,-3.6 -0.3,-0.8 -9.8,-14.2 -13.6,-18.4 -2.3,-2.5 -7.6,-6.8 -7.6,-6.8 0,0 -3.7,-11.5 -5.1,-16 -0.3,-0.9 -1.5,-4.2 -1.5,-4.2 z"
         id="path4028" />
    </g>
  </g>
</svg>
