<?xml version="1.0" encoding="UTF-8" standalone="no"?>
<svg
   xmlns:dc="http://purl.org/dc/elements/1.1/"
   xmlns:cc="http://creativecommons.org/ns#"
   xmlns:rdf="http://www.w3.org/1999/02/22-rdf-syntax-ns#"
   xmlns:svg="http://www.w3.org/2000/svg"
   xmlns="http://www.w3.org/2000/svg"
   id="svg3224"
   version="1.1"
   viewBox="0 0 43.477345 70.13855"
   height="70.13855mm"
   width="43.477345mm">
  <defs
     id="defs3218" />
  <metadata
     id="metadata3221">
    <rdf:RDF>
      <cc:Work
         rdf:about="">
        <dc:format>image/svg+xml</dc:format>
        <dc:type
           rdf:resource="http://purl.org/dc/dcmitype/StillImage" />
        <dc:title></dc:title>
      </cc:Work>
    </rdf:RDF>
  </metadata>
  <g
     transform="translate(-104.55752,-110.32291)"
     id="layer1">
    <g
       transform="matrix(0.26458333,0,0,0.26458333,115.11163,106.13456)"
       id="g4211">
      <path
         style="fill:#262626"
         d="m 104.1,132.1 c 1.6,2 8.4,11.9 9.8,13.9 2.2,3.1 2.8,6.3 0.5,9 -2.2,2.7 -5.4,2.9 -8.1,1.3 -2.7,-1.6 -7.5,-9.7 -7.5,-9.7 z"
         id="path4171" />
      <path
         style="fill:#ffffff"
         d="m 104.6,136.6 c 2.1,2.6 6.9,10.1 8.5,12.6 1.3,2 1.7,5.2 -1.7,6.9 -3.4,1.7 -6.7,-1 -8.2,-3.3 -1.6,-2.2 -6.5,-9.8 -6.5,-9.8 z"
         id="path4173" />
      <path
         style="opacity:0.2"
         d="m 111,196.3 c 12.6,6.9 18.6,17 7.9,25.4 -10.7,8.4 -28.3,10.2 -42.4,2.4 -14.1,-7.8 -5.8,-16.2 3.7,-22.3 9.5,-6.1 19.3,-11.8 30.8,-5.5 z"
         id="path4175" />
      <path
         style="fill:#06547a"
         d="m 40.1,124.3 c -0.5,5.2 -2,11.3 0.5,20.7 2.5,9.4 4.8,21 7.7,23.7 2.6,2.5 7.6,3.3 13,0.9 5.4,-2.4 13.7,-6.7 17.7,-7.1 4,-0.4 18.6,-4.8 18.6,-4.8 0,0 -3.8,-16.2 -6.9,-16.1 -3.1,0.1 -28,7.7 -28,7.7 l -4.1,-22 z"
         id="path4177" />
      <path
         style="opacity:0.2"
         d="m 40.1,124.3 c -0.5,5.2 -2,11.3 0.5,20.7 2.5,9.4 4.8,21 7.7,23.7 2.6,2.5 7.6,3.3 13,0.9 5.4,-2.4 13.7,-6.7 17.7,-7.1 4,-0.4 18.6,-4.8 18.6,-4.8 0,0 -3.8,-16.2 -6.9,-16.1 -3.1,0.1 -28,7.7 -28,7.7 l -4.1,-22 z"
         id="path4179" />
      <path
         style="fill:#06547a"
         d="m 50.5,131 c 0,0 3.1,15.1 5.1,17.4 2,2.3 7.1,2.6 7.6,4.3 0.5,1.7 12.9,22.7 16.2,25.1 4.2,3.1 12.4,3 14.8,-1.4 2.2,-4.2 2.9,-14.3 5.6,-19.8 2.7,-5.5 5.6,-7.6 7.2,-9.6 2.6,-3.3 1,-17.5 -6.2,-18.7 -7.2,-1.2 -8.2,5.2 -9.9,8.2 -1.7,3 -4.7,8.9 -4.7,8.9 0,0 -5.5,-13.1 -7.5,-17.9 -2,-4.8 -4.7,-8.9 -4.7,-8.9 z"
         id="path4181" />
      <path
         style="fill:#fbd7c7"
         d="m 41.2,25.6 c 0.8,0 6.4,0.8 8.5,-0.7 1.2,-0.8 1.5,-2.9 1.5,-3.9 0.1,-1 -0.5,-4.3 -2.4,-4.9 -1.8,-0.6 -6,-0.2 -8,1.2 -1.6,1.1 -2,2 -3.3,3.4 -1.3,1.3 -2.5,2.4 -3.3,4.2 -1.3,2.6 -3.2,10.4 -5.7,14.1 -2.6,3.9 -0.6,6.7 1.6,9.4 2.2,2.7 11.2,11.1 11.6,12.2 0.4,1.1 16.2,-1.6 14.5,-4.8 -1.6,-3.2 -6,-4.6 -8.1,-5.2 -2.1,-0.6 -2.9,-1 -4,-2.5 -0.7,-0.9 -1.8,-2.5 -3.7,-3.8 -2.1,-1.3 -2.9,-2 -2.9,-2 0,0 2.7,-4.5 3,-8.8 0.4,-4.3 0.7,-7.9 0.7,-7.9 z"
         id="path4183" />
      <path
         style="fill:#e5e5e5"
         d="m 60.2,58.7 c 0,0 -2.6,-3.3 -5.3,-5 -2.7,-1.7 -5,-2.5 -5,-2.5 0,0 -2,1.5 -4.2,3.9 -2.2,2.4 -4.3,5.4 -4.3,5.4 0,0 -3.4,6.5 -2.9,15.7 0.5,9.2 3.6,23 2.9,28.3 -0.7,5.3 -1.8,18.4 -1.8,20.6 -0.1,2.2 5.8,8.3 15.3,8.1 9.4,-0.2 22.1,-4.4 22.3,-9.2 0.2,-4.8 -2.5,-4.8 -2.7,-9.4 -0.3,-4.6 1,-20.4 7.9,-29.3 5,-6.5 4.3,-7.2 8.1,-9.4 C 94.2,73.7 90.4,62.5 86.7,62.2 83,61.9 75.1,61.7 71.4,62.2 67.8,62.7 60.2,58.7 60.2,58.7 Z"
         id="path4185" />
      <path
         style="fill:#fbd7c7"
         d="m 99,60.7 c 0,0 -1.2,-3.2 -1.9,-9.2 C 96.4,45.6 96.6,43.3 95,41.8 93.4,40.3 90.7,40.4 90.2,39.2 89.7,38 88,37.5 87.3,36.1 86.5,34.6 86.6,32.7 88,31.8 c 1.4,-0.9 4.5,-2.3 5.8,-1.6 1.3,0.6 1.8,1.3 2.6,2.1 1,1.1 1.8,3 3.4,5.7 1.6,2.7 7.8,16.7 9.4,20.2 1.6,3.5 2.8,7.3 0,10.4 -2.8,3.1 -7.3,2 -11,3.3 -3.7,1.4 -7.2,4.2 -8.8,4.2 -1.6,0 -6.5,-1.7 -6.9,-8.1 -0.4,-6.4 4.6,-5.6 5.6,-5.5 1,0.1 1.4,0.2 3.8,-0.9 2.4,-1.1 7.1,-0.9 7.1,-0.9 z"
         id="path4187" />
      <path
         style="fill:#fbd7c7"
         d="m 71.1,59.4 c 0.5,-0.8 3.8,-3.9 5.3,-4.3 1.5,-0.3 3,-0.5 4.4,-1.9 1.7,-1.7 0.7,-2.9 0.7,-2.9 0,0 3.3,-3.5 2.2,-9.2 -1.1,-5.9 -10.2,-11.6 -17.4,-6.3 -2.8,2.1 -9.5,12.7 -9,15.1 0.5,2.3 1.6,2.8 0.9,4.1 -0.7,1.3 -1.4,5 -2,5.4 -0.5,0.3 -7,6.2 1,9.8 8.6,3.8 12.2,-2.7 13.8,-4.2 2.1,-2 3.1,-2.7 3.1,-2.7 0,0 -4.6,-0.2 -3,-2.9 z"
         id="path4189" />
      <path
         style="fill:#825012"
         d="M 83.7,41.1 C 82.9,36.9 78,32.7 72.6,32.7 c 0.4,0.6 1.1,1.4 1.8,2.1 2.7,2.3 4.2,1.1 5.2,4.2 1,3.1 -3.5,10.2 -3.5,10.2 l 1.2,0.8 c 0,0 2.9,-1.5 4.2,0.3 0,0 0,0 0,0 0.4,-0.5 3.2,-3.9 2.2,-9.2 z"
         id="path4191" />
    </g>
    <g
       transform="matrix(0.26458333,0,0,0.26458333,101.6124,118.89197)"
       id="g4317">
      <ellipse
         style="fill:#2d3134"
         cx="58.099998"
         cy="94"
         rx="19.1"
         ry="13"
         id="ellipse4213" />
      <path
         style="fill:#baa794"
         d="m 58.1,80 c -8.3,0 -15,4.5 -15,10 v 4 c 0,5.5 6.7,10 15,10 8.3,0 15,-4.5 15,-10 v -4 c 0,-5.5 -6.7,-10 -15,-10 z"
         id="path4215" />
      <path
         style="opacity:0.15"
         d="m 58.1,100 c -8.3,0 -15,-4.5 -15,-10 v 4 c 0,5.5 6.7,10 15,10 8.3,0 15,-4.5 15,-10 v -4 c 0,5.5 -6.7,10 -15,10 z"
         id="path4217" />
      <path
         style="fill:#f8ebcb"
         d="m 58.1,76 c -8.3,0 -15,4.5 -15,10 v 4 c 0,5.5 6.7,10 15,10 8.3,0 15,-4.5 15,-10 v -4 c 0,-5.5 -6.7,-10 -15,-10 z"
         id="path4219" />
      <path
         style="fill:#762c07"
         d="m 73.1,83 c 0,-5.5 -6.7,-10 -15,-10 -8.3,0 -15,4.5 -15,10 v 2 c 0,1.7 0.6,3.2 1.7,4.6 -0.3,1.1 -0.8,2.7 -0.8,3.1 0,0.6 0.5,1.2 1.2,1.2 0.6,0 1.2,-0.5 1.2,-1.2 0,-0.3 -0.2,-1.1 -0.4,-1.9 0.8,0.8 1.8,1.4 2.9,2 -0.3,0.9 -0.6,2.1 -0.6,2.4 0,0.6 0.5,1 1,1 0.6,0 1,-0.5 1,-1 0,-0.3 -0.2,-1.1 -0.5,-2 1.2,0.5 2.5,1 3.9,1.3 -0.4,1.2 -1,3.2 -1,3.7 0,0.7 0.6,1.3 1.3,1.3 0.7,0 1.3,-0.6 1.3,-1.3 0,-0.5 -0.6,-2.3 -0.9,-3.6 1.2,0.2 2.5,0.3 3.8,0.3 0.5,0 1.1,0 1.6,-0.1 -0.2,0.7 -0.4,1.3 -0.4,1.5 0,0.6 0.5,1 1,1 0.6,0 1,-0.5 1,-1 0,-0.2 -0.2,-0.9 -0.4,-1.7 2,-0.3 3.9,-0.8 5.6,-1.6 -0.4,1.4 -1.2,3.9 -1.2,4.5 0,0.8 0.7,1.5 1.5,1.5 0.8,0 1.5,-0.7 1.5,-1.5 0,-0.6 -0.9,-3.4 -1.3,-4.8 1.6,-0.8 2.9,-1.8 3.9,-2.9 -0.2,0.8 -0.5,1.6 -0.5,1.9 0,0.6 0.5,1 1,1 0.5,0 1,-0.5 1,-1 0,-0.4 -0.5,-2 -0.8,-2.9 0.8,-1.2 1.3,-2.6 1.3,-4 V 83 Z"
         id="path4221" />
      <path
         style="opacity:0.15"
         d="m 73.1,83 c 0,5 -5.5,9.1 -12.7,9.9 0,-0.1 0,-0.1 0,-0.1 0,0 0,0 0,0.1 -0.7,0.1 -1.5,0.1 -2.3,0.1 -8.3,0 -15,-4.5 -15,-10 v 2 c 0,1.7 0.6,3.2 1.7,4.6 -0.3,1.1 -0.8,2.7 -0.8,3.1 0,0.6 0.5,1.2 1.2,1.2 0.6,0 1.2,-0.5 1.2,-1.2 0,-0.3 -0.2,-1.1 -0.4,-1.9 0.8,0.8 1.8,1.4 2.9,2 -0.3,0.9 -0.6,2.1 -0.6,2.4 0,0.6 0.5,1 1,1 0.6,0 1,-0.5 1,-1 0,-0.3 -0.2,-1.1 -0.5,-2 1.2,0.5 2.5,1 3.9,1.3 -0.4,1.2 -1,3.2 -1,3.7 0,0.7 0.6,1.3 1.3,1.3 0.7,0 1.3,-0.6 1.3,-1.3 0,-0.5 -0.6,-2.3 -0.9,-3.6 1.2,0.2 2.5,0.3 3.8,0.3 0.5,0 1.1,0 1.6,-0.1 -0.2,0.7 -0.4,1.3 -0.4,1.5 0,0.6 0.5,1 1,1 0.5,0 1,-0.5 1,-1 0,-0.2 -0.2,-0.9 -0.4,-1.7 2,-0.3 3.9,-0.8 5.6,-1.6 -0.4,1.4 -1.2,3.9 -1.2,4.5 0,0.8 0.7,1.5 1.5,1.5 0.8,0 1.5,-0.7 1.5,-1.5 0,-0.6 -0.9,-3.4 -1.3,-4.8 1.6,-0.8 2.9,-1.8 3.9,-2.9 -0.2,0.8 -0.5,1.6 -0.5,1.9 0,0.6 0.5,1 1,1 0.5,0 1,-0.5 1,-1 0,-0.4 -0.5,-2 -0.8,-2.9 0.8,-1.2 1.3,-2.6 1.3,-4 V 83 Z"
         id="path4223" />
      <path
         style="fill:#f8ebcb"
         d="m 60.1,82 c 0,1.1 -0.9,2 -2,2 -1.1,0 -2,-0.9 -2,-2 0,-1.1 2,-3 2,-3 0,0 2,1.9 2,3 z"
         id="path4225" />
      <g
         style="fill:#baa794"
         id="g4243">
        <path
           d="m 47.1,83 c 0,0.6 -0.4,1 -1,1 -0.6,0 -1,-0.4 -1,-1 0,-0.6 1,-1.5 1,-1.5 0,0 1,0.9 1,1.5 z"
           id="path4227" />
        <path
           d="m 71.1,83 c 0,0.6 -0.4,1 -1,1 -0.6,0 -1,-0.4 -1,-1 0,-0.6 1,-1.5 1,-1.5 0,0 1,0.9 1,1.5 z"
           id="path4229" />
        <path
           d="m 67.1,89 c 0,0.6 -0.4,1 -1,1 -0.6,0 -1,-0.4 -1,-1 0,-0.6 1,-1.5 1,-1.5 0,0 1,0.9 1,1.5 z"
           id="path4231" />
        <path
           d="m 59.1,91 c 0,0.6 -0.4,1 -1,1 -0.6,0 -1,-0.4 -1,-1 0,-0.6 1,-1.5 1,-1.5 0,0 1,0.9 1,1.5 z"
           id="path4233" />
        <path
           d="m 59.1,74.5 c 0,0.6 -0.4,1 -1,1 -0.6,0 -1,-0.4 -1,-1 0,-0.6 1,-1.5 1,-1.5 0,0 1,0.9 1,1.5 z"
           id="path4235" />
        <path
           d="m 51.1,89 c 0,0.6 -0.4,1 -1,1 -0.6,0 -1,-0.4 -1,-1 0,-0.6 1,-1.5 1,-1.5 0,0 1,0.9 1,1.5 z"
           id="path4237" />
        <path
           d="m 67.1,77 c 0,0.6 -0.4,1 -1,1 -0.6,0 -1,-0.4 -1,-1 0,-0.6 1,-1.5 1,-1.5 0,0 1,0.9 1,1.5 z"
           id="path4239" />
        <path
           d="m 51.1,77 c 0,0.6 -0.4,1 -1,1 -0.6,0 -1,-0.4 -1,-1 0,-0.6 1,-1.5 1,-1.5 0,0 1,0.9 1,1.5 z"
           id="path4241" />
      </g>
      <path
         style="opacity:0.2"
         d="m 23.7,209.1 c -9.3,5.7 -10,12.5 2.1,18.9 13.2,7.1 20.9,5.5 31.1,-0.4 9,-5.2 6.9,-12.2 -8.2,-18.3 -12.2,-4.9 -18.4,-4.3 -25,-0.2 z"
         id="path4245" />
      <path
         style="fill:#fbd7c7"
         d="m 25.4,98 c -2.4,3.2 -11.5,14.3 -8.9,30 2.6,15.7 7.1,24.2 6.3,27.9 -0.8,3.7 -3.7,10.8 -3,18.7 0.8,9.7 3.7,19.7 3.8,23 0.2,3.3 1.3,6.3 0.4,8.8 -0.9,2.5 -3.1,4.4 -0.9,6.1 1.8,1.4 1,-0.6 10.2,2.7 12.3,4.5 9.7,-1.8 3.6,-2.9 -2.2,-0.4 -4.1,-4.8 -4.8,-7.7 -0.3,-1.2 -1.2,-15.8 -0.4,-22.6 0.8,-6.7 0.9,-17.1 0.8,-20.1 -0.1,-3 2.4,-14.4 3.4,-20 1.4,-8.5 4,-38.5 4,-38.5 z"
         id="path4247" />
      <path
         style="fill:#2d3134"
         d="m 23.6,207.3 c 0,0 -2.3,2.6 -2.2,4.9 0.1,2.3 1.9,5.7 1.9,7 v 3.2 l 1.7,1 1.6,-0.8 c 0,0 -0.7,-5.3 0.5,-6.1 1.2,-0.8 4.8,1.9 7.2,2.5 2.4,0.6 8.3,-0.1 10.4,-1 2.1,-0.9 0.4,-3.6 -1.5,-4.7 -2.6,-1.4 -6.7,-1.2 -6.7,-1.2 0,0 1.3,0.4 2.8,1.9 2.7,2.7 -4.8,3.3 -11.7,-2.6 -2.6,-2.4 -4,-4.1 -4,-4.1 z"
         id="path4249" />
      <path
         style="fill:#fbd7c7"
         d="m 22.2,61.3 c -5.4,2.1 -4.7,10.7 -6.4,17.4 -1.7,6.7 -7.2,17.2 -3.3,20.4 3.9,3.2 13.6,-0.4 17,-1.2 3.5,-0.7 9.1,-2.4 9.1,-2.4 l -2.3,-6.2 c 0,0 -7.2,0.2 -10.2,1.1 -3,0.9 -4.8,0.8 -4.8,0.8 0,0 3.7,-6.6 4.9,-10.1 1.3,-3.5 6.8,-24 -4,-19.8 z"
         id="path4251" />
      <path
         style="fill:#fbd7c7"
         d="m 33.9,102.3 c 0,0 -5.4,12.9 -5.4,19.1 0,6.2 4.1,8.5 4.9,10.5 0.8,2 1.1,8.5 3,16.2 1.9,7.7 4.2,12.5 2,18.1 -3.6,8.8 -2.9,16.4 -1.8,27.2 1.1,10.7 0.2,16.8 -0.1,18.5 -0.4,2 -3.5,3 -1.9,5.4 2.2,3.2 8.4,3.6 11.1,4.9 3.2,1.5 7.2,2 8.2,0.4 1,-1.6 0.2,-3.9 -3.4,-3.8 -3.1,0.1 -5.3,-5 -6.2,-7.3 -0.9,-2.2 1,-9.6 2.6,-21.2 1.5,-11.6 2.2,-24.2 2.9,-29 0.8,-4.8 3.2,-9 3.8,-30.5 C 54.2,109.3 52,103.2 52,103.2 Z"
         id="path4253" />
      <path
         style="fill:#2d3134"
         d="m 35.6,213.1 c 0,0 -2.4,2 -2.4,4.5 0,2.6 2.1,5.4 2.4,7.4 0.3,2 0.2,3.5 0.2,3.5 l 1.9,0.9 1.9,-0.8 c 0,0 -1.6,-5.7 0.1,-6.1 1.7,-0.4 6.8,3.6 9.9,3.6 3.1,0 7.3,-3.9 7.3,-5.4 0,-1.5 -3.4,-3.1 -5.4,-2.9 -2,0.1 -2.9,0.6 -2.9,0.6 0,0 3.1,1.3 3.5,2.4 0.4,1 -0.6,1.7 -1.9,2 -2.6,0.5 -5.1,-1.8 -9.3,-5.2 -3.6,-2.9 -5.3,-4.5 -5.3,-4.5 z"
         id="path4255" />
      <path
         style="fill:#fbd7c7"
         d="m 46.2,34.6 c 1.1,2.4 1,9.1 -0.2,12.8 -1.2,3.8 -1.8,4.4 -2.4,4.8 -0.6,0.4 -2,0.2 -2.2,1.2 -0.2,1 -0.7,4.9 -0.4,6.1 0.2,1.2 0.2,1.2 0.2,1.2 0,0 -4.2,-1 -6.4,-0.4 -2.2,0.6 -6.5,-1.4 -6.5,-2 0,-0.6 1.4,-7 0.2,-9 -1.2,-2 -5.1,-10.7 -3.3,-15.3 1.7,-4.6 16.9,-9.1 21,0.6 z"
         id="path4257" />
      <path
         style="fill:#3399cc"
         d="m 61.5,163.3 c -2,-9.8 -8.3,-49.4 -9,-58 0.5,-0.1 -0.4,-20.9 0,-21.9 0.5,-1.1 5,-3 4.6,-7.5 -0.3,-2.9 -2,-5.1 -3.7,-7 -1.3,-1.4 -2.9,-2.7 -4.3,-4.1 -1.7,-1.6 -6.2,-3.4 -10.8,-5 -5.4,-1.8 -11.7,-2 -15.8,-0.1 -5.6,2.7 -5.5,11.4 -7.3,18.6 -0.3,1.3 -1.4,4.4 -1.9,5.8 l 9.8,4.2 c 0.3,-0.6 1.6,-2.5 1.9,-3.1 0.1,0.3 0.1,0.5 0.2,0.7 0.8,3.5 0.1,7.7 -1.5,11.6 -0.9,2.2 -9.3,14.6 -8.1,26.8 1.8,19.2 -4.8,35.3 -2.1,36.9 2.7,1.6 12.2,-0.3 17.6,5.2 5.4,5.5 10.4,5.8 18.6,3.5 8.2,-2.3 12.3,-4.4 11.8,-6.6 z"
         id="path4259" />
      <path
         style="fill:#ffffff"
         d="M 61.5,149 C 59.4,129.5 56,112.6 52.6,105.3 37.3,107.4 20.7,102.4 20.7,102.4 l -0.8,1.4 c 0,0 4.3,4.3 29.1,4.4 0.3,1.3 2.5,10.9 3.3,21.8 0.8,11.4 0.8,21.5 1.8,22.9 1,1.4 7.6,-1.7 7.4,-3.9 z"
         id="path4261" />
      <path
         style="fill:#ffffff"
         d="m 28.5,106 c 0,0 -9.7,0.1 -7.5,4.8 1.6,3.4 4.8,1.1 6.6,-1.1 -0.8,3 -1.9,7.7 -2.9,10.6 -1.1,3.2 -2.4,6.4 -2.4,6.4 l 2.6,1 c 0,0 3.4,-15.6 3.5,-17.3 0.1,-1.6 0.4,7.6 0.9,11.5 0.5,3.9 0.5,4.5 0.5,4.5 l 1.9,-2.8 c 0,0 -1.2,-6.5 -1.5,-10.2 -0.2,-1.7 -0.2,-3.5 -0.2,-4.9 1,2.4 3.3,7.1 6.2,3.5 3.8,-4.6 -7.7,-6 -7.7,-6 z m -4.9,3.6 c -0.5,-2.2 3.6,-2.5 4.9,-2.6 -0.1,0.2 -4.5,4 -4.9,2.6 z m 10.9,0.9 c -1.1,1.5 -4.5,-3.1 -4.5,-3.3 2,0.4 5.9,1.4 4.5,3.3 z"
         id="path4263" />
      <path
         style="fill:#825012"
         d="m 47.1,36.7 c -0.1,1.9 -1.6,3.7 -2.2,4.2 -0.7,0.4 -1.3,-0.2 -1.9,1.1 -0.6,1.3 -1.4,7.1 -3.8,8.6 -2.4,1.5 -8,1.8 -10.7,-1.3 -2.7,-3.1 -5.9,-11.7 -2.4,-17.5 3.2,-5.3 9.8,-7.2 14.9,-4.6 5.1,2.6 6.2,7.6 6.1,9.5 z"
         id="path4265" />
      <path
         style="fill:#3399cc"
         d="m 29.9,43.6 c 3,0 4.7,2.3 4.6,3.3 -0.2,1 -6.3,1.3 -7.3,-0.8 -1,-2.1 0.3,-2.5 2.7,-2.5 z"
         id="path4267" />
      <path
         style="fill:#825012"
         d="m 29.8,44.9 c 2.1,0.2 6.3,3 6.7,8 0.4,5 -4.5,6.6 -4.3,13.1 0.1,4.5 4.8,12.3 4.8,12.3 0,0 -15.2,-9 -15,-20.9 0.2,-11.9 5.2,-12.8 7.8,-12.5 z"
         id="path4269" />
      <path
         style="opacity:0.15"
         d="m 52.6,105.3 c 0.2,0 0.1,-4 0,-8.5 -2.4,-12 -4.1,-25.1 -7.4,-24.2 -3.3,0.9 -2.3,14.6 -0.9,23.6 1.4,9 4.8,14.3 7,15 0.9,0.3 1.9,0.3 2.7,0.2 -0.3,-3.3 -1.3,-4.6 -1.4,-6.1 z"
         id="path4271" />
      <path
         style="fill:#fbd7c7"
         d="m 46.8,70.8 c 2.7,-1.7 7.9,1 8,8.8 0.1,7.8 1.6,16 1.9,17.6 0.3,1.6 1.2,7.1 1.2,7.1 l 10.8,-2 c 0,0 2.6,-1.6 3.4,-2.9 1.3,-2.1 5.5,-8.1 4.8,-1.5 -0.2,1.4 -1.6,5.3 -2.9,6.5 -1.3,1.2 -4.8,3.2 -6.7,4 -1.9,0.8 -8.4,6.6 -12.6,5.5 -4.2,-1.1 -4.5,-2.7 -6,-8.4 C 47.2,99.7 45.3,92.1 44.3,85.6 43.2,78.5 41,74.3 46.8,70.8 Z"
         id="path4273" />
      <path
         style="fill:#3399cc"
         d="M 46.4,99.1 57.2,96.6 C 56.8,93.9 55.9,85.3 55.8,78 55.7,70 49.7,66.8 46.9,68.5 c -5.9,3.6 -4.7,8.7 -3.6,15.8 0.6,4.6 1.9,10 3.1,14.8 z"
         id="path4275" />
    </g>
  </g>
</svg>
