<?xml version="1.0" encoding="UTF-8" standalone="no"?>
<svg
   xmlns:dc="http://purl.org/dc/elements/1.1/"
   xmlns:cc="http://creativecommons.org/ns#"
   xmlns:rdf="http://www.w3.org/1999/02/22-rdf-syntax-ns#"
   xmlns:svg="http://www.w3.org/2000/svg"
   xmlns="http://www.w3.org/2000/svg"
   id="svg1671"
   version="1.1"
   viewBox="0 0 132.97168 55.817814"
   height="55.817814mm"
   width="132.97168mm">
  <defs
     id="defs1665" />
  <metadata
     id="metadata1668">
    <rdf:RDF>
      <cc:Work
         rdf:about="">
        <dc:format>image/svg+xml</dc:format>
        <dc:type
           rdf:resource="http://purl.org/dc/dcmitype/StillImage" />
        <dc:title></dc:title>
      </cc:Work>
    </rdf:RDF>
  </metadata>
  <g
     transform="translate(-44.968231,-95.627961)"
     id="layer1">
    <g
       transform="matrix(0.26458333,0,0,0.26458333,156.79632,89.396099)"
       id="g2242">
	<path
   style="opacity:0.2"
   d="m 5.5,231.2 c 16,10.8 26.2,-7.9 40.9,-11.6 17.3,-4.4 37.7,-9.6 29.3,-19.3 -8.4,-9.7 -25.5,-12.8 -36.1,0 -8.2,9.9 -51.6,19 -34.1,30.9 z"
   id="path2216" />

	<path
   style="fill:#262626"
   d="m 26.3,214.2 c -0.1,2.9 -1.7,4.1 -2.8,6.4 -1.1,2 -1.9,7.5 -6.2,9.2 -3.9,1.5 -8.2,0.9 -9.5,0 -1.3,-0.9 -1.6,-3.3 -0.6,-5.2 1,-1.9 3.3,-4 4.4,-8.1 1.1,-4.1 2.6,-6.1 2.6,-6.1 z"
   id="path2218" />

	<path
   style="fill:#ffffff"
   d="m 25,213.7 c 0,0 -1,0.8 -2.4,3.9 -1.5,3.1 -2.3,7.6 -5.4,8.9 -3.8,1.6 -8.2,1.2 -9.4,0.3 -1.2,-0.9 0.3,-3.1 2.4,-5.5 2.1,-2.4 1.9,-9.2 1.9,-9.2 z"
   id="path2220" />

	<path
   style="fill:#262626"
   d="m 50.2,196.5 c 0,1.4 0.6,2.2 2.7,3.8 2.1,1.6 3.1,4.3 5.7,6.4 3.8,3 7.8,3.3 11.5,2.1 1.9,-0.6 2.1,-1.3 2.4,-2 0.3,-0.7 0.4,-3.1 -0.1,-3.7 -1.4,-1.5 -5.7,-3.3 -6.4,-4.7 -0.7,-1.4 -2,-5.1 -2,-5.1 l -13.8,-0.6 z"
   id="path2222" />

	<path
   style="fill:#ffffff"
   d="m 50.4,194.6 c 0.7,0.6 3.4,2.5 4.7,4 1.2,1.4 5.7,6.7 9.1,7.3 3.5,0.5 6.8,-0.3 7.6,-1.3 0.8,-1 0,-1.6 -1,-2.3 -1,-0.7 -4.3,-2.5 -5,-3.6 -0.7,-1.2 -1.5,-5 -1.5,-5 z"
   id="path2224" />

	<path
   style="fill:#06547a"
   d="m 64.4,110.5 c 2.8,3.7 4.3,7.4 4.5,15.7 0.2,8.3 0.3,26 -0.6,29.4 -1,4.1 -3.9,19.4 -3.7,23.6 0.2,4.2 0.5,6.7 -0.2,8 -0.7,1.3 -0.8,1.6 0.3,2.8 1.1,1.3 1.3,3.3 1.1,4.7 -0.2,1.4 1,1.5 -1,1.4 -2,-0.1 -3.6,0.4 -6.5,1.2 -2.9,0.8 -7.9,-0.2 -8.2,-0.2 -0.3,0 0.1,-1.7 -0.4,-2.7 -0.5,-1.1 -0.9,-2.3 -0.9,-4.9 0,-2.6 -1.1,-17.3 -1.1,-23 0,-5.7 1.4,-11.8 1.7,-15.3 0.3,-4.3 -0.7,-12 -1.1,-13.6 -0.4,-1.6 -4,-22.4 -4,-22.4 z"
   id="path2226" />

	<path
   style="opacity:0.2"
   d="m 64.4,110.5 c 2.8,3.7 4.3,7.4 4.5,15.7 0.2,8.3 0.3,26 -0.6,29.4 -1,4.1 -3.9,19.4 -3.7,23.6 0.2,4.2 0.5,6.7 -0.2,8 -0.7,1.3 -0.8,1.6 0.3,2.8 1.1,1.3 1.3,3.3 1.1,4.7 -0.2,1.4 1,1.5 -1,1.4 -2,-0.1 -3.6,0.4 -6.5,1.2 -2.9,0.8 -7.9,-0.2 -8.2,-0.2 -0.3,0 0.1,-1.7 -0.4,-2.7 -0.5,-1.1 -0.9,-2.3 -0.9,-4.9 0,-2.6 -1.1,-17.3 -1.1,-23 0,-5.7 1.4,-11.8 1.7,-15.3 0.3,-4.3 -0.7,-12 -1.1,-13.6 -0.4,-1.6 -4,-22.4 -4,-22.4 z"
   id="path2228" />

	<path
   style="fill:#06547a"
   d="m 53.8,121.7 c 0,0 1.7,10.5 1,12.6 -0.7,2.2 -4.7,6.6 -6,10 -1.3,3.4 -2,9.6 -4.3,14.7 -2.3,5.1 -8.2,17.4 -9.2,21.7 -1,4.3 -1.8,9.4 -3.4,11 -1.7,1.7 -1.5,3.4 -2.2,6.9 -0.7,3.5 -2.5,7.5 -2.4,10.7 0.1,3.1 -0.8,3.3 -0.7,4.3 0.1,1 1.3,2.2 -0.4,2.7 -1.7,0.5 -6.1,0 -9.5,-0.6 -3.4,-0.6 -5.4,-0.1 -5.4,-0.1 0,0 -0.9,-4 -0.2,-5.7 1,-2.4 3.2,-3.6 3,-5.1 -0.2,-1.5 -1.8,-5.1 -0.3,-7.7 1.5,-2.6 2.2,-5.2 2.2,-9.7 0.1,-4.5 2.6,-10.7 3.8,-14.6 1.2,-3.9 5.2,-21.1 5.2,-26.2 0,-5.1 0.5,-13.8 1.5,-17.6 1.2,-4.7 0.5,-12.2 1.3,-14.3 0.9,-2.1 26,7 26,7 z"
   id="path2230" />

	<path
   style="fill:#fbd7c7"
   d="m 35.8,42.2 c 0.3,2.8 0.5,5.2 -0.5,7.1 -1.7,3.2 -4.3,5 -5.4,5.5 -1.1,0.5 3.2,10.6 10,11.6 6.8,1 23.7,4 24.8,4.7 1,0.7 5.2,5.1 5.2,5.1 0,0 -4.9,6.9 -6.3,9.3 -2.3,4 -6.3,11.5 -6.3,11.5 0,0 1.9,4.4 3.9,3.8 2,-0.6 2,-5.1 2.5,-6.1 0.5,-1 14.5,-15.9 15.4,-17.5 0.9,-1.6 1.5,-3.8 -0.7,-6 -2.2,-2.2 -7.5,-9 -9,-10.6 -1,-1 -3.3,-3.5 -5.9,-5.4 -2.6,-1.9 -12.3,-5 -12.3,-5 l -1.6,-7.1 z"
   id="path2232" />

	<path
   style="fill:#e5e5e5"
   d="m 30.8,54.3 c 0,0 7.7,9.3 16.1,7 C 55.3,59 52,50.9 52,50.9 c 0,0 6,-1 10.7,2.5 4.5,3.4 5.3,4.6 5.7,5.8 -0.3,0.8 -3.2,4.8 -3.2,4.8 0,0 0.7,4.4 0.1,8.3 -0.6,3.9 -3.6,13.4 -3.2,19 0.4,5.6 1.6,12.5 2.5,15.2 0.9,2.6 1.9,6.8 1.9,6.8 0,0 -3,6.7 -12.5,8.4 -9.5,1.7 -18.8,1.9 -22.8,-1 -4.5,-3.3 -4.2,-4.8 -3.4,-6.3 0.8,-1.5 3.8,-7.2 3.5,-11 -0.3,-3.8 -8,-26.8 -8,-26.8 l -8.5,-8.8 c 0,0 1.5,-6.4 5.7,-8.5 4.2,-2.1 10.3,-5 10.3,-5 z"
   id="path2234" />

	<path
   style="fill:#fbd7c7"
   d="m 15,67.7 c 0,0 1.4,0.3 3.3,1.2 1.9,0.9 6.9,4.2 7.8,5 1,0.8 0.5,1.2 -0.8,2.3 -1.2,1.1 -13.6,15 -13.6,15 0,0 5.3,3.9 7,5.7 1.7,1.8 6,4.3 7.4,4.1 1.4,-0.2 5.1,-2.8 7.3,-1.2 2.2,1.6 4.9,5.8 2,7.2 -2.9,1.4 -8.3,2.6 -10.6,1.8 C 22.5,108 5.3,99.3 3,97.4 0.3,95.3 -1.1,91.5 1.2,88.2 3.5,84.9 15,67.7 15,67.7 Z"
   id="path2236" />

	<path
   style="fill:#fbd7c7"
   d="m 33,39 c 0,0 -1.6,0.7 0.2,3.6 1.8,2.8 2.9,3.4 3.7,3.3 0.8,-0.1 1,-0.4 1,-0.4 0,0 0.9,3.5 3.8,5.2 2.8,1.7 8.7,3.8 11.4,2.8 2.7,-1 2.7,-14.2 2,-16.9 C 54.4,33.9 52.3,24.6 43.3,23.9 34.3,23.2 28.6,30.2 33,39 Z"
   id="path2238" />

	<path
   style="fill:#825012"
   d="m 42.9,23.6 c -9,-0.7 -14.3,6.6 -9.9,15.3 0,0 1.3,-0.6 3,0.6 1.6,1.2 2.2,2.6 2.2,2.6 l 1.1,-0.8 c 0,0 -0.2,-6.7 3.6,-8.6 2.4,-1.2 5.5,0.6 7.6,-0.4 1.1,-0.5 2,-1.7 2.3,-2.7 -2.2,-3.7 -6,-5.6 -9.9,-6 z"
   id="path2240" />

</g>
    <g
       transform="matrix(0.26458333,0,0,0.26458333,40.443856,86.260754)"
       id="g2323">
      <path
         style="opacity:0.2"
         d="m 42.8,237.8 c 5.5,-0.2 6.9,-2.6 8.2,-7.3 1.4,-4.7 -0.4,-5.7 2.9,-8.1 3.3,-2.4 5.9,-4.8 5,-8.4 -1.7,-6.9 -9,-15.1 -15.9,-15.1 -6.9,0 -19.8,10.2 -20.2,11.2 -0.4,1 -3.4,2.3 -0.4,6.4 4.8,6.5 8.4,21.6 20.4,21.3 z"
         id="path2265" />
      <path
         style="fill:#ffffff"
         d="m 27.8,204.8 c 0,0 -2.4,2.3 -4.3,3.7 -1.9,1.4 -2,4.1 -1.9,5 0.1,0.9 2.1,3.3 5.5,2.7 3.4,-0.6 6,-4.3 8.3,-6.4 2.3,-2.2 2.3,-2 4,-2.3 1.7,-0.3 0,-4.2 -2.3,-4.3 -2.3,-0.1 -6.8,-2.3 -6.8,-2.3 0,0 -1.5,2.8 -2.5,3.9 z"
         id="path2267" />
      <path
         style="fill:#ffffff"
         d="m 27.8,204.8 c 0,0 -2.4,2.3 -4.3,3.7 -1.9,1.4 -2,4.1 -1.9,5 0.1,0.9 2.1,3.3 5.5,2.7 3.4,-0.6 6,-4.3 8.3,-6.4 2.3,-2.2 2.3,-2 4,-2.3 1.7,-0.3 0,-4.2 -2.3,-4.3 -2.3,-0.1 -6.8,-2.3 -6.8,-2.3 0,0 -1.5,2.8 -2.5,3.9 z"
         id="path2269" />
      <path
         style="fill:#262626"
         d="m 35.4,209.9 c 2.3,-2.2 2.3,-2 4,-2.3 0.2,0 0.4,-0.1 0.5,-0.3 L 33.3,206 c 0,0 0.3,2.6 -1.8,4.9 -2,2.3 -3.2,3.6 -5.7,3.6 -1.8,0 -3.1,-0.4 -4.1,-1.6 0,0.3 0,0.5 0,0.7 0.1,1 2.1,3.3 5.5,2.7 3.4,-0.6 5.9,-4.2 8.2,-6.4 z"
         id="path2271" />
      <path
         style="fill:#cc291f"
         d="m 25.4,119.9 c 0,0 -3.4,9.4 -3.1,20.4 0.3,11.5 1.6,18.7 2.4,21.7 1.1,4.5 3.4,5.9 3.9,15.7 0.5,9.8 0.6,19.8 -0.2,22.7 -0.8,2.9 -2.7,4 -2.4,4.7 0.3,0.7 3.8,-0.4 5.5,1.2 1.7,1.6 4.5,2.7 5.9,2.7 1.4,0.1 2,0 2,0 l -3.7,-78.2 z"
         id="path2273" />
      <path
         style="opacity:0.2"
         d="m 25.4,119.9 c 0,0 -3.4,9.4 -3.1,20.4 0.3,11.5 1.6,18.7 2.4,21.7 1.1,4.5 3.4,5.9 3.9,15.7 0.5,9.8 0.6,19.8 -0.2,22.7 -0.8,2.9 -2.7,4 -2.4,4.7 0.3,0.7 3.8,-0.4 5.5,1.2 1.7,1.6 4.5,2.7 5.9,2.7 1.4,0.1 2,0 2,0 l -3.7,-78.2 z"
         id="path2275" />
      <path
         style="fill:#ffffff"
         d="m 41.7,225.9 c 0,0 -1.7,4.5 -1.7,5.4 0,0.9 -0.2,3.9 0.4,4.6 0.5,0.6 3.2,1.5 5.3,1.2 2.2,-0.3 4.3,-2.4 4.5,-3.2 0.2,-0.9 -0.1,-6.3 -0.2,-7.1 -0.1,-0.8 -0.5,-2.6 -0.5,-2.6 z"
         id="path2277" />
      <path
         style="fill:#262626"
         d="m 49.6,224.1 -1.4,0.3 c 0.4,1.9 0.9,6.3 0.3,8.1 -0.8,2.1 -3,2.7 -4.9,2.7 -1.1,0 -3,-0.6 -3.5,-2 0,1.1 0.1,2.3 0.4,2.7 0.5,0.6 3.2,1.5 5.3,1.2 2.2,-0.3 4.3,-2.4 4.5,-3.2 0.2,-0.9 -0.1,-6.3 -0.2,-7.1 -0.1,-0.8 -0.5,-2.7 -0.5,-2.7 z"
         id="path2279" />
      <path
         style="fill:#cc291f"
         d="m 33.8,131.7 c 0,0 -3,7.1 -3.5,17.3 -0.5,10.2 0.7,17 0.9,19.3 0.1,2.3 0.5,9.4 1.8,12.1 1.3,2.7 3.7,7.9 4.6,14.4 0.9,6.5 1.3,18.4 1.4,21.4 0.1,4 -0.5,7.3 0.2,9.2 0.7,1.9 3,-0.4 5.5,0.3 2.5,0.6 6.4,1.4 7.1,1 0.7,-0.4 -0.5,-7.5 -0.4,-11.6 0.1,-4.1 -0.2,-19.8 -1.1,-26.4 -0.8,-6.6 -5.6,-12.8 -4.8,-19.5 0.8,-6.7 5.4,-20.8 6.5,-25 1.1,-4.1 1.4,-10.2 0.8,-15.7 -0.5,-5.6 -19,3.2 -19,3.2 z"
         id="path2281" />
      <path
         style="fill:#fbd7c7"
         d="m 25.4,114.8 c 0,0 -4.3,3.1 -5.9,5.1 -1.6,2 -2.4,2.9 -2.4,4.7 0,1.8 0.8,2.9 1.6,2.7 0.8,-0.2 0,-2.7 0,-2.7 l 0.8,-1.6 c 0,0 -0.8,1.4 -0.4,2 0.4,0.5 2.2,2.4 2.7,2 0.6,-0.4 0.4,-1.2 0.4,-1.2 0,0 -1.5,-1 -1.2,-1.6 0.3,-0.6 0.8,-0.8 0.8,-0.8 0,0 -0.3,1.8 0,2.4 0.3,0.5 1.6,0.4 1.6,0.4 l 2.4,-5.5 z"
         id="path2283" />
      <path
         style="fill:#ffcc00"
         d="m 44.8,71.7 c -4.6,-0.9 -13.3,-1.6 -16.5,2.4 -3.2,4 -2.4,5.1 -2.4,7.1 0,2 -1.5,5.3 -2.4,7.5 -0.9,2.2 -2.3,5.9 -0.8,8.2 1.5,2.4 4.3,3.5 4.3,3.5 0,0 -0.8,9.3 -1.7,12.9 -0.9,3.5 -2,9.8 -2.4,11.8 -0.4,2 1.6,7.9 5.5,9.4 3.9,1.6 12.8,2.3 18.1,-1.6 5.3,-3.9 6.3,-6.3 6.3,-6.3 0,0 -1.9,-7.7 -1.6,-10.6 0.3,-2.9 5.2,-17.6 5.2,-17.6 L 60,86.6 61.2,85.8 c 0,0 0.3,-2.6 -1.2,-5.1 -1.5,-2.6 -4,-5.2 -7.5,-6.3 -3.5,-1.1 -3.7,-1.9 -7.7,-2.7 z"
         id="path2285" />
      <path
         style="fill:#fbd7c7"
         d="m 34.2,73.6 c 0,0 -6.9,5.5 -2.4,10.2 4.5,4.7 13.3,-4.2 14.9,-7.9 1.7,-3.5 -7.1,-7.6 -12.5,-2.3 z"
         id="path2287" />
      <path
         style="opacity:0.2;fill:#262626"
         d="m 22.3,93.3 c 0,0 -0.1,4.3 11,6.5 16.5,3.3 19.8,-2.9 19.8,-2.9 0,0 -3.1,8.6 -19.2,5.5 -14,-2.7 -11.6,-9.1 -11.6,-9.1 z"
         id="path2289" />
      <path
         style="fill:#825012"
         d="m 42.9,45.5 c -8.1,-0.5 -12,3 -13.5,8.6 -1.5,5.4 4,15.3 -1.8,17.9 0.1,2.2 5.1,4.5 7.3,2.1 2.2,-2.3 2.9,-2.4 2.9,-2.4 z"
         id="path2291" />
      <path
         style="fill:#fbd7c7"
         d="m 32.3,55.6 c -1.5,3.1 -1.9,15.6 0.6,17.6 2.5,2 7.6,-1.3 12.5,-3.5 4.9,-2.2 5.5,-19 -1.9,-19.2 -7.4,-0.2 -9.6,1.8 -11.2,5.1 z"
         id="path2293" />
      <path
         style="fill:#825012"
         d="m 41.4,45.7 c -3.3,0.8 -7.1,5.2 -6.4,10 1,6.2 13.2,18.3 4.6,22.2 1.4,4.6 9.5,4.3 14,2 4.3,-2.3 4.7,-4.5 4.6,-5.3 -0.1,-0.8 -3.8,-4.9 -3.8,-10.9 -0.1,-6.1 -0.4,-21.1 -13,-18 z"
         id="path2295" />
      <path
         style="fill:#fbd7c7"
         d="m 50.6,88.9 c 0,0 2.8,0 4.8,-0.3 2,-0.3 4.7,-2 4.7,-2 0,0 0.2,4.6 0.8,7.3 0.6,2.7 1.6,10.4 2,11.5 0.4,1.1 1.9,2 0,5.9 -1.9,3.9 -9.7,15.9 -11.1,19.1 -1.4,3.2 -1.3,6.2 -2,7.1 -0.7,0.9 -2.5,1.7 -2.7,1.6 -0.3,-0.1 -0.7,-0.1 -0.7,-0.1 0,0 -0.4,0.4 -1.1,0.4 -0.7,0 -0.9,-0.4 -0.9,-0.4 0,0 -0.5,0.8 -1.6,0.7 -1.1,-0.1 -1,-0.8 -1,-0.8 0,0 -1.6,0.8 -2.4,0.6 -0.8,-0.2 -1.2,-1 -0.7,-1.3 0.5,-0.3 1.6,-0.2 2.4,-0.9 0.8,-0.7 2.1,-2.8 2.1,-2.8 0,0 -0.3,-0.2 -0.2,-1.4 0,-1.2 -0.1,-3.1 1,-3.7 1.2,-0.6 2.6,-0.6 3.4,-1.6 2.5,-3 3.2,-8.2 5.4,-12.7 2.1,-4.5 3.6,-6.2 3.6,-6.6 0,-0.4 -2.8,-6.7 -3.8,-10.2 -1.1,-3.8 -2,-9.4 -2,-9.4 z"
         id="path2297" />
    </g>
  </g>
</svg>
