<?xml version="1.0" encoding="UTF-8" standalone="no"?>
<svg
   xmlns:dc="http://purl.org/dc/elements/1.1/"
   xmlns:cc="http://creativecommons.org/ns#"
   xmlns:rdf="http://www.w3.org/1999/02/22-rdf-syntax-ns#"
   xmlns:svg="http://www.w3.org/2000/svg"
   xmlns="http://www.w3.org/2000/svg"
   id="svg3224"
   version="1.1"
   viewBox="0 0 24.034546 47.496937"
   height="47.496937mm"
   width="24.034546mm">
  <defs
     id="defs3218" />
  <metadata
     id="metadata3221">
    <rdf:RDF>
      <cc:Work
         rdf:about="">
        <dc:format>image/svg+xml</dc:format>
        <dc:type
           rdf:resource="http://purl.org/dc/dcmitype/StillImage" />
        <dc:title></dc:title>
      </cc:Work>
    </rdf:RDF>
  </metadata>
  <g
     transform="translate(-118.94763,-113.0507)"
     id="layer1">
    <g
       transform="matrix(0.26458333,0,0,0.26458333,116.54698,98.816926)"
       id="g4403">
      <path
         style="opacity:0.2"
         d="m 60.1,229.4 c 19.4,-9.4 10.1,-21.9 -9.2,-25.3 -8.4,-1.5 -13.5,-14.9 -34.6,-1.6 -16.9,10.8 0,17.9 8.6,22 12.1,5.7 17.2,13.7 35.2,4.9 z"
         id="path4357" />
      <path
         style="fill:#262626"
         d="m 11.5,209 c -0.6,2.5 0,4.3 2.4,5.6 2.4,1.2 4.8,2 9.2,0.3 4.4,-1.7 8.7,-5.6 13,-7.4 4.3,-1.8 6.9,-3.9 7,-7.9 0.1,-3.9 -13,-6.1 -16.4,-1.9 -3.4,4.2 -7.7,6.3 -9.8,7.4 -2.1,1.1 -4.8,1.6 -5.4,3.9 z"
         id="path4359" />
      <path
         style="fill:#ffffff"
         d="m 12.3,209.1 c 0.4,1.2 3.4,3.9 6.5,3.3 3.1,-0.6 7.2,-3 10.3,-5.1 3.2,-2.1 6.7,-3.8 9.1,-4.9 2.4,-1.1 -7.9,-8.1 -7.9,-8.1 0,0 -4.7,5.5 -9.6,9 -4,2.8 -9.2,3.7 -8.4,5.8 z"
         id="path4361" />
      <path
         style="fill:#262626"
         d="m 52.6,209.3 c -0.8,3.1 -2.4,6.9 -6.6,11.6 -4.2,4.6 -3.9,4.8 -3.6,6.5 0.3,1.7 0.2,3.3 3.6,3.7 3.4,0.3 6.3,-0.1 8.8,-1.7 2.4,-1.6 9.3,-8.8 11.1,-11.1 1.8,-2.3 3.1,-2.9 3.1,-6 0,-3.1 -16.4,-3 -16.4,-3 z"
         id="path4363" />
      <path
         style="fill:#ffffff"
         d="m 67.1,212.4 c -1.8,2.4 -6.4,7.6 -9.6,10.5 -2.7,2.4 -3.7,4 -7.5,4.6 -3.4,0.6 -6.5,0.3 -7.3,-0.7 -0.8,-1 1.4,-3.6 4.9,-7.5 3.6,-4 5.2,-10.6 5.2,-10.6 z"
         id="path4365" />
      <path
         style="fill:#06547a"
         d="m 67.8,130.9 c -7.6,1.7 -24.2,7.9 -29,9.3 C 34,141.6 29,143 28,150 c -1,7 1.1,16.4 0.7,25.7 -0.4,9.3 -1,13 -0.6,14.9 0.4,2 0.5,2.4 -1.3,3.7 -1.8,1.4 -3.2,4.6 -2.3,6.4 1,1.8 7.9,6.5 13.9,4.8 6,-1.7 5.2,-3.3 6.3,-9.2 1.1,-5.9 1.8,-15.9 2.4,-24.4 0.6,-8.5 0,-12.7 1.1,-13.6 1.1,-1 7.4,-0.6 17.2,-2.5 9.8,-1.9 20.6,-9.2 20.6,-9.2 z"
         id="path4367" />
      <path
         style="opacity:0.2"
         d="m 67.8,130.9 c -7.6,1.7 -24.2,7.9 -29,9.3 C 34,141.6 29,143 28,150 c -1,7 1.1,16.4 0.7,25.7 -0.4,9.3 -1,13 -0.6,14.9 0.4,2 0.5,2.4 -1.3,3.7 -1.8,1.4 -3.2,4.6 -2.3,6.4 1,1.8 7.9,6.5 13.9,4.8 6,-1.7 5.2,-3.3 6.3,-9.2 1.1,-5.9 1.8,-15.9 2.4,-24.4 0.6,-8.5 0,-12.7 1.1,-13.6 1.1,-1 7.4,-0.6 17.2,-2.5 9.8,-1.9 20.6,-9.2 20.6,-9.2 z"
         id="path4369" />
      <path
         style="fill:#06547a"
         d="m 73.9,142.8 c -6.3,3.1 -15.3,12.7 -16.6,16.9 -1.3,4.2 -1.2,13.9 -1.3,17.2 -0.1,3.2 -1.2,21.9 -2.7,27.1 -0.8,2.6 -2.3,4.3 -2.6,6.4 -0.3,2.1 -1.3,2.7 -0.1,4 1.2,1.3 7.9,2.8 12.4,2.7 4.5,-0.1 5.7,-0.6 6.7,-2.3 1,-1.7 1.5,-3.2 0.5,-5.5 -1,-2.3 -0.9,-4.2 0.6,-5.9 1.5,-1.7 1.4,-6.4 1.8,-9.9 0.7,-6.1 1.3,-22.5 1.9,-23.1 0.6,-0.6 11.7,-5.1 17.1,-8.2 6.6,-3.8 9.1,-11.4 8.1,-20.3 -1,-8.9 -4.4,-12.7 -4.4,-12.7 z"
         id="path4371" />
      <path
         style="fill:#fbd7c7"
         d="m 50.3,85.9 c -0.8,1.7 -1.9,3.5 -3.3,6.7 -1.7,4 -5,9.1 -6.1,11.2 -1.3,2.6 -3.1,4.6 -3.1,9.2 0,4.8 2.1,19.3 1.9,21.4 -0.2,2 -0.5,4.1 1.4,5.6 1.9,1.6 3.3,2.7 3.5,3.7 0.2,1 0.6,1.2 0.6,2.4 -0.1,2.7 0.1,3.7 0.7,3.8 1,0.2 1.2,-3.3 1.2,-4.2 0,-0.9 -0.1,-1.8 -0.1,-1.8 0,0 0.8,1 1.1,3 0.3,2 0.2,4.6 1.4,5 1.2,0.4 1.2,-1.4 1,-3.2 -0.2,-1.8 -0.4,-3.1 -0.4,-3.1 l -0.7,-2 c 0,0 1.9,1.4 2.7,2.7 0.7,1 1.1,2.1 1.3,3.1 0.2,0.9 0.8,2.9 1.6,2.8 1,-0.1 0.6,-2.4 0.4,-3.4 -0.2,-1 -1.2,-3.7 -1.4,-4.1 -0.2,-0.4 -0.7,-1.4 -0.7,-1.4 0,0 1,0 1.9,1 0.9,1 1.5,2.5 2.3,3.5 0.8,1 1.2,1.7 1.9,1.2 0.7,-0.5 -1.1,-4.1 -1.6,-4.9 -0.5,-0.9 -0.6,-2 -1.9,-2.7 -1.3,-0.7 -3.7,-2.5 -4.8,-3.3 -1.2,-0.8 -3.2,-1.7 -3.4,-2.8 -0.3,-1.2 -0.6,-4.1 -0.4,-6.2 1,-12.9 0.1,-16.5 0.5,-17.5 0.5,-1.2 4,-6.1 7.5,-9.8 3.5,-3.7 6.7,-7.4 6.7,-7.4 z"
         id="path4373" />
      <path
         style="fill:#e5e5e5"
         d="m 64,75.2 c -4.5,0.2 -8.6,0 -11.8,5.2 -3.2,5.2 -2.9,7.1 -2.9,7.1 0,0 6,2.6 6.3,3.3 0.3,0.7 0.3,5.8 1.2,8.3 0.9,2.5 3.7,6.8 3.9,11.4 0.2,4.6 -0.4,20.7 0.1,22.5 0.8,2.8 4.1,7.9 10.1,9.5 6,1.6 15.3,1.4 21.2,-3.2 5.4,-4.2 5.1,-5.6 5,-7.5 C 97,129.9 93,126.7 92.5,123 92,119.3 94.7,111.1 94.5,103.4 94.4,95.7 94,92.5 89.4,86.6 85,81 80.2,76.3 77.5,74.8 74.1,72.8 64,75.2 64,75.2 Z"
         id="path4375" />
      <path
         style="fill:#fbd7c7"
         d="m 65.2,84.6 c 0,0 1,8 8.5,6.9 7.4,-1.1 10.7,-5.6 10.5,-8.4 -0.2,-2.4 -2.3,-4 -4.6,-6.3 -1.6,-1.7 -3.5,-2.7 -3.4,-3.7 0.2,-2 2.7,-9.9 -1.2,-14.6 -6.6,-7.9 -14.4,-3.6 -16.7,-1.9 -6,4.6 -6.7,11.2 -6.1,14.6 0.6,3.3 2.5,12.9 5,14.5 2.4,1.7 8,-1.1 8,-1.1 z"
         id="path4377" />
      <path
         style="fill:#825012"
         d="m 74.6,72.6 c 0,0 0.7,0.4 1.7,0.4 v 0 C 76.5,71 79,63.1 75.1,58.4 68.5,50.5 60.7,54.8 58.4,56.5 c -3,2.3 -4.7,5.1 -5.5,7.7 1,0.9 0.4,2.7 3.1,3.5 2.9,0.8 4.4,-3 7.5,-1.5 3.1,1.5 4,8 4,8 l 2.2,-1.6 c 0,0 0.9,-3.3 3.1,-3.2 2.1,0.2 1.8,3.2 1.8,3.2 z"
         id="path4379" />
      <path
         style="fill:#fbd7c7"
         d="m 62,153.7 c 0,0 1,-1.3 2,-1.8 0.9,-0.5 2,-0.9 2.6,-0.5 0.6,0.4 4,2.4 6.3,1.6 2.3,-0.8 3.1,-1.7 4.3,-3.4 1.2,-1.7 9.6,-8.3 11.5,-17.3 1.9,-9 4.7,-23.4 4.1,-24.2 -0.5,-0.8 -12.2,-3.5 -13.7,-2.7 -1.5,0.8 0.2,9.5 0.7,13.4 0.5,3.9 1.1,8.3 0.3,9.3 -0.8,0.9 -2.7,4.4 -4.3,8.4 -1.5,3.9 -2.9,8.8 -3.4,8.8 -0.5,0 -2.4,-1.9 -4.6,-1.6 -2.2,0.3 -2.2,0.8 -3,1.2 -0.6,0.3 -1.7,1 -2.7,1.6 -1,0.6 -1.8,1.4 -1.8,2.5 0,1.1 0.9,4.7 1.7,4.7 z"
         id="path4381" />
    </g>
    <path
       style="clip-rule:evenodd;fill:#3399cc;fill-rule:evenodd;stroke-width:0.04220423;fill-opacity:1"
       d="m 132.71119,119.24276 c 0,0 -0.45158,0.56554 -0.45158,0.81454 0,0.24901 0.20258,0.45159 0.45158,0.45159 0.24901,0 0.45159,-0.20258 0.45159,-0.45159 0,-0.249 -0.45159,-0.81454 -0.45159,-0.81454 z m -0.004,1.09731 c -0.1646,0 -0.29544,-0.13084 -0.29544,-0.29543 0,-0.0253 0.0169,-0.0422 0.0422,-0.0422 0.0253,0 0.0422,0.0169 0.0422,0.0422 0,0.11817 0.0929,0.21102 0.21103,0.21102 0.0253,0 0.0422,0.0169 0.0422,0.0422 0,0.0253 -0.0169,0.0422 -0.0422,0.0422 z"
       id="path4405" />
  </g>
</svg>
