<?xml version="1.0" encoding="UTF-8" standalone="no"?>
<svg
   xmlns:dc="http://purl.org/dc/elements/1.1/"
   xmlns:cc="http://creativecommons.org/ns#"
   xmlns:rdf="http://www.w3.org/1999/02/22-rdf-syntax-ns#"
   xmlns:svg="http://www.w3.org/2000/svg"
   xmlns="http://www.w3.org/2000/svg"
   id="svg3224"
   version="1.1"
   viewBox="0 0 25.707981 56.42141"
   height="56.42141mm"
   width="25.707981mm">
  <defs
     id="defs3218" />
  <metadata
     id="metadata3221">
    <rdf:RDF>
      <cc:Work
         rdf:about="">
        <dc:format>image/svg+xml</dc:format>
        <dc:type
           rdf:resource="http://purl.org/dc/dcmitype/StillImage" />
        <dc:title></dc:title>
      </cc:Work>
    </rdf:RDF>
  </metadata>
  <g
     transform="translate(-122.32688,-110.32291)"
     id="layer1">
    <g
       transform="matrix(0.26458333,0,0,0.26458333,115.11163,106.13456)"
       id="g4211">
      <path
         style="fill:#262626"
         d="m 104.1,132.1 c 1.6,2 8.4,11.9 9.8,13.9 2.2,3.1 2.8,6.3 0.5,9 -2.2,2.7 -5.4,2.9 -8.1,1.3 -2.7,-1.6 -7.5,-9.7 -7.5,-9.7 z"
         id="path4171" />
      <path
         style="fill:#ffffff"
         d="m 104.6,136.6 c 2.1,2.6 6.9,10.1 8.5,12.6 1.3,2 1.7,5.2 -1.7,6.9 -3.4,1.7 -6.7,-1 -8.2,-3.3 -1.6,-2.2 -6.5,-9.8 -6.5,-9.8 z"
         id="path4173" />
      <path
         style="opacity:0.2"
         d="m 111,196.3 c 12.6,6.9 18.6,17 7.9,25.4 -10.7,8.4 -28.3,10.2 -42.4,2.4 -14.1,-7.8 -5.8,-16.2 3.7,-22.3 9.5,-6.1 19.3,-11.8 30.8,-5.5 z"
         id="path4175" />
      <path
         style="fill:#06547a"
         d="m 40.1,124.3 c -0.5,5.2 -2,11.3 0.5,20.7 2.5,9.4 4.8,21 7.7,23.7 2.6,2.5 7.6,3.3 13,0.9 5.4,-2.4 13.7,-6.7 17.7,-7.1 4,-0.4 18.6,-4.8 18.6,-4.8 0,0 -3.8,-16.2 -6.9,-16.1 -3.1,0.1 -28,7.7 -28,7.7 l -4.1,-22 z"
         id="path4177" />
      <path
         style="opacity:0.2"
         d="m 40.1,124.3 c -0.5,5.2 -2,11.3 0.5,20.7 2.5,9.4 4.8,21 7.7,23.7 2.6,2.5 7.6,3.3 13,0.9 5.4,-2.4 13.7,-6.7 17.7,-7.1 4,-0.4 18.6,-4.8 18.6,-4.8 0,0 -3.8,-16.2 -6.9,-16.1 -3.1,0.1 -28,7.7 -28,7.7 l -4.1,-22 z"
         id="path4179" />
      <path
         style="fill:#06547a"
         d="m 50.5,131 c 0,0 3.1,15.1 5.1,17.4 2,2.3 7.1,2.6 7.6,4.3 0.5,1.7 12.9,22.7 16.2,25.1 4.2,3.1 12.4,3 14.8,-1.4 2.2,-4.2 2.9,-14.3 5.6,-19.8 2.7,-5.5 5.6,-7.6 7.2,-9.6 2.6,-3.3 1,-17.5 -6.2,-18.7 -7.2,-1.2 -8.2,5.2 -9.9,8.2 -1.7,3 -4.7,8.9 -4.7,8.9 0,0 -5.5,-13.1 -7.5,-17.9 -2,-4.8 -4.7,-8.9 -4.7,-8.9 z"
         id="path4181" />
      <path
         style="fill:#fbd7c7"
         d="m 41.2,25.6 c 0.8,0 6.4,0.8 8.5,-0.7 1.2,-0.8 1.5,-2.9 1.5,-3.9 0.1,-1 -0.5,-4.3 -2.4,-4.9 -1.8,-0.6 -6,-0.2 -8,1.2 -1.6,1.1 -2,2 -3.3,3.4 -1.3,1.3 -2.5,2.4 -3.3,4.2 -1.3,2.6 -3.2,10.4 -5.7,14.1 -2.6,3.9 -0.6,6.7 1.6,9.4 2.2,2.7 11.2,11.1 11.6,12.2 0.4,1.1 16.2,-1.6 14.5,-4.8 -1.6,-3.2 -6,-4.6 -8.1,-5.2 -2.1,-0.6 -2.9,-1 -4,-2.5 -0.7,-0.9 -1.8,-2.5 -3.7,-3.8 -2.1,-1.3 -2.9,-2 -2.9,-2 0,0 2.7,-4.5 3,-8.8 0.4,-4.3 0.7,-7.9 0.7,-7.9 z"
         id="path4183" />
      <path
         style="fill:#e5e5e5"
         d="m 60.2,58.7 c 0,0 -2.6,-3.3 -5.3,-5 -2.7,-1.7 -5,-2.5 -5,-2.5 0,0 -2,1.5 -4.2,3.9 -2.2,2.4 -4.3,5.4 -4.3,5.4 0,0 -3.4,6.5 -2.9,15.7 0.5,9.2 3.6,23 2.9,28.3 -0.7,5.3 -1.8,18.4 -1.8,20.6 -0.1,2.2 5.8,8.3 15.3,8.1 9.4,-0.2 22.1,-4.4 22.3,-9.2 0.2,-4.8 -2.5,-4.8 -2.7,-9.4 -0.3,-4.6 1,-20.4 7.9,-29.3 5,-6.5 4.3,-7.2 8.1,-9.4 C 94.2,73.7 90.4,62.5 86.7,62.2 83,61.9 75.1,61.7 71.4,62.2 67.8,62.7 60.2,58.7 60.2,58.7 Z"
         id="path4185" />
      <path
         style="fill:#fbd7c7"
         d="m 99,60.7 c 0,0 -1.2,-3.2 -1.9,-9.2 C 96.4,45.6 96.6,43.3 95,41.8 93.4,40.3 90.7,40.4 90.2,39.2 89.7,38 88,37.5 87.3,36.1 86.5,34.6 86.6,32.7 88,31.8 c 1.4,-0.9 4.5,-2.3 5.8,-1.6 1.3,0.6 1.8,1.3 2.6,2.1 1,1.1 1.8,3 3.4,5.7 1.6,2.7 7.8,16.7 9.4,20.2 1.6,3.5 2.8,7.3 0,10.4 -2.8,3.1 -7.3,2 -11,3.3 -3.7,1.4 -7.2,4.2 -8.8,4.2 -1.6,0 -6.5,-1.7 -6.9,-8.1 -0.4,-6.4 4.6,-5.6 5.6,-5.5 1,0.1 1.4,0.2 3.8,-0.9 2.4,-1.1 7.1,-0.9 7.1,-0.9 z"
         id="path4187" />
      <path
         style="fill:#fbd7c7"
         d="m 71.1,59.4 c 0.5,-0.8 3.8,-3.9 5.3,-4.3 1.5,-0.3 3,-0.5 4.4,-1.9 1.7,-1.7 0.7,-2.9 0.7,-2.9 0,0 3.3,-3.5 2.2,-9.2 -1.1,-5.9 -10.2,-11.6 -17.4,-6.3 -2.8,2.1 -9.5,12.7 -9,15.1 0.5,2.3 1.6,2.8 0.9,4.1 -0.7,1.3 -1.4,5 -2,5.4 -0.5,0.3 -7,6.2 1,9.8 8.6,3.8 12.2,-2.7 13.8,-4.2 2.1,-2 3.1,-2.7 3.1,-2.7 0,0 -4.6,-0.2 -3,-2.9 z"
         id="path4189" />
      <path
         style="fill:#825012"
         d="M 83.7,41.1 C 82.9,36.9 78,32.7 72.6,32.7 c 0.4,0.6 1.1,1.4 1.8,2.1 2.7,2.3 4.2,1.1 5.2,4.2 1,3.1 -3.5,10.2 -3.5,10.2 l 1.2,0.8 c 0,0 2.9,-1.5 4.2,0.3 0,0 0,0 0,0 0.4,-0.5 3.2,-3.9 2.2,-9.2 z"
         id="path4191" />
    </g>
  </g>
</svg>
