<?xml version="1.0" encoding="UTF-8" standalone="no"?>
<svg
   xmlns:dc="http://purl.org/dc/elements/1.1/"
   xmlns:cc="http://creativecommons.org/ns#"
   xmlns:rdf="http://www.w3.org/1999/02/22-rdf-syntax-ns#"
   xmlns:svg="http://www.w3.org/2000/svg"
   xmlns="http://www.w3.org/2000/svg"
   id="svg1880"
   version="1.1"
   viewBox="0 0 43.714981 33.103355"
   height="33.103355mm"
   width="43.714981mm">
  <defs
     id="defs1874" />
  <metadata
     id="metadata1877">
    <rdf:RDF>
      <cc:Work
         rdf:about="">
        <dc:format>image/svg+xml</dc:format>
        <dc:type
           rdf:resource="http://purl.org/dc/dcmitype/StillImage" />
        <dc:title></dc:title>
      </cc:Work>
    </rdf:RDF>
  </metadata>
  <g
     transform="translate(-58.869499,-97.04354)"
     id="layer1">
    <g
       transform="matrix(0.26458333,0,0,0.26458333,54.18092,85.532919)"
       id="g3018">
      <path
         style="opacity:0.2"
         d="m 21.1,135.6 c 8.8,4.6 19.7,1.3 24.8,-1.3 5.1,-2.6 8.3,-0.3 9.5,1.9 1.2,2.2 3.3,10 9.1,12.3 5.8,2.3 12.3,2.3 19.7,-5 7.5,-7.3 14.5,-5.5 18.6,-3.5 4.1,2 8,8.2 9.7,9.1 1.8,0.9 1.1,-2.8 3.4,-1.8 2.4,1.1 8.5,5.1 12,2.7 3.4,-2.5 -4.7,-7.5 -9.8,-9.8 -24.6,-11 -9,-14.8 -20.3,-22.6 -11.3,-7.8 -20.3,2.7 -28.3,-2.6 -8,-5.3 -17,-3.4 -24.7,1.4 -7.7,4.8 -36.9,12.3 -23.7,19.2 z"
         id="path2966" />
      <path
         style="fill:#262626"
         d="m 54.6,129 c -3.6,2.1 -12.3,6.9 -16.2,7.3 -4.8,0.5 -7.4,-1.6 -8.3,-5.1 -1.4,-5.2 18.2,-13.5 18.2,-13.5 z"
         id="path2968" />
      <path
         style="fill:#ffffff"
         d="m 52.8,127.7 c -4.5,2 -12.3,7.5 -16.9,6 -4.5,-1.6 -4.6,-4.4 -3.4,-6.7 2.4,-4.6 17.4,-7.2 17.4,-7.2 z"
         id="path2970" />
      <path
         style="fill:#262626"
         d="m 47,121.8 c 1.7,-0.2 1.3,2.9 0.4,3.9 -0.9,1 -7.6,4.5 -11.5,6.1 -3.9,1.6 -10.3,3 -13.5,2.5 -3.2,-0.5 -3.4,-3.7 -1.9,-4.9 1.6,-1.2 6.4,-2.4 9.2,-5.7 2,-2.4 4.6,-6.5 4.6,-6.5 z"
         id="path2972" />
      <path
         style="fill:#ffffff"
         d="m 45.1,123.1 c -2.1,1 -7.6,4.6 -12.4,6.1 -4.8,1.5 -9.6,2.2 -11.6,0.9 -1.3,-0.9 3.8,-1.7 6.5,-4 3.8,-3.1 5.1,-6.6 5.1,-6.6 z"
         id="path2974" />
      <path
         style="fill:#06547a"
         d="m 58.5,111.1 c -3,-0.3 -8.1,1.1 -9.9,6.2 -1.8,5.1 -1.2,9.7 1,10.6 2.2,0.9 3.5,0.1 4.4,1.5 0.9,1.4 3.3,7 4.5,10.1 1.2,3.1 3.2,6.4 5.5,8 2.3,1.6 6.2,2.7 10.2,0.4 4,-2.4 8,-6.5 11.6,-8.8 4.7,-3 14.9,-12.6 17.2,-16.3 2.3,-3.7 2.1,-6.2 2.1,-6.2 L 80.7,105.8 c 0,0 -9.5,9.1 -9.7,10.2 -0.2,1.1 2.2,3.3 1.9,4.6 -0.3,1.3 -0.6,2 -0.6,2 0,0 -7.7,-10.9 -13.8,-11.5 z"
         id="path2976" />
      <path
         style="fill:#06547a"
         d="m 80.3,108.2 -9,8.1 c 0,0 -2.3,-1.2 -3.7,-3 -1.6,-2.1 -5.7,-12.6 -5.7,-12.6 0,0 -3.6,7 -4.7,9.8 -1.1,2.8 -7.6,8.8 -7.8,10.5 -0.2,1.7 -0.1,3.4 -1.9,3.6 -1.8,0.2 -14.1,-0.2 -16.6,-1.8 -1.9,-1.2 -0.7,-5.1 2.5,-7.1 2,-1.3 2.8,-3.3 3.8,-6.2 1,-2.8 3.7,-4.9 5.5,-8.6 1.8,-3.7 7.3,-20.2 9.3,-24.4 2,-4 6.5,-9.2 13,-4.9 6.8,4.5 7.9,5.7 11.6,10.2 3.5,4.2 7.3,9.2 7.3,9.2 z"
         id="path2978" />
      <path
         style="opacity:0.2"
         d="m 80.3,108.2 -9,8.1 c 0,0 -2.3,-1.2 -3.7,-3 -1.6,-2.1 -5.7,-12.6 -5.7,-12.6 0,0 -3.6,7 -4.7,9.8 -1.1,2.8 -7.6,8.8 -7.8,10.5 -0.2,1.7 -0.1,3.4 -1.9,3.6 -1.8,0.2 -14.1,-0.2 -16.6,-1.8 -1.9,-1.2 -0.7,-5.1 2.5,-7.1 2,-1.3 2.8,-3.3 3.8,-6.2 1,-2.8 3.7,-4.9 5.5,-8.6 1.8,-3.7 7.3,-20.2 9.3,-24.4 2,-4 6.5,-9.2 13,-4.9 6.8,4.5 7.9,5.7 11.6,10.2 3.5,4.2 7.3,9.2 7.3,9.2 z"
         id="path2980" />
      <path
         style="fill:#fbd7c7"
         d="m 87.9,59.2 c -5,0.1 -13.4,-1.6 -17.7,-2.6 -4.3,-1 -7.6,-1.7 -9.5,2.6 -1.9,4.3 -6.6,19.9 -7,21.5 -0.4,1.6 -1.9,8.3 -2.1,10.5 -0.1,1.3 0.8,5 1.5,5.7 0.7,0.7 1.4,0 1.5,0.4 0.2,0.3 0.9,3.1 1.7,3.5 0.8,0.3 1.3,-0.4 1.6,-0.2 0.3,0.2 0.8,2.2 2,2.1 1,-0.1 0.8,-0.8 0.8,-0.8 0,0 0.9,1.5 1.8,1.2 1.2,-0.4 -0.1,-3.1 -0.3,-5.6 -0.2,-3.2 0.1,-4.4 0.1,-4.4 0,0 1.1,-0.3 1.3,-1.3 0.2,-1 0.5,-5.5 -0.2,-6.7 -0.7,-1.2 -2.6,-2.9 -2.6,-3.9 0,-1 1.1,-4.6 3.7,-8 2.6,-3.4 3.5,-6.5 3.5,-6.5 0,0 3.8,2.1 9.1,3.8 5.3,1.6 10.5,2.6 10.5,2.6 z"
         id="path2982" />
      <path
         style="fill:#e5e5e5"
         d="m 95.9,60.7 c -3.3,-0.8 -4.1,-1.9 -7.5,-2.2 -3.4,-0.3 -4.2,-0.2 -4.9,0.9 -0.7,1.1 -1.5,5 -1,8.5 0.5,3.5 1.8,5.2 2,7.2 0.2,2 0.2,5 0.9,8.2 0.6,3.2 1.3,4.9 1.3,4.9 0,0 -2,0.9 -3.3,1.6 -1.4,0.7 -2.5,7 -3.9,10.4 -1.4,3.4 -3.5,5.7 0.6,11.2 4.5,5.9 9.7,12.4 16.2,12.9 4,0.3 6.4,0.1 7.6,-1.9 1.3,-2 2.2,-5.3 3.2,-6.4 1,-1.1 12.1,-11.1 13.2,-13.6 1.1,-2.5 0.3,-2.7 1.9,-4.5 1.6,-1.8 3.5,-7.4 2.6,-11.2 -0.9,-3.8 -6.7,-12.4 -10.3,-16.8 -8.1,-9.6 -18.6,-9.2 -18.6,-9.2 z"
         id="path2984" />
      <path
         style="fill:#fbd7c7"
         d="m 108.8,64.6 c 0,0 0.1,1.3 1.5,2.2 1.4,0.9 4.6,3.8 4.7,6.2 0.1,2.4 -6.3,9.7 -11.6,9.3 -5.3,-0.4 -7.5,-7.3 -7.4,-8.6 0.1,-1.3 5.4,-9.6 5.4,-9.6 z"
         id="path2986" />
      <path
         style="fill:#fbd7c7"
         d="m 111.4,60.6 c 0,0 1.6,1 -1,3.9 -2.6,2.8 -3.3,1.9 -3.3,1.9 0,0 -0.7,3.8 -4.5,5.6 -3.8,1.8 -9.9,4.9 -12.3,2.4 -2.2,-2.3 -1.7,-11.4 -1.2,-16.7 0.5,-5.3 4.3,-12.2 10,-13.8 5.2,-1.4 13,0.9 13.9,7.2 0.9,6.3 -1.6,9.5 -1.6,9.5 z"
         id="path2988" />
      <path
         style="fill:#825012"
         d="m 111.4,60.6 c 0,0 0,0 0,0 0,0 2.5,-3.2 1.6,-9.5 -0.9,-6.3 -8.7,-8.6 -13.9,-7.2 -2.5,0.7 -4.6,2.4 -6.2,4.5 0.3,1.2 -0.7,3.6 1.4,4.9 2.4,1.4 5.2,-0.7 8.2,0.8 3,1.5 2,9.3 2,9.3 l 2.2,-0.1 c 0,0 0.6,-2 2.2,-2.6 1.1,-0.5 1.9,-0.4 2.5,-0.1 z"
         id="path2990" />
      <path
         style="fill:#fbd7c7"
         d="m 108.9,96.1 c 0,0 3.6,2.8 6.7,3.1 3.1,0.3 6.2,-0.8 6.2,-0.8 0,0 -1.2,5.9 -1.4,8.8 -0.2,2.9 0,7.5 -1.4,11.4 -1.4,3.9 -5.6,17.2 -5.2,17.9 0.3,0.7 8.8,4.2 10.3,5 1.5,0.8 4.1,2.7 4.2,3.2 0,0.1 0,0.4 -0.5,0.7 1,0.8 2.8,2.1 2.2,2.8 -0.5,0.6 -1.1,0.6 -1.5,0.4 0.1,0.1 1.2,0.9 0.8,1.5 -0.7,0.8 -2.5,-0.1 -3.4,-0.7 0.3,0.3 0.3,0.7 -0.2,1.2 -0.6,0.6 -2.8,-0.3 -4.1,-1.1 -1.3,-0.8 -7.3,-4.1 -7.3,-4.1 0,0 0.7,1.6 0.5,2.8 -0.2,1.2 -1.4,1.3 -1.9,0.8 -0.5,-0.5 -2.2,-3.6 -2.7,-3.9 -0.5,-0.3 -1.3,-1.6 -1.2,-2.3 0.1,-0.7 -0.1,-1.5 -0.7,-2.9 -0.6,-1.4 -0.9,-2 -0.5,-6.5 0.5,-4.5 0.2,-10.7 1.3,-15.3 0.7,-3.2 1.6,-5.2 1.4,-6.2 -0.1,-1 -1.7,-5.8 -1.8,-9.8 -0.1,-3.1 0.2,-6 0.2,-6 z"
         id="path2992" />
      <path
         style="fill:#fbd7c7"
         d="M 127.3,144.3"
         id="path2994" />
    </g>
    <g
       transform="matrix(0.26458333,0,0,0.26458333,83.681962,109.42478)"
       id="g3078">
	<polygon
   style="fill:#baa794"
   points="57.7,7.9 59.3,10.4 55.9,10.5 "
   id="polygon3060" />

	<path
   style="opacity:0.2"
   d="m 33,61.7 c -6.5,4 -7,8.7 1.4,13.3 9.2,5 14.7,3.9 21.8,-0.3 6.3,-3.6 4.9,-8.6 -5.7,-12.8 C 42,58.5 37.6,58.9 33,61.7 Z"
   id="path3062" />

	<polygon
   style="fill:#baa794"
   points="42.5,68.7 38.1,68.5 36.3,63.8 34.9,64.2 36.6,68.9 34.4,72.1 37,70.3 38.7,71.6 38.5,69.7 "
   id="polygon3064" />

	<polygon
   style="fill:#baa794"
   points="51.7,71 46.2,71.3 43.7,64.7 42.1,65.5 44.3,72.1 41.7,75 45.3,73.5 47.2,74.7 46.8,72.9 "
   id="polygon3066" />

	<path
   style="fill:#825012"
   d="m 40.9,24.3 c -5.1,1.3 -10.8,4.8 -12.4,6.3 -1.6,1.5 -9.7,6.5 -9.7,17.4 0,4.1 1.4,10.8 9,15.1 2,1.1 4.1,1.3 5.3,1.4 1,0.1 1.8,0.8 3,0.6 1.9,-0.3 1.9,-0.6 1.9,-0.6 0,0 2.2,2 4.9,1.1 3.5,-1.2 3.5,-5.1 3.5,-5.1 0,0 11.2,-7.3 12.9,-17.1 1.4,-8 -2.5,-15.5 -4.3,-17.3 -1.7,-2 -9,-3.2 -14.1,-1.8 z"
   id="path3068" />

	<path
   style="fill:#762c07"
   d="m 55,6.6 c -3.4,-1.3 -6,-1.3 -9.3,5.1 -3.2,6.2 -3,9.2 -4.7,11 -1.7,1.8 -4.3,2.9 -4.3,2.9 l 4.9,-0.3 0.1,4.9 3.9,-4.1 2.3,5.6 2.8,-4.6 3.3,5.3 0.3,-4.8 3.9,4.1 c 0,0 -2.8,-5.6 -3,-7.1 C 55,23.1 53,16.7 53.9,14.7 54.8,12.7 58,7.8 55,6.6 Z"
   id="path3070" />

	<path
   style="fill:#762c07"
   d="m 24,18.1 c -3.2,-0.3 -2.5,2.7 -2.5,2.7 0,0 -1.5,-1.5 -2.9,0 -1.3,1.5 0.2,3.3 0.2,3.3 0,0 -1.8,-0.6 -2.6,1.4 -1,2.5 1.2,3.4 1.2,3.4 0,0 -2.4,-0.9 -2.6,2.1 -0.1,2 2,3.1 2.4,6.7 0.8,7.9 1.6,10.7 1.6,10.7 0,0 10.7,-4.9 12.9,-9.8 2.2,-4.9 0.7,-6.9 0.7,-6.9 0,0 -2.8,-1.9 -3.3,-4.8 C 28.6,24 27.5,18.4 24,18.1 Z"
   id="path3072" />

	<path
   style="fill:#cc291f"
   d="M 55.3,7.4 C 55,7.4 53,6.1 51.8,6 50.6,5.8 50.6,4.8 51,4.4 51.3,4 52,4.1 52,4.1 c 0,0 -0.4,-0.5 0.2,-1 0.7,-0.5 1.3,-0.1 1.3,-0.1 0,0 -0.1,-0.7 0.5,-1 0.5,-0.2 0.9,0.4 0.9,0.4 0,0 0.1,-1 1.1,-0.4 1,0.6 0.9,5.1 0.9,5.1 L 57.8,8 56.6,9.5 c 0,0 0.5,1.2 -0.2,2.6 -0.8,1.4 -2.3,3.1 -3,2.3 -0.7,-0.8 2.3,-3.7 2.3,-3.7 0,0 -1.2,0 -1.5,-1.2 -0.3,-1.2 1.1,-2.1 1.1,-2.1 z"
   id="path3074" />

	<path
   style="fill:#2d3134"
   d="m 55.8,8.9 c -0.5,0.1 -0.4,1.1 0.1,1 0.6,-0.1 0.4,-1.1 -0.1,-1 z"
   id="path3076" />

</g>
    <rect
       style="fill:#999999;stroke-width:0.13228829"
       x="123.09895"
       y="78.373459"
       transform="rotate(14.016788)"
       width="0.26457658"
       height="4.3655133"
       id="rect3097" />
    <path
       style="clip-rule:evenodd;fill:#2d3134;fill-rule:evenodd;stroke-width:0.13229166"
       d="m 102.57124,101.1654 -2.791347,0.48948 v 2.69877 c -0.0926,-0.0794 -0.18521,-0.11906 -0.317497,-0.11906 -0.13229,0 -0.25136,0.0397 -0.39688,0.10583 -0.145517,0.0661 -0.251347,0.15875 -0.343957,0.27781 -0.0926,0.11907 -0.13229,0.25136 -0.13229,0.38365 0.0132,0.11906 0.0529,0.2249 0.14552,0.29104 0.0794,0.0661 0.18521,0.10584 0.317497,0.10584 0.13229,0 0.29105,-0.0265 0.436567,-0.0926 0.14552,-0.0662 0.29104,-0.15875 0.38364,-0.26459 0.0926,-0.11906 0.185207,-0.25135 0.185207,-0.38364 v -1.74626 l 2.23573,-0.37042 v 1.37584 c -0.0926,-0.0794 -0.18521,-0.11906 -0.3175,-0.11906 -0.13229,0 -0.25136,0.0397 -0.39688,0.10583 -0.14551,0.0662 -0.25135,0.15875 -0.34395,0.27781 -0.0926,0.11907 -0.1323,0.25136 -0.1323,0.38365 0.0132,0.11907 0.0529,0.2249 0.14553,0.29104 0.0926,0.0661 0.19843,0.10584 0.33072,0.10584 0.1323,0 0.29105,-0.0265 0.43657,-0.0926 0.14552,-0.0662 0.29104,-0.15875 0.38364,-0.26459 0.0926,-0.11906 0.18522,-0.25135 0.18522,-0.38365 v -3.05595 z m -0.27781,1.09803 -2.23573,0.37042 v -0.29105 l 2.23573,-0.37042 z"
       id="path3107" />
  </g>
</svg>
