<?xml version="1.0" encoding="UTF-8" standalone="no"?>
<svg
   xmlns:dc="http://purl.org/dc/elements/1.1/"
   xmlns:cc="http://creativecommons.org/ns#"
   xmlns:rdf="http://www.w3.org/1999/02/22-rdf-syntax-ns#"
   xmlns:svg="http://www.w3.org/2000/svg"
   xmlns="http://www.w3.org/2000/svg"
   xmlns:sodipodi="http://sodipodi.sourceforge.net/DTD/sodipodi-0.dtd"
   xmlns:inkscape="http://www.inkscape.org/namespaces/inkscape"
   enable-background="new 0 0 80 240"
   height="204.6866"
   viewBox="0 0 65.037613 204.6866"
   width="65.037613"
   version="1.1"
   id="svg68"
   sodipodi:docname="hold-cake.svg"
   inkscape:version="0.92.3 (2405546, 2018-03-11)">
  <metadata
     id="metadata74">
    <rdf:RDF>
      <cc:Work
         rdf:about="">
        <dc:format>image/svg+xml</dc:format>
        <dc:type
           rdf:resource="http://purl.org/dc/dcmitype/StillImage" />
        <dc:title></dc:title>
      </cc:Work>
    </rdf:RDF>
  </metadata>
  <defs
     id="defs72" />
  <sodipodi:namedview
     pagecolor="#ffffff"
     bordercolor="#666666"
     borderopacity="1"
     objecttolerance="10"
     gridtolerance="10"
     guidetolerance="10"
     inkscape:pageopacity="0"
     inkscape:pageshadow="2"
     inkscape:window-width="874"
     inkscape:window-height="492"
     id="namedview70"
     showgrid="false"
     fit-margin-top="0"
     fit-margin-left="0"
     fit-margin-right="0"
     fit-margin-bottom="0"
     inkscape:zoom="0.98333333"
     inkscape:cx="33.9"
     inkscape:cy="111.09372"
     inkscape:window-x="134"
     inkscape:window-y="55"
     inkscape:window-maximized="0"
     inkscape:current-layer="svg68" />
  <path
     d="m 24.8,27.192878 c -3.4,0.9 -6.1,3.6 -6.3,11.2 -0.2,7.6 -2.2,16.1 -4.7,20.8 -2.5,4.7 -7.3000004,15.8 -8.0000004,16.3 -0.7,0.4 -3.6,3.1 -4.4,4.8 -1.39999998146973,3 -1.89999998,9.2 0.2,10 2.1,0.8 2.8,-4.9 3.3,-5.7 0.5,-0.8 3.8,-3.1 3.8,-3.8 0,-0.7 -0.1,-0.7 -0.1,-0.7 0,0 5.1000004,-6.1 7.9000004,-9.4 2.8,-3.3 7.3,-9.6 7.7,-11.9 0.6,-2.4 9.8,-34.1 0.6,-31.6 z"
     id="path2"
     inkscape:connector-curvature="0"
     style="fill:#fbd7c7" />
  <path
     d="m 18.2,179.79288 c -11.8000004,7.6 -12.4000004,14.4 0,21 13.5,7.2 22.4,3.3 32.9,-2.7 10.5,-6 11.8,-13.4 -3.6,-19.5 -12.5,-5 -20.4,-4.5 -29.3,1.2 z"
     id="path4"
     inkscape:connector-curvature="0"
     style="opacity:0.2" />
  <path
     d="m 36.2,28.292878 c 0,0 -9.1,-4 -12.3,0.3 -3.2,4.3 -1.7,11 -1.7,11 0,0 -5.3,6 -5.3,9.4 0,3.3 5.1,6.5 5.1,6.5 0,0 0.6,15.8 -0.3,22.3 -0.9,6.5 -3.8,23.300002 -3.1,33.900002 0.7,10.6 1.6,25 1.9,29.2 0.3,4.1 2.2,10 3,14.8 0.9,4.8 4.1,13.2 0.9,19.6 -3.2,6.4 -6.1,9.3 -7.4,10.5 -1.3,1.2 0.2,5.2 3,4.5 2.8,-0.7 7.2,-7.1 9.9,-8.1 2.7,-1.1 7.2,-4 6,-7.7 -1.2,-3.6 -1.7,-2.2 -2,-5.3 -0.3,-3.1 2.2,-16.7 1.3,-22.8 -0.9,-6.1 -3.2,-7.8 -3.6,-8.8 -0.4,-1 5.7,-29.5 5.7,-29.5 0,0 1.2,27.3 1.1,30.2 -0.1,2.9 2.1,17.7 2.7,24.6 0.7,7 1,18.8 -2,22.9 -2.9,4.1 -8,10.3 -6,11.7 2,1.4 8.3,2.7 9.8,-0.9 1.5,-3.6 5.3,-11.1 6.7,-13.1 1.4,-2 1.9,-3.1 1,-5 -0.9,-1.9 -1.5,-5 -0.5,-10.3 1,-5.3 4.1,-14.7 3.3,-19.7 -0.8,-5 -3.2,-8.1 -2.9,-11.7 0.3,-3.5 8.1,-24.8 6.6,-39.700002 -1.6,-14.8 -9,-17.5 -10.3,-23.5 -1.3,-6 3,-13.9 5.2,-18.2 2.2,-4.2 5.3,-11.6 2.6,-14.2 -2.7,-2.7 -5.9,-4.4 -7.1,-6.4 -1.2,-2 -2.5,-8.2 -2.5,-8.2 z"
     id="path6"
     inkscape:connector-curvature="0"
     style="fill:#fbd7c7" />
  <path
     d="m 18.8,183.89288 c 0,0 -4.9,1.7 -5.9,3.9 -0.8,1.8 -0.5,3.9 1.2,5 1.8,1 5.2,1.3 8.2,-0.4 2.9,-1.7 6.8,-8.4 7.5,-8.7 0.7,-0.3 0.2,3.7 0.2,3.7 l 2.1,1.1 2.3,-0.9 c 0,0 -0.2,-4.5 0.7,-6 0.9,-1.5 2.6,-3.9 2,-6.9 -0.6,-3 -2.6,-3.3 -2.6,-3.3 0,0 0,3.5 -4,7.3 -3.8,3.6 -5.9,9.6 -9.2,9.3 -4.5,-0.7 -2.5,-4.1 -2.5,-4.1 z"
     id="path8"
     inkscape:connector-curvature="0"
     style="fill:#2d3134" />
  <path
     d="m 35.7,190.69288 c 0,0 -4.6,3.5 -4.9,5.7 -0.3,2.2 -0.2,3.7 2.9,4.7 3.1,1 7.1,-0.2 9,-1.8 1.9,-1.6 4.4,-5.8 4.4,-5.8 l 2,1.1 2.3,-1.1 c 0,0 -0.3,-2.7 0.4,-5.1 0.7,-2.4 1.4,-4.4 1.4,-7.4 0,-3 -2.8,-3.3 -2.8,-3.3 0,0 1.7,1.6 -0.8,5.1 -2.5,3.5 -4.4,11.3 -8.1,11.5 -7,0.5 -5.8,-3.6 -5.8,-3.6 z"
     id="path10"
     inkscape:connector-curvature="0"
     style="fill:#2d3134" />
  <path
     d="m 54.2,84.392878 c -2.2,-3.5 -11.6,-10.6 -2.1,-28.8 2.2,-4.2 5.3,-11.6 2.6,-14.2 -2.7,-2.7 -5.9,-4.4 -7.1,-6.4 -1.2,-2 -2.5,-8.2 -2.5,-8.2 l -8.9,1.6 -5.5,-2 c 0,0 -2.5,-0.4 -7.3,1 -4.8,1.4 -5.7,10 -5.8,14.8 0,0.8 -0.1,1.7 -0.2,2.5 -0.7,1.3 -1.2,2.7 -1.2,4.4 0,0.4 0.1,0.8 0.2,1.2 -0.9,3.8 -2.1,6.7 -2.1,6.7 l 7.6,4.4 c 0.2,2.1 0.4,4.7 0.4,7.5 0,2.9 -5,26.6 -6,30.1 -1.9,6.800002 -4.2,32.100002 -3.7,33.100002 2.1,4.2 12.6,3.2 17.4,7.6 4.8,4.4 17.8,3.7 24,1.6 6.2,-2.1 9.4,-5.8 9.2,-6.5 -4.7,-19.1 -3.6,-42.000002 -9,-50.400002 z"
     id="path12"
     inkscape:connector-curvature="0"
     style="fill:#3399cc" />
  <path
     d="m 41.9,82.792878 c 4.6,-1.1 8.5,-3.7 9.3,-4.1 -0.8,-0.9 -1.4,-1.5 -1.4,-1.6 0,0 -7.3,4.4 -17.3,3.6 -10,-0.8 -11.5,-3 -11.5,-3 -1.4,6.7 -4.9,17.6 -5.9,21.2 -1.9,6.800002 -5.2000004,17.900002 -4.7,18.800002 2.1,4.2 13,3.2 17.8,7.6 4.8,4.4 18.9,1.3 18.9,1.3 0,0 1.1,-17.1 -2.6,-33.400002 -0.8,-3.3 -2,-7.7 -2.6,-10.4 z"
     id="path14"
     inkscape:connector-curvature="0"
     style="fill:#ffffff" />
  <path
     d="m 31.1,27.792878 -4.2,20.1 18.2,-11.9 -0.1,-5.3 z"
     id="path16"
     inkscape:connector-curvature="0"
     style="fill:#fbd7c7" />
  <path
     d="m 48.2,40.192878 -21.3,7.7 18.2,-11.9 z"
     id="path18"
     inkscape:connector-curvature="0"
     style="fill:#ffffff" />
  <path
     d="m 31.1,27.792878 -4.2,20.1 -1.7,-18.7 z"
     id="path20"
     inkscape:connector-curvature="0"
     style="fill:#ffffff" />
  <path
     d="m 16.5,49.692878 c 3.1,5.9 12.5,10.5 26.6,7.4 -0.9,2.3 -21.1,7.5 -26.6,-7.4 z"
     id="path22"
     inkscape:connector-curvature="0"
     style="opacity:0.15" />
  <ellipse
     cx="19.1"
     cy="86.59288"
     rx="19.1"
     ry="13"
     id="ellipse24"
     style="fill:#2d3134" />
  <path
     d="m 19.2,72.592878 c -8.3,0 -15.0000004,4.5 -15.0000004,10 v 4 c 0,5.5 6.7000004,10 15.0000004,10 8.3,0 15,-4.5 15,-10 v -4 c 0,-5.5 -6.7,-10 -15,-10 z"
     id="path26"
     inkscape:connector-curvature="0"
     style="fill:#baa794" />
  <path
     d="m 19.2,92.592878 c -8.3,0 -15.0000004,-4.5 -15.0000004,-10 v 4 c 0,5.5 6.7000004,10 15.0000004,10 8.3,0 15,-4.5 15,-10 v -4 c 0,5.5 -6.7,10 -15,10 z"
     id="path28"
     inkscape:connector-curvature="0"
     style="opacity:0.15" />
  <path
     d="m 19.2,68.592878 c -8.3,0 -15.0000004,4.5 -15.0000004,10 v 4 c 0,5.5 6.7000004,10 15.0000004,10 8.3,0 15,-4.5 15,-10 v -4 c 0,-5.5 -6.7,-10 -15,-10 z"
     id="path30"
     inkscape:connector-curvature="0"
     style="fill:#f8ebcb" />
  <path
     d="m 34.2,75.592878 c 0,-5.5 -6.7,-10 -15,-10 -8.3,0 -15.0000004,4.5 -15.0000004,10 v 2 c 0,1.7 0.6,3.2 1.7,4.6 -0.3,1.1 -0.8,2.7 -0.8,3.1 0,0.6 0.5,1.2 1.2,1.2 0.6,0 1.2,-0.5 1.2,-1.2 0,-0.3 -0.2,-1.1 -0.4,-1.9 0.8,0.8 1.8,1.4 2.9,2 -0.3,0.9 -0.6,2.1 -0.6,2.4 0,0.6 0.5,1 1.0000004,1 0.6,0 1,-0.5 1,-1 0,-0.3 -0.2,-1.1 -0.5,-2 1.2,0.5 2.5,1 3.9,1.3 -0.4,1.2 -1,3.2 -1,3.7 0,0.7 0.6,1.3 1.3,1.3 0.7,0 1.3,-0.6 1.3,-1.3 0,-0.5 -0.6,-2.3 -0.9,-3.6 1.2,0.2 2.5,0.3 3.8,0.3 0.5,0 1.1,0 1.6,-0.1 -0.2,0.7 -0.4,1.3 -0.4,1.5 0,0.6 0.5,1 1,1 0.6,0 1,-0.5 1,-1 0,-0.2 -0.2,-0.9 -0.4,-1.7 2,-0.3 3.9,-0.8 5.6,-1.6 -0.4,1.4 -1.2,3.9 -1.2,4.5 0,0.8 0.7,1.5 1.5,1.5 0.8,0 1.5,-0.7 1.5,-1.5 0,-0.6 -0.9,-3.4 -1.3,-4.8 1.6,-0.8 2.9,-1.8 3.9,-2.9 -0.2,0.8 -0.5,1.6 -0.5,1.9 0,0.6 0.5,1 1,1 0.5,0 1,-0.5 1,-1 0,-0.4 -0.5,-2 -0.8,-2.9 0.8,-1.2 1.3,-2.6 1.3,-4 v -1.8 z"
     id="path32"
     inkscape:connector-curvature="0"
     style="fill:#762c07" />
  <path
     d="m 34.2,75.592878 c 0,5 -5.5,9.1 -12.7,9.9 0,-0.1 0,-0.1 0,-0.1 0,0 0,0 0,0.1 -0.7,0.1 -1.5,0.1 -2.3,0.1 -8.3,0 -15.0000004,-4.5 -15.0000004,-10 v 2 c 0,1.7 0.6,3.2 1.7,4.6 -0.3,1.1 -0.8,2.7 -0.8,3.1 0,0.6 0.5,1.2 1.2,1.2 0.6,0 1.2,-0.5 1.2,-1.2 0,-0.3 -0.2,-1.1 -0.4,-1.9 0.8,0.8 1.8,1.4 2.9,2 -0.3,0.9 -0.6,2.1 -0.6,2.4 0,0.6 0.5,1 1.0000004,1 0.6,0 1,-0.5 1,-1 0,-0.3 -0.2,-1.1 -0.5,-2 1.2,0.5 2.5,1 3.9,1.3 -0.4,1.2 -1,3.2 -1,3.7 0,0.7 0.6,1.3 1.3,1.3 0.7,0 1.3,-0.6 1.3,-1.3 0,-0.5 -0.6,-2.3 -0.9,-3.6 1.2,0.2 2.5,0.3 3.8,0.3 0.5,0 1.1,0 1.6,-0.1 -0.2,0.7 -0.4,1.3 -0.4,1.5 0,0.6 0.5,1 1,1 0.5,0 1,-0.5 1,-1 0,-0.2 -0.2,-0.9 -0.4,-1.7 2,-0.3 3.9,-0.8 5.6,-1.6 -0.4,1.4 -1.2,3.9 -1.2,4.5 0,0.8 0.7,1.5 1.5,1.5 0.8,0 1.5,-0.7 1.5,-1.5 0,-0.6 -0.9,-3.4 -1.3,-4.8 1.6,-0.8 2.9,-1.8 3.9,-2.9 -0.2,0.8 -0.5,1.6 -0.5,1.9 0,0.6 0.5,1 1,1 0.5,0 1,-0.5 1,-1 0,-0.4 -0.5,-2 -0.8,-2.9 0.8,-1.2 1.3,-2.6 1.3,-4 v -1.8 z"
     id="path34"
     inkscape:connector-curvature="0"
     style="opacity:0.15" />
  <path
     d="m 21.2,74.592878 c 0,1.1 -0.9,2 -2,2 -1.1,0 -2,-0.9 -2,-2 0,-1.1 2,-3 2,-3 0,0 2,1.9 2,3 z"
     id="path36"
     inkscape:connector-curvature="0"
     style="fill:#f8ebcb" />
  <g
     id="g54"
     style="fill:#baa794"
     transform="translate(-6.1000004,-26.407122)">
    <path
       d="m 14.3,102 c 0,0.6 -0.4,1 -1,1 -0.6,0 -1,-0.4 -1,-1 0,-0.6 1,-1.5 1,-1.5 0,0 1,0.9 1,1.5 z"
       id="path38"
       inkscape:connector-curvature="0" />
    <path
       d="m 38.3,102 c 0,0.6 -0.4,1 -1,1 -0.6,0 -1,-0.4 -1,-1 0,-0.6 1,-1.5 1,-1.5 0,0 1,0.9 1,1.5 z"
       id="path40"
       inkscape:connector-curvature="0" />
    <path
       d="m 34.3,108 c 0,0.6 -0.4,1 -1,1 -0.6,0 -1,-0.4 -1,-1 0,-0.6 1,-1.5 1,-1.5 0,0 1,0.9 1,1.5 z"
       id="path42"
       inkscape:connector-curvature="0" />
    <path
       d="m 26.3,110 c 0,0.6 -0.4,1 -1,1 -0.6,0 -1,-0.4 -1,-1 0,-0.6 1,-1.5 1,-1.5 0,0 1,0.9 1,1.5 z"
       id="path44"
       inkscape:connector-curvature="0" />
    <path
       d="m 26.3,93.5 c 0,0.6 -0.4,1 -1,1 -0.6,0 -1,-0.4 -1,-1 0,-0.6 1,-1.5 1,-1.5 0,0 1,0.9 1,1.5 z"
       id="path46"
       inkscape:connector-curvature="0" />
    <path
       d="m 18.3,108 c 0,0.6 -0.4,1 -1,1 -0.6,0 -1,-0.4 -1,-1 0,-0.6 1,-1.5 1,-1.5 0,0 1,0.9 1,1.5 z"
       id="path48"
       inkscape:connector-curvature="0" />
    <path
       d="m 34.3,96 c 0,0.6 -0.4,1 -1,1 -0.6,0 -1,-0.4 -1,-1 0,-0.6 1,-1.5 1,-1.5 0,0 1,0.9 1,1.5 z"
       id="path50"
       inkscape:connector-curvature="0" />
    <path
       d="m 18.3,96 c 0,0.6 -0.4,1 -1,1 -0.6,0 -1,-0.4 -1,-1 0,-0.6 1,-1.5 1,-1.5 0,0 1,0.9 1,1.5 z"
       id="path52"
       inkscape:connector-curvature="0" />
  </g>
  <path
     d="m 27.6,7.392878 c -1.7,3.2 -2.8,10.5 -1.9,14.8 0.9,4.3 2.5,6.8 3.7,7.1 1.2,0.3 2.5,-0.2 2.5,-0.2 0,0 0.4,1.2 0.1,2.7 -0.6,3 -2.2,7.5 -1.8,8 0.5,0.7 8.8,-3 11.5,-5.2 2.2,-1.7 4,-4.8 3.9,-5.3 -0.1,-0.5 -1.7,-3.8 -1.5,-5 0.2,-1.2 3,-3.7 3.2,-4.9 0.2,-1.2 2.8,-11.8 -5.1,-14.6 -7.9,-2.8 -12.5,-1.4 -14.6,2.6 z"
     id="path56"
     inkscape:connector-curvature="0"
     style="fill:#fbd7c7" />
  <path
     d="m 26.1,9.492878 c 0,1.4 1.4,1.6 3.9,2.9 2.5,1.3 4.8,5.8 6.9,6.4 2.1,0.6 4.9,0 6.8,-0.4 2,-0.4 2.9,0.6 3.1,1.4 0.2,0.8 4.6,-6.3 2.6,-11.9 -2.1,-6 -9.3,-9.8 -16.2,-6.90000003 C 26.9,3.792878 26.1,8.292878 26.1,9.492878 Z"
     id="path58"
     inkscape:connector-curvature="0"
     style="fill:#825012" />
  <path
     d="m 49.3,41.592878 c 2.7,-2 8.4,-0.4 9.5,6.7 1.1,7.1 3.8,17.6 4.9,21.3 1.1,3.7 2.7,8 -0.8,11 -3.5,3 -19.4,11.7 -22.2,13.8 -2.7,2 -2.9,2.6 -6.4,4.8 -3.5,2.200002 -8,2.700002 -9.8,1.800002 -2.2,-1.100002 -1.4,-2.600002 0.9,-3.900002 2.9,-1.6 6,-4.3 6.7,-5.7 0.7,-1.4 1.5,-2 4,-2.4 2.5,-0.4 1,0.3 4,-1.5 3,-1.8 7.2,-6.9 10.7,-9.6 3,-2.3 5.3,-3.3 5.3,-3.3 0,0 -3.5,-7.5 -5.6,-13 -1.9,-5.7 -7.2,-15.7 -1.2,-20 z"
     id="path60"
     inkscape:connector-curvature="0"
     style="fill:#fbd7c7" />
  <path
     d="m 53.8,69.992878 9.3,-3 c -1.3,-5 -2.8,-12.7 -3.8,-18.5 -1.2,-7.4 -7.3,-9.1 -10.3,-7.3 -7.8,4.9 -1.4,14.6 0.8,20.3 0.9,2.6 2.9,6 4,8.5 z"
     id="path62"
     inkscape:connector-curvature="0"
     style="fill:#3399cc" />
  <path
     d="m 49.4,17.392878 c 0,0 4.9,4.5 3.8,9.7 -2.9,15 -4.8,7.8 -6.8,25.2 -3.3,-7.4 -5.5,-20.4 -2.5,-27.4 1.3,-3.2 5.5,-7.5 5.5,-7.5 z"
     id="path64"
     inkscape:connector-curvature="0"
     style="fill:#825012" />
  <path
     d="m 49.5,15.792878 c 1.3,0.7 0.9,2.4 -0.4,3.7 -1.3,1.3 -1.9,2.1 -2.8,1.4 -0.8,-0.7 0.3,-1.4 1.3,-2.9 0.9,-1.4 1.2,-2.6 1.9,-2.2 z"
     id="path66"
     inkscape:connector-curvature="0"
     style="fill:#3399cc" />
</svg>
