<?xml version="1.0" encoding="UTF-8" standalone="no"?>
<svg
   xmlns:dc="http://purl.org/dc/elements/1.1/"
   xmlns:cc="http://creativecommons.org/ns#"
   xmlns:rdf="http://www.w3.org/1999/02/22-rdf-syntax-ns#"
   xmlns:svg="http://www.w3.org/2000/svg"
   xmlns="http://www.w3.org/2000/svg"
   id="svg8"
   version="1.1"
   viewBox="0 0 30.121977 56.288929"
   height="56.288929mm"
   width="30.121977mm">
  <defs
     id="defs2" />
  <metadata
     id="metadata5">
    <rdf:RDF>
      <cc:Work
         rdf:about="">
        <dc:format>image/svg+xml</dc:format>
        <dc:type
           rdf:resource="http://purl.org/dc/dcmitype/StillImage" />
        <dc:title></dc:title>
      </cc:Work>
    </rdf:RDF>
  </metadata>
  <g
     transform="translate(-116.162,-106.2687)"
     id="layer1">
    <g
       transform="matrix(0.26458333,0,0,0.26458333,106.63699,101.16224)"
       id="g889">
      <path
         style="fill:#fbd7c7"
         d="m 60.3,87.6 1.1,8.1 c 0,0 -3.9,1.4 -6.4,1.8 -2.5,0.4 -4.6,0.9 -5.3,1.1 -0.7,0.2 -3.1,1.8 -4.3,1.3 -1.2,-0.5 -3.3,-6.7 -3,-8.2 0.4,-1.8 1.4,-4.3 2.7,-4.8 1.3,-0.5 2.9,-0.6 3.2,-1.4 0.3,-0.8 -0.8,-5.4 -0.1,-6.6 0.7,-1.2 2,-0.9 2.1,-0.1 0.1,0.8 0.6,4.7 3,6.3 2.4,1.6 4.4,1.9 5.2,2.3 0.8,0.4 1.8,0.2 1.8,0.2 z"
         id="path815" />
      <path
         style="fill:#99cc33"
         d="m 60,87 1.3,9.5 c 0,0 4.1,-0.6 10.2,-2.1 6,-1.4 16.5,-3.5 20.8,-5.4 5.4,-2.4 10.9,-10.6 12.4,-14.3 1.5,-3.7 7.6,-28.5 -2.9,-23.1 -6.2,3.2 -6,10.3 -7.9,15.1 -1.9,4.8 -5,11.6 -7.1,12.4 C 84.7,79.9 75.5,82.7 71.4,84 67.7,85.2 60,87 60,87 Z"
         id="path817" />
      <path
         style="fill:#99cc33"
         d="m 98,107.9 c 2.5,-17.6 0.6,-27.2 0.3,-31.7 -0.5,-8 -3,-19.4 1.6,-22.3 2.7,-1.7 7.2,-4.3 9.9,-5.1 l 17.5,-0.3 c 0,0 10,5 13.7,8.5 6.1,5.7 0.6,18.4 -3.5,29.9 -6.3,17.8 -3.2,31.6 -3.7,32.5 -0.8,1.6 -30.3,3.4 -37.1,-1.6 -0.8,-0.6 0.7,-6 1.3,-9.9 z"
         id="path819" />
      <path
         style="opacity:0.2"
         d="m 144.9,225.9 c 12.3,-8.2 -0.2,-17 -17.1,-21.3 -7.4,-1.9 -20.2,-11.6 -39.8,-1.1 -15.8,8.5 7.5,12.3 16.4,16.8 10.7,5.5 19,19.9 40.5,5.6 z"
         id="path821" />
      <path
         style="fill:#2d3134"
         d="m 110.5,194.5 -10.4,1.2 c 0,0 -0.2,1.8 -2.1,3.8 -1.9,2 -10.1,6.4 -11.7,7.6 -2.8,2.1 -0.9,5 1.5,5.3 2.6,0.4 6.1,-0.4 10.5,-2 3.4,-1.2 7.4,-2.3 11.3,-3.6 3.3,-1.1 2.5,-5.9 2,-8 -0.6,-2 -1.1,-4.3 -1.1,-4.3 z"
         id="path823" />
      <path
         style="opacity:0.4"
         d="m 87.8,210.9 c 2.7,0.4 6.5,-0.5 11.2,-2.2 3.7,-1.3 7.9,-2.5 12,-3.9 0.3,-0.1 0.5,-0.2 0.7,-0.3 -0.3,1 -1,1.9 -2.2,2.3 -3.8,1.3 -7.8,2.4 -11.3,3.6 -4.4,1.6 -7.9,2.4 -10.5,2 -1.8,-0.3 -3.2,-1.9 -2.8,-3.5 0.6,1 1.7,1.8 2.9,2 z"
         id="path825" />
      <path
         style="fill:#06547a"
         d="m 100.3,95.6 c 0,0 -6.1,23.2 -5.7,34.4 0.4,11.2 2.4,23.6 2.9,33 0.5,9.4 0.4,30.7 -0.1,34.9 -0.6,4.8 1.8,5.1 4.8,5.2 3.1,0.1 9.1,-0.9 10.1,-1.9 1,-1 0.9,-8.7 0.9,-14.3 0,-5.6 0.5,-14 0.1,-21.9 -0.3,-6.8 2.2,-16.2 3.6,-21.4 1.4,-5.2 7.4,-22.6 7.8,-27.4 0.4,-4.8 0.1,-15.2 0.1,-15.2 z"
         id="path827" />
      <path
         style="opacity:0.2"
         d="m 100.3,95.6 c 0,0 -6.1,23.2 -5.7,34.4 0.4,11.2 2.4,23.6 2.9,33 0.5,9.4 0.4,30.7 -0.1,34.9 -0.6,4.8 1.8,5.1 4.8,5.2 3.1,0.1 9.1,-0.9 10.1,-1.9 1,-1 0.9,-8.7 0.9,-14.3 0,-5.6 0.5,-14 0.1,-21.9 -0.3,-6.8 2.2,-16.2 3.6,-21.4 1.4,-5.2 7.4,-22.6 7.8,-27.4 0.4,-4.8 0.1,-15.2 0.1,-15.2 z"
         id="path829" />
      <path
         style="fill:#2d3134"
         d="m 146.6,210.3 c -0.2,0.1 -10.6,2.2 -10.6,2.2 0,0 -2.7,6 -5.3,8.1 -2.1,1.8 -8,5.7 -7.7,7.9 0.3,2.2 6.3,4 11.9,1.1 2.6,-1.3 12.9,-6.6 13.4,-10.1 0.6,-3.9 -1.7,-9.2 -1.7,-9.2 z"
         id="path831" />
      <path
         style="opacity:0.4"
         d="m 134.9,227.9 c 2.6,-1.3 12.9,-6.6 13.4,-10.1 0,-0.2 0,-0.3 0.1,-0.5 0.1,0.8 0.1,1.6 -0.1,2.3 -0.5,3.5 -10.8,8.8 -13.4,10.1 -5.6,2.9 -11.6,1.1 -11.9,-1.1 0,-0.3 0.1,-0.7 0.3,-1.2 1.2,1.9 6.6,3.1 11.6,0.5 z"
         id="path833" />
      <g
         style="fill:#06547a"
         id="g841">
        <path
           d="m 102.2,69.8 c -0.2,1.6 -0.3,12.7 -4,34.3 0.1,1 9.9,6.5 10.1,7.8 1.2,8 6.3,33.3 8.1,34.4 3.7,12.1 6.5,19.8 8.3,26.8 1.8,7 5.9,23.7 7,32 0.4,3.2 1,12 1.7,12.9 3.3,4.1 11.3,2 12.9,0.6 1.7,-1.6 2.6,-2.4 2.2,-5.5 -0.4,-3.1 -1.7,-21.3 -2.7,-27.8 -1.7,-10.7 -5,-15 -6.1,-20.1 -1.1,-5.1 1.1,-24.1 -2.3,-42 -3.4,-17.9 -8.1,-51.4 -8.1,-51.4 z"
           id="path835" />
        <path
           d="m 135.4,53 c 0,0 -4.3,3.7 -6.4,11.4 -1.7,5.9 -1.7,10.6 -2.2,10.7 -0.5,0.1 -4.3,0 -4.3,0 0,0 0.1,-7.5 3.3,-15.6 1.9,-4.8 5.9,-8.9 5.9,-8.9 z"
           id="path837" />
        <path
           d="m 104.5,50.3 c 0,0 -1.1,5.7 -1.4,12.7 -0.3,5.3 -0.3,8 -0.3,8 l 3.8,0.6 c 0,0 -0.3,-2.3 0.1,-9.9 0.5,-8.7 1,-12.9 1,-12.9 z"
           id="path839" />
      </g>
      <path
         style="fill:#fbd7c7"
         d="m 126.6,48.3 c 0,0 -2.6,-1.1 -2.7,-2.9 -0.2,-1.9 5.6,-9.2 0.8,-16 -4.8,-6.8 -16.9,-5.5 -19,1.2 -2.1,6.7 -2.3,19.6 -0.7,21 2,1.7 5.6,1 5.6,1 0,0 1.2,3.1 0.9,4.9 -0.4,2.5 1.9,2.7 3.2,2.7 1.7,-0.1 9.4,-4.9 11.9,-11.9 z"
         id="path843" />
      <path
         style="fill:#762c07"
         d="m 124.6,43.7 -1.5,0.9 c 0,0 3.9,-5.4 1.3,-6.5 -2.6,-1.1 -3.9,2.2 -3.9,2.2 0,0 -1.9,-3.4 -5,-3.7 -3.1,-0.3 -11.4,-2.2 -11.1,-4.8 0.1,-1 3.4,-10 13.2,-8.3 9.9,1.7 10.2,9.9 9.6,13.2 -0.6,3.3 -2.6,7 -2.6,7 z"
         id="path845" />
      <path
         style="fill:#ffcc00"
         d="m 100.9,34.5 c 0,0 -2.8,1.2 -2.8,2.1 0,0.9 8.3,4.5 14,3.9 5.7,-0.6 16.1,-3.5 16.7,-5 0.6,-1.5 -0.7,-16.2 -12.7,-16.2 -14,0 -15.2,15.2 -15.2,15.2 z"
         id="path847" />
      <path
         style="opacity:0.2"
         d="m 98.1,36.6 c 0,0.9 8.3,4.5 14,3.9 4.6,-0.5 12.1,-2.4 15.2,-4 -3.1,1.1 -7.3,2.2 -10.4,2.1 -5.4,-0.2 -14.2,-2.8 -16.1,-4.1 0.1,0.1 -2.7,1.3 -2.7,2.1 z"
         id="path849" />
      <path
         style="opacity:0.2"
         d="m 102.4,32.8 1.2,0.4 c 0.6,-3.6 3.3,-13.3 13.8,-13.3 0.6,0 1.2,0.1 1.8,0.1 -0.9,-0.3 -1.9,-0.4 -3,-0.4 -10.4,0 -13.1,9.5 -13.8,13.2 z"
         id="path851" />
      <path
         style="opacity:0.2"
         d="m 106.8,34.3 c 0.3,-2.6 2,-13.8 11.2,-13.8 0.5,0 1,0.1 1.4,0.1 -0.7,-0.3 -1.5,-0.4 -2.4,-0.4 -9.1,0 -11.2,10.9 -11.5,13.6 z"
         id="path853" />
      <path
         style="fill:#fbd7c7"
         d="m 136.9,125.5 c 0,0 0.2,7.9 0,10.5 -0.2,2.7 -1.2,6.3 -2.1,7.1 -1.6,1.6 -4.7,2.9 -6.8,2.4 -2.1,-0.4 -2.2,-2.5 -2.2,-3.3 0,-0.8 0.3,-7.9 0.3,-7.9 0,0 -1.1,0.1 -1.3,1.1 -0.2,1 0.7,2.3 -0.3,3 -1,0.7 -1.8,-1.6 -2,-2.9 -0.2,-1.2 0.4,-3.4 1,-4.1 0.5,-0.7 1.2,-1.7 2.4,-2.8 1.2,-1.1 3.8,-4.1 3.8,-4.1 z"
         id="path855" />
      <path
         style="fill:#99cc33"
         d="m 135.8,56.2 c -4.7,1.1 -7.7,7 -6.1,13.9 1.6,6.9 3.7,13.1 4.8,15.9 1.1,2.8 2.2,8 2.2,8 0,0 -1.6,4.7 -3.4,11.3 -1.8,6.7 -5.5,19.2 -5,20.3 0.6,1.1 8.2,2.6 9.3,2.5 1.1,-0.1 3.8,-10.1 5.5,-15.7 1.7,-5.6 5.2,-14.8 4.9,-18.4 -0.3,-3.6 -2.8,-22.2 -3.1,-25.9 -0.6,-6.5 -3.7,-13.2 -9.1,-11.9 z"
         id="path857" />
    </g>
    <g
       transform="matrix(0.26458333,0,0,0.26458333,114.83908,111.0841)"
       id="g923">
      <path
         style="fill:#825012"
         d="m 20,63 c -5.5,0 -10,2.2 -10,5 v 2 c 0,2.8 4.5,5 10,5 5.5,0 10,-2.2 10,-5 v -2 c 0,-2.8 -4.5,-5 -10,-5 z"
         id="path891" />
      <path
         style="opacity:0.2"
         d="M 20,73 C 14.5,73 10,70.8 10,68 v 2 c 0,2.8 4.5,5 10,5 5.5,0 10,-2.2 10,-5 v -2 c 0,2.8 -4.5,5 -10,5 z"
         id="path893" />
      <path
         style="fill:#825012"
         d="m 20,47 c -1.1,0 -2,0.4 -2,1 v 20.1 c 0,0.6 0.9,1 2,1 1.1,0 2,-0.4 2,-1 V 48 c 0,-0.6 -0.9,-1 -2,-1 z"
         id="path895" />
      <path
         style="opacity:0.2"
         d="m 20,49 c -1.1,0 -2,-0.4 -2,-1 v 20.1 c 0,0.6 0.9,1 2,1 1.1,0 2,-0.4 2,-1 V 48 c 0,0.6 -0.9,1 -2,1 z"
         id="path897" />
      <path
         style="fill:#f8ebcb"
         d="m 20,34 c 8.3,0 15,3.4 15,7.5 L 32,21 C 32,17.7 26.6,15 20,15 13.4,15 8,17.7 8,21 L 5,41.5 C 5,37.4 11.7,34 20,34 Z"
         id="path899" />
      <path
         style="fill:#ffcc00"
         d="m 25,26 c 0,-3.1 -2.8,-5.6 -6.1,-4.9 -2,0.4 -3.5,2 -3.9,4 -0.2,1.5 0.2,2.9 1,3.9 0.8,1.1 1.3,2.4 1.5,3.8 l 0.5,3.2 2,1 2,-1 0.4,-3 c 0.2,-1.4 0.7,-2.8 1.6,-4 0.6,-0.8 1,-1.9 1,-3 z"
         id="path901" />
      <path
         style="fill:#f8ebcb"
         d="M 20,27 C 13.4,27 8,24.3 8,21 L 5,41.5 c 0,4.1 6.7,7.5 15,7.5 8.3,0 15,-3.4 15,-7.5 L 32,21 c 0,3.3 -5.4,6 -12,6 z"
         id="path903" />
      <path
         style="opacity:0.2"
         d="M 20,27 C 13.4,27 8,24.3 8,21 L 5,41.5 c 0,4.1 6.7,7.5 15,7.5 8.3,0 15,-3.4 15,-7.5 L 32,21 c 0,3.3 -5.4,6 -12,6 z"
         id="path905" />
    </g>
  </g>
</svg>
