<?xml version="1.0" encoding="UTF-8" standalone="no"?>
<svg
   xmlns:dc="http://purl.org/dc/elements/1.1/"
   xmlns:cc="http://creativecommons.org/ns#"
   xmlns:rdf="http://www.w3.org/1999/02/22-rdf-syntax-ns#"
   xmlns:svg="http://www.w3.org/2000/svg"
   xmlns="http://www.w3.org/2000/svg"
   id="svg8"
   version="1.1"
   viewBox="0 0 51.543289 56.288929"
   height="56.288929mm"
   width="51.543289mm">
  <defs
     id="defs2" />
  <metadata
     id="metadata5">
    <rdf:RDF>
      <cc:Work
         rdf:about="">
        <dc:format>image/svg+xml</dc:format>
        <dc:type
           rdf:resource="http://purl.org/dc/dcmitype/StillImage" />
        <dc:title></dc:title>
      </cc:Work>
    </rdf:RDF>
  </metadata>
  <g
     transform="translate(-94.740685,-106.2687)"
     id="layer1">
    <g
       transform="matrix(0.26458333,0,0,0.26458333,106.63699,101.16224)"
       id="g889">
      <path
         style="fill:#fbd7c7"
         d="m 60.3,87.6 1.1,8.1 c 0,0 -3.9,1.4 -6.4,1.8 -2.5,0.4 -4.6,0.9 -5.3,1.1 -0.7,0.2 -3.1,1.8 -4.3,1.3 -1.2,-0.5 -3.3,-6.7 -3,-8.2 0.4,-1.8 1.4,-4.3 2.7,-4.8 1.3,-0.5 2.9,-0.6 3.2,-1.4 0.3,-0.8 -0.8,-5.4 -0.1,-6.6 0.7,-1.2 2,-0.9 2.1,-0.1 0.1,0.8 0.6,4.7 3,6.3 2.4,1.6 4.4,1.9 5.2,2.3 0.8,0.4 1.8,0.2 1.8,0.2 z"
         id="path815" />
      <path
         style="fill:#99cc33"
         d="m 60,87 1.3,9.5 c 0,0 4.1,-0.6 10.2,-2.1 6,-1.4 16.5,-3.5 20.8,-5.4 5.4,-2.4 10.9,-10.6 12.4,-14.3 1.5,-3.7 7.6,-28.5 -2.9,-23.1 -6.2,3.2 -6,10.3 -7.9,15.1 -1.9,4.8 -5,11.6 -7.1,12.4 C 84.7,79.9 75.5,82.7 71.4,84 67.7,85.2 60,87 60,87 Z"
         id="path817" />
      <path
         style="fill:#99cc33"
         d="m 98,107.9 c 2.5,-17.6 0.6,-27.2 0.3,-31.7 -0.5,-8 -3,-19.4 1.6,-22.3 2.7,-1.7 7.2,-4.3 9.9,-5.1 l 17.5,-0.3 c 0,0 10,5 13.7,8.5 6.1,5.7 0.6,18.4 -3.5,29.9 -6.3,17.8 -3.2,31.6 -3.7,32.5 -0.8,1.6 -30.3,3.4 -37.1,-1.6 -0.8,-0.6 0.7,-6 1.3,-9.9 z"
         id="path819" />
      <path
         style="opacity:0.2"
         d="m 144.9,225.9 c 12.3,-8.2 -0.2,-17 -17.1,-21.3 -7.4,-1.9 -20.2,-11.6 -39.8,-1.1 -15.8,8.5 7.5,12.3 16.4,16.8 10.7,5.5 19,19.9 40.5,5.6 z"
         id="path821" />
      <path
         style="fill:#2d3134"
         d="m 110.5,194.5 -10.4,1.2 c 0,0 -0.2,1.8 -2.1,3.8 -1.9,2 -10.1,6.4 -11.7,7.6 -2.8,2.1 -0.9,5 1.5,5.3 2.6,0.4 6.1,-0.4 10.5,-2 3.4,-1.2 7.4,-2.3 11.3,-3.6 3.3,-1.1 2.5,-5.9 2,-8 -0.6,-2 -1.1,-4.3 -1.1,-4.3 z"
         id="path823" />
      <path
         style="opacity:0.4"
         d="m 87.8,210.9 c 2.7,0.4 6.5,-0.5 11.2,-2.2 3.7,-1.3 7.9,-2.5 12,-3.9 0.3,-0.1 0.5,-0.2 0.7,-0.3 -0.3,1 -1,1.9 -2.2,2.3 -3.8,1.3 -7.8,2.4 -11.3,3.6 -4.4,1.6 -7.9,2.4 -10.5,2 -1.8,-0.3 -3.2,-1.9 -2.8,-3.5 0.6,1 1.7,1.8 2.9,2 z"
         id="path825" />
      <path
         style="fill:#06547a"
         d="m 100.3,95.6 c 0,0 -6.1,23.2 -5.7,34.4 0.4,11.2 2.4,23.6 2.9,33 0.5,9.4 0.4,30.7 -0.1,34.9 -0.6,4.8 1.8,5.1 4.8,5.2 3.1,0.1 9.1,-0.9 10.1,-1.9 1,-1 0.9,-8.7 0.9,-14.3 0,-5.6 0.5,-14 0.1,-21.9 -0.3,-6.8 2.2,-16.2 3.6,-21.4 1.4,-5.2 7.4,-22.6 7.8,-27.4 0.4,-4.8 0.1,-15.2 0.1,-15.2 z"
         id="path827" />
      <path
         style="opacity:0.2"
         d="m 100.3,95.6 c 0,0 -6.1,23.2 -5.7,34.4 0.4,11.2 2.4,23.6 2.9,33 0.5,9.4 0.4,30.7 -0.1,34.9 -0.6,4.8 1.8,5.1 4.8,5.2 3.1,0.1 9.1,-0.9 10.1,-1.9 1,-1 0.9,-8.7 0.9,-14.3 0,-5.6 0.5,-14 0.1,-21.9 -0.3,-6.8 2.2,-16.2 3.6,-21.4 1.4,-5.2 7.4,-22.6 7.8,-27.4 0.4,-4.8 0.1,-15.2 0.1,-15.2 z"
         id="path829" />
      <path
         style="fill:#2d3134"
         d="m 146.6,210.3 c -0.2,0.1 -10.6,2.2 -10.6,2.2 0,0 -2.7,6 -5.3,8.1 -2.1,1.8 -8,5.7 -7.7,7.9 0.3,2.2 6.3,4 11.9,1.1 2.6,-1.3 12.9,-6.6 13.4,-10.1 0.6,-3.9 -1.7,-9.2 -1.7,-9.2 z"
         id="path831" />
      <path
         style="opacity:0.4"
         d="m 134.9,227.9 c 2.6,-1.3 12.9,-6.6 13.4,-10.1 0,-0.2 0,-0.3 0.1,-0.5 0.1,0.8 0.1,1.6 -0.1,2.3 -0.5,3.5 -10.8,8.8 -13.4,10.1 -5.6,2.9 -11.6,1.1 -11.9,-1.1 0,-0.3 0.1,-0.7 0.3,-1.2 1.2,1.9 6.6,3.1 11.6,0.5 z"
         id="path833" />
      <g
         style="fill:#06547a"
         id="g841">
        <path
           d="m 102.2,69.8 c -0.2,1.6 -0.3,12.7 -4,34.3 0.1,1 9.9,6.5 10.1,7.8 1.2,8 6.3,33.3 8.1,34.4 3.7,12.1 6.5,19.8 8.3,26.8 1.8,7 5.9,23.7 7,32 0.4,3.2 1,12 1.7,12.9 3.3,4.1 11.3,2 12.9,0.6 1.7,-1.6 2.6,-2.4 2.2,-5.5 -0.4,-3.1 -1.7,-21.3 -2.7,-27.8 -1.7,-10.7 -5,-15 -6.1,-20.1 -1.1,-5.1 1.1,-24.1 -2.3,-42 -3.4,-17.9 -8.1,-51.4 -8.1,-51.4 z"
           id="path835" />
        <path
           d="m 135.4,53 c 0,0 -4.3,3.7 -6.4,11.4 -1.7,5.9 -1.7,10.6 -2.2,10.7 -0.5,0.1 -4.3,0 -4.3,0 0,0 0.1,-7.5 3.3,-15.6 1.9,-4.8 5.9,-8.9 5.9,-8.9 z"
           id="path837" />
        <path
           d="m 104.5,50.3 c 0,0 -1.1,5.7 -1.4,12.7 -0.3,5.3 -0.3,8 -0.3,8 l 3.8,0.6 c 0,0 -0.3,-2.3 0.1,-9.9 0.5,-8.7 1,-12.9 1,-12.9 z"
           id="path839" />
      </g>
      <path
         style="fill:#fbd7c7"
         d="m 126.6,48.3 c 0,0 -2.6,-1.1 -2.7,-2.9 -0.2,-1.9 5.6,-9.2 0.8,-16 -4.8,-6.8 -16.9,-5.5 -19,1.2 -2.1,6.7 -2.3,19.6 -0.7,21 2,1.7 5.6,1 5.6,1 0,0 1.2,3.1 0.9,4.9 -0.4,2.5 1.9,2.7 3.2,2.7 1.7,-0.1 9.4,-4.9 11.9,-11.9 z"
         id="path843" />
      <path
         style="fill:#762c07"
         d="m 124.6,43.7 -1.5,0.9 c 0,0 3.9,-5.4 1.3,-6.5 -2.6,-1.1 -3.9,2.2 -3.9,2.2 0,0 -1.9,-3.4 -5,-3.7 -3.1,-0.3 -11.4,-2.2 -11.1,-4.8 0.1,-1 3.4,-10 13.2,-8.3 9.9,1.7 10.2,9.9 9.6,13.2 -0.6,3.3 -2.6,7 -2.6,7 z"
         id="path845" />
      <path
         style="fill:#ffcc00"
         d="m 100.9,34.5 c 0,0 -2.8,1.2 -2.8,2.1 0,0.9 8.3,4.5 14,3.9 5.7,-0.6 16.1,-3.5 16.7,-5 0.6,-1.5 -0.7,-16.2 -12.7,-16.2 -14,0 -15.2,15.2 -15.2,15.2 z"
         id="path847" />
      <path
         style="opacity:0.2"
         d="m 98.1,36.6 c 0,0.9 8.3,4.5 14,3.9 4.6,-0.5 12.1,-2.4 15.2,-4 -3.1,1.1 -7.3,2.2 -10.4,2.1 -5.4,-0.2 -14.2,-2.8 -16.1,-4.1 0.1,0.1 -2.7,1.3 -2.7,2.1 z"
         id="path849" />
      <path
         style="opacity:0.2"
         d="m 102.4,32.8 1.2,0.4 c 0.6,-3.6 3.3,-13.3 13.8,-13.3 0.6,0 1.2,0.1 1.8,0.1 -0.9,-0.3 -1.9,-0.4 -3,-0.4 -10.4,0 -13.1,9.5 -13.8,13.2 z"
         id="path851" />
      <path
         style="opacity:0.2"
         d="m 106.8,34.3 c 0.3,-2.6 2,-13.8 11.2,-13.8 0.5,0 1,0.1 1.4,0.1 -0.7,-0.3 -1.5,-0.4 -2.4,-0.4 -9.1,0 -11.2,10.9 -11.5,13.6 z"
         id="path853" />
      <path
         style="fill:#fbd7c7"
         d="m 136.9,125.5 c 0,0 0.2,7.9 0,10.5 -0.2,2.7 -1.2,6.3 -2.1,7.1 -1.6,1.6 -4.7,2.9 -6.8,2.4 -2.1,-0.4 -2.2,-2.5 -2.2,-3.3 0,-0.8 0.3,-7.9 0.3,-7.9 0,0 -1.1,0.1 -1.3,1.1 -0.2,1 0.7,2.3 -0.3,3 -1,0.7 -1.8,-1.6 -2,-2.9 -0.2,-1.2 0.4,-3.4 1,-4.1 0.5,-0.7 1.2,-1.7 2.4,-2.8 1.2,-1.1 3.8,-4.1 3.8,-4.1 z"
         id="path855" />
      <path
         style="fill:#99cc33"
         d="m 135.8,56.2 c -4.7,1.1 -7.7,7 -6.1,13.9 1.6,6.9 3.7,13.1 4.8,15.9 1.1,2.8 2.2,8 2.2,8 0,0 -1.6,4.7 -3.4,11.3 -1.8,6.7 -5.5,19.2 -5,20.3 0.6,1.1 8.2,2.6 9.3,2.5 1.1,-0.1 3.8,-10.1 5.5,-15.7 1.7,-5.6 5.2,-14.8 4.9,-18.4 -0.3,-3.6 -2.8,-22.2 -3.1,-25.9 -0.6,-6.5 -3.7,-13.2 -9.1,-11.9 z"
         id="path857" />
    </g>
    <g
       transform="matrix(0.26458333,0,0,0.26458333,91.074512,100.31053)"
       id="g990">
	<path
   style="opacity:0.2"
   d="m 21.1,224.2 c 6.4,6.4 9.8,7 26.8,2.3 18.1,-5 19.3,-8.7 11.3,-14.5 -8,-5.8 -14.4,-5.1 -25.3,-1.8 -10.9,3.3 -21,5.7 -12.8,14 z"
   id="path944" />

	<path
   style="fill:#fbd7c7"
   d="m 60.5,104.4 c 0,0 4.3,3.9 5.4,5.4 1.4,2 0.9,5.9 -0.4,7.5 -1.4,1.7 -4,1.7 -4.2,1.3 -0.2,-0.4 1.9,-2.4 2.1,-3.3 0.1,-0.5 0,-1.3 0,-1.3 0,0 -0.8,0.2 -1.3,0 -1.9,-0.8 -4.1,-4.6 -4.2,-5.4 -0.1,-0.8 -1.3,-2.1 -1.3,-2.1 z"
   id="path946" />

	<path
   style="fill:#762c07"
   d="M 26.6,45.7 C 26.1,46 20.2,49.8 20.1,55.4 20,61.1 17.5,69.3 14.4,73.2 19.7,71.3 27.8,68.3 29,59.4 30.2,50.5 26.6,45.7 26.6,45.7 Z"
   id="path948" />

	<path
   style="fill:#2d3134"
   d="m 49.9,206.5 c 1.4,1.3 2.6,2.3 6.2,4.6 3.4,2.1 5,3.9 4.7,6 -0.4,2.6 -4.8,3.6 -9.4,1.7 -4.6,-1.9 -7.7,-4.3 -10.2,-5.1 -2.5,-0.8 -4.9,-1.2 -5.1,-2.1 -0.2,-1 0.4,-5.1 0.4,-5.1 z"
   id="path950" />

	<path
   style="opacity:0.5"
   d="m 41,211.9 c 2.6,0.9 5.6,3.2 10.2,5.1 4.5,1.9 8.9,0.9 9.4,-1.6 0.2,0.5 0.2,1 0.2,1.6 -0.4,2.6 -4.8,3.6 -9.4,1.7 -4.6,-1.9 -7.7,-4.3 -10.2,-5.1 -2.5,-0.8 -4.9,-1.2 -5.1,-2.1 -0.1,-0.3 0,-0.8 0,-1.4 0.5,0.7 2.6,1 4.9,1.8 z"
   id="path952" />

	<path
   style="fill:#2d3134"
   d="m 32.2,213 c 0.6,1.6 0.8,3.5 2.4,6 1.2,2 3.1,6.7 1.8,8.5 -1.9,2.6 -9.5,2 -11.9,-2.8 -2.1,-4.2 -4.1,-8.7 -4.1,-9.8 -0.1,-2.7 0.6,-5.2 0.6,-5.2 z"
   id="path954" />

	<path
   style="opacity:0.5"
   d="m 20.7,211.7 c 0,0.4 0,0.9 0,1.3 0,1.1 2,5.6 4.1,9.8 2.4,4.8 10,5.4 11.9,2.8 0.1,-0.1 0.2,-0.3 0.2,-0.4 0.1,0.9 0,1.7 -0.4,2.3 -1.9,2.6 -9.5,2 -11.9,-2.8 -2.1,-4.2 -4.1,-8.7 -4.1,-9.8 -0.1,-1.2 0,-2.3 0.2,-3.2 z"
   id="path956" />

	<path
   style="fill:#06547a"
   d="m 50,117.7 c 2.5,7.1 5.8,16.5 7.6,25.6 1.8,9.1 3.4,17.9 2.9,22.6 -0.5,4.4 -6.2,16 -8,26 -1.9,9.9 -1.2,15.2 -1.7,15.7 -0.9,0.9 -5.5,1.3 -7.5,1.3 -2,0 -6.3,-0.3 -6.9,-1.3 -0.6,-1 -0.1,-15.9 1.8,-24.3 1.9,-8.4 6,-18.2 5.7,-20.1 -0.3,-1.9 -9.8,-20.1 -11.9,-25.5 -2.1,-5.4 -3.8,-21.8 -3.8,-21.8 z"
   id="path958" />

	<path
   style="opacity:0.2"
   d="m 50,117.7 c 2.5,7.1 5.8,16.5 7.6,25.6 1.8,9.1 3.4,17.9 2.9,22.6 -0.5,4.4 -6.2,16 -8,26 -1.9,9.9 -1.2,15.2 -1.7,15.7 -0.9,0.9 -5.5,1.3 -7.5,1.3 -2,0 -6.3,-0.3 -6.9,-1.3 -0.6,-1 -0.1,-15.9 1.8,-24.3 1.9,-8.4 6,-18.2 5.7,-20.1 -0.3,-1.9 -9.8,-20.1 -11.9,-25.5 -2.1,-5.4 -3.8,-21.8 -3.8,-21.8 z"
   id="path960" />

	<path
   style="fill:#06547a"
   d="m 38.3,117.5 c 0,0 0.8,19.2 0.6,29.4 -0.2,10.2 -0.9,20.6 -2.8,25.9 -1.3,3.8 -2.4,22.9 -2.7,29.9 -0.2,4.4 0.5,10.2 0,11.4 -0.8,1.9 -10,1 -11.7,0.3 -1.7,-0.8 -1.8,-1.5 -2,-3.5 -0.2,-2 -1.6,-20.4 -0.8,-29.1 0.8,-8.7 3.4,-17.3 2.7,-22.1 -0.7,-4.9 -7.5,-24.6 -6,-35.1 1.5,-10.5 6.3,-14.8 6.3,-14.8 z"
   id="path962" />

	<path
   style="fill:#3399cc"
   d="m 60.7,104.2 -4,3.1 c 0,0 -4.3,-4.5 -7.5,-8.1 C 46,95.6 40,86.8 40,86.8 l 6.7,-4.6 c 0,0 6.6,9.4 8.9,13.2 2.3,3.8 5.1,8.8 5.1,8.8 z"
   id="path964" />

	<path
   style="fill:#3399cc"
   d="m 43.3,58 c -3.1,-0.9 -20.8,0.7 -24,5.6 -4.9,7.6 2.8,25.8 2.6,31.2 -0.1,5.3 -1.2,17.5 -1.7,20.1 -0.5,2.6 13.9,11.5 21.3,11.3 7.4,-0.2 8.7,-4.9 8.8,-7.1 0.1,-2.2 0,-20.7 -0.3,-23.5 -0.3,-2.8 -0.6,-6.6 0,-8.8 0.6,-2.2 5.1,-6.5 3.3,-10.5 C 51.5,72.3 48.2,68.7 47,65 46,61.4 45.1,58.5 43.3,58 Z"
   id="path966" />

	<path
   style="fill:#99cc33"
   d="m 36.7,58 c 1.4,-0.2 7.8,-1.9 10,3.8 1.6,4.2 6.4,11.8 7.1,14.6 0.7,2.7 0,6.4 -1,9.4 -1,3 -1.4,18.2 -1.1,25.3 0.3,7.1 2.9,15.1 2.1,16.7 -0.8,1.7 -6.1,2.3 -7.8,2 -1.7,-0.3 -0.9,-18 -0.7,-25.3 0.1,-3.4 0.3,-12.8 0.1,-19.3 C 45.3,81.6 41.6,67.9 40.4,64.7 39.2,61.4 36.7,58 36.7,58 Z"
   id="path968" />

	<path
   style="fill:#fbd7c7"
   d="m 36.3,31.8 c 5.2,0.1 12,6.1 11.3,13.8 -0.6,7.7 -3.4,15.9 -5.3,16.6 -1.9,0.7 -4.1,-0.4 -4.1,-0.4 0,0 2.5,3.5 1.2,4.5 -1.3,0.9 -7.6,-0.4 -10.9,-2.4 -3.3,-2 -3.2,-3.6 -3.2,-3.6 0,0 3,-4.7 2.8,-7.3 -0.2,-2.6 -4.4,-7.9 -1.6,-14.6 2.7,-6.4 5.8,-6.7 9.8,-6.6 z"
   id="path970" />

	<path
   style="fill:#762c07"
   d="m 47.7,41.9 c -0.4,1.3 -3.4,1.9 -6.2,2 -2.7,0.1 -5.3,0.4 -6.5,2 -1.2,1.6 -2.2,3.3 -3.2,2.8 -1,-0.5 -2.5,-2.7 -4.1,-2.4 -1.5,0.3 -0.6,3.7 -0.6,3.7 0,0 -4.7,-10.6 1,-16 4.1,-3.9 10.7,-3.7 15.2,0.1 4.4,3.7 4.6,7.2 4.4,7.8 z"
   id="path972" />

	<path
   style="fill:#99cc33"
   d="m 24.7,59.9 c -2,0.1 -8.8,5.5 -9.8,8 -3.8,8.9 4,26.2 4,30.3 0,4.1 -3.8,24 -4,26.8 -0.2,2.8 7.8,4.6 12.6,5.4 4.8,0.8 14.3,1.1 15.2,-0.7 0.9,-1.8 3.2,-18 3,-26.4 -0.2,-8.4 0.2,-14.2 -2.4,-20.4 -5.4,-12.4 -18.2,-23 -18.6,-23 z"
   id="path974" />

	<path
   style="fill:#fbd7c7"
   d="m 34.6,119.4 c 0,0 0.6,1.3 1.3,1.3 0.6,0 3.5,-0.1 4.2,1.3 0.7,1.4 0.6,2.2 2.5,3.3 1.9,1.2 5.5,1.4 5.4,2.5 -0.1,1.3 -2,2.5 -3.3,2.9 -1.3,0.4 -6.6,1.5 -8.4,0 -1.8,-1.5 -3.9,-4.8 -4.2,-5.4 -0.3,-0.6 -2.1,-2.3 -2.1,-2.9 0,-0.7 4.6,-3 4.6,-3 z"
   id="path976" />

	<path
   style="fill:#3399cc"
   d="m 35.4,120 -5,3.8 c 0,0 -6.1,-7 -9.1,-10.2 -2.2,-2.4 -5.9,-7.5 -6.3,-9.8 -0.4,-2.3 -0.7,-19.3 -0.7,-24.2 0,-3 -1.6,-13.2 4.9,-12.9 6.5,0.3 7.2,6 6.7,12.4 -0.5,6.4 -2.3,20.7 -1.7,21.8 0.5,0.9 5.1,8.5 6.8,11.2 1.7,2.7 4.4,7.9 4.4,7.9 z"
   id="path978" />

	<g
   id="g988">
		<path
   style="fill:#ffcc00"
   d="m 51.2,42.7 c 0,0 2.7,1.2 2.7,2 0,0.8 -7.9,4.3 -13.4,3.7 C 35,47.8 25.1,45 24.5,43.7 23.9,42.3 25.2,28.2 36.6,28.2 c 13.5,0 14.6,14.5 14.6,14.5 z"
   id="path980" />

		<path
   style="opacity:0.2"
   d="m 53.8,44.7 c 0,0.8 -7.9,4.3 -13.4,3.7 -4.4,-0.5 -11.5,-2.3 -14.5,-3.8 3,1 7,2.1 9.9,2 5.2,-0.2 13.6,-2.7 15.3,-3.9 0.1,0 2.7,1.2 2.7,2 z"
   id="path982" />

		<path
   style="opacity:0.2"
   d="m 49.7,41.1 -1.2,0.4 C 48,38 45.4,28.8 35.5,28.8 c -0.6,0 -1.2,0 -1.7,0.1 0.9,-0.2 1.8,-0.4 2.9,-0.4 9.8,0 12.4,9 13,12.6 z"
   id="path984" />

		<path
   style="opacity:0.2"
   d="M 45.5,42.5 C 45.2,40 43.6,29.3 34.8,29.3 c -0.5,0 -0.9,0 -1.4,0.1 0.7,-0.2 1.5,-0.4 2.3,-0.4 8.7,0 10.7,10.4 11,13 z"
   id="path986" />

	</g>

</g>
    <g
       transform="translate(24.449931,-3.3140107)"
       id="g1088">
      <path
         style="fill:#f8ebcb;stroke-width:0.26458332"
         d="m 79.853748,134.766 c 2.196041,0 3.96875,0.89959 3.96875,1.98438 l -0.79375,-5.42396 c 0,-0.87313 -1.42875,-1.5875 -3.175,-1.5875 -1.74625,0 -3.175,0.71437 -3.175,1.5875 l -0.79375,5.42396 c 0,-1.08479 1.772708,-1.98438 3.96875,-1.98438 z"
         id="path899-5" />
      <path
         style="fill:#f8ebcb;stroke-width:0.26458332"
         d="m 79.853748,132.91392 c -1.74625,0 -3.175,-0.71438 -3.175,-1.5875 l -0.79375,5.42396 c 0,1.08479 1.772708,1.98437 3.96875,1.98437 2.196041,0 3.96875,-0.89958 3.96875,-1.98437 l -0.79375,-5.42396 c 0,0.87312 -1.42875,1.5875 -3.175,1.5875 z"
         id="path903-2" />
      <path
         style="opacity:0.2;stroke-width:0.26458332"
         d="m 79.853748,132.91392 c -1.74625,0 -3.175,-0.71438 -3.175,-1.5875 l -0.79375,5.42396 c 0,1.08479 1.772708,1.98437 3.96875,1.98437 2.196041,0 3.96875,-0.89958 3.96875,-1.98437 l -0.79375,-5.42396 c 0,0.87312 -1.42875,1.5875 -3.175,1.5875 z"
         id="path905-9" />
    </g>
    <g
       id="g1075">
      <path
         style="fill:#825012;stroke-width:0.26458332"
         d="m 120.13075,127.75285 c -1.45521,0 -2.64584,0.58208 -2.64584,1.32292 v 0.52916 c 0,0.74084 1.19063,1.32292 2.64584,1.32292 1.4552,0 2.64583,-0.58208 2.64583,-1.32292 v -0.52916 c 0,-0.74084 -1.19063,-1.32292 -2.64583,-1.32292 z"
         id="path891" />
      <path
         style="opacity:0.2;stroke-width:0.26458332"
         d="m 120.13075,130.39868 c -1.45521,0 -2.64584,-0.58208 -2.64584,-1.32291 v 0.52916 c 0,0.74084 1.19063,1.32292 2.64584,1.32292 1.4552,0 2.64583,-0.58208 2.64583,-1.32292 v -0.52916 c 0,0.74083 -1.19063,1.32291 -2.64583,1.32291 z"
         id="path893" />
      <path
         style="fill:#825012;stroke-width:0.3345817"
         d="m 120.13075,120.01633 c -0.29105,0 -0.52917,0.16923 -0.52917,0.42309 v 8.50428 c 0,0.25386 0.23812,0.42311 0.52917,0.42311 0.29104,0 0.52916,-0.16925 0.52916,-0.42311 v -8.50428 c 0,-0.25386 -0.23812,-0.42309 -0.52916,-0.42309 z"
         id="path895" />
      <path
         style="fill:#ffcc00;stroke-width:0.26458332"
         d="m 121.45366,117.96327 c 0,-0.82021 -0.74083,-1.48167 -1.61396,-1.29646 -0.52916,0.10583 -0.92604,0.52916 -1.03187,1.05833 -0.0529,0.39688 0.0529,0.76729 0.26458,1.03188 0.21167,0.29104 0.34396,0.635 0.39688,1.00541 l 0.13229,0.84667 0.52917,0.26458 0.52916,-0.26458 0.10584,-0.79375 c 0.0529,-0.37042 0.1852,-0.74083 0.42333,-1.05833 0.15875,-0.21167 0.26458,-0.50271 0.26458,-0.79375 z"
         id="path901" />
      <path
         style="opacity:0.2;stroke-width:0.33436197"
         d="m 120.13075,120.87368 c -0.29105,0 -0.52917,-0.16902 -0.52917,-0.42254 v 8.49312 c 0,0.25352 0.23812,0.42255 0.52917,0.42255 0.29104,0 0.52916,-0.16903 0.52916,-0.42255 v -8.49312 c 0,0.25352 -0.23812,0.42254 -0.52916,0.42254 z"
         id="path897" />
    </g>
  </g>
</svg>
