<?xml version="1.0" encoding="UTF-8" standalone="no"?>
<svg
   xmlns:dc="http://purl.org/dc/elements/1.1/"
   xmlns:cc="http://creativecommons.org/ns#"
   xmlns:rdf="http://www.w3.org/1999/02/22-rdf-syntax-ns#"
   xmlns:svg="http://www.w3.org/2000/svg"
   xmlns="http://www.w3.org/2000/svg"
   id="svg3748"
   version="1.1"
   viewBox="0 0 117.96189 101.89803"
   height="101.89803mm"
   width="117.96189mm">
  <defs
     id="defs3742" />
  <metadata
     id="metadata3745">
    <rdf:RDF>
      <cc:Work
         rdf:about="">
        <dc:format>image/svg+xml</dc:format>
        <dc:type
           rdf:resource="http://purl.org/dc/dcmitype/StillImage" />
        <dc:title></dc:title>
      </cc:Work>
    </rdf:RDF>
  </metadata>
  <g
     transform="translate(-36.018559,-76.268334)"
     id="layer1">
    <rect
       y="90.651863"
       x="36.018559"
       height="87.514496"
       width="117.96189"
       id="rect4530"
       style="fill:#99cc33;fill-opacity:1;stroke-width:0.31553766" />
    <g
       id="g4380"
       transform="matrix(0.26458333,0,0,0.26458333,112.83983,71.489768)">
      <path
         id="path4342"
         d="m 13.4,105 c 0,0 1,9.1 1.3,12.3 0.3,3.2 1.3,5.5 2.1,7.3 0.8,1.8 4.5,6.2 5,5.9 0.5,-0.3 -0.3,-2.1 -0.3,-2.5 0,-0.4 0.4,-1.7 -0.2,-2.5 -0.6,-0.7 -1.7,-4 -1.6,-4.7 0.1,-0.7 1.4,-0.9 1.5,-1.4 0.1,-0.5 0.1,-0.5 0.1,-0.5 0,0 -3.6,-6 -3.6,-8.6 0,-2.7 -0.1,-6.1 -0.1,-6.1 0,0 -0.6,-0.3 -2,0 -1.4,0.2 -2.2,0.8 -2.2,0.8 z"
         style="fill:#fbd7c7" />
      <path
         id="path4344"
         d="m 28.1,216.9 c 0.6,1.8 -6.7,11.8 7.1,13.5 20.6,2.7 21.6,-13.7 29.3,-18.2 13.9,-8.1 -3.1,-14.1 -22.5,-14.1 -16.3,0.1 -30.5,1.9 -29.4,10.1 0.7,6.1 14.6,5.6 15.5,8.7 z"
         style="opacity:0.3;fill:#262626" />
      <path
         id="path4346"
         d="m 34,200.2 c 0,0 -1.6,1.2 -5.5,1.1 -3.9,-0.1 -7.3,-0.8 -11.4,1.5 -4.8,2.7 -1.2,7 0.1,7.4 1.3,0.4 18.1,0.9 21.2,0.7 3.1,-0.2 2.1,-8.2 2.1,-8.2 z"
         style="fill:#762c07" />
      <path
         id="path4348"
         d="m 39.4,209.1 c -1.5,0.1 -9,0.6 -13.5,0.5 -5,-0.1 -6.4,-0.5 -7.8,-1 -1.7,-0.6 -3.2,-1.4 -3.3,-3.1 -0.5,2.2 0.9,4.1 2.5,4.6 1.5,0.5 3.3,0.9 8.6,1.1 4.2,0.1 11.3,-0.3 12.6,-0.4 0.8,-0.1 1.4,-0.7 1.7,-1.6 -0.4,0.3 -0.5,-0.1 -0.8,-0.1 z"
         style="fill:#262626" />
      <path
         id="path4350"
         d="m 39.7,211 c 0,0 -3.9,4.4 -6.6,7.6 -2.7,3.2 -3.8,5.6 -3.6,7.9 0.2,2.3 3.5,3.4 8,3.4 4.5,0 9.3,-2.8 11.5,-5.9 2.3,-3.1 5.6,-5.9 5.6,-7.4 0,-1.5 -0.1,-6.2 -0.1,-6.2 z"
         style="fill:#762c07" />
      <path
         id="path4352"
         d="m 54.6,210.4 h -0.5 c 0,1.5 0.1,3.3 0.1,4.1 0,1.5 -3.4,4.3 -5.6,7.4 -2.3,3.1 -7,5.9 -11.5,5.9 -3.5,0 -6.3,-0.6 -7.4,-2 0,0.2 0,0.4 0,0.6 0.1,2.3 3.5,3.4 8,3.4 4.6,0 9.3,-2.8 11.5,-5.9 2.3,-3.1 5.6,-5.9 5.6,-7.4 -0.1,-1.4 -0.2,-6.1 -0.2,-6.1 z"
         style="fill:#262626" />
      <path
         id="path4354"
         d="m 19.7,114.3 c 0,0 -0.5,13 1.6,23.9 2.1,10.9 9.5,26.4 9.5,31.1 0,4.7 2.3,19 2.1,22.8 -0.1,3.8 -0.9,8.6 -0.9,8.6 0,0 2.7,5 6.2,6.7 3.5,1.7 7.2,-0.4 7.2,-0.4 L 39,116.5 Z"
         style="fill:#3399cc" />
      <path
         id="path4356"
         d="m 19.7,114.3 c 0,0 -0.5,13 1.6,23.9 2.1,10.9 9.5,26.4 9.5,31.1 0,4.7 2.3,19 2.1,22.8 -0.1,3.8 -0.9,8.6 -0.9,8.6 0,0 2.7,5 6.2,6.7 3.5,1.7 7.2,-0.4 7.2,-0.4 L 39,116.5 Z"
         style="opacity:0.2" />
      <path
         id="path4358"
         d="m 31.1,119.4 c 0,0 0.3,14.3 -0.3,25.6 -0.5,11.3 2.3,21.7 3.4,25.3 1.1,3.6 1.5,9.7 1.5,15.2 0,5.5 0.2,26.2 1,27 0.8,0.8 5.2,3.6 10.9,4 4.3,0.3 9,-2.4 9,-3.1 0,-0.7 1.5,-16.4 0.3,-29.1 -1.2,-12.7 -3.8,-19.3 -3.6,-21.3 0.1,-2 3.1,-29.1 2.8,-34.7 -0.3,-5.6 -2,-18.4 -2,-18.4 z"
         style="fill:#3399cc" />
      <path
         id="path4360"
         d="m 17.9,69.4 c 0,0 -2.2,7.4 -3.6,17.6 -1.5,10.7 -0.7,25.3 -0.7,25.3 0,0 2.1,-1.6 6.2,-1.6 4.1,0 -1.9,-41.3 -1.9,-41.3 z"
         style="fill:#ffcc00" />
      <path
         id="path4362"
         d="m 17.9,69.4 c 0,0 -2.2,7.4 -3.6,17.6 -1.5,10.7 -0.7,25.3 -0.7,25.3 0,0 2.1,-1.6 6.2,-1.6 4.1,0 -1.9,-41.3 -1.9,-41.3 z"
         style="opacity:0.2" />
      <path
         id="path4364"
         d="m 51.5,127 c 0,0 -0.4,2.9 -2.3,5.1 -1.9,2.1 -3.5,5.8 -3.5,7.3 0,2.1 0,3.9 0.9,4 1.8,0.2 1.1,-1.3 1.7,-1.3 0.6,0 0.3,2.6 3,2.7 3.5,0.1 8.5,-2.3 8.5,-4.6 0,-1.2 -0.5,-4.4 -0.9,-6.2 -0.5,-1.9 -0.5,-4.5 -0.5,-4.5 z"
         style="fill:#fbd7c7" />
      <path
         id="path4366"
         d="m 38.8,44 c 9.5,2.5 20.1,4.6 23.7,12.3 3.1,6.6 2.9,8.7 2.7,14.9 -0.3,6.2 -0.8,18.5 -0.5,22.5 0.3,4 -1.1,20.8 -2.3,26.4 -1.2,5.6 -1.6,10.3 -2.5,10.6 -0.9,0.3 -10.2,-0.9 -9.5,-2.3 0.9,-2 1.2,-7.6 1.2,-7.6 0,0 -4.4,5.4 -14.2,4 -9.8,-1.3 -18.2,-6.1 -19.1,-8.6 -0.4,-1.2 -0.6,-19.8 0.3,-24.8 0.9,-5 -2,-15.7 -2.1,-20.4 -0.1,-4.7 2.9,-17.4 3.1,-19.7 0.1,-3.4 4.2,-11.2 19.2,-7.3 z"
         style="fill:#ffcc00" />
      <path
         id="path4368"
         d="m 51.5,120.9 c 0,0 0.7,-5.2 0.7,-9.8 0,-4.6 0.1,-11.3 -0.4,-13.9 C 51.3,94.5 49.6,85 49.3,82.5 48.6,76.4 49,72.7 49.5,71.4 c -2.4,4.1 -1,19 -0.3,25.2 0.9,8.7 -0.3,25.8 -0.6,26.6 -0.3,0.7 2.9,-2.3 2.9,-2.3 z"
         style="opacity:0.2" />
      <path
         id="path4370"
         d="m 42.5,38.2 c 0,0 0,5.2 0.9,6.1 0.9,0.9 3,1.3 2.3,2.6 -0.7,1.3 -8.1,9.7 -13.5,9.2 -5.3,-0.5 -4,-9.4 -4,-9.4 z"
         style="fill:#fbd7c7" />
      <path
         id="path4372"
         d="m 22.8,26.5 c -2.2,2.8 -1.3,11 -0.3,14.7 1,3.7 2.2,5.9 2.7,7.3 0.4,1.4 1.9,3.6 3.9,3.5 2,-0.1 8.2,-4.1 10.1,-7.1 C 41,41.9 43.6,39 44,37 44.4,35 44.6,34.1 42.9,33.7 41.2,33.3 37.6,25.9 33,25.6 28.4,25.3 24.1,24.8 22.8,26.5 Z"
         style="fill:#fbd7c7" />
      <path
         id="path4374"
         d="m 21.5,28.4 c -0.4,1.6 0.8,3.3 5.5,3.3 4.7,0 7.6,-2.3 8.1,-0.8 0.5,1.5 1.8,5.7 2.2,6.6 0.4,0.9 1,2 1.3,1.6 0.3,-0.4 1.8,-3.9 2.9,-4.7 1.1,-0.8 1.7,-0.8 1.7,-0.8 0,0 1.6,-8.3 -2,-12.6 C 37.6,16.7 25,15.6 21.5,28.4 Z"
         style="fill:#825012" />
      <path
         id="path4376"
         d="m 25,46.6 c 0,0 0.7,-0.7 1.6,-0.8 0.4,0 1.3,0.1 1.9,0.2 0.8,0.2 2.7,1.1 2.7,1.1 0,0 -2.8,0 -3.7,-0.1 C 26.4,46.9 25,46.6 25,46.6 Z"
         style="fill:#825012" />
      <path
         id="path4378"
         d="m 26.8,49 1.2,0.1 c 0,0 -0.2,0.6 0.6,1.3 0.8,0.7 2.9,0.8 2.9,0.8 0,0 -1.7,1.3 -3.2,0.9 -1.5,-0.4 -2.3,-1.8 -2.3,-1.8 0,0 0.5,-0.1 0.6,-0.5 0.2,-0.4 0.2,-0.8 0.2,-0.8 z"
         style="fill:#825012" />
    </g>
    <g
       id="g4340"
       transform="matrix(0.79374999,0,0,0.79374999,44.369843,119.18907)">
      <path
         id="path4293"
         d="m 64,0 -12,4 -4,4 -8,4 -8,8 h -8 l -8,4 -4,4 -12,4 12,4 4,4 8,4 8,8 h 8 l 8,4 4,4 12,4 12,-4 4,-4 8,-4 h 8 l 8,-8 8,-4 4,-4 12,-4 -12,-4 -4,-4 -8,-4 H 96 L 88,12 80,8 76,4 Z"
         style="opacity:1;fill:#baa794" />
      <path
         id="path4295"
         d="m 64,0 12,4 4,4 8,4 8,8 h 8 l 8,4 4,4 12,4 -12,4 -4,4 -8,4 -8,8 -8,-8 -8,-4 -4,-4 -12,-4 z"
         style="opacity:0.11000001" />
      <path
         id="path4297"
         d="m 64,0 v 32 l -12,4 -4,4 -8,4 -8,8 -8,-8 -8,-4 -4,-4 -12,-4 12,-4 4,-4 8,-4 h 8 l 8,-8 8,-4 4,-4 z"
         style="opacity:0.28999999" />
      <path
         id="path4299"
         d="m 16,24 8,-4 v 24 l -8,-4 z"
         style="opacity:0.1;fill:#ffffff" />
      <path
         id="path4301"
         d="m 48,8 4,-4 v 32 l -4,4 z"
         style="opacity:0.1;fill:#ffffff" />
      <path
         id="path4303"
         d="M 52,4 64,0 v 32 l -12,4 z"
         style="opacity:0.1" />
      <path
         id="path4305"
         d="m 40,12 -8,8 v 32 l 8,-8 z"
         style="opacity:0.15" />
      <path
         id="path4307"
         d="M 12,36 0,32 12,28 Z"
         style="opacity:0.1" />
      <path
         id="path4309"
         d="m 112,24 -8,-4 v 24 l 8,-4 z"
         style="opacity:0.1;fill:#ffffff" />
      <path
         id="path4311"
         d="M 80,8 76,4 v 32 l 4,4 z"
         style="opacity:0.1;fill:#ffffff" />
      <path
         id="path4313"
         d="M 76,4 64,0 v 32 l 12,4 z"
         style="opacity:0.1" />
      <path
         id="path4315"
         d="m 88,12 8,8 v 32 l -8,-8 z"
         style="opacity:0.15" />
      <path
         id="path4317"
         d="m 116,36 12,-4 -12,-4 z"
         style="opacity:0.1" />
    </g>
    <g
       transform="matrix(0.26458333,0,0,0.26458333,84.163177,113.57992)"
       id="g4594">
      <path
         style="opacity:0.2"
         d="m 65.1,234.6 c 15.7,-7.7 6,-16.3 -10.9,-21.1 -15,-4.3 -26.2,-22.2 -43.2,-11.4 -13.8,8.7 4.9,17.9 18.3,22.6 19.1,6.9 22.8,16.2 35.8,9.9 z"
         id="path4551" />
      <path
         style="fill:#262626"
         d="m 16.3,216.7 c 2.8,1.1 5.8,-0.2 9,-2.6 3.2,-2.4 6.2,-4.1 6.1,-6.9 -0.1,-2.8 -2.3,-3.7 -7.4,-2 -5.1,1.7 -11.1,10.2 -7.7,11.5 z"
         id="path4553" />
      <path
         style="fill:#ffffff"
         d="m 16.9,215.9 c 2.6,1 9.8,-4.1 11.7,-5.8 1.9,-1.7 3.1,-2.8 2.5,-4.3 -0.6,-1.7 -2.5,-2.9 -8.5,-0.8 -6,2.1 -9.8,9.3 -5.7,10.9 z"
         id="path4555" />
      <path
         style="fill:#cc291f"
         d="m 29,123 c 0,0 -3.9,6.7 -4.3,16.4 -0.4,9.6 0.1,23 -0.9,26 -1,3 -7.1,13.5 -8.7,24.8 -1.6,11.3 -2.2,25.2 0.4,26.5 2.6,1.3 6.8,-1 8.2,-1.9 2.7,-1.8 3.8,-4.5 4.1,-6.6 0.3,-2.1 -1.9,-3.7 -0.8,-11 1,-7.3 5.3,-17.3 8,-23.7 2.7,-6.5 6.2,-20.1 7.4,-23.6 1.2,-3.5 3.2,-24.7 3.2,-24.7 z"
         id="path4557" />
      <path
         style="opacity:0.2"
         d="m 29,123 c 0,0 -3.9,6.7 -4.3,16.4 -0.4,9.6 0.1,23 -0.9,26 -1,3 -7.1,13.5 -8.7,24.8 -1.6,11.3 -2.2,25.2 0.4,26.5 2.6,1.3 6.8,-1 8.2,-1.9 2.7,-1.8 3.8,-4.5 4.1,-6.6 0.3,-2.1 -1.9,-3.7 -0.8,-11 1,-7.3 5.3,-17.3 8,-23.7 2.7,-6.5 6.2,-20.1 7.4,-23.6 1.2,-3.5 3.2,-24.7 3.2,-24.7 z"
         id="path4559" />
      <path
         style="fill:#262626"
         d="m 46.1,229.4 c -0.2,1.6 0.5,2 3.4,2 2.9,0 10.8,-1 13.1,-1.7 2.3,-0.7 3.4,-2.3 3.3,-4.4 0,-1.9 -18.7,-6 -19.8,4.1 z"
         id="path4561" />
      <path
         style="fill:#ffffff"
         d="m 46.6,229.6 c 2,1.1 7.6,-0.5 9.8,-0.5 2.2,0 5.8,-0.2 7.6,-1.2 1.8,-1 2.7,-2.8 0.9,-4.3 -1.8,-1.5 -9.3,-2.2 -12.1,-2.2 -2.8,0 -11.6,5 -6.2,8.2 z"
         id="path4563" />
      <path
         style="fill:#cc291f"
         d="m 58.2,126.5 c 0,0 5.2,6.9 4.3,20.6 -0.9,13.7 -5.3,30.1 -5.7,43.2 -0.4,13.1 2.6,31.5 2.5,32.7 -0.1,1.2 0,5.2 -7.1,6.4 -7.1,1.2 -7.3,0 -7.8,-0.4 -0.5,-0.4 0.8,-13.5 0.2,-22.3 -0.6,-8.8 -0.4,-21 0.4,-28.3 0.8,-7.3 -0.9,-19.2 -2.5,-24.9 -0.9,-3.1 -1.9,-9.4 -2.3,-9.9 -0.7,-0.8 -3.6,-2.7 -4.7,-6.2 -1.7,-5.3 -1,-10 2.6,-15.7 3.7,-5.7 20.1,4.8 20.1,4.8 z"
         id="path4565" />
      <path
         style="fill:#fbd7c7"
         d="m 30.7,71.5 c 0,0 -0.9,-6.6 -3.6,-13.9 C 24.4,50.3 22,46.5 22,44.8 22,43 20.4,32.6 19.6,28.4 c -0.9,-4.3 -0.9,-5.9 -0.4,-7.1 0.5,-1.2 1.9,-1.7 2.2,-3.5 0.3,-1.8 0.3,-3 0.7,-3.9 0.5,-0.8 0.8,-0.6 0.2,-1 -0.6,-0.4 -1.7,0.2 -2,1 -0.3,0.8 -0.3,2.3 -0.7,2.5 -0.5,0.1 -0.7,-1.4 -0.9,-3 -0.2,-1.6 0.7,-7 -0.2,-7.2 -1.1,-0.2 -1.1,2.7 -1.3,4.1 -0.2,1.1 -0.4,3.4 -0.4,3.4 0,0 -1,-2.2 -1.5,-4.1 C 14.8,7.7 14.6,5.7 13.7,6 c -0.9,0.2 0,3.3 0.3,4.5 0.3,1.2 0.7,3.6 0.7,3.6 0,0 -1.4,-2.8 -2.1,-4.3 C 12,8.3 11.6,7 10.8,7.3 c -0.7,0.3 0.5,2.9 1,4.2 0.5,1.3 1,3.3 1,3.3 0,0 -1,-1.3 -1.6,-2.6 -0.6,-1.3 -1,-3.1 -1.8,-2.8 -0.7,0.4 0.5,2.6 1,3.8 0.5,1.2 0.8,2.7 1.4,3.8 0.6,1.1 2.1,4.2 2.2,5.2 0.1,1 0.5,7.7 0.6,12.1 0.1,4.4 -0.3,10.6 0,11.7 0.3,1.1 2.8,6.7 3.9,13.2 1.1,6.5 1.2,12.6 2.3,15.7 1.2,3.2 9.9,-3.4 9.9,-3.4 z"
         id="path4567" />
      <path
         style="fill:#ffcc00"
         d="m 30.2,67.2 c 0,0 -2.8,1.4 -5.4,2.1 -2.6,0.7 -5.2,0.7 -5.5,1.6 -0.3,0.8 3.6,14.4 5.5,19.9 1.8,5.5 7,19 6.9,22 -0.1,3 -2.1,6.2 -2.9,9 -0.8,2.8 -1.5,4.7 -1.5,4.7 0,0 6,0.5 11.6,0.9 5.6,0.4 11.3,-0.3 15.4,0.1 3.7,0.4 5.7,1.8 5.7,1.8 0,0 -2.1,-8 -2.5,-13.4 C 57.1,110.4 56.6,98 57,97.2 c 0.4,-0.8 3.1,-2.3 3,-6.1 -0.1,-3.8 -2.1,-3.5 -2.2,-4.6 -0.1,-1.1 0.5,-2.8 -0.8,-4 -2,-1.9 -5.7,-5 -9,-6.4 -3.4,-1.7 -17.8,-8.9 -17.8,-8.9 z"
         id="path4569" />
      <path
         style="fill:#825012"
         d="m 44.6,45.6 c -5.8,-0.1 -11.3,0.7 -13.9,10 -1,3.4 -1.5,6.8 -2.9,9.9 -2.7,5.8 -6.8,9.2 -3.1,13.6 4.5,5.3 15.4,7.9 18.6,4.9 3.2,-3 3,-7.1 5,-7.7 2,-0.6 4.9,1.6 6,-0.5 1.1,-2.1 -0.4,-4.7 -0.5,-8.6 -0.2,-4 5.4,-21.4 -9.2,-21.6 z"
         id="path4571" />
      <path
         style="fill:#fbd7c7"
         d="m 47.1,78.4 c -0.1,1.7 0.3,3.2 2.6,5.4 2.3,2.2 4.5,5.9 5.4,5.6 0.9,-0.3 2.1,-3.3 3.1,-6.7 1,-3.4 2.7,-6.9 2.7,-10.1 0,-3.2 -0.2,-3.2 0.6,-6.3 0.8,-3.1 1.9,-6.5 2,-11.1 0.1,-4.6 0,-8.1 0,-8.1 0,0 2.1,-2.4 2.9,-4.4 0.7,-2 0.5,-2.3 0.8,-2.7 0.3,-0.4 2.7,-2.2 1.9,-3.3 -0.7,-1.1 -2.7,1.1 -2.7,1.1 0,0 0.5,-3.8 0.5,-5.3 0,-1.4 0.5,-4.3 -1,-4 -1.5,0.3 -0.4,2.9 -1.4,5.7 -1,2.8 -3.6,7.8 -4.2,9 -0.6,1.2 -0.2,3 -1.5,6.9 -1.3,3.9 -3.4,8.2 -4.1,12 -0.7,3.9 -0.6,6.7 -1.2,7.9 -1.7,3.8 -6.3,7.7 -6.4,8.4 z"
         id="path4573" />
    </g>
    <path
       id="rect4530-3"
       transform="matrix(0.26458333,0,0,0.26458333,36.018559,76.268334)"
       d="M 0 258.21289 L 0 385.12695 L 445.83984 385.12695 L 445.83984 258.21289 L 415.54102 258.21289 L 415.56445 258.2207 L 379.56445 270.2207 L 367.56445 282.2207 L 343.56445 294.2207 L 319.56445 318.2207 L 295.56445 318.2207 L 271.56445 330.2207 L 259.56445 342.2207 L 223.56445 354.2207 L 187.56445 342.2207 L 175.56445 330.2207 L 151.56445 318.2207 L 127.56445 318.2207 L 103.56445 294.2207 L 79.564453 282.2207 L 67.564453 270.2207 L 31.564453 258.2207 L 31.587891 258.21289 L 0 258.21289 z "
       clip-path="none"
       mask="none"
       style="fill:#99cc33;fill-opacity:1;stroke-width:0.73872596" />
  </g>
</svg>
