<?xml version="1.0" encoding="UTF-8" standalone="no"?>
<svg
   xmlns:dc="http://purl.org/dc/elements/1.1/"
   xmlns:cc="http://creativecommons.org/ns#"
   xmlns:rdf="http://www.w3.org/1999/02/22-rdf-syntax-ns#"
   xmlns:svg="http://www.w3.org/2000/svg"
   xmlns="http://www.w3.org/2000/svg"
   id="svg2369"
   version="1.1"
   viewBox="0 0 41.20676 46.257706"
   height="46.257706mm"
   width="41.20676mm">
  <defs
     id="defs2363" />
  <metadata
     id="metadata2366">
    <rdf:RDF>
      <cc:Work
         rdf:about="">
        <dc:format>image/svg+xml</dc:format>
        <dc:type
           rdf:resource="http://purl.org/dc/dcmitype/StillImage" />
        <dc:title></dc:title>
      </cc:Work>
    </rdf:RDF>
  </metadata>
  <g
     transform="translate(-37.952991,-101.33041)"
     id="layer1">
    <g
       transform="matrix(0.26458333,0,0,0.26458333,36.129144,99.030652)"
       id="g2938">
      <path
         style="fill:#fbd7c7"
         d="m 111.7,81.3 c -1.3,7 0.1,10.3 -0.5,11.5 -0.6,1.2 -1.6,0.6 -1.6,0.6 0,0 -2.5,5.9 -4.3,5.9 -1.8,0 -1.8,-3.6 -1.8,-3.6 0,0 -1.2,3.2 -3.4,2.8 -1.9,-0.4 -0.5,-2.5 1.6,-7.7 2.2,-5.6 2.8,-11.5 2.8,-11.5 0,0 8.4,-5 7.2,2 z"
         id="path2914" />
      <path
         style="opacity:0.2"
         d="m 104.2,132.9 c 16.5,-8.9 57.4,-26.6 32.9,-41.6 -22.9,-14 -60.9,6.8 -77.1,15.4 -23.8,12.7 -47.8,29.9 -33.2,39 14.9,9.3 46.4,4 77.4,-12.8 z"
         id="path2916" />
      <path
         style="opacity:0.15"
         d="m 111.7,81.3 c -1.3,7 0.1,10.3 -0.5,11.5 -0.6,1.2 -1.6,0.6 -1.6,0.6 0,0 -2.5,5.9 -4.3,5.9 -1.8,0 -1.8,-3.6 -1.8,-3.6 0,0 -1.2,3.2 -3.4,2.8 -1.9,-0.4 -0.5,-2.5 1.6,-7.7 2.2,-5.6 2.8,-11.5 2.8,-11.5 0,0 8.4,-5 7.2,2 z"
         id="path2918" />
      <path
         style="fill:#2d3134"
         d="m 109.2,94.2 c -1.5,-0.1 -4.7,-0.5 -7.9,-2.2 -1.8,4.4 -2.9,6.2 -1.1,6.6 2.1,0.4 3.4,-2.8 3.4,-2.8 0,0 0,3.6 1.8,3.6 1.3,-0.1 3.1,-3.6 3.8,-5.2 z"
         id="path2920" />
      <g
         id="g2928">
        <path
           style="fill:#fbd7c7"
           d="m 146.8,52.3 c 2.3,-12.6 -1.6,-25.4 -12.9,-33.7 0.9,-3.7 1.4,-8.6 -1.4,-9.6 -3,-1.1 -5.6,1.1 -5.6,1.1 0,0 2.9,-0.8 3.2,1.9 0.2,1.6 -0.5,2.8 -1.1,3.5 -1.7,-0.9 -3.4,-1.7 -5.3,-2.4 -22.4,-8.5 -48.3,12.8 -63.3,21.3 -15,8.5 -25.2,16.4 -28.9,20.4 -2.8,3 -4.7,6.2 -5.9,9.4 -1.1,-0.1 -9.3,-0.6 -11.1,2.1 -0.4,0.6 2.1,9.5 2.1,9.5 0,0 -3.1,7 -2.3,13.6 0.8,6.6 -3.5,17.8 -4.7,19 -1.2,1.2 -2.6,2.5 -2.7,3.9 -0.2,3 4.1,7.8 8.3,8.3 3.6,0.5 14,-4.6 20.5,-7.5 -0.9,4.6 -1.9,7.9 -3.6,12.6 -1.5,3.9 -3.3,6.4 -3.7,8.5 -0.4,2.1 4.5,-0.6 4.5,-0.6 0,0 -0.5,2.7 1.4,3.4 1.9,0.7 4.6,-5.6 4.6,-5.6 0,0 0.4,1.1 1.3,0.8 0.9,-0.3 1.3,-4.1 1.6,-6.4 0.7,-4.6 3.9,-11.5 6.2,-15.9 1.9,0.8 3.7,1.2 5.3,1.2 4.4,0 11,-0.7 14.8,1.9 0.1,0 0.1,0.1 0.2,0.1 1.2,2.9 2.2,5.8 2.5,8 1.7,13.1 -2.4,18.9 -1.6,21.5 0.8,2.6 4.2,-2.1 4.2,-2.1 0,0 -0.3,2.7 1.4,3.2 1.7,0.5 5,-7.4 5,-7.4 0,0 1.6,1.8 2.1,0.6 0.5,-1.2 -0.3,-8.5 0.5,-13 0.7,-4 5.1,-15.6 6.4,-22.7 1.9,-1.8 3.8,-3.3 5.9,-4.2 9.1,-3.9 24.3,-10.6 35.8,-19.6 0.7,0.9 1.3,1.9 1.6,3.1 3.5,14.8 0.3,23.9 1,26.3 0.8,3 3.4,-1.2 3.4,-1.2 0,0 -0.4,2.5 1.7,2.8 2.1,0.3 3.5,-5.9 3.8,-6.6 0.3,-0.7 1.1,1.8 1.8,1 0.6,-0.8 -0.6,-6.1 -1,-8 -0.4,-1.9 -0.6,-19.2 0.5,-22.7 1,-3.4 5.2,-10.9 3.5,-19.8 z"
           id="path2922" />
        <path
           style="fill:#2d3134"
           d="m 33.8,101.9 c 0,0 0.1,-2 2.2,-2.9 2,-0.9 4.5,-0.3 4.5,-0.3 0,0 -0.1,2.5 -2,3.2 -2,0.7 -4.7,0 -4.7,0 z"
           id="path2924" />
        <path
           style="opacity:0.15"
           d="m 42.9,82.3 c 1.6,-3.8 8.6,-3.3 13.1,-2.2 4.5,1.2 7.6,0.3 7.6,0.3 0,0 -1,7.4 -3.9,10.8 -2.9,3.3 -6.6,4.2 -9.3,3.9 C 47.7,94.8 41,86.9 42.9,82.3 Z"
           id="path2926" />
      </g>
      <path
         style="fill:#2d3134"
         d="m 35.8,131.6 c -1.9,-0.7 -3.5,-1.3 -5.1,-2.5 -1.1,2.2 -2,3.8 -2.2,5.2 -0.3,2.1 4.5,-0.6 4.5,-0.6 0,0 -0.5,2.7 1.4,3.4 1.5,0.5 3.4,-3 4.2,-4.7 -0.8,-0.3 -1.8,-0.5 -2.8,-0.8 z"
         id="path2930" />
      <path
         style="fill:#2d3134"
         d="m 141.6,103 c -1.5,-0.1 -4.8,-0.4 -8.2,-2.3 -0.3,3.1 -0.7,5.2 -0.4,6.2 0.8,3 3.4,-1.2 3.4,-1.2 0,0 -0.4,2.5 1.7,2.8 1.7,0.2 2.9,-3.6 3.5,-5.5 z"
         id="path2932" />
      <path
         style="opacity:0.15"
         d="m 14.5,113 c -1.5,-1.7 -4.7,-2.9 -6.8,-2.6 -0.5,0.6 -0.8,1.2 -0.8,1.9 -0.2,3 4.1,7.8 8.3,8.3 0.8,0.1 1.8,0 3,-0.3 -0.1,-2.8 -2.2,-5.6 -3.7,-7.3 z"
         id="path2934" />
      <path
         style="fill:#2d3134"
         d="m 69.2,142.6 c 0.8,2.6 4.2,-2.1 4.2,-2.1 0,0 -0.3,2.7 1.4,3.2 1.3,0.4 3.4,-3.9 4.4,-6.1 -1.1,0 -4.9,-0.2 -8.8,-2.4 -0.7,3.8 -1.6,6 -1.2,7.4 z"
         id="path2936" />
    </g>
    <g
       transform="matrix(-0.13229166,0,0,0.13229167,58.936227,127.71148)"
       id="g2984">
      <path
         style="opacity:1;fill:#baa794"
         d="m 111.7,81.3 c -1.3,7 0.1,10.3 -0.5,11.5 -0.6,1.2 -1.6,0.6 -1.6,0.6 0,0 -2.5,5.9 -4.3,5.9 -1.8,0 -1.8,-3.6 -1.8,-3.6 0,0 -1.2,3.2 -3.4,2.8 -1.9,-0.4 -0.5,-2.5 1.6,-7.7 2.2,-5.6 2.8,-11.5 2.8,-11.5 0,0 8.4,-5 7.2,2 z"
         id="path2960" />
      <path
         style="opacity:0.2"
         d="m 104.2,132.9 c 16.5,-8.9 57.4,-26.6 32.9,-41.6 -22.9,-14 -60.9,6.8 -77.1,15.4 -23.8,12.7 -47.8,29.9 -33.2,39 14.9,9.3 46.4,4 77.4,-12.8 z"
         id="path2962" />
      <path
         style="opacity:0.15"
         d="m 111.7,81.3 c -1.3,7 0.1,10.3 -0.5,11.5 -0.6,1.2 -1.6,0.6 -1.6,0.6 0,0 -2.5,5.9 -4.3,5.9 -1.8,0 -1.8,-3.6 -1.8,-3.6 0,0 -1.2,3.2 -3.4,2.8 -1.9,-0.4 -0.5,-2.5 1.6,-7.7 2.2,-5.6 2.8,-11.5 2.8,-11.5 0,0 8.4,-5 7.2,2 z"
         id="path2964" />
      <path
         style="opacity:1;fill:#2d3134"
         d="m 109.2,94.2 c -1.5,-0.1 -4.7,-0.5 -7.9,-2.2 -1.8,4.4 -2.9,6.2 -1.1,6.6 2.1,0.4 3.4,-2.8 3.4,-2.8 0,0 0,3.6 1.8,3.6 1.3,-0.1 3.1,-3.6 3.8,-5.2 z"
         id="path2966" />
      <g
         id="g2974">
        <path
           style="opacity:1;fill:#baa794"
           d="m 146.8,52.3 c 2.3,-12.6 -1.6,-25.4 -12.9,-33.7 0.9,-3.7 1.4,-8.6 -1.4,-9.6 -3,-1.1 -5.6,1.1 -5.6,1.1 0,0 2.9,-0.8 3.2,1.9 0.2,1.6 -0.5,2.8 -1.1,3.5 -1.7,-0.9 -3.4,-1.7 -5.3,-2.4 -22.4,-8.5 -48.3,12.8 -63.3,21.3 -15,8.5 -25.2,16.4 -28.9,20.4 -2.8,3 -4.7,6.2 -5.9,9.4 -1.1,-0.1 -9.3,-0.6 -11.1,2.1 -0.4,0.6 2.1,9.5 2.1,9.5 0,0 -3.1,7 -2.3,13.6 0.8,6.6 -3.5,17.8 -4.7,19 -1.2,1.2 -2.6,2.5 -2.7,3.9 -0.2,3 4.1,7.8 8.3,8.3 3.6,0.5 14,-4.6 20.5,-7.5 -0.9,4.6 -1.9,7.9 -3.6,12.6 -1.5,3.9 -3.3,6.4 -3.7,8.5 -0.4,2.1 4.5,-0.6 4.5,-0.6 0,0 -0.5,2.7 1.4,3.4 1.9,0.7 4.6,-5.6 4.6,-5.6 0,0 0.4,1.1 1.3,0.8 0.9,-0.3 1.3,-4.1 1.6,-6.4 0.7,-4.6 3.9,-11.5 6.2,-15.9 1.9,0.8 3.7,1.2 5.3,1.2 4.4,0 11,-0.7 14.8,1.9 0.1,0 0.1,0.1 0.2,0.1 1.2,2.9 2.2,5.8 2.5,8 1.7,13.1 -2.4,18.9 -1.6,21.5 0.8,2.6 4.2,-2.1 4.2,-2.1 0,0 -0.3,2.7 1.4,3.2 1.7,0.5 5,-7.4 5,-7.4 0,0 1.6,1.8 2.1,0.6 0.5,-1.2 -0.3,-8.5 0.5,-13 0.7,-4 5.1,-15.6 6.4,-22.7 1.9,-1.8 3.8,-3.3 5.9,-4.2 9.1,-3.9 24.3,-10.6 35.8,-19.6 0.7,0.9 1.3,1.9 1.6,3.1 3.5,14.8 0.3,23.9 1,26.3 0.8,3 3.4,-1.2 3.4,-1.2 0,0 -0.4,2.5 1.7,2.8 2.1,0.3 3.5,-5.9 3.8,-6.6 0.3,-0.7 1.1,1.8 1.8,1 0.6,-0.8 -0.6,-6.1 -1,-8 -0.4,-1.9 -0.6,-19.2 0.5,-22.7 1,-3.4 5.2,-10.9 3.5,-19.8 z"
           id="path2968" />
        <path
           style="opacity:1;fill:#2d3134"
           d="m 33.8,101.9 c 0,0 0.1,-2 2.2,-2.9 2,-0.9 4.5,-0.3 4.5,-0.3 0,0 -0.1,2.5 -2,3.2 -2,0.7 -4.7,0 -4.7,0 z"
           id="path2970" />
        <path
           style="opacity:0.15"
           d="m 42.9,82.3 c 1.6,-3.8 8.6,-3.3 13.1,-2.2 4.5,1.2 7.6,0.3 7.6,0.3 0,0 -1,7.4 -3.9,10.8 -2.9,3.3 -6.6,4.2 -9.3,3.9 C 47.7,94.8 41,86.9 42.9,82.3 Z"
           id="path2972" />
      </g>
      <path
         style="opacity:1;fill:#2d3134"
         d="m 35.8,131.6 c -1.9,-0.7 -3.5,-1.3 -5.1,-2.5 -1.1,2.2 -2,3.8 -2.2,5.2 -0.3,2.1 4.5,-0.6 4.5,-0.6 0,0 -0.5,2.7 1.4,3.4 1.5,0.5 3.4,-3 4.2,-4.7 -0.8,-0.3 -1.8,-0.5 -2.8,-0.8 z"
         id="path2976" />
      <path
         style="opacity:1;fill:#2d3134"
         d="m 141.6,103 c -1.5,-0.1 -4.8,-0.4 -8.2,-2.3 -0.3,3.1 -0.7,5.2 -0.4,6.2 0.8,3 3.4,-1.2 3.4,-1.2 0,0 -0.4,2.5 1.7,2.8 1.7,0.2 2.9,-3.6 3.5,-5.5 z"
         id="path2978" />
      <path
         style="opacity:0.15"
         d="m 14.5,113 c -1.5,-1.7 -4.7,-2.9 -6.8,-2.6 -0.5,0.6 -0.8,1.2 -0.8,1.9 -0.2,3 4.1,7.8 8.3,8.3 0.8,0.1 1.8,0 3,-0.3 -0.1,-2.8 -2.2,-5.6 -3.7,-7.3 z"
         id="path2980" />
      <path
         style="opacity:1;fill:#2d3134"
         d="m 69.2,142.6 c 0.8,2.6 4.2,-2.1 4.2,-2.1 0,0 -0.3,2.7 1.4,3.2 1.3,0.4 3.4,-3.9 4.4,-6.1 -1.1,0 -4.9,-0.2 -8.8,-2.4 -0.7,3.8 -1.6,6 -1.2,7.4 z"
         id="path2982" />
    </g>
    <g
       transform="matrix(0.13229166,0,0,0.13229167,59.068519,121.45409)"
       id="g3030">
      <path
         style="opacity:0.2"
         d="m 94.2,132.2 c 16.5,-8.9 58.5,-25.7 34,-40.7 -22.9,-14 -60.9,6.8 -77.1,15.4 -23.8,12.7 -47.8,29.9 -33.2,39 14.9,9.3 45.2,3.1 76.3,-13.7 z"
         id="path3006" />
      <path
         style="opacity:1;fill:#999999"
         d="m 69.6,94 c 0.1,5 -1,11.1 -0.3,11.9 0.7,0.8 1.1,0 1.5,1.2 0.4,1.2 1.6,1.9 3.8,2.2 2.2,0.2 7.1,-0.4 7.5,-1.7 0.4,-1.3 -1.6,-2.2 -2.1,-4.1 -0.5,-1.9 -1.5,-9.3 -1.3,-10.9 0.2,-1.6 3.2,-13.3 3.2,-13.3 z"
         id="path3008" />
      <path
         style="opacity:0.15"
         d="m 69.6,94 c 0.1,5 -1,11.1 -0.3,11.9 0.7,0.8 1.1,0 1.5,1.2 0.4,1.2 1.6,1.9 3.8,2.2 2.2,0.2 7.1,-0.4 7.5,-1.7 0.4,-1.3 -1.6,-2.2 -2.1,-4.1 -0.5,-1.9 -1.5,-9.3 -1.3,-10.9 0.2,-1.6 3.2,-13.3 3.2,-13.3 z"
         id="path3010" />
      <path
         style="opacity:1;fill:#2d3134"
         d="m 74.6,109.3 c 2.2,0.2 7.1,-0.4 7.5,-1.7 0.3,-0.8 -0.4,-1.5 -1.1,-2.3 -0.9,0.4 -1.9,0.7 -3,0.9 -3.3,0.7 -4.9,0.9 -7.3,0.5 0.1,0.1 0.1,0.2 0.2,0.4 0.3,1.2 1.5,1.9 3.7,2.2 z"
         id="path3012" />
      <path
         style="opacity:1;fill:#999999"
         d="m 150,40.4 c -1.4,-1 -3.5,-6.3 -4.1,-10.5 -0.6,-4.3 -2.6,-7.5 -11.1,-13.7 -7,-5.1 -18.6,-4.1 -18.6,-4.1 0,0 -8.7,-1.9 -10.1,-0.8 -0.3,0.2 -0.5,0.6 -0.6,1 -1.6,-0.3 -3.2,-0.4 -4.9,-0.4 C 83.7,12.1 77.8,18.5 56.5,23.1 35.3,27.8 21.2,39.4 15,54.7 c -1.9,4.6 -2.7,10.2 -2.3,15.7 -1.2,12.6 3.7,24.9 4.1,33.4 0.3,7.4 0.6,14 0.2,20.7 -0.1,2 -1.4,4.9 -1.2,5.6 0.3,0.9 1.6,0.5 1.9,4.5 0.2,2.1 11.6,2.7 11.9,1.1 0.3,-1.6 -3.1,-6.1 -3.1,-13.7 0,-3.8 1.7,-16.7 4.1,-20.7 0.9,-1.5 2.6,-3.3 4.4,-5 1.3,0.2 2.7,0.4 4.1,0.5 4,0.2 7.9,0 11.8,-0.4 0.4,1.4 0.7,3.1 1,5.3 0.9,7.3 3.1,27.6 2.9,30.4 -0.1,0.8 -0.6,3.5 -0.5,4.6 0.1,0.8 1.4,1.5 1.6,2.2 0.6,1.6 1.7,3.8 4.1,3.9 4.7,0.2 6.1,-0.4 6,-1.7 -0.1,-1.3 -2.1,-8.9 -1.6,-22.6 0.4,-13.7 10.2,-18.3 17,-28.3 0.8,-1.1 1.4,-2.4 2,-3.7 7.1,-3 14.4,-6.3 21.9,-9.3 1.7,3 5.6,10.2 7,17.1 1.9,9 -0.6,9.3 0.5,11.2 1.1,1.9 2.8,1.4 3.4,3 0.5,1.5 3.3,2.8 6.7,2.8 3.4,0 6.2,-1.9 6,-2.9 -0.2,-1 -2.6,-2.1 -4.4,-4.6 -1.7,-2.6 -3.2,-14.3 -1.1,-18.8 2.1,-4.4 9.7,-15 8.1,-26.4 3.6,-1.6 8.1,-3.6 9.2,-4.3 1.9,-1.2 9.7,-4.3 10.6,-7.1 1.2,-3.2 0,-5.9 -1.3,-6.8 z"
         id="path3014" />
      <path
         style="opacity:0.15"
         d="m 32.2,59.5 c 1.7,1.4 4.2,-0.4 4.5,-2.6 0.3,-2.2 -2.6,-3.7 -0.7,-6.6 1.8,-2.9 3.8,-3.8 3.8,-3.8 0,0 -5,-0.7 -8.2,4 -3.2,4.7 -0.6,7.9 0.6,9 z"
         id="path3016" />
      <path
         style="opacity:1;fill:#999999"
         d="m 140.2,25.4 c 2.7,-1.5 8.5,-1.3 7.4,5.8 -1.1,7.1 -4.1,12.8 -4.1,12.8 0,0 -1.6,-1.7 -5.7,-3 -4.1,-1.3 -5.2,-2 -5.2,-4.5 0,-2.5 3.6,-9 7.6,-11.1 z"
         id="path3018" />
      <path
         style="opacity:0.15"
         d="m 140.2,25.4 c 2.7,-1.5 8.5,-1.3 7.4,5.8 -1.1,7.1 -4.1,12.8 -4.1,12.8 0,0 -1.6,-1.7 -5.7,-3 -4.1,-1.3 -5.2,-2 -5.2,-4.5 0,-1.6 1.5,-4.8 3.6,-7.5 1.2,-1.6 2.6,-2.9 4,-3.6 z"
         id="path3020" />
      <path
         style="opacity:1;fill:#2d3134"
         d="m 29.6,135.6 c 0.1,-0.7 -0.5,-2 -1.2,-3.8 -3.1,0.3 -8.5,0.3 -11.6,-0.6 0.4,0.5 0.8,1.4 0.9,3.3 0.3,2.1 11.7,2.7 11.9,1.1 z"
         id="path3022" />
      <path
         style="opacity:1;fill:#2d3134"
         d="m 55.9,138.6 c 0,0 0,0.1 0.1,0.1 0.6,1.6 1.7,3.8 4.1,3.9 4.7,0.2 6.5,-0.5 6.4,-1.8 0,-0.3 -0.2,-0.8 -0.4,-1.5 -0.9,0.1 -2.2,0.2 -3.3,0.2 -2.9,0.1 -4.8,-0.4 -6.9,-0.9 z"
         id="path3024" />
      <path
         style="opacity:1;fill:#2d3134"
         d="m 116.2,108.3 c 0.5,1.5 3.3,2.8 6.7,2.8 3.4,0 6.2,-1.9 6,-2.9 -0.1,-0.5 -0.7,-1 -1.4,-1.6 -1.1,0.8 -2.7,1.7 -4.6,1.7 -3.2,0 -4.9,-0.3 -7.1,-0.7 0.2,0.2 0.3,0.4 0.4,0.7 z"
         id="path3026" />
      <path
         style="opacity:0.15"
         d="m 150,40.4 c -0.1,-0.1 -0.2,-0.1 -0.3,-0.2 -0.8,1.2 1,5.7 0.6,8.4 0.6,-0.5 1,-1.1 1.2,-1.6 1,-3 -0.2,-5.7 -1.5,-6.6 z"
         id="path3028" />
    </g>
  </g>
</svg>
