<?xml version="1.0" encoding="UTF-8" standalone="no"?>
<svg
   xmlns:dc="http://purl.org/dc/elements/1.1/"
   xmlns:cc="http://creativecommons.org/ns#"
   xmlns:rdf="http://www.w3.org/1999/02/22-rdf-syntax-ns#"
   xmlns:svg="http://www.w3.org/2000/svg"
   xmlns="http://www.w3.org/2000/svg"
   id="svg8"
   version="1.1"
   viewBox="0 0 32.805946 67.5121"
   height="67.5121mm"
   width="32.805946mm">
  <defs
     id="defs2" />
  <metadata
     id="metadata5">
    <rdf:RDF>
      <cc:Work
         rdf:about="">
        <dc:format>image/svg+xml</dc:format>
        <dc:type
           rdf:resource="http://purl.org/dc/dcmitype/StillImage" />
        <dc:title></dc:title>
      </cc:Work>
    </rdf:RDF>
  </metadata>
  <g
     transform="translate(-116.18961,-89.839171)"
     id="layer1">
    <g
       transform="matrix(0.26458333,0,0,0.26458333,130.58631,85.060605)"
       id="g853">
	<path
   style="fill:#fbd7c7"
   d="m 13.4,105 c 0,0 1,9.1 1.3,12.3 0.3,3.2 1.3,5.5 2.1,7.3 0.8,1.8 4.5,6.2 5,5.9 0.5,-0.3 -0.3,-2.1 -0.3,-2.5 0,-0.4 0.4,-1.7 -0.2,-2.5 -0.6,-0.7 -1.7,-4 -1.6,-4.7 0.1,-0.7 1.4,-0.9 1.5,-1.4 0.1,-0.5 0.1,-0.5 0.1,-0.5 0,0 -3.6,-6 -3.6,-8.6 0,-2.7 -0.1,-6.1 -0.1,-6.1 0,0 -0.6,-0.3 -2,0 -1.4,0.2 -2.2,0.8 -2.2,0.8 z"
   id="path815" />

	<path
   style="opacity:0.3;fill:#262626"
   d="m 28.1,216.9 c 0.6,1.8 -6.7,11.8 7.1,13.5 20.6,2.7 21.6,-13.7 29.3,-18.2 13.9,-8.1 -3.1,-14.1 -22.5,-14.1 -16.3,0.1 -30.5,1.9 -29.4,10.1 0.7,6.1 14.6,5.6 15.5,8.7 z"
   id="path817" />

	<path
   style="fill:#762c07"
   d="m 34,200.2 c 0,0 -1.6,1.2 -5.5,1.1 -3.9,-0.1 -7.3,-0.8 -11.4,1.5 -4.8,2.7 -1.2,7 0.1,7.4 1.3,0.4 18.1,0.9 21.2,0.7 3.1,-0.2 2.1,-8.2 2.1,-8.2 z"
   id="path819" />

	<path
   style="fill:#262626"
   d="m 39.4,209.1 c -1.5,0.1 -9,0.6 -13.5,0.5 -5,-0.1 -6.4,-0.5 -7.8,-1 -1.7,-0.6 -3.2,-1.4 -3.3,-3.1 -0.5,2.2 0.9,4.1 2.5,4.6 1.5,0.5 3.3,0.9 8.6,1.1 4.2,0.1 11.3,-0.3 12.6,-0.4 0.8,-0.1 1.4,-0.7 1.7,-1.6 -0.4,0.3 -0.5,-0.1 -0.8,-0.1 z"
   id="path821" />

	<path
   style="fill:#762c07"
   d="m 39.7,211 c 0,0 -3.9,4.4 -6.6,7.6 -2.7,3.2 -3.8,5.6 -3.6,7.9 0.2,2.3 3.5,3.4 8,3.4 4.5,0 9.3,-2.8 11.5,-5.9 2.3,-3.1 5.6,-5.9 5.6,-7.4 0,-1.5 -0.1,-6.2 -0.1,-6.2 z"
   id="path823" />

	<path
   style="fill:#262626"
   d="m 54.6,210.4 h -0.5 c 0,1.5 0.1,3.3 0.1,4.1 0,1.5 -3.4,4.3 -5.6,7.4 -2.3,3.1 -7,5.9 -11.5,5.9 -3.5,0 -6.3,-0.6 -7.4,-2 0,0.2 0,0.4 0,0.6 0.1,2.3 3.5,3.4 8,3.4 4.6,0 9.3,-2.8 11.5,-5.9 2.3,-3.1 5.6,-5.9 5.6,-7.4 -0.1,-1.4 -0.2,-6.1 -0.2,-6.1 z"
   id="path825" />

	<path
   style="fill:#3399cc"
   d="m 19.7,114.3 c 0,0 -0.5,13 1.6,23.9 2.1,10.9 9.5,26.4 9.5,31.1 0,4.7 2.3,19 2.1,22.8 -0.1,3.8 -0.9,8.6 -0.9,8.6 0,0 2.7,5 6.2,6.7 3.5,1.7 7.2,-0.4 7.2,-0.4 L 39,116.5 Z"
   id="path827" />

	<path
   style="opacity:0.2"
   d="m 19.7,114.3 c 0,0 -0.5,13 1.6,23.9 2.1,10.9 9.5,26.4 9.5,31.1 0,4.7 2.3,19 2.1,22.8 -0.1,3.8 -0.9,8.6 -0.9,8.6 0,0 2.7,5 6.2,6.7 3.5,1.7 7.2,-0.4 7.2,-0.4 L 39,116.5 Z"
   id="path829" />

	<path
   style="fill:#3399cc"
   d="m 31.1,119.4 c 0,0 0.3,14.3 -0.3,25.6 -0.5,11.3 2.3,21.7 3.4,25.3 1.1,3.6 1.5,9.7 1.5,15.2 0,5.5 0.2,26.2 1,27 0.8,0.8 5.2,3.6 10.9,4 4.3,0.3 9,-2.4 9,-3.1 0,-0.7 1.5,-16.4 0.3,-29.1 -1.2,-12.7 -3.8,-19.3 -3.6,-21.3 0.1,-2 3.1,-29.1 2.8,-34.7 -0.3,-5.6 -2,-18.4 -2,-18.4 z"
   id="path831" />

	<path
   style="fill:#ffcc00"
   d="m 17.9,69.4 c 0,0 -2.2,7.4 -3.6,17.6 -1.5,10.7 -0.7,25.3 -0.7,25.3 0,0 2.1,-1.6 6.2,-1.6 4.1,0 -1.9,-41.3 -1.9,-41.3 z"
   id="path833" />

	<path
   style="opacity:0.2"
   d="m 17.9,69.4 c 0,0 -2.2,7.4 -3.6,17.6 -1.5,10.7 -0.7,25.3 -0.7,25.3 0,0 2.1,-1.6 6.2,-1.6 4.1,0 -1.9,-41.3 -1.9,-41.3 z"
   id="path835" />

	<path
   style="fill:#fbd7c7"
   d="m 51.5,127 c 0,0 -0.4,2.9 -2.3,5.1 -1.9,2.1 -3.5,5.8 -3.5,7.3 0,2.1 0,3.9 0.9,4 1.8,0.2 1.1,-1.3 1.7,-1.3 0.6,0 0.3,2.6 3,2.7 3.5,0.1 8.5,-2.3 8.5,-4.6 0,-1.2 -0.5,-4.4 -0.9,-6.2 -0.5,-1.9 -0.5,-4.5 -0.5,-4.5 z"
   id="path837" />

	<path
   style="fill:#ffcc00"
   d="m 38.8,44 c 9.5,2.5 20.1,4.6 23.7,12.3 3.1,6.6 2.9,8.7 2.7,14.9 -0.3,6.2 -0.8,18.5 -0.5,22.5 0.3,4 -1.1,20.8 -2.3,26.4 -1.2,5.6 -1.6,10.3 -2.5,10.6 -0.9,0.3 -10.2,-0.9 -9.5,-2.3 0.9,-2 1.2,-7.6 1.2,-7.6 0,0 -4.4,5.4 -14.2,4 -9.8,-1.3 -18.2,-6.1 -19.1,-8.6 -0.4,-1.2 -0.6,-19.8 0.3,-24.8 0.9,-5 -2,-15.7 -2.1,-20.4 -0.1,-4.7 2.9,-17.4 3.1,-19.7 0.1,-3.4 4.2,-11.2 19.2,-7.3 z"
   id="path839" />

	<path
   style="opacity:0.2"
   d="m 51.5,120.9 c 0,0 0.7,-5.2 0.7,-9.8 0,-4.6 0.1,-11.3 -0.4,-13.9 C 51.3,94.5 49.6,85 49.3,82.5 48.6,76.4 49,72.7 49.5,71.4 c -2.4,4.1 -1,19 -0.3,25.2 0.9,8.7 -0.3,25.8 -0.6,26.6 -0.3,0.7 2.9,-2.3 2.9,-2.3 z"
   id="path841" />

	<path
   style="fill:#fbd7c7"
   d="m 42.5,38.2 c 0,0 0,5.2 0.9,6.1 0.9,0.9 3,1.3 2.3,2.6 -0.7,1.3 -8.1,9.7 -13.5,9.2 -5.3,-0.5 -4,-9.4 -4,-9.4 z"
   id="path843" />

	<path
   style="fill:#fbd7c7"
   d="m 22.8,26.5 c -2.2,2.8 -1.3,11 -0.3,14.7 1,3.7 2.2,5.9 2.7,7.3 0.4,1.4 1.9,3.6 3.9,3.5 2,-0.1 8.2,-4.1 10.1,-7.1 C 41,41.9 43.6,39 44,37 44.4,35 44.6,34.1 42.9,33.7 41.2,33.3 37.6,25.9 33,25.6 28.4,25.3 24.1,24.8 22.8,26.5 Z"
   id="path845" />

	<path
   style="fill:#825012"
   d="m 21.5,28.4 c -0.4,1.6 0.8,3.3 5.5,3.3 4.7,0 7.6,-2.3 8.1,-0.8 0.5,1.5 1.8,5.7 2.2,6.6 0.4,0.9 1,2 1.3,1.6 0.3,-0.4 1.8,-3.9 2.9,-4.7 1.1,-0.8 1.7,-0.8 1.7,-0.8 0,0 1.6,-8.3 -2,-12.6 C 37.6,16.7 25,15.6 21.5,28.4 Z"
   id="path847" />

	<path
   style="fill:#825012"
   d="m 25,46.6 c 0,0 0.7,-0.7 1.6,-0.8 0.4,0 1.3,0.1 1.9,0.2 0.8,0.2 2.7,1.1 2.7,1.1 0,0 -2.8,0 -3.7,-0.1 C 26.4,46.9 25,46.6 25,46.6 Z"
   id="path849" />

	<path
   style="fill:#825012"
   d="m 26.8,49 1.2,0.1 c 0,0 -0.2,0.6 0.6,1.3 0.8,0.7 2.9,0.8 2.9,0.8 0,0 -1.7,1.3 -3.2,0.9 -1.5,-0.4 -2.3,-1.8 -2.3,-1.8 0,0 0.5,-0.1 0.6,-0.5 0.2,-0.4 0.2,-0.8 0.2,-0.8 z"
   id="path851" />

</g>
    <g
       transform="matrix(0.26458333,0,0,0.26458333,116.18961,137.24294)"
       id="g961">
	<path
   style="fill:#cc291f"
   d="M 56,43.8 C 56,30.5 45.3,14.4 32,7.8 28,5.8 24.3,4.9 21,5 13.3,5.1 1,11.7 1,21 1,26.7 24,76 24,76 L 32,71.8 50.7,56.2 C 54,53.7 56,49.5 56,43.8 Z"
   id="path953" />

	<path
   style="opacity:0.18999999"
   d="M 24,76 32,71.8 50.7,56.2 C 54,53.7 56,49.5 56,43.8 56,42.1 55.8,40.3 55.5,38.6 l -37.7,19 z"
   id="path955" />

	<path
   style="fill:#cc291f"
   d="M 48,48 C 48,34.7 37.3,18.6 24,12 10.7,5.4 0,10.7 0,24 0,29.7 2,35.9 5.3,41.6 L 24,76 42.7,60.4 C 46,57.9 48,53.7 48,48 Z"
   id="path957" />

	<path
   style="opacity:0.08999999"
   d="M 48,48 C 48,34.7 37.3,18.6 24,12 10.7,5.4 0,10.7 0,24 0,29.7 2,35.9 5.3,41.6 L 24,76 42.7,60.4 C 46,57.9 48,53.7 48,48 Z"
   id="path959" />

</g>
  </g>
</svg>
