<?xml version="1.0" encoding="UTF-8" standalone="no"?>
<svg
   xmlns:dc="http://purl.org/dc/elements/1.1/"
   xmlns:cc="http://creativecommons.org/ns#"
   xmlns:rdf="http://www.w3.org/1999/02/22-rdf-syntax-ns#"
   xmlns:svg="http://www.w3.org/2000/svg"
   xmlns="http://www.w3.org/2000/svg"
   xmlns:sodipodi="http://sodipodi.sourceforge.net/DTD/sodipodi-0.dtd"
   xmlns:inkscape="http://www.inkscape.org/namespaces/inkscape"
   width="60.919743mm"
   height="46.625023mm"
   viewBox="0 0 60.919743 46.625023"
   version="1.1"
   id="svg8"
   sodipodi:docname="three-same.svg"
   inkscape:version="0.92.3 (2405546, 2018-03-11)">
  <sodipodi:namedview
     pagecolor="#ffffff"
     bordercolor="#666666"
     borderopacity="1"
     objecttolerance="10"
     gridtolerance="10"
     guidetolerance="10"
     inkscape:pageopacity="0"
     inkscape:pageshadow="2"
     inkscape:window-width="874"
     inkscape:window-height="492"
     id="namedview52"
     showgrid="false"
     inkscape:zoom="1.3392308"
     inkscape:cx="115.12392"
     inkscape:cy="88.110279"
     inkscape:window-x="134"
     inkscape:window-y="55"
     inkscape:window-maximized="0"
     inkscape:current-layer="svg8" />
  <defs
     id="defs2" />
  <metadata
     id="metadata5">
    <rdf:RDF>
      <cc:Work
         rdf:about="">
        <dc:format>image/svg+xml</dc:format>
        <dc:type
           rdf:resource="http://purl.org/dc/dcmitype/StillImage" />
        <dc:title />
      </cc:Work>
    </rdf:RDF>
  </metadata>
  <g
     id="g1583"
     transform="matrix(0.26458333,0,0,0.26458333,24.848533,-5.872695)">
    <path
       inkscape:connector-curvature="0"
       id="path1569"
       d="m 62.1,135.1 c -14.4,-6 -36.2,-15.3 -15.8,-27.7 19,-11.6 37.8,3.8 51.2,10.9 7.8,4.2 9.6,15.7 16.9,21.5 11.1,8.9 22.6,14.6 19.8,15.5 -5.8,1.9 -10.9,-6.7 -28.3,-11.1 -16.4,-4.1 -26.5,-1.8 -43.8,-9.1 z"
       style="opacity:0.2" />
    <path
       inkscape:connector-curvature="0"
       id="path1571"
       d="m 61,25.1 c 0,-1.2 -0.7,-3 -3.4,-2.9 C 55,22.4 55,26.5 55,26.5 Z"
       style="fill:#262626" />
    <path
       inkscape:connector-curvature="0"
       id="path1573"
       d="m 65.7,30.6 c -1.2,-0.5 -3,-5.7 -5.1,-6.2 -2.1,-0.4 -6.2,0.8 -7.5,4 -1.3,3.2 2,9.5 1.6,15.4 -0.4,5.9 -1.5,8.5 -2.2,13.6 -0.7,5.1 -1,8.7 -1,8.7 0,0 -5,4.7 -4,13.5 1,8.7 4.8,12.4 2.8,20.1 -2.1,7.7 -4.5,11.3 -4.5,12 0,0.7 0.3,2 -1.1,2.1 -1.3,0.1 -4.5,-0.3 -5.3,2.7 -0.8,2.9 3.1,5.8 6.2,5.4 3,-0.4 7.8,-12.4 9.7,-15.6 1.9,-3.2 3.2,-9.4 4.7,-8.9 1.5,0.4 4.4,9.2 4.4,9.2 0,0 -2.5,-1 -5.4,1.2 -2.9,2.1 -3,8.1 -2.7,10.6 0.4,2.5 1.1,5.4 1.1,5.4 0,0 -1.8,-0.5 -3.2,-1.9 -1.4,-1.3 -4.2,-2 -5.8,0.1 -1.6,2.1 -1.5,4.5 2.4,5.9 3.9,1.4 9.3,4.5 11.5,3.8 2.2,-0.6 1.8,-9.1 1.8,-9.1 0,0 3.7,10.1 10.7,11.5 5.7,1.2 11.9,0.4 11.9,0.4 0,0 7.4,0.6 11.1,2 3.7,1.4 6.9,6 14.7,8.9 4.6,1.7 11.2,6.1 15.2,7.7 4,1.6 7.7,1.8 8.4,1 1.5,-1.7 -4.6,-3 -8.8,-6 -5.4,-3.8 -10,-8.6 -13.5,-12.8 -4.6,-5.4 -11.2,-10.8 -11.2,-10.8 0,0 2.8,-3.7 -0.2,-11.7 -2.9,-7.9 -7.2,-16.4 -9.2,-22.3 -2,-5.9 -9,-15 -10.1,-18.1 C 82,69.3 78.5,65 77.2,60.9 75.9,56.8 76,49.6 76,49.6 c 0,0 2,2.1 3.6,0.8 1.6,-1.3 1.2,-5.4 0,-8.7 -1.2,-3.2 -1.2,-4.4 -2.6,-4.9 -1.3,-0.5 -1.8,-0.2 -2.9,-1.2 -1.2,-1 -4.4,-5.3 -5.7,-5.4 -1.4,-0.1 -2.7,0.4 -2.7,0.4 z"
       style="fill:#825012" />
    <path
       inkscape:connector-curvature="0"
       id="path1575"
       d="m 54.5,39.8 c 0.2,1.3 0.3,2.7 0.2,4 -0.3,5.4 -1.3,8.1 -2.1,12.5 2.6,-0.1 6.6,-1.2 10,-2.9 4.9,-2.5 4.5,-10.8 4.5,-10.8 l -5,-6.1 c -1.7,0.2 -4.7,1.3 -7.6,3.3 z"
       style="opacity:0.2" />
    <path
       inkscape:connector-curvature="0"
       id="path1577"
       d="m 62.3,36.1 c -2.7,0.2 -7.2,5.3 -8.3,6.9 -1.1,1.6 -5.3,8 -2.5,10.7 2.8,2.7 10,-1.2 12.6,-2 2.6,-0.8 7,-4.1 6.9,-6.3 -0.2,-2.3 -3.1,-9.8 -8.7,-9.3 z"
       style="fill:#825012" />
    <path
       inkscape:connector-curvature="0"
       id="path1579"
       d="m 60.2,32.3 c -0.7,0.2 -2.1,1.2 -2.3,1.5 -0.4,0.6 -0.1,1.5 -0.1,1.5 0,0 -1,-1.2 -0.2,-1.9 0.8,-0.7 2.6,-1.1 2.6,-1.1 z"
       style="opacity:0.2" />
    <path
       inkscape:connector-curvature="0"
       id="path1581"
       d="m 76.9,56.3 c -4.6,2.1 -12,3.7 -19.7,4.2 -2.2,0.1 -4.2,0.2 -5.9,0.1 -0.2,1.7 -0.4,3.1 -0.5,4.1 0.6,0 1.2,0 1.8,0 1.7,0 3.4,-0.1 4.8,-0.2 6.2,-0.4 14.3,-1.7 20.1,-4.1 -0.3,-1.1 -0.5,-2.6 -0.6,-4.1 z"
       style="fill:#262626" />
  </g>
  <g
     id="g989"
     transform="matrix(0.26458333,0,0,0.26458333,6.063116,-1.74519)">
    <path
       inkscape:connector-curvature="0"
       id="path961"
       d="m 103.2,117 c 12.7,8.2 34.5,15.5 14.8,27.5 -18.4,11.2 -39.2,-0.4 -49.5,-10.6 -20.7,-20.6 -56.1,-20.3 -31.1,-23.8 1.9,-0.3 15.8,0 29.6,2 14.3,2 32.4,2.4 36.2,4.9 z"
       style="opacity:0.2" />
    <path
       inkscape:connector-curvature="0"
       id="path963"
       d="m 96.1,110.4 c 0,0 2,4.7 1.9,6.2 -0.1,1.5 -0.8,3.5 0.1,4.3 0.9,0.7 7.8,5.2 9.1,7.1 1.3,1.9 2,5.2 6.6,3 4.6,-2.2 3.1,-5.5 0.9,-6.4 -2.1,-0.9 -6.5,-1.7 -8.8,-3.9 -2.3,-2.2 -3.2,-2.9 -1.2,-6.3 2,-3.4 2.9,-6.1 2.9,-6.1 z"
       style="opacity:1;fill:#f8ebcb" />
    <path
       inkscape:connector-curvature="0"
       id="path965"
       d="m 96.1,110.4 c 0,0 2,4.7 1.9,6.2 -0.1,1.5 -0.8,3.5 0.1,4.3 0.9,0.7 7.8,5.2 9.1,7.1 1.3,1.9 2,5.2 6.6,3 4.6,-2.2 3.1,-5.5 0.9,-6.4 -2.1,-0.9 -6.5,-1.7 -8.8,-3.9 -2.3,-2.2 -3.2,-2.9 -1.2,-6.3 2,-3.4 2.9,-6.1 2.9,-6.1 z"
       style="opacity:0.2" />
    <path
       inkscape:connector-curvature="0"
       id="path967"
       d="m 86.8,47.8 c 0.8,-1.5 2.6,-3.6 5.5,-5 2.9,-1.4 5,-1.9 5,-1.9 0,0 1.7,-3.1 5.5,-1.8 3.8,1.3 7.5,8.5 8.4,11.6 0.9,3.1 2.2,8.7 1,9.4 -1.2,0.7 -3,-2.1 -3,-2.1 0,0 1,4.5 1.8,7.3 0.7,2.8 -0.1,7.7 0.7,9.3 0.7,1.6 4.2,7.5 3.8,13.7 -0.4,6.2 -2.8,12.2 -2.9,14.8 -0.1,2.6 3.4,16.8 4,17.9 0.6,1.1 0.2,4.4 1.2,6.4 1,2 8.7,3.9 6.2,7.8 -2.4,3.9 -9.3,2 -10.3,-0.2 -1,-2.2 0.1,-4.6 -1.1,-8.8 -1.2,-4.2 -6.7,-15.8 -6.7,-15.8 0,0 -2,0.6 -4.8,0.9 -2.9,0.4 -5.9,3.9 -4.9,9.7 1,5.8 2,8 2.6,9.4 0.6,1.4 0.2,4.6 1.1,6.4 0.9,1.9 7.2,4.2 4.8,7.3 -2.4,3.1 -7.5,3.2 -10.2,0.6 -2.7,-2.6 -0.4,-3.8 -2.2,-10.2 -1.9,-6.4 -4,-13.8 -4,-13.8 l -6.3,1.5 -4.4,9.3 c 0,0 3.8,2.8 5.7,3.9 1.9,1.1 5.7,0.2 7,1.9 1.3,1.7 1.8,5.5 -2.2,7 -4,1.5 -6.3,-3.4 -7.7,-4.5 -1.4,-1 -7,-3.3 -8.5,-5 -1.5,-1.7 -0.2,-5.8 -0.2,-5.8 0,0 -5.9,-0.6 -8.8,-4.4 -2.9,-3.8 -2.5,-4.6 -3.7,-5.5 -1.2,-0.9 -3.1,-1.7 -8.8,-1.1 -5.7,0.6 -12.7,-1.8 -15.7,-5.2 -3.1,-3.4 -3.7,-11.3 -2.9,-12 0.8,-0.7 2.2,4.5 3.8,5.7 1.6,1.2 5.3,4.2 9.7,3.8 4.4,-0.4 12.5,-3.6 12.5,-3.6 0,0 4.6,-12.8 10.8,-19.7 6.2,-7 14.6,-11.7 15.9,-16.8 1.1,-5.1 1,-19.9 2.3,-22.4 z"
       style="opacity:1;fill:#f8ebcb" />
    <g
       id="g971">
      <path
         inkscape:connector-curvature="0"
         id="path969"
         d="m 84.6,108.1 c 0,0 -1.2,1.6 -4,1.6 -1.5,0 -3.7,-0.2 -5.3,-0.4 0.6,0.1 1.4,0.3 2.2,0.6 2.8,0.9 3.9,2.1 5.1,4.6 1.1,2.5 -0.8,7.7 -0.8,7.7 l 6.3,-1.5 c 0,0 -0.7,-2.1 -1,-3.2 -0.3,-1 -2.6,-6.6 -2.5,-9.4 z"
         style="opacity:0.2" />
    </g>
    <path
       inkscape:connector-curvature="0"
       id="path973"
       d="m 94.9,65.4 c -0.4,-1.5 -1.8,-5.1 -4,-7.5 -1.6,-1.8 -3,-5.8 -3.6,-8.3 l -1.1,0.3 c -0.6,3.7 -0.8,10.7 -1.3,15.8 0.9,0.7 4.2,1.9 5.3,2.5 4.7,2.6 5.5,0.5 4.7,-2.8 z"
       style="opacity:0.2" />
    <path
       inkscape:connector-curvature="0"
       id="path975"
       d="m 93.7,52.8 c 0,0 -0.1,-2.2 0.8,-3.1 0.8,-0.9 2.5,-0.6 1.7,1.3 -0.8,2 -2.5,1.8 -2.5,1.8 z"
       style="opacity:1;fill:#262626" />
    <path
       inkscape:connector-curvature="0"
       id="path977"
       d="m 102.9,45.7 c 0,0 -0.2,-1.1 0.7,-1.5 0.9,-0.3 1.8,1.5 1.8,1.5 z"
       style="opacity:1;fill:#262626" />
    <path
       inkscape:connector-curvature="0"
       id="path979"
       d="m 111.1,53.4 c 0,0 -0.3,-0.6 -1,-0.8 -0.6,-0.2 -1.3,-0.1 -2.1,0.2 l -0.9,-1.8 -0.3,0.2 0.9,1.8 c -1.3,0.7 -1.9,1.5 -2.6,2.5 -0.4,0.6 -0.9,1.3 -1.6,1.9 -1.8,1.8 -2.8,2.1 -2.8,2.1 -0.1,0 -0.1,0.1 -0.1,0.2 0,0.1 0.1,0.1 0.2,0.1 0,0 0,0 0.1,0 0,0 1.1,-0.4 3,-2.2 0.7,-0.7 1.2,-1.4 1.6,-2 0.7,-1 1.3,-1.8 2.6,-2.5 0.8,-0.4 1.4,-0.5 1.9,-0.3 0.6,0.2 0.8,0.6 0.8,0.6 0,0.1 0.2,0.1 0.2,0.1 0.1,0.1 0.1,0 0.1,-0.1 z"
       style="opacity:1;fill:#262626" />
    <path
       inkscape:connector-curvature="0"
       id="path981"
       d="m 87.4,47.1 c -0.8,-0.5 -2.7,0.7 -4.1,3.4 -1.4,2.7 -3.4,7.5 -1.8,9.9 1.6,2.4 4.3,4.5 6.7,5.4 2.3,0.9 5,2.6 5.7,2.1 0.7,-0.5 -1.1,-5.7 -3,-8.4 -1.9,-2.7 -4,-5.8 -4,-5.8 0,0 2.5,-5.3 0.5,-6.6 z"
       style="opacity:1;fill:#f8ebcb" />
    <path
       inkscape:connector-curvature="0"
       id="path983"
       d="m 111.1,50.6 c 0.7,1.7 0.5,3.5 -0.1,5.2 -0.6,1.6 -1.7,2.3 -1.7,2.3 v 0.1 c 0.3,0.5 1.8,2.7 2.9,2 1.2,-0.7 -0.1,-6.3 -1,-9.4 -0.9,-3.1 -4.6,-10.2 -8.4,-11.6 -3.5,-1.2 -5.2,1.3 -5.5,1.7 1.6,0 4.4,0.4 5.9,1.9 1.6,1.5 2.6,2.4 3.6,3.8 1,1.4 3.5,2.2 4.3,4 z"
       style="opacity:0.2" />
    <path
       inkscape:connector-curvature="0"
       id="path985"
       d="m 102.6,48.5 c -0.7,1.6 1.8,4 4.3,2.9 2.5,-1.2 1.5,-4 0.7,-4.6 -0.8,-0.7 -4.2,-0.2 -5,1.7 z"
       style="opacity:1;fill:#262626" />
    <path
       inkscape:connector-curvature="0"
       id="path987"
       d="M 112.2,69.8 C 108,70.5 102.9,70.9 97.7,70.6 90,70.3 85.7,69 84,68 c -0.1,0.7 -0.2,1.4 -0.4,2 -0.2,0.6 -0.4,1.3 -0.8,1.9 4,2 10.5,2.6 14.7,2.7 1.1,0 2.2,0.1 3.3,0.1 3.7,0 7.7,-0.2 11.5,-0.9 -0.2,-1 -0.1,-2.5 -0.1,-4 z"
       style="opacity:1;fill:#262626" />
  </g>
  <g
     transform="matrix(0.26458333,0,0,0.26458333,22.176241,7.06543)"
     id="g1375">
    <path
       inkscape:connector-curvature="0"
       style="opacity:0.2"
       d="m 63.6,114.3 c -14.1,9.1 -38.5,17.2 -16.5,30.7 20.5,12.5 40.7,-4.1 55.2,-11.8 21.3,-11.3 32.2,-21.2 19.2,-29.4 -13.4,-8.4 -49.5,5.1 -57.9,10.5 z"
       id="path1357" />
    <path
       inkscape:connector-curvature="0"
       style="opacity:1;fill:#baa794"
       d="m 88.4,90.5 c 0,0 8.9,2.3 8.9,4.9 0,1.4 0,5.8 0,7 0,2.2 -4.6,3.8 -4.6,6 0,2.9 5.7,4.7 7.3,4.3 1.6,-0.4 2.5,-1.2 2.5,-4 0,-2.8 1,-14.5 1.4,-18.1 0.4,-3.6 -1.1,-14.8 -1.1,-14.8 z"
       id="path1359" />
    <path
       inkscape:connector-curvature="0"
       style="opacity:0.2"
       d="m 88.4,90.5 c 0,0 8.9,2.3 8.9,4.9 0,1.4 0,5.8 0,7 0,2.2 -4.6,3.8 -4.6,6 0,2.9 5.7,4.7 7.3,4.3 1.6,-0.4 2.5,-1.2 2.5,-4 0,-2.8 1,-14.5 1.4,-18.1 0.4,-3.6 -1.1,-14.8 -1.1,-14.8 z"
       id="path1361" />
    <path
       inkscape:connector-curvature="0"
       style="opacity:1;fill:#baa794"
       d="m 21.6,54.3 c 1.6,-0.6 7.9,-2.8 8,-4 0.1,-1.2 0,-3.1 1.5,-3.8 1.5,-0.7 2.8,-4.2 4.6,-4.5 1.8,-0.4 2.8,0.1 6.3,1.2 3.5,1.1 7.7,3.4 10.4,5.3 2.8,2 4.1,4 5.9,6.7 1.8,2.7 2.4,3.5 2.1,4.2 -0.3,0.7 -0.8,0.3 -0.4,1.5 0.6,1.6 0.9,3.7 3,4.3 7.1,1.9 23.5,-9.6 27.8,-10.9 10.1,-3.3 19.9,1.8 25,6 3.3,2.7 6.5,10.1 8.9,14.9 2.4,4.8 6.7,5.4 6.3,7.5 -0.2,0.9 -1.5,1.5 -4.1,0.5 -3.3,-1.3 -10.5,-9.4 -10.5,-9.4 0,0 1,3 -0.5,7 -1.5,4 -3.8,10.5 -1.7,12.7 2,2.1 4.6,4.5 4.9,6.7 0.3,2.2 1.2,18.2 1.2,19 0,0.8 -0.5,2.3 -2,2.8 -4.5,1.5 -10.1,-1.7 -9.3,-4.5 0.8,-2.8 4,-2.1 4,-6.3 0,-1.5 -0.4,-6 -0.7,-6.9 -0.4,-1.2 -1.7,-2.4 -3.3,-3 -1.4,-0.5 -7.3,-3.8 -8.5,-7.5 -1.2,-3.7 -1.7,-7.9 -3.7,-8.2 -2,-0.6 -8.8,10.6 -14.5,14.4 -5.7,3.8 -9.5,4.1 -9.5,4.1 0,0 -1.1,18.6 -1.1,22.2 0,3.6 2.6,7.4 3,9.8 0.4,2.5 1,6.8 -2.1,8.8 -3.7,2.4 -8.4,0.2 -9.5,-1.1 -1,-1.3 -1.2,-3.7 0.4,-5.2 1.5,-1.5 3.3,-2.7 2.8,-3.4 -0.5,-0.7 -2.5,-4.1 -2.9,-6.2 -0.5,-3.3 -1,-17.2 -4.9,-19.6 -1.2,-0.7 -4.1,-1.1 -4.9,0.1 -0.8,1.3 -0.7,8.7 -0.7,9.9 0,1.9 2.8,6 2.8,9.3 0,3.3 -1.2,5.1 -4.1,6.1 -2.3,0.8 -5.4,0.2 -7.7,-2.7 -1.5,-1.9 -0.3,-4 1.2,-4.9 1,-0.6 2.3,-0.8 2.4,-2.1 0.1,-1.3 -1.8,-3.2 -1.8,-5.6 0,-2.4 -1,-12 -1,-13.2 0,-3.9 -6.4,-7.6 -8.8,-15.6 C 34.7,86.8 35.6,82.3 35.3,79 35.3,76.8 34.8,67.8 31,67 29.6,66.7 23.4,66.8 21.7,64.9 20.4,63.5 19.6,61.6 20,59.4 c 0.4,-2.3 1.6,-5.1 1.6,-5.1 z"
       id="path1363" />
    <path
       inkscape:connector-curvature="0"
       style="opacity:1;fill:#262626"
       d="m 41.3,56.5 c 0,0 -0.7,-1.9 -2.4,-2.9 -1.6,-0.9 -3.2,0.9 -1.2,2.4 1.8,1.4 3.6,0.5 3.6,0.5 z"
       id="path1365" />
    <path
       inkscape:connector-curvature="0"
       style="opacity:1;fill:#262626"
       d="m 25.7,57.1 c 0.2,-1.8 -1,-2.7 -3.3,-3.2 -1.4,-0.3 -3,0.5 -3,2.3 0,2.5 2.1,4.4 2.1,4.4 0,0 3.8,0 4.2,-3.5 z"
       id="path1367" />
    <path
       inkscape:connector-curvature="0"
       style="opacity:1;fill:#262626"
       d="m 29.8,48.5 c 0,0 1.2,0.6 0.3,1.5 -0.8,1.1 -0.3,-1.5 -0.3,-1.5 z"
       id="path1369" />
    <path
       inkscape:connector-curvature="0"
       style="opacity:1;fill:#262626"
       d="m 34.6,73.3 c 0,0 2.8,1.6 7.3,1.6 4.5,0 8.4,-1.8 10.6,-3.9 2.2,-2.1 8.1,-8.5 8.1,-8.5 l 2,2.1 c 0,0 -7,8.9 -10,10.7 -3.1,1.8 -6.3,3.4 -10.8,3.3 -4.5,-0.1 -6.6,-1.5 -6.6,-1.5 z"
       id="path1371" />
    <path
       inkscape:connector-curvature="0"
       style="opacity:0.2"
       d="m 46.7,54.8 c 0,0 -4.9,18.4 0.8,18.2 2.9,-0.1 12.3,-13.1 12.3,-13.1 0,0 -5.6,16.4 -13.4,16.5 -7.7,0.1 0.3,-21.6 0.3,-21.6 z"
       id="path1373" />
  </g>
  <g
     id="g1624"
     transform="matrix(0.26458333,0,0,0.26458333,0.00313,6.9016)">
    <path
       inkscape:connector-curvature="0"
       id="path1600"
       d="m 54.4,127.4 c 9.1,5.9 23.5,12.9 10.6,19.8 C 51.3,154.5 33.1,145.9 26.3,138 17.2,127.5 6.9,124 2.4,122.8 c -3.7,-1 -3.8,-3.1 4.4,-1.8 1.4,0.2 11.6,1.5 21.6,2.9 10.2,1.4 23.2,1.7 26,3.5 z"
       style="opacity:0.2" />
    <path
       inkscape:connector-curvature="0"
       id="path1602"
       d="m 46.3,127.9 c 0,0 0.8,2.9 2.8,4.1 2,1.2 6.1,3.4 6.5,4.3 0.4,0.9 1.4,3 3.5,2.6 2.1,-0.4 4.8,-2.2 4.1,-3.5 -0.7,-1.3 -1.7,-0.9 -3.8,-1.4 -2.1,-0.5 -5.2,-2.4 -6,-3.7 -0.9,-1.3 -1.7,-4 -1.7,-4 z"
       style="fill:#999999" />
    <path
       inkscape:connector-curvature="0"
       id="path1604"
       d="m 46.3,127.9 c 0,0 0.8,2.9 2.8,4.1 2,1.2 6.1,3.4 6.5,4.3 0.4,0.9 1.4,3 3.5,2.6 2.1,-0.4 4.8,-2.2 4.1,-3.5 -0.7,-1.3 -1.7,-0.9 -3.8,-1.4 -2.1,-0.5 -5.2,-2.4 -6,-3.7 -0.9,-1.3 -1.7,-4 -1.7,-4 z"
       style="opacity:0.2" />
    <path
       inkscape:connector-curvature="0"
       id="path1606"
       d="m 19.4,120.4 c 0,0 -8.5,-1.5 -12,-8.3 C 4,105.3 5.4,99.8 4.5,98.2 3.6,96.6 1.4,97 0.9,98.8 c -0.5,1.8 -1.2,13.5 4.9,19.8 6.3,6.3 13.8,7.8 13.8,7.8 0,0 1.8,6.3 5.5,8 3.7,1.7 5.1,0.5 5.1,0.5 0,0 -0.9,2 -0.2,3.1 0.7,1 8.4,3.1 9.5,4 1.1,1 2.1,3.8 4.9,2.8 2.8,-1 3.7,-2.1 3,-3.4 -0.7,-1.3 -2.6,-1.8 -4,-1.9 -1.4,-0.1 -6.5,-2.5 -6.5,-2.5 0,0 2.2,-2.1 2.7,-3.7 0.5,-1.6 0.3,-2.7 0.3,-2.7 l 6.9,-2.6 c 0,0 1.2,5.4 1.5,9.2 0.3,3.8 0.5,5.6 0.9,7.4 0.4,1.9 0.2,4.3 3.3,4 3.1,-0.3 4.3,-1.1 3.9,-2.3 -0.4,-1.2 -2.4,-2.4 -2.8,-4.6 -0.4,-2.1 0.1,-12.9 0.4,-14 0.2,-1.1 2.5,-7.1 2.5,-7.1 l 2.5,-0.5 c 0,0 1.1,7.8 1.5,11.3 0.4,3.5 0.7,9.2 0.7,10.4 0,1.2 0.7,2.6 2.2,2.7 1.5,0.2 4.6,-0.8 4.5,-2.1 -0.1,-1.3 -2.3,-3.1 -2.5,-4.6 -0.2,-1.5 -0.5,-14.8 0.9,-19.4 1.4,-4.6 2.4,-7.1 2.4,-7.1 L 60,91.5 c 0,0 -3.5,0.8 -7.9,0.7 -4.5,-0.1 -17.8,-0.1 -25.4,9.5 -7.8,9.7 -7.3,18.7 -7.3,18.7 z"
       style="fill:#999999" />
    <path
       inkscape:connector-curvature="0"
       id="path1608"
       d="m 56.3,120.7 c 0,0 2.5,-2.1 2.7,-4.9 0.2,-2.8 1.8,-5.1 3.2,-6 1.4,-1 6.2,-3.4 6.2,-3.4 0,0 1.3,4.3 -0.5,7.3 -1.8,3 -4.8,5.4 -7.3,6.2 -2.5,0.8 -4.3,0.8 -4.3,0.8 z"
       style="fill:#e5e5e5" />
    <path
       inkscape:connector-curvature="0"
       id="path1610"
       d="m 46.8,128 c 0,0 -0.7,-3.1 -1,-5.4 -0.2,-2.4 -0.9,-6 -0.9,-6 0,0 -0.9,2.1 -2.8,3 -1.9,0.9 -3.7,1.3 -5.3,0.6 -1.6,-0.7 -5.4,-2.7 -5.4,-2.7 0,0 5.7,3.8 6.8,6.9 1.2,3.1 1.6,6.3 1.6,6.3 z"
       style="opacity:0.2" />
    <path
       inkscape:connector-curvature="0"
       id="path1612"
       d="m 58.2,96 c 0,0 -0.5,2.8 0.7,5.7 1.3,2.9 4,5.2 5.4,6.9 1.3,1.6 2.8,3.2 5.8,2.9 3,-0.4 3.2,-1.9 4.1,-3.1 0.9,-1.2 4.1,-5.7 4.6,-8.7 0.5,-3.1 0.1,-5.3 0.1,-5.3 0,0 2.1,-7.3 0.5,-8.2 -1.6,-0.9 -3.2,2.7 -5.1,2.9 -2,0.2 -2.9,-0.3 -5.1,-0.2 -2.2,0.1 -5.7,1 -5.7,1 0,0 -3.3,-3.4 -5.3,-2.7 -2.4,0.9 0,8.8 0,8.8 z"
       style="fill:#999999" />
    <path
       inkscape:connector-curvature="0"
       id="path1614"
       d="m 69.7,110.5 c -0.6,0 -1.7,-1 -1.6,-1.5 0.1,-0.5 2.9,-0.5 3.1,0.1 0.2,0.5 -0.9,1.4 -1.5,1.4 z"
       style="fill:#2d3134" />
    <path
       inkscape:connector-curvature="0"
       id="path1616"
       d="m 72,104.4 c 0,0 0.3,-1.8 1.8,-2.4 1.5,-0.6 2.1,-0.3 2.1,-0.3 0,0 -0.3,1.7 -1.5,2.3 -1.1,0.6 -2.4,0.4 -2.4,0.4 z"
       style="fill:#2d3134" />
    <path
       inkscape:connector-curvature="0"
       id="path1618"
       d="m 67.3,104.4 c 0,0 -0.6,-1.8 -2,-2.3 -1.4,-0.5 -2.4,0 -2.4,0 0,0 0.2,1.5 1.4,2 1.2,0.5 3,0.3 3,0.3 z"
       style="fill:#2d3134" />
    <path
       inkscape:connector-curvature="0"
       id="path1620"
       d="m 72.9,93.3 c 0,0 4.8,-7.5 6.4,-6.9 1.2,0.4 -0.4,8 -0.4,8 0,0 -1.3,-1.2 -3,-1.5 -1.6,-0.3 -3,0.4 -3,0.4 z"
       style="opacity:0.2" />
    <path
       inkscape:connector-curvature="0"
       id="path1622"
       d="m 65.2,93.2 c 0,0 -5.3,-6.3 -6.9,-5.8 -2.2,0.7 -0.1,8.6 -0.1,8.6 0,0 1.6,-2.1 2.9,-2.6 1.3,-0.5 4.1,-0.2 4.1,-0.2 z"
       style="opacity:0.2" />
  </g>
  <polygon
     id="polygon1755"
     points="16,40 0,40 24,64 48,40 32,40 32,0 16,0 "
     style="fill:#cc291f"
     transform="matrix(0.26458333,0,0,0.26458333,5.8989465,12.672644)" />
</svg>
