<?xml version="1.0" encoding="UTF-8" standalone="no"?>
<!-- Generator: Adobe Illustrator 18.1.0, SVG Export Plug-In . SVG Version: 6.00 Build 0)  -->

<svg
   xmlns:dc="http://purl.org/dc/elements/1.1/"
   xmlns:cc="http://creativecommons.org/ns#"
   xmlns:rdf="http://www.w3.org/1999/02/22-rdf-syntax-ns#"
   xmlns:svg="http://www.w3.org/2000/svg"
   xmlns="http://www.w3.org/2000/svg"
   xmlns:sodipodi="http://sodipodi.sourceforge.net/DTD/sodipodi-0.dtd"
   xmlns:inkscape="http://www.inkscape.org/namespaces/inkscape"
   version="1.1"
   id="Layer_1"
   x="0px"
   y="0px"
   viewBox="0 0 148.17845 262.84952"
   enable-background="new 0 0 160 320"
   xml:space="preserve"
   sodipodi:docname="people.svg"
   width="148.17845"
   height="262.84952"
   inkscape:version="0.92.3 (2405546, 2018-03-11)"><metadata
   id="metadata131"><rdf:RDF><cc:Work
       rdf:about=""><dc:format>image/svg+xml</dc:format><dc:type
         rdf:resource="http://purl.org/dc/dcmitype/StillImage" /><dc:title></dc:title></cc:Work></rdf:RDF></metadata><defs
   id="defs129" /><sodipodi:namedview
   pagecolor="#ffffff"
   bordercolor="#666666"
   borderopacity="1"
   objecttolerance="10"
   gridtolerance="10"
   guidetolerance="10"
   inkscape:pageopacity="0"
   inkscape:pageshadow="2"
   inkscape:window-width="874"
   inkscape:window-height="492"
   id="namedview127"
   showgrid="false"
   fit-margin-top="0"
   fit-margin-left="0"
   fit-margin-right="0"
   fit-margin-bottom="0"
   inkscape:zoom="0.7375"
   inkscape:cx="70.915503"
   inkscape:cy="150.72049"
   inkscape:window-x="134"
   inkscape:window-y="55"
   inkscape:window-maximized="0"
   inkscape:current-layer="Layer_1" />
<g
   id="g30"
   transform="translate(-9.0844968,-47.870981)">
	<path
   d="M 40.8,91.2 53.5,83.5 50.4,74.8 44,67.4 34.4,66.1 c -0.1,4 -1,10.7 -6.9,13.6 -1.1,0.6 13.3,11.5 13.3,11.5 z"
   id="path2"
   inkscape:connector-curvature="0"
   style="fill:#fbd7c7" />
	<path
   d="m 26.9,255 c -7,-2.4 -25,-17.2 -4.2,-23 18.4,-5.2 23.6,-17.9 45.3,-5.8 10.7,6 7.3,13.9 -10.6,18.2 -12.1,2.9 -14.3,16.3 -30.5,10.6 z"
   id="path4"
   inkscape:connector-curvature="0"
   style="opacity:0.2" />
	<path
   d="m 38.2,225.7 c -0.3,2.3 1.2,4.4 4.9,5.7 4.1,1.5 9.1,4.3 11.5,5.7 4,2.3 8.7,2.3 11.9,1 2.4,-1 2.7,-2.5 2.3,-5 -0.4,-2.6 -3,-2.7 -7.2,-4.3 -3.8,-1.5 -10.1,-7.2 -10.1,-7.2 z"
   id="path6"
   inkscape:connector-curvature="0"
   style="fill:#262626" />
	<path
   d="m 39.6,226.7 c 3,1 6.4,2 9.3,3.7 3,1.8 10.3,6.3 14.7,5.4 3.2,-0.7 4.6,-1.9 4.4,-3.4 -0.2,-1.5 -4.1,-2.4 -7.1,-3.7 -2,-0.8 -9,-6.8 -9,-6.8 z"
   id="path8"
   inkscape:connector-curvature="0"
   style="fill:#ffffff" />
	<path
   d="m 19.1,241 c 2.5,4.3 3.8,10 8.3,12.5 4.5,2.5 8.6,1.9 12.3,0.3 2.2,-1 1.4,-3.9 0.9,-5 -0.5,-1.1 -2.4,-2.3 -4.8,-4.8 -3,-3.1 -4.5,-7.7 -4.5,-7.7 z"
   id="path10"
   inkscape:connector-curvature="0"
   style="fill:#262626" />
	<path
   d="m 21.4,240.5 c 0,0 2.6,7.9 6.4,9.9 4,2.1 6.6,1.6 10,0.6 3.4,-1 3.2,-1.8 0.7,-3.9 -2.5,-2.1 -5.7,-5.9 -5.8,-7.3 -0.1,-1.4 -11.3,0.7 -11.3,0.7 z"
   id="path12"
   inkscape:connector-curvature="0"
   style="fill:#ffffff" />
	<path
   d="m 58.4,135.3 c 1.8,3.9 4.3,11.7 4.1,24.2 -0.2,12.5 -0.1,17.1 0,20.3 0.1,3.3 -0.8,5.5 -2.7,11.2 -1.6,5.1 -6.6,23.6 -6.3,27.4 0.1,0.9 2,1.6 2.4,3.6 0.4,2 0.5,2.7 -1.9,4 -2.4,1.3 -9.4,5.2 -14.4,3.2 -2.1,-0.8 -3,-1 -2.8,-5.4 0.2,-4.4 0.6,-12.9 1.7,-21.5 1.1,-8.6 4.6,-15.5 4.1,-21.2 -0.5,-5.7 -9,-21.5 -8.2,-29.6 0.8,-8.1 1,-10.3 1,-10.3 z"
   id="path14"
   inkscape:connector-curvature="0"
   style="fill:#06547a" />
	<path
   d="m 58.4,135.3 c 1.8,3.9 4.3,11.7 4.1,24.2 -0.2,12.5 -0.1,17.1 0,20.3 0.1,3.3 -0.8,5.5 -2.7,11.2 -1.6,5.1 -6.6,23.6 -6.3,27.4 0.1,0.9 2,1.6 2.4,3.6 0.4,2 0.5,2.7 -1.9,4 -2.4,1.3 -9.4,5.2 -14.4,3.2 -2.1,-0.8 -3,-1 -2.8,-5.4 0.2,-4.4 0.6,-12.9 1.7,-21.5 1.1,-8.6 4.6,-15.5 4.1,-21.2 -0.5,-5.7 -9,-21.5 -8.2,-29.6 0.8,-8.1 1,-10.3 1,-10.3 z"
   id="path16"
   inkscape:connector-curvature="0"
   style="opacity:0.2" />
	<path
   d="m 48.5,144.7 c 0,0 2,10.2 0.8,13.5 -1.2,3.3 -3.8,3.5 -4,6.7 -0.2,3.1 -0.6,12.1 -1.8,17.3 -1.2,5.2 -3.5,16.2 -5,20.2 -1.5,4 -2.7,14.6 -3.9,20.3 -0.9,4.7 -2.1,8.5 -1.6,12 0.5,3.5 1.1,5.2 0.7,5.5 -0.4,0.3 -4.4,0.4 -7.3,1.6 -2.8,1.2 -6.3,1 -8.1,-0.5 -1.8,-1.5 -2.7,-4.5 -1.7,-6.9 1,-2.4 1.3,-3.5 0.2,-7.4 -1.1,-3.8 0.7,-5.2 1.3,-7.5 0.6,-2.3 -0.4,-5.5 0.7,-10.1 0.7,-3.4 4,-10 3.9,-15.6 -0.1,-5.6 -3.3,-27.2 -2.4,-36.3 1,-9.1 3.3,-14.2 3.3,-14.2 z"
   id="path18"
   inkscape:connector-curvature="0"
   style="fill:#06547a" />
	<path
   d="m 61.5,84.4 c 0,0 -3.9,23.1 -3.6,29.4 0.3,6.3 0.8,20.6 0.8,20.6 L 49,128.8 c 0,0 -1.5,-12.7 -1,-16.1 0.5,-3.4 5.5,-16.3 5.5,-16.3 z"
   id="path20"
   inkscape:connector-curvature="0"
   style="fill:#fbd7c7" />
	<path
   d="m 47.9,74.5 c 0,0 7.9,0.4 11.5,4.3 3.6,3.9 2,6.5 1.2,8.4 -0.8,1.9 -0.3,3 -0.3,6.6 0,3.6 -1.4,9.9 -3.1,12.5 -1.7,2.6 -0.7,5 -0.6,7.9 0.1,2.9 1,5.9 1.2,10.5 0.2,4.6 1.7,12.6 2,13.7 0.3,1.2 -2.7,4.4 -11.1,7.4 -6.7,2.3 -23.4,1.4 -25.7,-2.4 -2.4,-3.8 2.3,-6.9 2,-11.8 -0.3,-4.9 -5.4,-21 -5.4,-21 0,0 -5.1,-11.8 -5.4,-14.2 C 13.9,94 13.9,87.5 16.9,85.1 19.8,82.7 29,78.7 29,78.7 c 0,0 6.6,11 14.8,8.9 9.2,-2.4 4.1,-13.1 4.1,-13.1 z"
   id="path22"
   inkscape:connector-curvature="0"
   style="fill:#656565" />
	<path
   d="m 29,152.5 c 0.2,-0.9 0.9,-1.2 0.9,-2.7 -0.1,-1.4 0.1,-2.7 -0.6,-3.5 -0.7,-0.8 -1.6,-0.7 -2.6,-2.1 -1,-1.4 -3,-7.2 -4.5,-13.7 -1.4,-6.5 -3.5,-11.3 -3.7,-11.7 -0.3,-0.5 2,-3.8 4.4,-8.7 2.1,-4.4 3.5,-8.3 5.3,-11 -2.4,0.2 -7.3,0.4 -9.5,-0.2 -1.7,-0.5 -3.4,-1.5 -4.5,-2.2 -1.1,7.1 -3.8,15.2 -4.3,16.8 -0.5,1.8 -1.7,4.9 0.3,10.5 2,5.6 9,19 8.9,21.3 -0.1,2.3 -0.6,7.8 -0.5,9.6 0.1,1.8 1.8,1.7 2.6,2.5 0.8,0.8 2.6,0.7 2.9,1.7 0.3,1 1.8,1 2.5,1.6 0.7,0.6 2.2,1.2 2.9,0.7 0.7,-0.5 0.3,-1.8 -0.2,-2.6 -0.4,-0.9 -0.5,-5.4 -0.3,-6.3 z"
   id="path24"
   inkscape:connector-curvature="0"
   style="fill:#fbd7c7" />
	<path
   d="m 40.6,48.2 c -5.4,0.3 -8.4,3.5 -8.6,7.1 -0.2,3.5 0,6.2 0,6.2 0,0 -1,-0.4 -1.3,0.8 -0.3,1.3 0.7,4.6 2.5,6.2 1.8,1.6 2.7,4.7 4.8,6.9 2.1,2.2 6.7,5.4 9.9,5 C 51.1,80 53.6,68 53.3,64 53.1,60 53.3,47.5 40.6,48.2 Z"
   id="path26"
   inkscape:connector-curvature="0"
   style="fill:#fbd7c7" />
	<path
   d="m 40.6,47.9 c -5.4,0.3 -8.4,3.6 -8.8,7.4 -0.3,2.8 -0.1,5.1 0.1,6.1 0.6,0.3 1.6,0.6 2.3,1.7 1,1.7 1,2.4 1,2.4 L 36.6,65 c 0,0 1.5,-7.5 3.7,-8.3 2.2,-0.8 4.1,1.9 7,1.3 2.9,-0.6 2.5,-2.9 3.7,-3 0.2,0 0.6,0.1 1,0.3 -1.5,-4 -4.5,-7.8 -11.4,-7.4 z"
   id="path28"
   inkscape:connector-curvature="0"
   style="fill:#762c07" />
</g>
<g
   id="g52"
   transform="translate(-9.0844968,-47.870981)">
	<path
   d="m 57.4,309 c 5.7,0.4 17.8,-11.4 17.8,-14.3 0,-2.9 -3.6,-6.2 -12.4,-5.9 -5.7,0.2 -9.2,-5.7 -14.6,-5.4 -5.4,0.3 -9.7,5.4 -10.3,8.1 -0.5,2.7 2.7,5.9 8.6,10.3 6,4.2 2.5,6.7 10.9,7.2 z"
   id="path32"
   inkscape:connector-curvature="0"
   style="opacity:0.2" />
	<path
   d="m 55.7,303.8 c 0,0 0.5,3.6 4.8,2.6 4.3,-1 11.6,-7.2 11.9,-10 0.3,-2.8 0.7,-5.7 -3,-5.8 -3.8,-0.2 -13.8,1.7 -13.7,13.2 z"
   id="path34"
   inkscape:connector-curvature="0"
   style="fill:#ffffff" />
	<path
   d="m 60.5,306.4 c 4.3,-1 11.6,-7.2 11.9,-10 0.1,-1.1 0.2,-2.2 0.1,-3.2 -0.6,2.6 -3.2,5.6 -7.6,9.1 -3.2,2.6 -6.8,3 -8.6,3.1 0.8,0.8 2,1.5 4.2,1 z"
   id="path36"
   inkscape:connector-curvature="0"
   style="fill:#262626" />
	<path
   d="m 43.9,199.3 c 0,0 -4.5,9.1 -3.1,16.5 1.4,7.4 8.4,22.7 7.2,27.2 -1.2,4.5 -3.4,17.4 -3.2,26.5 0.1,9.1 -2.2,13.6 -1.1,15.8 1.1,2.2 2.7,6.2 7.3,5.4 4.6,-0.8 6.2,-2.6 6.2,-2.6 0,0 2.3,-41.6 2.3,-45.8 0,-4.2 -2.3,-40.9 -2.3,-40.9 z"
   id="path38"
   inkscape:connector-curvature="0"
   style="fill:#2d3134" />
	<path
   d="m 43.9,199.3 c 0,0 -4.5,9.1 -3.1,16.5 1.4,7.4 8.4,22.7 7.2,27.2 -1.2,4.5 -3.4,17.4 -3.2,26.5 0.1,9.1 -2.2,13.6 -1.1,15.8 1.1,2.2 2.7,6.2 7.3,5.4 4.6,-0.8 6.2,-2.6 6.2,-2.6 0,0 2.3,-41.6 2.3,-45.8 0,-4.2 -2.3,-40.9 -2.3,-40.9 z"
   id="path40"
   inkscape:connector-curvature="0"
   style="opacity:0.2" />
	<path
   d="m 50.3,201.2 c 0,0 -6.4,8.1 -4.2,16.9 2.2,8.8 5.5,10.9 7.2,17.2 1.6,6.2 4.2,12.7 3.2,17.3 -0.9,4.6 -4.9,12.3 -4.2,20.9 0.7,8.6 0.5,21.5 -0.3,25.3 -0.8,3.8 2.2,7.2 5.7,7.2 3.5,0 9.6,-5 9.9,-6.9 0.3,-1.9 -0.4,-3.6 -1.2,-5.5 -0.8,-1.9 -2.2,-10.5 -0.1,-20.1 2,-9.6 4.1,-18.5 4.5,-24.3 0.4,-5.8 3.4,-12.6 2.3,-23.5 -1.1,-10.9 -3.9,-21.1 -3.9,-21.1 z"
   id="path42"
   inkscape:connector-curvature="0"
   style="fill:#2d3134" />
	<path
   d="m 33.5,158.7 c 0,0 -0.1,7.3 -1.6,12.4 -1.5,5.1 -3.1,10.7 -1.8,13.4 1.4,2.7 8.2,5.8 10.3,9.5 2,3.6 4.6,7.4 4.6,7.4 l 2.3,-7.4 c 0,0 -5.5,-8.2 -7.2,-10 -1.6,-1.8 -2.6,-3.4 -2.6,-3.4 l 2.4,-5.8 -3.6,-15.7 z"
   id="path44"
   inkscape:connector-curvature="0"
   style="fill:#fbd7c7" />
	<path
   d="m 47.4,152.7 c 0,0 -6.6,-2.4 -10.8,-0.8 -4.2,1.6 -3.9,7.4 -3.9,7.4 l 1.5,1.1 c 0,0 2,4.9 2,8 0,3.1 4.1,12.4 5,18.4 0.9,5.9 2.2,9.3 0.8,12.7 -1.4,3.4 -1.9,7.7 -1.9,7.7 0,0 0.7,2 7.4,4.2 8.5,2.7 23,3.6 23.5,2.4 0.5,-1.1 -1.1,-10.4 -1.7,-15.3 -0.5,-4.9 -1.5,-15.7 -0.7,-16.9 0.8,-1.2 3.9,-4.3 3.6,-7.3 -0.3,-3 -1.9,-5.1 -4.7,-7.3 -2.8,-2.2 -5.1,-9.2 -7.3,-9.7 -2.2,-0.5 -12.8,-4.6 -12.8,-4.6 z"
   id="path46"
   inkscape:connector-curvature="0"
   style="fill:#cc291f" />
	<path
   d="m 58.1,122.7 c 5.3,0 11.4,0.9 11.8,13.9 0.4,13 3.2,13.6 2.4,17.8 -0.8,4.2 -4.3,8.4 -18.2,7.7 -13.9,-0.7 -15.3,-6.6 -14.6,-9.7 0.7,-3.1 4.6,-8.8 5.4,-15 0.7,-5.9 2.8,-14.7 13.2,-14.7 z"
   id="path48"
   inkscape:connector-curvature="0"
   style="fill:#825012" />
	<path
   d="m 56.9,175.2 c 0,0 1.8,1.3 4.3,1.8 2.4,0.5 6.1,0.3 6.1,0.3 0,0 -3.5,9.6 -5.7,13 -2.2,3.4 -3.1,6.6 -3.1,6.6 0,0 2.2,2.2 4.5,6.1 2.3,3.9 6.2,10 7.3,10.3 1.1,0.3 1.9,-0.1 3.4,1.6 1.5,1.8 5.8,6.1 4.9,6.5 -0.9,0.4 -3.2,-1.3 -3.2,-1.3 0,0 1.8,3 1,3.6 -0.8,0.6 -3,-1.8 -3,-1.8 0,0 0.9,1.6 0.2,2.1 -0.7,0.5 -0.9,0.2 -0.9,0.2 0,0 -0.4,0.8 -1.3,0.5 -0.9,-0.3 -3.9,-4.3 -4.8,-6.1 -0.9,-1.8 -2.2,-4.5 -3.7,-6.2 -1.6,-1.8 -12.4,-11 -12.2,-14.1 0.3,-3.1 2,-12.7 4,-17.2 1.9,-4.7 2.2,-5.9 2.2,-5.9 z"
   id="path50"
   inkscape:connector-curvature="0"
   style="fill:#fbd7c7" />
</g>
<g
   id="g92"
   transform="translate(-9.0844968,-47.870981)">
	<path
   d="m 95.4,93.2 c 0,0 1.5,13.1 0.2,18.2 -1.3,5.1 -2.3,8.4 -2.9,14 -0.6,5.6 -0.3,10.3 -1.3,13 -1,2.7 -0.8,7.1 -0.3,10 0.3,2.2 1,6.4 2.1,6.2 1.1,-0.2 0.7,-1.5 0.9,-2.7 0.2,-1.1 0.4,-2.8 0.2,-3.7 -0.1,-0.9 -0.1,-0.8 0.6,-1.4 0.7,-0.6 0.2,-3.4 0.1,-4.7 -0.4,-2.9 2,-9.6 3,-14.3 1,-4.7 4.1,-11.6 3.5,-16.2 -0.6,-4.5 -0.7,-16.9 -0.7,-16.9 z"
   id="path54"
   inkscape:connector-curvature="0"
   style="fill:#fbd7c7" />
	<path
   d="m 73.8,232.6 c -6.2,7.5 4.4,11.2 19.8,12.5 15.4,1.3 29.8,8.1 40.2,2.8 10.5,-5.2 4,-15.3 -16.3,-16.6 -20.3,-1.3 -19.7,-6.1 -28.8,-4.1 -9.1,2 -12.7,2.7 -14.9,5.4 z"
   id="path56"
   inkscape:connector-curvature="0"
   style="opacity:0.2" />
	<g
   id="g62">
		<path
   d="m 99.6,230.3 c 2.4,0 4,4.7 -0.4,6 -4.4,1.3 -9.2,1.9 -10.6,2.1 -2.1,0.2 -7.3,0.7 -9.8,0 -2.7,-0.7 -2.2,-3.4 -1.5,-4.6 0.7,-1.1 15.1,-4.3 17.7,-4.3 2.6,0.1 4.2,0.8 4.6,0.8 z"
   id="path58"
   inkscape:connector-curvature="0"
   style="fill:#262626" />
		<path
   d="m 78.2,236.5 c 1.5,0.5 6,0.5 9.8,0 1.5,-0.2 13.2,-2.5 13.9,-3.9 0.7,-1.4 -9.9,-5.6 -9.9,-5.6 0,0 -5.5,2.7 -7.7,3.1 -2.2,0.4 -5.4,0.8 -7.1,2.7 -1.1,1.3 -0.3,3.4 1,3.7 z"
   id="path60"
   inkscape:connector-curvature="0"
   style="fill:#ffffff" />
	</g>
	<path
   d="m 122,233.4 c -0.2,2 -1.2,6.7 0.5,10.2 1,2.1 6.8,3 9.2,0.5 2.4,-2.5 -1.4,-14.2 -1.4,-14.2 z"
   id="path64"
   inkscape:connector-curvature="0"
   style="fill:#262626" />
	<path
   d="m 122.6,232.7 c 0,0 -2.8,11.2 4.3,11.1 7.2,-0.1 5.1,-5.1 4.5,-8.5 -0.6,-3.4 -2,-5.2 -2,-5.2 z"
   id="path66"
   inkscape:connector-curvature="0"
   style="fill:#ffffff" />
	<path
   d="m 121.3,234.3 c 0,0 2.9,0.1 6.7,0.3 3.8,0.2 4.1,-1.6 4.1,-1.6 0,0 -0.8,-6.5 -0.9,-11.4 -0.1,-4.9 0.4,-18.8 -0.2,-25.2 -0.7,-6.4 -0.8,-11.7 0.4,-23.3 1.1,-11.6 2.5,-18.7 0.2,-24.7 -2.3,-6 -3.7,-8.5 -3.7,-8.5 L 96,143.3 c 0,0 -3.8,9 -4.2,20 -0.4,11 2.6,20.8 1.7,26.6 -0.9,5.9 -1.3,18.7 -1.9,24.7 -0.9,9.4 -4.4,15.5 -4.4,15.5 0,0 1,3 6.1,3.8 5.1,0.8 8.7,-1.7 8.7,-1.7 0,0 0.2,-6.5 0.9,-14.7 0.8,-8.2 2.2,-16.2 2.4,-22.7 0.2,-6.5 0.6,-7.5 1,-9.2 0.5,-1.7 2.3,-13.6 3.4,-17.1 1.4,-4.7 1.8,-9.4 2.9,-9.4 1.1,0.1 0.9,4.1 2.2,11.9 1.1,6.5 4.8,32.8 4.9,40.8 0.1,8 1.6,22.5 1.6,22.5 z"
   id="path68"
   inkscape:connector-curvature="0"
   style="fill:#cc291f" />
	<g
   id="g76">
		<path
   d="m 95.9,143.2 c 0,0 -3.8,9 -4.2,20 -0.4,11 2.6,20.8 1.7,26.6 -0.9,5.9 -1.3,18.7 -1.9,24.7 -0.9,9.4 -4.4,15.5 -4.4,15.5 0,0 1,3 6.1,3.8 5.1,0.8 8.7,-1.7 8.7,-1.7 0,0 0.2,-6.5 0.9,-14.7 0.8,-8.2 2.2,-16.2 2.4,-22.7 0.2,-6.5 0.6,-7.5 1,-9.2 0.5,-1.7 2.3,-13.6 3.4,-17.1 1.4,-4.7 1.8,-9.4 2.9,-9.4 0,0 1.1,-10.4 0.5,-17.5 z"
   id="path70"
   inkscape:connector-curvature="0"
   style="fill:#cc291f" />
		<path
   d="m 95.9,143.2 c 0,0 -3.8,9 -4.2,20 -0.4,11 2.6,20.8 1.7,26.6 -0.9,5.9 -1.3,18.7 -1.9,24.7 -0.9,9.4 -4.4,15.5 -4.4,15.5 0,0 1,3 6.1,3.8 5.1,0.8 8.7,-1.7 8.7,-1.7 0,0 0.2,-6.5 0.9,-14.7 0.8,-8.2 2.2,-16.2 2.4,-22.7 0.2,-6.5 0.6,-7.5 1,-9.2 0.5,-1.7 2.3,-13.6 3.4,-17.1 1.4,-4.7 1.8,-9.4 2.9,-9.4 0,0 1.1,-10.4 0.5,-17.5 z"
   id="path72"
   inkscape:connector-curvature="0"
   style="opacity:0.2" />
		<path
   d="m 114.8,171.1 c 1.1,6.5 4.8,32.8 4.9,40.8 0.1,8 1.6,22.4 1.6,22.4 0,0 2.9,0.1 6.7,0.3 3.8,0.2 4.1,-1.6 4.1,-1.6 0,0 -0.8,-6.5 -0.9,-11.4 -0.2,-4.9 0.4,-18.8 -0.2,-25.2 -0.7,-6.4 -0.8,-11.7 0.4,-23.3 1.1,-11.6 2.5,-18.7 0.2,-24.7 -2.3,-6 -3.7,-8.5 -3.7,-8.5 l -17.5,1.9 c 0.6,7.1 2.3,17.5 2.3,17.5 1,0 0.8,3.9 2.1,11.8 z"
   id="path74"
   inkscape:connector-curvature="0"
   style="fill:#cc291f" />
	</g>
	<path
   d="m 127.8,100.1 c 0,0 -2.6,15.5 -2.1,20.6 0.5,5.1 1.3,11.2 2.3,14.8 1,3.6 1.7,6 0.9,7.3 -0.8,1.3 -1.8,5.3 -1.1,6 1.8,1.6 2.5,5.6 3,6.6 0.3,0.6 0.9,1.1 1.8,0.6 0.9,-0.5 0.2,-4.7 0.3,-5.7 0.1,-1 0.4,-5.8 0.4,-7.4 0,-1.6 0.6,-15.7 0,-18.8 -0.5,-3 -1.4,-8.2 0.4,-14.7 1.8,-6.4 2.8,-7.3 2.8,-10.2 0,-2.9 -8.7,0.9 -8.7,0.9 z"
   id="path78"
   inkscape:connector-curvature="0"
   style="fill:#fbd7c7" />
	<path
   d="m 107.5,84.4 c 0,0 -12.3,13.3 1.7,14.9 14,1.6 16.5,-7.7 13.9,-12.8 -2.6,-5.2 -6.9,-7.9 -6.9,-7.9 z"
   id="path80"
   inkscape:connector-curvature="0"
   style="fill:#fbd7c7" />
	<path
   d="m 107.8,85.3 c 0,0 -5.6,-1.7 -8.9,0.6 -3.3,2.4 -3.8,7.7 -3.8,7.7 0,0 0.6,0.5 1.4,0.9 0.8,0.4 1.3,0.4 1.3,0.4 0,0 0,1.7 -0.9,4.2 -0.8,2.6 -2.7,5 -1.7,8.5 0.9,3.4 3.1,3.9 3.1,4.6 0,0.8 0.6,12.2 -0.7,18.5 -1.3,6.3 -2.5,12.8 -2.4,14.6 0,0.3 0.4,5.5 13.1,5.8 12.7,0.3 20.7,-8.8 20.7,-8.8 0,0 -2.6,-6.8 -3.7,-11 -1,-3.9 2.4,-17.8 2.4,-21.4 0,-3.6 0,-8.5 0,-8.5 0,0 1.3,1.2 5.2,1.1 2.1,-0.1 3.7,-1.4 3.7,-1.4 0,0 0.9,-5.6 -3.1,-8.9 -4,-3.3 -8.6,-3.4 -8.6,-3.4 0,0 -5.1,10.4 -13.9,8.1 -9.4,-2.6 -3.2,-11.6 -3.2,-11.6 z"
   id="path82"
   inkscape:connector-curvature="0"
   style="fill:#3399cc" />
	<path
   d="m 115.4,57.7 c -8.1,-0.5 -12,3 -13.5,8.6 -1.5,5.4 4,15.3 -1.8,17.9 0.1,2.2 5.1,4.5 7.3,2.1 2.2,-2.3 2.9,-2.4 2.9,-2.4 z"
   id="path84"
   inkscape:connector-curvature="0"
   style="fill:#262626" />
	<path
   d="m 104.7,67.9 c -1.5,3.1 -1.9,15.6 0.6,17.6 2.5,2 7.6,-1.3 12.5,-3.5 4.9,-2.3 5.5,-19 -1.9,-19.2 -7.3,-0.3 -9.6,1.8 -11.2,5.1 z"
   id="path86"
   inkscape:connector-curvature="0"
   style="fill:#fbd7c7" />
	<path
   d="m 113.9,57.9 c -3.3,0.8 -7.1,5.2 -6.4,10 1,6.2 13.2,18.3 4.6,22.2 1.4,4.6 9.5,4.3 14,2 4.3,-2.3 4.7,-4.5 4.6,-5.3 -0.1,-0.8 -3.8,-4.9 -3.8,-10.9 -0.1,-6 -0.5,-21.1 -13,-18 z"
   id="path88"
   inkscape:connector-curvature="0"
   style="fill:#262626" />
	<path
   d="m 95.4,107.5 c 0,0 1.1,4.3 13.6,5.1 12.5,0.9 18.6,-4.8 18.6,-4.8 0,0 -3.3,7.9 -17.4,7.4 -14.2,-0.6 -14.8,-7.7 -14.8,-7.7 z"
   id="path90"
   inkscape:connector-curvature="0"
   style="opacity:0.2" />
</g>
<g
   id="g124"
   transform="translate(-9.0844968,-47.870981)">
	<path
   d="m 101.9,195.3 c 0,0 0.5,4.7 2.1,7 1.6,2.3 3.4,3.5 3.4,3.5 l -0.1,-8.3 -1.1,-4.3 z"
   id="path94"
   inkscape:connector-curvature="0"
   style="fill:#fbd7c7" />
	<path
   d="m 152.1,191.9 c 0,0 0.7,6.3 1.1,7.5 0.3,1.2 -0.7,3.3 -2.1,4 -3.1,1.6 -5.5,1.1 -6.3,0.8 -1.2,-0.4 2.6,-12.7 2.6,-12.7 z"
   id="path96"
   inkscape:connector-curvature="0"
   style="fill:#fbd7c7" />
	<path
   d="m 146.3,129.6 c 0,0 7,1.1 9.7,5.3 2.7,4.2 0.2,14.2 0.4,20.6 0.2,6.4 0.2,17.5 -0.3,21.8 -0.5,4.3 -2.2,10.6 -2.2,12.4 0,1.8 0.4,3.3 -2.4,3.5 -2.8,0.3 -5.6,-0.6 -5.6,-0.6 0,0 -2.7,-23.8 -2.3,-28.9 0.5,-5 2.7,-34.1 2.7,-34.1 z"
   id="path98"
   inkscape:connector-curvature="0"
   style="fill:#06547a" />
	<path
   d="m 150,142.9 c 0,0 1.2,11.1 -0.1,16.2 -1.3,5 -2.5,9.9 -1.8,13.6 0.7,3.7 2,9.6 1.3,14.2 -0.7,4.6 -2.2,7 -2.2,7 l -5.9,-25.3 5.4,-16.4 z"
   id="path100"
   inkscape:connector-curvature="0"
   style="opacity:0.2" />
	<path
   d="m 141.5,293.2 c 3.1,3.1 9.5,10.6 2.8,14.2 -6.7,3.5 -13.8,3.5 -20.9,3.2 -7.1,-0.3 -25.2,-3.2 -28,-6.3 -2.8,-3.2 -3.9,-7.9 2.8,-9.1 6.7,-1.2 11,-5.9 20.1,-5.5 9.1,0.4 22.4,2.7 23.2,3.5 z"
   id="path102"
   inkscape:connector-curvature="0"
   style="opacity:0.3;fill:#262626" />
	<path
   d="m 142.1,297.1 c 0,0 -1.4,6.3 -5.7,6.3 -4.3,0 -18.7,-2.2 -18.7,-2.2 l 11.4,-8.7 z"
   id="path104"
   inkscape:connector-curvature="0"
   style="fill:#262626" />
	<path
   d="m 135.2,302 c 0,0 0.8,6.5 -2.4,6.9 -3.2,0.4 -14.4,-1 -17.6,-1 -3.2,0 -14.8,-2.4 -15.8,-5.1 -1,-2.7 0.4,-5.7 4.7,-5.7 4.3,0 12.2,0.2 13.6,-0.2 1.4,-0.4 17.5,5.1 17.5,5.1 z"
   id="path106"
   inkscape:connector-curvature="0"
   style="fill:#262626" />
	<path
   d="m 99.3,300.1 c 0,0.5 0.1,0.9 0.3,1.4 1,2.8 13,5.3 16.2,5.3 3.2,0 14.8,1.4 18.1,1 0.2,0 0.5,-0.1 0.7,-0.2 -0.4,0.7 -0.9,1.3 -1.8,1.4 -3.2,0.4 -14.4,-1 -17.6,-1 -3.2,0 -14.8,-2.4 -15.8,-5.1 -0.2,-1 -0.3,-2 -0.1,-2.8 z"
   id="path108"
   inkscape:connector-curvature="0"
   style="fill:#262626" />
	<path
   d="m 147.2,191.2 c 0.8,2.6 -3.5,29.6 -3.5,32.7 0,3.1 -1.8,17 -1.4,21.5 0.4,4.5 1.4,27.2 1.8,34.5 0.4,7.3 -0.4,18.9 -2.4,20.1 -2,1.2 -8.7,1.2 -10.6,0.8 -2,-0.4 -3.9,-105.5 -3.9,-105.5 z"
   id="path110"
   inkscape:connector-curvature="0"
   style="fill:#656565" />
	<path
   d="m 147.2,191.2 c 0.8,2.6 -3.5,29.6 -3.5,32.7 0,3.1 -1.8,17 -1.4,21.5 0.4,4.5 1.4,27.2 1.8,34.5 0.4,7.3 -0.4,18.9 -2.4,20.1 -2,1.2 -8.7,1.2 -10.6,0.8 -2,-0.4 -3.9,-105.5 -3.9,-105.5 z"
   id="path112"
   inkscape:connector-curvature="0"
   style="opacity:0.2" />
	<path
   d="m 133.8,197.1 c 0,0 -1,11.8 -1,17.2 0,5.3 2.8,45 3.4,52.7 0.6,7.7 1.4,33.9 0.2,36.5 -1.2,2.6 -3.4,3.5 -7.4,2.6 -3.9,-1 -9.1,-2.4 -12.1,-6.1 -0.8,-1 -2.9,-2.7 -2.9,-2.7 0,0 3.2,-5 2.6,-10.5 -0.6,-5.5 -1.2,-15.4 -1,-19.7 0.2,-4.3 0.2,-10.6 -1.4,-16.4 -1.6,-5.7 -5.7,-17.9 -6.9,-35.9 -1.2,-17.9 -0.8,-21.5 -0.8,-21.5 z"
   id="path114"
   inkscape:connector-curvature="0"
   style="fill:#656565" />
	<path
   d="m 139,128.1 c 0,0 -4.9,0.4 -4.9,-3.7 0,-4.1 0.1,-6.7 0.1,-6.7 0,0 2.6,-1.1 2.4,-4.7 -0.2,-3.6 -1.3,-2.8 -1.3,-2.8 l -19.4,1.8 c 0,0 -1.3,0.4 -0.3,3.9 0.4,1.3 1.4,3 1.4,3.5 0,0.5 1,3.5 1.7,3.9 0.7,0.4 1.9,4.8 1.9,6.3 0,1.5 -0.7,3.5 -0.7,3.5 0,0 8.1,0.1 12.8,-1 4.7,-1.1 6.3,-4 6.3,-4 z"
   id="path116"
   inkscape:connector-curvature="0"
   style="fill:#fbd7c7" />
	<path
   d="m 133.8,122.1 c 0.4,-0.2 0.6,-4.3 0.9,-6.6 0.3,-2.3 2.8,-10 -1.2,-14.9 -3.9,-4.9 -15.2,-4.5 -17.3,2.4 -1.9,6.2 -0.7,10 1,13.5 1.7,3.5 3.5,5.2 4.1,6 0.6,0.7 6.2,1.5 7.5,1.4 1.2,-0.1 3.6,-1.3 5,-1.8 z"
   id="path118"
   inkscape:connector-curvature="0"
   style="fill:#762c07" />
	<path
   d="m 120.1,131.1 c 0.6,-0.2 6,0.6 10.5,-0.7 4.4,-1.3 6.5,-3.3 6.5,-3.3 0,0 9.3,1.8 11.7,3 2.7,1.3 3.1,3.4 3.5,5.5 0.5,2.6 0.7,5.4 0.4,8.3 -0.9,9.1 -4.1,11.7 -5,14 -0.9,2.4 -2.9,10.9 -1.5,17.9 1.4,7 2,15.4 1.8,17.6 -0.2,2.2 -2.4,7.7 -14.7,8.3 -14.5,0.7 -26.8,-4.6 -26.8,-4.6 V 196 c 0,0 -0.7,1.3 -2.6,1.2 -1.9,-0.1 -4,-2.3 -4,-3 0,-0.7 -0.4,-7.8 -0.7,-9.4 -0.3,-1.6 -1.2,-2.5 0,-6.6 1.2,-4.1 3.8,-17.8 4.5,-24.4 0.7,-6.5 0.9,-8.8 4.1,-12.6 3.2,-3.8 12.3,-10.1 12.3,-10.1 z"
   id="path120"
   inkscape:connector-curvature="0"
   style="fill:#06547a" />
	<path
   d="m 106.5,196 c 0,0 2.1,-3.1 2.4,-5.1 0.3,-2 1,-9.3 1.6,-10.9 0.6,-1.7 0.8,-4.8 1.9,-7.1 1.1,-2.3 7.4,-16.2 7.4,-16.2 0,0 -0.9,6.4 -3,11.3 -0.8,1.9 -2.5,3.9 -2.5,9.6 0,5.6 -2.8,11.4 -3.4,12.7 -1.6,3.4 -1.5,7 -1.5,8 -1.8,-0.6 -2.9,-1.1 -2.9,-1.1 V 196 c 0,0 0,0.1 0,0 z"
   id="path122"
   inkscape:connector-curvature="0"
   style="opacity:0.2" />
</g>
</svg>