<?xml version="1.0" encoding="UTF-8" standalone="no"?>
<svg
   xmlns:dc="http://purl.org/dc/elements/1.1/"
   xmlns:cc="http://creativecommons.org/ns#"
   xmlns:rdf="http://www.w3.org/1999/02/22-rdf-syntax-ns#"
   xmlns:svg="http://www.w3.org/2000/svg"
   xmlns="http://www.w3.org/2000/svg"
   id="svg8"
   version="1.1"
   viewBox="0 0 62.889286 49.245823"
   height="49.245823mm"
   width="62.889286mm">
  <defs
     id="defs2" />
  <metadata
     id="metadata5">
    <rdf:RDF>
      <cc:Work
         rdf:about="">
        <dc:format>image/svg+xml</dc:format>
        <dc:type
           rdf:resource="http://purl.org/dc/dcmitype/StillImage" />
        <dc:title></dc:title>
      </cc:Work>
    </rdf:RDF>
  </metadata>
  <g
     transform="translate(-68.536007,-86.870643)"
     id="layer1">
    <g
       id="g856"
       transform="matrix(0.26458333,0,0,0.26458333,84.094311,77.83358)">
      <ellipse
         id="ellipse815"
         ry="35"
         rx="70"
         cy="160"
         cx="80"
         style="opacity:0.2" />
      <path
         id="path817"
         d="m 100,80 c -2.8,0 -5,1.1 -5,2.5 l 35,97 c 0,1.4 2.2,2.5 5,2.5 2.8,0 5,-1.1 5,-2.5 l -35,-97 c 0,-1.4 -2.2,-2.5 -5,-2.5 z"
         style="fill:#825012" />
      <path
         id="path819"
         d="m 100,85 c -2.8,0 -5,-1.1 -5,-2.5 l 35,97 c 0,1.4 2.2,2.5 5,2.5 2.8,0 5,-1.1 5,-2.5 l -35,-97 c 0,1.4 -2.2,2.5 -5,2.5 z"
         style="opacity:0.2" />
      <path
         id="path821"
         d="m 100,73 c -2.8,0 -5,1.1 -5,2.5 l 35,63 c 0,1.4 2.2,2.5 5,2.5 2.8,0 5,-1.1 5,-2.5 l -35,-63 c 0,-1.4 -2.2,-2.5 -5,-2.5 z"
         style="fill:#825012" />
      <path
         id="path823"
         d="m 100,78 c -2.8,0 -5,-1.1 -5,-2.5 l 35,63 c 0,1.4 2.2,2.5 5,2.5 2.8,0 5,-1.1 5,-2.5 l -35,-63 c 0,1.4 -2.2,2.5 -5,2.5 z"
         style="opacity:0.2" />
      <path
         id="path825"
         d="m 60,80 c 2.8,0 5,1.1 5,2.5 l -35,97 c 0,1.4 -2.2,2.5 -5,2.5 -2.8,0 -5,-1.1 -5,-2.5 l 35,-97 C 55,81.1 57.2,80 60,80 Z"
         style="fill:#825012" />
      <path
         id="path827"
         d="m 60,85 c 2.8,0 5,-1.1 5,-2.5 l -35,97 c 0,1.4 -2.2,2.5 -5,2.5 -2.8,0 -5,-1.1 -5,-2.5 l 35,-97 c 0,1.4 2.2,2.5 5,2.5 z"
         style="opacity:0.2" />
      <path
         id="path829"
         d="m 60,73 c 2.8,0 5,1.1 5,2.5 l -35,63 c 0,1.4 -2.2,2.5 -5,2.5 -2.8,0 -5,-1.1 -5,-2.5 l 35,-63 C 55,74.1 57.2,73 60,73 Z"
         style="fill:#825012" />
      <path
         id="path831"
         d="m 60,78 c 2.8,0 5,-1.1 5,-2.5 l -35,63 c 0,1.4 -2.2,2.5 -5,2.5 -2.8,0 -5,-1.1 -5,-2.5 l 35,-63 c 0,1.4 2.2,2.5 5,2.5 z"
         style="opacity:0.2" />
      <path
         id="path833"
         d="M 80,40 C 35.8,40 0,57.9 0,80 v 10 c 0,22.1 35.8,40 80,40 44.2,0 80,-17.9 80,-40 V 80 C 160,57.9 124.2,40 80,40 Z"
         style="fill:#825012" />
      <path
         id="path835"
         d="M 80,120 C 35.8,120 0,102.1 0,80 v 10 c 0,22.1 35.8,40 80,40 44.2,0 80,-17.9 80,-40 V 80 c 0,22.1 -35.8,40 -80,40 z"
         style="opacity:0.2" />
    </g>
    <g
       id="g882"
       transform="matrix(0.26458333,0,0,0.26458333,94.836394,64.101705)">
      <path
         id="path858"
         d="m 54.4,127.4 c 9.1,5.9 23.5,12.9 10.6,19.8 C 51.3,154.5 33.1,145.9 26.3,138 17.2,127.5 6.9,124 2.4,122.8 c -3.7,-1 -3.8,-3.1 4.4,-1.8 1.4,0.2 11.6,1.5 21.6,2.9 10.2,1.4 23.2,1.7 26,3.5 z"
         style="opacity:0.2" />
      <path
         id="path860"
         d="m 46.3,127.9 c 0,0 0.8,2.9 2.8,4.1 2,1.2 6.1,3.4 6.5,4.3 0.4,0.9 1.4,3 3.5,2.6 2.1,-0.4 4.8,-2.2 4.1,-3.5 -0.7,-1.3 -1.7,-0.9 -3.8,-1.4 -2.1,-0.5 -5.2,-2.4 -6,-3.7 -0.9,-1.3 -1.7,-4 -1.7,-4 z"
         style="fill:#999999" />
      <path
         id="path862"
         d="m 46.3,127.9 c 0,0 0.8,2.9 2.8,4.1 2,1.2 6.1,3.4 6.5,4.3 0.4,0.9 1.4,3 3.5,2.6 2.1,-0.4 4.8,-2.2 4.1,-3.5 -0.7,-1.3 -1.7,-0.9 -3.8,-1.4 -2.1,-0.5 -5.2,-2.4 -6,-3.7 -0.9,-1.3 -1.7,-4 -1.7,-4 z"
         style="opacity:0.2" />
      <path
         id="path864"
         d="m 19.4,120.4 c 0,0 -8.5,-1.5 -12,-8.3 C 4,105.3 5.4,99.8 4.5,98.2 3.6,96.6 1.4,97 0.9,98.8 c -0.5,1.8 -1.2,13.5 4.9,19.8 6.3,6.3 13.8,7.8 13.8,7.8 0,0 1.8,6.3 5.5,8 3.7,1.7 5.1,0.5 5.1,0.5 0,0 -0.9,2 -0.2,3.1 0.7,1 8.4,3.1 9.5,4 1.1,1 2.1,3.8 4.9,2.8 2.8,-1 3.7,-2.1 3,-3.4 -0.7,-1.3 -2.6,-1.8 -4,-1.9 -1.4,-0.1 -6.5,-2.5 -6.5,-2.5 0,0 2.2,-2.1 2.7,-3.7 0.5,-1.6 0.3,-2.7 0.3,-2.7 l 6.9,-2.6 c 0,0 1.2,5.4 1.5,9.2 0.3,3.8 0.5,5.6 0.9,7.4 0.4,1.9 0.2,4.3 3.3,4 3.1,-0.3 4.3,-1.1 3.9,-2.3 -0.4,-1.2 -2.4,-2.4 -2.8,-4.6 -0.4,-2.1 0.1,-12.9 0.4,-14 0.2,-1.1 2.5,-7.1 2.5,-7.1 l 2.5,-0.5 c 0,0 1.1,7.8 1.5,11.3 0.4,3.5 0.7,9.2 0.7,10.4 0,1.2 0.7,2.6 2.2,2.7 1.5,0.2 4.6,-0.8 4.5,-2.1 -0.1,-1.3 -2.3,-3.1 -2.5,-4.6 -0.2,-1.5 -0.5,-14.8 0.9,-19.4 1.4,-4.6 2.4,-7.1 2.4,-7.1 L 60,91.5 c 0,0 -3.5,0.8 -7.9,0.7 -4.5,-0.1 -17.8,-0.1 -25.4,9.5 -7.8,9.7 -7.3,18.7 -7.3,18.7 z"
         style="fill:#999999" />
      <path
         id="path866"
         d="m 56.3,120.7 c 0,0 2.5,-2.1 2.7,-4.9 0.2,-2.8 1.8,-5.1 3.2,-6 1.4,-1 6.2,-3.4 6.2,-3.4 0,0 1.3,4.3 -0.5,7.3 -1.8,3 -4.8,5.4 -7.3,6.2 -2.5,0.8 -4.3,0.8 -4.3,0.8 z"
         style="fill:#e5e5e5" />
      <path
         id="path868"
         d="m 46.8,128 c 0,0 -0.7,-3.1 -1,-5.4 -0.2,-2.4 -0.9,-6 -0.9,-6 0,0 -0.9,2.1 -2.8,3 -1.9,0.9 -3.7,1.3 -5.3,0.6 -1.6,-0.7 -5.4,-2.7 -5.4,-2.7 0,0 5.7,3.8 6.8,6.9 1.2,3.1 1.6,6.3 1.6,6.3 z"
         style="opacity:0.2" />
      <path
         id="path870"
         d="m 58.2,96 c 0,0 -0.5,2.8 0.7,5.7 1.3,2.9 4,5.2 5.4,6.9 1.3,1.6 2.8,3.2 5.8,2.9 3,-0.4 3.2,-1.9 4.1,-3.1 0.9,-1.2 4.1,-5.7 4.6,-8.7 0.5,-3.1 0.1,-5.3 0.1,-5.3 0,0 2.1,-7.3 0.5,-8.2 -1.6,-0.9 -3.2,2.7 -5.1,2.9 -2,0.2 -2.9,-0.3 -5.1,-0.2 -2.2,0.1 -5.7,1 -5.7,1 0,0 -3.3,-3.4 -5.3,-2.7 -2.4,0.9 0,8.8 0,8.8 z"
         style="fill:#999999" />
      <path
         id="path872"
         d="m 69.7,110.5 c -0.6,0 -1.7,-1 -1.6,-1.5 0.1,-0.5 2.9,-0.5 3.1,0.1 0.2,0.5 -0.9,1.4 -1.5,1.4 z"
         style="fill:#2d3134" />
      <path
         id="path874"
         d="m 72,104.4 c 0,0 0.3,-1.8 1.8,-2.4 1.5,-0.6 2.1,-0.3 2.1,-0.3 0,0 -0.3,1.7 -1.5,2.3 -1.1,0.6 -2.4,0.4 -2.4,0.4 z"
         style="fill:#2d3134" />
      <path
         id="path876"
         d="m 67.3,104.4 c 0,0 -0.6,-1.8 -2,-2.3 -1.4,-0.5 -2.4,0 -2.4,0 0,0 0.2,1.5 1.4,2 1.2,0.5 3,0.3 3,0.3 z"
         style="fill:#2d3134" />
      <path
         id="path878"
         d="m 72.9,93.3 c 0,0 4.8,-7.5 6.4,-6.9 1.2,0.4 -0.4,8 -0.4,8 0,0 -1.3,-1.2 -3,-1.5 -1.6,-0.3 -3,0.4 -3,0.4 z"
         style="opacity:0.2" />
      <path
         id="path880"
         d="m 65.2,93.2 c 0,0 -5.3,-6.3 -6.9,-5.8 -2.2,0.7 -0.1,8.6 -0.1,8.6 0,0 1.6,-2.1 2.9,-2.6 1.3,-0.5 4.1,-0.2 4.1,-0.2 z"
         style="opacity:0.2" />
    </g>
    <g
       id="g989"
       transform="matrix(0.26458333,0,0,0.26458333,60.916811,96.671913)">
      <path
         id="path961"
         d="m 103.2,117 c 12.7,8.2 34.5,15.5 14.8,27.5 -18.4,11.2 -39.2,-0.4 -49.5,-10.6 -20.7,-20.6 -56.1,-20.3 -31.1,-23.8 1.9,-0.3 15.8,0 29.6,2 14.3,2 32.4,2.4 36.2,4.9 z"
         style="opacity:0.2" />
      <path
         id="path963"
         d="m 96.1,110.4 c 0,0 2,4.7 1.9,6.2 -0.1,1.5 -0.8,3.5 0.1,4.3 0.9,0.7 7.8,5.2 9.1,7.1 1.3,1.9 2,5.2 6.6,3 4.6,-2.2 3.1,-5.5 0.9,-6.4 -2.1,-0.9 -6.5,-1.7 -8.8,-3.9 -2.3,-2.2 -3.2,-2.9 -1.2,-6.3 2,-3.4 2.9,-6.1 2.9,-6.1 z"
         style="opacity:1;fill:#f8ebcb" />
      <path
         id="path965"
         d="m 96.1,110.4 c 0,0 2,4.7 1.9,6.2 -0.1,1.5 -0.8,3.5 0.1,4.3 0.9,0.7 7.8,5.2 9.1,7.1 1.3,1.9 2,5.2 6.6,3 4.6,-2.2 3.1,-5.5 0.9,-6.4 -2.1,-0.9 -6.5,-1.7 -8.8,-3.9 -2.3,-2.2 -3.2,-2.9 -1.2,-6.3 2,-3.4 2.9,-6.1 2.9,-6.1 z"
         style="opacity:0.2" />
      <path
         id="path967"
         d="m 86.8,47.8 c 0.8,-1.5 2.6,-3.6 5.5,-5 2.9,-1.4 5,-1.9 5,-1.9 0,0 1.7,-3.1 5.5,-1.8 3.8,1.3 7.5,8.5 8.4,11.6 0.9,3.1 2.2,8.7 1,9.4 -1.2,0.7 -3,-2.1 -3,-2.1 0,0 1,4.5 1.8,7.3 0.7,2.8 -0.1,7.7 0.7,9.3 0.7,1.6 4.2,7.5 3.8,13.7 -0.4,6.2 -2.8,12.2 -2.9,14.8 -0.1,2.6 3.4,16.8 4,17.9 0.6,1.1 0.2,4.4 1.2,6.4 1,2 8.7,3.9 6.2,7.8 -2.4,3.9 -9.3,2 -10.3,-0.2 -1,-2.2 0.1,-4.6 -1.1,-8.8 -1.2,-4.2 -6.7,-15.8 -6.7,-15.8 0,0 -2,0.6 -4.8,0.9 -2.9,0.4 -5.9,3.9 -4.9,9.7 1,5.8 2,8 2.6,9.4 0.6,1.4 0.2,4.6 1.1,6.4 0.9,1.9 7.2,4.2 4.8,7.3 -2.4,3.1 -7.5,3.2 -10.2,0.6 -2.7,-2.6 -0.4,-3.8 -2.2,-10.2 -1.9,-6.4 -4,-13.8 -4,-13.8 l -6.3,1.5 -4.4,9.3 c 0,0 3.8,2.8 5.7,3.9 1.9,1.1 5.7,0.2 7,1.9 1.3,1.7 1.8,5.5 -2.2,7 -4,1.5 -6.3,-3.4 -7.7,-4.5 -1.4,-1 -7,-3.3 -8.5,-5 -1.5,-1.7 -0.2,-5.8 -0.2,-5.8 0,0 -5.9,-0.6 -8.8,-4.4 -2.9,-3.8 -2.5,-4.6 -3.7,-5.5 -1.2,-0.9 -3.1,-1.7 -8.8,-1.1 -5.7,0.6 -12.7,-1.8 -15.7,-5.2 -3.1,-3.4 -3.7,-11.3 -2.9,-12 0.8,-0.7 2.2,4.5 3.8,5.7 1.6,1.2 5.3,4.2 9.7,3.8 4.4,-0.4 12.5,-3.6 12.5,-3.6 0,0 4.6,-12.8 10.8,-19.7 6.2,-7 14.6,-11.7 15.9,-16.8 1.1,-5.1 1,-19.9 2.3,-22.4 z"
         style="opacity:1;fill:#f8ebcb" />
      <g
         id="g971">
        <path
           id="path969"
           d="m 84.6,108.1 c 0,0 -1.2,1.6 -4,1.6 -1.5,0 -3.7,-0.2 -5.3,-0.4 0.6,0.1 1.4,0.3 2.2,0.6 2.8,0.9 3.9,2.1 5.1,4.6 1.1,2.5 -0.8,7.7 -0.8,7.7 l 6.3,-1.5 c 0,0 -0.7,-2.1 -1,-3.2 -0.3,-1 -2.6,-6.6 -2.5,-9.4 z"
           style="opacity:0.2" />
      </g>
      <path
         id="path973"
         d="m 94.9,65.4 c -0.4,-1.5 -1.8,-5.1 -4,-7.5 -1.6,-1.8 -3,-5.8 -3.6,-8.3 l -1.1,0.3 c -0.6,3.7 -0.8,10.7 -1.3,15.8 0.9,0.7 4.2,1.9 5.3,2.5 4.7,2.6 5.5,0.5 4.7,-2.8 z"
         style="opacity:0.2" />
      <path
         id="path975"
         d="m 93.7,52.8 c 0,0 -0.1,-2.2 0.8,-3.1 0.8,-0.9 2.5,-0.6 1.7,1.3 -0.8,2 -2.5,1.8 -2.5,1.8 z"
         style="opacity:1;fill:#262626" />
      <path
         id="path977"
         d="m 102.9,45.7 c 0,0 -0.2,-1.1 0.7,-1.5 0.9,-0.3 1.8,1.5 1.8,1.5 z"
         style="opacity:1;fill:#262626" />
      <path
         id="path979"
         d="m 111.1,53.4 c 0,0 -0.3,-0.6 -1,-0.8 -0.6,-0.2 -1.3,-0.1 -2.1,0.2 l -0.9,-1.8 -0.3,0.2 0.9,1.8 c -1.3,0.7 -1.9,1.5 -2.6,2.5 -0.4,0.6 -0.9,1.3 -1.6,1.9 -1.8,1.8 -2.8,2.1 -2.8,2.1 -0.1,0 -0.1,0.1 -0.1,0.2 0,0.1 0.1,0.1 0.2,0.1 0,0 0,0 0.1,0 0,0 1.1,-0.4 3,-2.2 0.7,-0.7 1.2,-1.4 1.6,-2 0.7,-1 1.3,-1.8 2.6,-2.5 0.8,-0.4 1.4,-0.5 1.9,-0.3 0.6,0.2 0.8,0.6 0.8,0.6 0,0.1 0.2,0.1 0.2,0.1 0.1,0.1 0.1,0 0.1,-0.1 z"
         style="opacity:1;fill:#262626" />
      <path
         id="path981"
         d="m 87.4,47.1 c -0.8,-0.5 -2.7,0.7 -4.1,3.4 -1.4,2.7 -3.4,7.5 -1.8,9.9 1.6,2.4 4.3,4.5 6.7,5.4 2.3,0.9 5,2.6 5.7,2.1 0.7,-0.5 -1.1,-5.7 -3,-8.4 -1.9,-2.7 -4,-5.8 -4,-5.8 0,0 2.5,-5.3 0.5,-6.6 z"
         style="opacity:1;fill:#f8ebcb" />
      <path
         id="path983"
         d="m 111.1,50.6 c 0.7,1.7 0.5,3.5 -0.1,5.2 -0.6,1.6 -1.7,2.3 -1.7,2.3 v 0.1 c 0.3,0.5 1.8,2.7 2.9,2 1.2,-0.7 -0.1,-6.3 -1,-9.4 -0.9,-3.1 -4.6,-10.2 -8.4,-11.6 -3.5,-1.2 -5.2,1.3 -5.5,1.7 1.6,0 4.4,0.4 5.9,1.9 1.6,1.5 2.6,2.4 3.6,3.8 1,1.4 3.5,2.2 4.3,4 z"
         style="opacity:0.2" />
      <path
         id="path985"
         d="m 102.6,48.5 c -0.7,1.6 1.8,4 4.3,2.9 2.5,-1.2 1.5,-4 0.7,-4.6 -0.8,-0.7 -4.2,-0.2 -5,1.7 z"
         style="opacity:1;fill:#262626" />
      <path
         id="path987"
         d="M 112.2,69.8 C 108,70.5 102.9,70.9 97.7,70.6 90,70.3 85.7,69 84,68 c -0.1,0.7 -0.2,1.4 -0.4,2 -0.2,0.6 -0.4,1.3 -0.8,1.9 4,2 10.5,2.6 14.7,2.7 1.1,0 2.2,0.1 3.3,0.1 3.7,0 7.7,-0.2 11.5,-0.9 -0.2,-1 -0.1,-2.5 -0.1,-4 z"
         style="opacity:1;fill:#262626" />
    </g>
    <g
       id="g1031"
       transform="matrix(0.26458333,0,0,0.26458333,113.72764,94.846288)">
      <ellipse
         id="ellipse1013"
         ry="14.6"
         rx="26.799999"
         cy="136.89999"
         cx="40.900002"
         transform="matrix(0.9564,-0.2919,0.2919,0.9564,-38.1725,17.888)"
         style="opacity:0.2" />
      <path
         id="path1015"
         d="m 41.1,114.4 c 0,0 -12.3,0.8 -17.3,2.2 -5,1.4 -3.7,8.6 0.8,11.3 4.5,2.7 7.4,3.8 7.4,3.8 0,0 -7.3,0.1 -9.2,1 -1.9,0.9 -6,2.7 -5.6,5.4 0.4,2.7 3.8,4.1 6.3,3.1 2.4,-1 6.2,-4.2 8.3,-4.7 2.1,-0.5 8.3,0 8.8,-0.5 0.5,-0.5 0.9,-1.3 0.9,-1.3 l 3.5,0.9 12.7,-12.9 z"
         style="fill:#825012" />
      <path
         id="path1017"
         d="m 41.1,114.4 c 0,0 -12.3,0.8 -17.3,2.2 -5,1.4 -3.7,8.6 0.8,11.3 4.5,2.7 7.4,3.8 7.4,3.8 0,0 -7.3,0.1 -9.2,1 -1.9,0.9 -6,2.7 -5.6,5.4 0.4,2.7 3.8,4.1 6.3,3.1 2.4,-1 6.2,-4.2 8.3,-4.7 2.1,-0.5 8.3,0 8.8,-0.5 0.5,-0.5 0.9,-1.3 0.9,-1.3 l 3.5,0.9 12.7,-12.9 z"
         style="opacity:0.2" />
      <path
         id="path1019"
         d="m 63.7,127.2 c -0.2,-2.9 -4.9,-6.2 -10.4,-4.4 -5.5,1.8 -10.4,7.2 -10,10.4 0.4,3.2 4.1,6.8 4.1,6.8 0,0 -4.3,-0.1 -5.9,1.3 -1.7,1.4 -1.4,2.4 -2.7,4.2 -1.3,1.8 -3.1,4.2 -0.3,5.2 2.8,1 5,0.9 6.4,-0.6 1.4,-1.5 1.8,-4.9 1.8,-4.9 0,0 5.1,-1.2 6.4,-1.9 2.6,-1.4 1.4,-4.6 1.4,-4.6 0,0 4.3,-1 6.6,-4.2 2.3,-3.2 2.9,-3.4 2.6,-7.3 z"
         style="fill:#825012" />
      <path
         id="path1021"
         d="m 14.5,64.7 c 2.5,-2.4 7.6,-5.6 8.1,-6.7 0.5,-1.2 -0.7,-5.2 0.4,-5.9 1.1,-0.7 3.5,-1.4 3.5,-1.4 0,0 0,-2.1 0.8,-4.8 0.8,-2.7 1,-5.3 1,-5.3 0,0 2.3,2.6 2.8,4.1 0.5,1.5 2.2,3.5 2.2,3.5 0,0 2.3,-0.7 4.5,0.4 1.9,0.9 2.5,1.8 2.5,1.8 L 41.2,46 c 0,0 2.5,2.6 3.1,6.1 0.5,3 0.4,3.8 0.4,3.8 0,0 2.2,4.6 2.4,9.5 0.2,4.9 2.3,9.8 5.6,14.3 3.3,4.5 9,11 10.1,17.3 1.1,6.3 4.2,17.6 3.9,22.7 -0.3,5.4 -0.8,13.8 -5.7,17.2 -3.3,2.3 -6.4,1.8 -6.4,1.8 0,0 -4.9,-4.2 -5,-5.1 -0.1,-0.9 7,-6.8 8.8,-8.3 1.8,-1.4 0.5,-2.6 0.5,-2.6 0,0 -4.3,-1.1 -6.2,-1.5 -4.6,-1.2 -9,-4 -9,-4 0,0 -1.5,5.3 -1.3,8.7 0.3,3.4 0.4,6.9 -1.1,9.1 -1.5,2.2 -3.4,6.4 -3.5,8.7 -0.1,2.3 -0.6,5.3 -2.9,6.4 -2.3,1.2 -6.6,-0.2 -6.6,-1.5 0,-1.3 1.5,-3.2 3,-4.8 1.5,-1.6 5.3,-10.1 5.7,-12.6 0.4,-2.5 0.5,-18.2 0.5,-18.2 l -5.6,-2 c 0,0 0.1,8.7 0.2,11.4 0.1,2.8 -0.2,6.3 -1.5,10.2 -1.3,3.9 -2.6,9.3 -3.1,10.7 -0.5,1.3 -2,3.2 -3.9,3.5 -3.2,0.4 -6.2,-1.5 -5.3,-3.3 0.9,-1.7 3.7,-3.8 5,-6 1.4,-2.4 3.2,-6.2 3.4,-10.3 0.3,-8 -1.9,-19.9 -2.3,-22.1 -0.4,-2.2 -3,-4.7 -2,-11 1,-6.3 5.1,-10.9 5.2,-13.1 0.1,-2.2 1.3,-8.3 -0.4,-9 -1.7,-0.7 -6.3,2 -10.5,-1.3 -4.2,-3.2 -2.2,-6 -2.2,-6 z"
         style="fill:#2d3134" />
      <path
         id="path1023"
         d="m 39.9,65.8 c -0.4,-1 -7.1,-1 -12.8,-2.1 C 23.6,63 19.3,62.9 16.6,63 c -0.8,0.6 -1.5,1.2 -2.1,1.8 0,0 -2,2.8 2.1,6.1 4.1,3.3 8.8,0.5 10.5,1.3 0.5,0.2 0.8,1 0.9,2 0.6,1.2 1.6,2.5 2.6,2.2 1.8,-0.6 9.7,-9.6 9.3,-10.6 z"
         style="fill:#825012" />
      <path
         id="path1025"
         d="m 28.5,59.5 c -0.1,-0.7 3.8,-0.7 3.9,-0.1 0.1,0.6 -3.7,1.4 -3.9,0.1 z" />
      <path
         id="path1027"
         d="m 39.7,59.9 c -1.4,-0.7 -1.2,-3.9 0,-6.3 1.2,-2.3 2.1,-5.3 2.1,-5.3 0,0 2.4,4.7 2,7.4 -0.4,2.6 -1.8,5.3 -4.1,4.2 z"
         style="fill:#825012" />
      <path
         id="path1029"
         d="m 15.8,66.9 c -0.7,-0.6 -1.9,-2.2 -1.3,-3.7 0.6,-1.4 4,-2.9 5.6,-1.6 1.6,1.3 0.2,4.1 -0.5,4.9 -0.8,0.9 -2.7,1.3 -3.8,0.4 z"
         style="fill:#262626" />
    </g>
  </g>
</svg>
