<?xml version="1.0" encoding="UTF-8" standalone="no"?>
<svg
   xmlns:dc="http://purl.org/dc/elements/1.1/"
   xmlns:cc="http://creativecommons.org/ns#"
   xmlns:rdf="http://www.w3.org/1999/02/22-rdf-syntax-ns#"
   xmlns:svg="http://www.w3.org/2000/svg"
   xmlns="http://www.w3.org/2000/svg"
   width="97.825691mm"
   height="84.564842mm"
   viewBox="0 0 97.82569 84.56484"
   version="1.1"
   id="svg3748">
  <defs
     id="defs3742" />
  <metadata
     id="metadata3745">
    <rdf:RDF>
      <cc:Work
         rdf:about="">
        <dc:format>image/svg+xml</dc:format>
        <dc:type
           rdf:resource="http://purl.org/dc/dcmitype/StillImage" />
        <dc:title></dc:title>
      </cc:Work>
    </rdf:RDF>
  </metadata>
  <g
     id="g4380"
     transform="matrix(0.26458333,0,0,0.26458333,-3.3178904,23.525926)">
    <path
       id="path4342"
       d="m 13.4,105 c 0,0 1,9.1 1.3,12.3 0.3,3.2 1.3,5.5 2.1,7.3 0.8,1.8 4.5,6.2 5,5.9 0.5,-0.3 -0.3,-2.1 -0.3,-2.5 0,-0.4 0.4,-1.7 -0.2,-2.5 -0.6,-0.7 -1.7,-4 -1.6,-4.7 0.1,-0.7 1.4,-0.9 1.5,-1.4 0.1,-0.5 0.1,-0.5 0.1,-0.5 0,0 -3.6,-6 -3.6,-8.6 0,-2.7 -0.1,-6.1 -0.1,-6.1 0,0 -0.6,-0.3 -2,0 -1.4,0.2 -2.2,0.8 -2.2,0.8 z"
       style="fill:#fbd7c7" />
    <path
       id="path4344"
       d="m 28.1,216.9 c 0.6,1.8 -6.7,11.8 7.1,13.5 20.6,2.7 21.6,-13.7 29.3,-18.2 13.9,-8.1 -3.1,-14.1 -22.5,-14.1 -16.3,0.1 -30.5,1.9 -29.4,10.1 0.7,6.1 14.6,5.6 15.5,8.7 z"
       style="opacity:0.3;fill:#262626" />
    <path
       id="path4346"
       d="m 34,200.2 c 0,0 -1.6,1.2 -5.5,1.1 -3.9,-0.1 -7.3,-0.8 -11.4,1.5 -4.8,2.7 -1.2,7 0.1,7.4 1.3,0.4 18.1,0.9 21.2,0.7 3.1,-0.2 2.1,-8.2 2.1,-8.2 z"
       style="fill:#762c07" />
    <path
       id="path4348"
       d="m 39.4,209.1 c -1.5,0.1 -9,0.6 -13.5,0.5 -5,-0.1 -6.4,-0.5 -7.8,-1 -1.7,-0.6 -3.2,-1.4 -3.3,-3.1 -0.5,2.2 0.9,4.1 2.5,4.6 1.5,0.5 3.3,0.9 8.6,1.1 4.2,0.1 11.3,-0.3 12.6,-0.4 0.8,-0.1 1.4,-0.7 1.7,-1.6 -0.4,0.3 -0.5,-0.1 -0.8,-0.1 z"
       style="fill:#262626" />
    <path
       id="path4350"
       d="m 39.7,211 c 0,0 -3.9,4.4 -6.6,7.6 -2.7,3.2 -3.8,5.6 -3.6,7.9 0.2,2.3 3.5,3.4 8,3.4 4.5,0 9.3,-2.8 11.5,-5.9 2.3,-3.1 5.6,-5.9 5.6,-7.4 0,-1.5 -0.1,-6.2 -0.1,-6.2 z"
       style="fill:#762c07" />
    <path
       id="path4352"
       d="m 54.6,210.4 h -0.5 c 0,1.5 0.1,3.3 0.1,4.1 0,1.5 -3.4,4.3 -5.6,7.4 -2.3,3.1 -7,5.9 -11.5,5.9 -3.5,0 -6.3,-0.6 -7.4,-2 0,0.2 0,0.4 0,0.6 0.1,2.3 3.5,3.4 8,3.4 4.6,0 9.3,-2.8 11.5,-5.9 2.3,-3.1 5.6,-5.9 5.6,-7.4 -0.1,-1.4 -0.2,-6.1 -0.2,-6.1 z"
       style="fill:#262626" />
    <path
       id="path4354"
       d="m 19.7,114.3 c 0,0 -0.5,13 1.6,23.9 2.1,10.9 9.5,26.4 9.5,31.1 0,4.7 2.3,19 2.1,22.8 -0.1,3.8 -0.9,8.6 -0.9,8.6 0,0 2.7,5 6.2,6.7 3.5,1.7 7.2,-0.4 7.2,-0.4 L 39,116.5 Z"
       style="fill:#3399cc" />
    <path
       id="path4356"
       d="m 19.7,114.3 c 0,0 -0.5,13 1.6,23.9 2.1,10.9 9.5,26.4 9.5,31.1 0,4.7 2.3,19 2.1,22.8 -0.1,3.8 -0.9,8.6 -0.9,8.6 0,0 2.7,5 6.2,6.7 3.5,1.7 7.2,-0.4 7.2,-0.4 L 39,116.5 Z"
       style="opacity:0.2" />
    <path
       id="path4358"
       d="m 31.1,119.4 c 0,0 0.3,14.3 -0.3,25.6 -0.5,11.3 2.3,21.7 3.4,25.3 1.1,3.6 1.5,9.7 1.5,15.2 0,5.5 0.2,26.2 1,27 0.8,0.8 5.2,3.6 10.9,4 4.3,0.3 9,-2.4 9,-3.1 0,-0.7 1.5,-16.4 0.3,-29.1 -1.2,-12.7 -3.8,-19.3 -3.6,-21.3 0.1,-2 3.1,-29.1 2.8,-34.7 -0.3,-5.6 -2,-18.4 -2,-18.4 z"
       style="fill:#3399cc" />
    <path
       id="path4360"
       d="m 17.9,69.4 c 0,0 -2.2,7.4 -3.6,17.6 -1.5,10.7 -0.7,25.3 -0.7,25.3 0,0 2.1,-1.6 6.2,-1.6 4.1,0 -1.9,-41.3 -1.9,-41.3 z"
       style="fill:#ffcc00" />
    <path
       id="path4362"
       d="m 17.9,69.4 c 0,0 -2.2,7.4 -3.6,17.6 -1.5,10.7 -0.7,25.3 -0.7,25.3 0,0 2.1,-1.6 6.2,-1.6 4.1,0 -1.9,-41.3 -1.9,-41.3 z"
       style="opacity:0.2" />
    <path
       id="path4364"
       d="m 51.5,127 c 0,0 -0.4,2.9 -2.3,5.1 -1.9,2.1 -3.5,5.8 -3.5,7.3 0,2.1 0,3.9 0.9,4 1.8,0.2 1.1,-1.3 1.7,-1.3 0.6,0 0.3,2.6 3,2.7 3.5,0.1 8.5,-2.3 8.5,-4.6 0,-1.2 -0.5,-4.4 -0.9,-6.2 -0.5,-1.9 -0.5,-4.5 -0.5,-4.5 z"
       style="fill:#fbd7c7" />
    <path
       id="path4366"
       d="m 38.8,44 c 9.5,2.5 20.1,4.6 23.7,12.3 3.1,6.6 2.9,8.7 2.7,14.9 -0.3,6.2 -0.8,18.5 -0.5,22.5 0.3,4 -1.1,20.8 -2.3,26.4 -1.2,5.6 -1.6,10.3 -2.5,10.6 -0.9,0.3 -10.2,-0.9 -9.5,-2.3 0.9,-2 1.2,-7.6 1.2,-7.6 0,0 -4.4,5.4 -14.2,4 -9.8,-1.3 -18.2,-6.1 -19.1,-8.6 -0.4,-1.2 -0.6,-19.8 0.3,-24.8 0.9,-5 -2,-15.7 -2.1,-20.4 -0.1,-4.7 2.9,-17.4 3.1,-19.7 0.1,-3.4 4.2,-11.2 19.2,-7.3 z"
       style="fill:#ffcc00" />
    <path
       id="path4368"
       d="m 51.5,120.9 c 0,0 0.7,-5.2 0.7,-9.8 0,-4.6 0.1,-11.3 -0.4,-13.9 C 51.3,94.5 49.6,85 49.3,82.5 48.6,76.4 49,72.7 49.5,71.4 c -2.4,4.1 -1,19 -0.3,25.2 0.9,8.7 -0.3,25.8 -0.6,26.6 -0.3,0.7 2.9,-2.3 2.9,-2.3 z"
       style="opacity:0.2" />
    <path
       id="path4370"
       d="m 42.5,38.2 c 0,0 0,5.2 0.9,6.1 0.9,0.9 3,1.3 2.3,2.6 -0.7,1.3 -8.1,9.7 -13.5,9.2 -5.3,-0.5 -4,-9.4 -4,-9.4 z"
       style="fill:#fbd7c7" />
    <path
       id="path4372"
       d="m 22.8,26.5 c -2.2,2.8 -1.3,11 -0.3,14.7 1,3.7 2.2,5.9 2.7,7.3 0.4,1.4 1.9,3.6 3.9,3.5 2,-0.1 8.2,-4.1 10.1,-7.1 C 41,41.9 43.6,39 44,37 44.4,35 44.6,34.1 42.9,33.7 41.2,33.3 37.6,25.9 33,25.6 28.4,25.3 24.1,24.8 22.8,26.5 Z"
       style="fill:#fbd7c7" />
    <path
       id="path4374"
       d="m 21.5,28.4 c -0.4,1.6 0.8,3.3 5.5,3.3 4.7,0 7.6,-2.3 8.1,-0.8 0.5,1.5 1.8,5.7 2.2,6.6 0.4,0.9 1,2 1.3,1.6 0.3,-0.4 1.8,-3.9 2.9,-4.7 1.1,-0.8 1.7,-0.8 1.7,-0.8 0,0 1.6,-8.3 -2,-12.6 C 37.6,16.7 25,15.6 21.5,28.4 Z"
       style="fill:#825012" />
    <path
       id="path4376"
       d="m 25,46.6 c 0,0 0.7,-0.7 1.6,-0.8 0.4,0 1.3,0.1 1.9,0.2 0.8,0.2 2.7,1.1 2.7,1.1 0,0 -2.8,0 -3.7,-0.1 C 26.4,46.9 25,46.6 25,46.6 Z"
       style="fill:#825012" />
    <path
       id="path4378"
       d="m 26.8,49 1.2,0.1 c 0,0 -0.2,0.6 0.6,1.3 0.8,0.7 2.9,0.8 2.9,0.8 0,0 -1.7,1.3 -3.2,0.9 -1.5,-0.4 -2.3,-1.8 -2.3,-1.8 0,0 0.5,-0.1 0.6,-0.5 0.2,-0.4 0.2,-0.8 0.2,-0.8 z"
       style="fill:#825012" />
  </g>
  <path
     id="path943"
     d="m 26.055652,22.951288 c -1.443093,0.279967 -2.540445,1.145321 -2.991412,2.358513 -0.0952,0.263 -0.115247,0.407225 -0.115247,0.848386 0.005,0.632048 0.08017,0.912015 0.40587,1.463466 0.486042,0.83566 1.433072,1.505885 2.485327,1.751917 0.496064,0.114532 1.508233,0.101806 1.994275,-0.02545 1.127416,-0.301177 1.979242,-0.903531 2.480316,-1.768884 0.300644,-0.517516 0.395849,-0.920499 0.360773,-1.548305 -0.02004,-0.369048 -0.05512,-0.568418 -0.160343,-0.827176 -0.40587,-1.039273 -1.357911,-1.840998 -2.57051,-2.17611 -0.481031,-0.127258 -1.418039,-0.169677 -1.889049,-0.07635 z"
     style="fill:none;stroke:#000000;stroke-width:1.32291663;stroke-miterlimit:4;stroke-dasharray:none;stroke-opacity:1" />
  <path
     id="path945"
     d="m 17.489629,26.9591 c -0.390838,0.114532 -0.831783,0.356322 -1.047245,0.576903 -0.240515,0.246032 -0.481031,0.695676 -0.54617,1.026547 -0.215462,1.081692 0.54116,2.074303 1.783823,2.345787 1.047245,0.229064 2.179672,-0.178161 2.7058,-0.975644 0.255547,-0.386016 0.335719,-0.682951 0.310666,-1.141079 -0.05011,-0.869596 -0.67144,-1.569514 -1.643523,-1.84524 -0.425913,-0.123016 -1.112384,-0.114532 -1.563351,0.01273 z"
     style="fill:none;stroke:#000000;stroke-width:1.32291663;stroke-miterlimit:4;stroke-dasharray:none;stroke-opacity:1" />
  <path
     id="path947"
     d="m 11.260344,29.815892 c -0.771654,0.267242 -1.227632,0.903531 -1.092342,1.514369 0.105226,0.458129 0.47101,0.869596 0.972084,1.085934 0.210451,0.09332 0.325698,0.114532 0.656407,0.114532 0.481031,0.0042 0.766643,-0.09332 1.157481,-0.407225 0.385827,-0.309661 0.496063,-0.525999 0.496063,-0.98837 0,-0.33087 -0.02004,-0.411467 -0.13529,-0.59387 -0.07015,-0.118774 -0.250537,-0.309661 -0.400859,-0.428435 -0.481031,-0.386015 -1.08232,-0.496305 -1.653544,-0.296935 z"
     style="fill:none;stroke:#000000;stroke-width:1.32291663;stroke-miterlimit:4;stroke-dasharray:none;stroke-opacity:1" />
  <path
     id="path941"
     d="m 57.911935,0.69832373 c -1.603437,0.125503 -3.79313,0.99969097 -5.386545,2.15517697 -2.380102,1.722411 -3.833217,3.981452 -4.163925,6.465531 l -0.06514,0.467388 h -0.350752 c -3.99356,0 -7.58626,2.1075733 -9.044385,5.2927343 -0.195419,0.428439 -0.375806,0.995363 -0.511096,1.601236 l -0.115247,0.510665 -0.496063,0.220711 c -0.952041,0.419783 -1.723695,0.92612 -2.550467,1.666151 -0.841804,0.757341 -1.377953,1.510354 -1.718684,2.410509 -0.455977,1.207418 -0.591267,2.652859 -0.350751,3.804017 0.190408,0.92612 0.751611,2.072952 1.362921,2.778361 0.415891,0.48037 1.463136,1.393508 1.979242,1.72241 1.768791,1.133849 3.597711,1.523339 6.173232,1.315611 0.756622,-0.06492 0.641374,-0.155796 0.937008,0.727047 1.403007,4.202163 5.261277,7.067077 10.29206,7.642657 1.072298,0.121174 2.901219,0.03895 4.008592,-0.18609 0.761633,-0.151469 1.944167,-0.536631 2.871154,-0.939103 0.265569,-0.112519 0.646386,-0.268316 0.841804,-0.346214 l 0.355763,-0.142812 0.596278,0.346212 c 1.583394,0.913138 2.795993,1.384854 4.529709,1.77867 1.21761,0.272644 1.853974,0.350542 3.407303,0.415457 1.818899,0.07789 4.274161,-0.29861 6.037942,-0.930448 1.874017,-0.670788 3.472443,-1.592581 4.885471,-2.812983 1.573373,-1.358886 2.710811,-2.903863 3.477454,-4.730137 0.33572,-0.804945 0.536149,-1.510355 0.806729,-2.869242 l 0.03006,-0.138485 1.137438,0.02164 c 0.886901,0.01731 1.272727,0.0087 1.76378,-0.0476 2.124555,-0.246677 3.943455,-1.017001 5.486755,-2.341266 2.73086,-2.328285 3.69292,-5.591344 2.55548,-8.625037 -0.22047,-0.575579 -0.76664,-1.544976 -1.17752,-2.072951 -1.39299,-1.800308 -3.70795,-3.202472 -6.063,-3.665532 -0.992123,-0.199073 -3.126698,-0.199073 -4.309233,-0.0043 l -0.175376,0.02596 -0.260558,-0.454405 c -0.576235,-0.99969 -1.212599,-1.752704 -2.149608,-2.5360113 -1.227631,-1.029984 -2.700789,-1.791654 -4.339301,-2.241731 -1.117395,-0.311592 -2.415176,-0.432766 -3.783108,-0.354868 -1.222621,0.06924 -1.763781,0.160123 -2.816036,0.454405 -0.380817,0.108191 -0.711525,0.194745 -0.736579,0.194745 -0.05512,0 -0.08017,-0.04328 -0.591267,-0.952087 -0.91195,-1.627244 -2.214742,-2.955836 -3.923405,-3.994476 -1.202577,-0.731375 -2.881175,-1.37619697 -4.078742,-1.57094197 -0.496063,-0.08223 -3.552615,-0.121175 -4.379387,-0.06059 z"
     style="fill:#99cc33;fill-opacity:1;stroke:#000000;stroke-width:1.33621871;stroke-miterlimit:4;stroke-dasharray:none;stroke-opacity:1" />
  <g
     transform="translate(-11.238205,-10.728601)"
     id="g1084">
    <g
       transform="matrix(0.396875,0,0,0.396875,50.15542,18.740983)"
       id="g4340">
      <path
         style="opacity:1;fill:#baa794"
         d="m 64,0 -12,4 -4,4 -8,4 -8,8 h -8 l -8,4 -4,4 -12,4 12,4 4,4 8,4 8,8 h 8 l 8,4 4,4 12,4 12,-4 4,-4 8,-4 h 8 l 8,-8 8,-4 4,-4 12,-4 -12,-4 -4,-4 -8,-4 H 96 L 88,12 80,8 76,4 Z"
         id="path4293" />
      <path
         style="opacity:0.11000001"
         d="m 64,0 12,4 4,4 8,4 8,8 h 8 l 8,4 4,4 12,4 -12,4 -4,4 -8,4 -8,8 -8,-8 -8,-4 -4,-4 -12,-4 z"
         id="path4295" />
      <path
         style="opacity:0.28999999"
         d="m 64,0 v 32 l -12,4 -4,4 -8,4 -8,8 -8,-8 -8,-4 -4,-4 -12,-4 12,-4 4,-4 8,-4 h 8 l 8,-8 8,-4 4,-4 z"
         id="path4297" />
      <path
         style="opacity:0.1;fill:#ffffff"
         d="m 16,24 8,-4 v 24 l -8,-4 z"
         id="path4299" />
      <path
         style="opacity:0.1;fill:#ffffff"
         d="m 48,8 4,-4 v 32 l -4,4 z"
         id="path4301" />
      <path
         style="opacity:0.1"
         d="M 52,4 64,0 v 32 l -12,4 z"
         id="path4303" />
      <path
         style="opacity:0.15"
         d="m 40,12 -8,8 v 32 l 8,-8 z"
         id="path4305" />
      <path
         style="opacity:0.1"
         d="M 12,36 0,32 12,28 Z"
         id="path4307" />
      <path
         style="opacity:0.1;fill:#ffffff"
         d="m 112,24 -8,-4 v 24 l 8,-4 z"
         id="path4309" />
      <path
         style="opacity:0.1;fill:#ffffff"
         d="M 80,8 76,4 v 32 l 4,4 z"
         id="path4311" />
      <path
         style="opacity:0.1"
         d="M 76,4 64,0 v 32 l 12,4 z"
         id="path4313" />
      <path
         style="opacity:0.15"
         d="m 88,12 8,8 v 32 l -8,-8 z"
         id="path4315" />
      <path
         style="opacity:0.1"
         d="m 116,36 12,-4 -12,-4 z"
         id="path4317" />
    </g>
    <g
       id="g4594"
       transform="matrix(0.13229166,0,0,0.13229166,70.052087,15.936408)">
      <path
         id="path4551"
         d="m 65.1,234.6 c 15.7,-7.7 6,-16.3 -10.9,-21.1 -15,-4.3 -26.2,-22.2 -43.2,-11.4 -13.8,8.7 4.9,17.9 18.3,22.6 19.1,6.9 22.8,16.2 35.8,9.9 z"
         style="opacity:0.2" />
      <path
         id="path4553"
         d="m 16.3,216.7 c 2.8,1.1 5.8,-0.2 9,-2.6 3.2,-2.4 6.2,-4.1 6.1,-6.9 -0.1,-2.8 -2.3,-3.7 -7.4,-2 -5.1,1.7 -11.1,10.2 -7.7,11.5 z"
         style="fill:#262626" />
      <path
         id="path4555"
         d="m 16.9,215.9 c 2.6,1 9.8,-4.1 11.7,-5.8 1.9,-1.7 3.1,-2.8 2.5,-4.3 -0.6,-1.7 -2.5,-2.9 -8.5,-0.8 -6,2.1 -9.8,9.3 -5.7,10.9 z"
         style="fill:#ffffff" />
      <path
         id="path4557"
         d="m 29,123 c 0,0 -3.9,6.7 -4.3,16.4 -0.4,9.6 0.1,23 -0.9,26 -1,3 -7.1,13.5 -8.7,24.8 -1.6,11.3 -2.2,25.2 0.4,26.5 2.6,1.3 6.8,-1 8.2,-1.9 2.7,-1.8 3.8,-4.5 4.1,-6.6 0.3,-2.1 -1.9,-3.7 -0.8,-11 1,-7.3 5.3,-17.3 8,-23.7 2.7,-6.5 6.2,-20.1 7.4,-23.6 1.2,-3.5 3.2,-24.7 3.2,-24.7 z"
         style="fill:#cc291f" />
      <path
         id="path4559"
         d="m 29,123 c 0,0 -3.9,6.7 -4.3,16.4 -0.4,9.6 0.1,23 -0.9,26 -1,3 -7.1,13.5 -8.7,24.8 -1.6,11.3 -2.2,25.2 0.4,26.5 2.6,1.3 6.8,-1 8.2,-1.9 2.7,-1.8 3.8,-4.5 4.1,-6.6 0.3,-2.1 -1.9,-3.7 -0.8,-11 1,-7.3 5.3,-17.3 8,-23.7 2.7,-6.5 6.2,-20.1 7.4,-23.6 1.2,-3.5 3.2,-24.7 3.2,-24.7 z"
         style="opacity:0.2" />
      <path
         id="path4561"
         d="m 46.1,229.4 c -0.2,1.6 0.5,2 3.4,2 2.9,0 10.8,-1 13.1,-1.7 2.3,-0.7 3.4,-2.3 3.3,-4.4 0,-1.9 -18.7,-6 -19.8,4.1 z"
         style="fill:#262626" />
      <path
         id="path4563"
         d="m 46.6,229.6 c 2,1.1 7.6,-0.5 9.8,-0.5 2.2,0 5.8,-0.2 7.6,-1.2 1.8,-1 2.7,-2.8 0.9,-4.3 -1.8,-1.5 -9.3,-2.2 -12.1,-2.2 -2.8,0 -11.6,5 -6.2,8.2 z"
         style="fill:#ffffff" />
      <path
         id="path4565"
         d="m 58.2,126.5 c 0,0 5.2,6.9 4.3,20.6 -0.9,13.7 -5.3,30.1 -5.7,43.2 -0.4,13.1 2.6,31.5 2.5,32.7 -0.1,1.2 0,5.2 -7.1,6.4 -7.1,1.2 -7.3,0 -7.8,-0.4 -0.5,-0.4 0.8,-13.5 0.2,-22.3 -0.6,-8.8 -0.4,-21 0.4,-28.3 0.8,-7.3 -0.9,-19.2 -2.5,-24.9 -0.9,-3.1 -1.9,-9.4 -2.3,-9.9 -0.7,-0.8 -3.6,-2.7 -4.7,-6.2 -1.7,-5.3 -1,-10 2.6,-15.7 3.7,-5.7 20.1,4.8 20.1,4.8 z"
         style="fill:#cc291f" />
      <path
         id="path4567"
         d="m 30.7,71.5 c 0,0 -0.9,-6.6 -3.6,-13.9 C 24.4,50.3 22,46.5 22,44.8 22,43 20.4,32.6 19.6,28.4 c -0.9,-4.3 -0.9,-5.9 -0.4,-7.1 0.5,-1.2 1.9,-1.7 2.2,-3.5 0.3,-1.8 0.3,-3 0.7,-3.9 0.5,-0.8 0.8,-0.6 0.2,-1 -0.6,-0.4 -1.7,0.2 -2,1 -0.3,0.8 -0.3,2.3 -0.7,2.5 -0.5,0.1 -0.7,-1.4 -0.9,-3 -0.2,-1.6 0.7,-7 -0.2,-7.2 -1.1,-0.2 -1.1,2.7 -1.3,4.1 -0.2,1.1 -0.4,3.4 -0.4,3.4 0,0 -1,-2.2 -1.5,-4.1 C 14.8,7.7 14.6,5.7 13.7,6 c -0.9,0.2 0,3.3 0.3,4.5 0.3,1.2 0.7,3.6 0.7,3.6 0,0 -1.4,-2.8 -2.1,-4.3 C 12,8.3 11.6,7 10.8,7.3 c -0.7,0.3 0.5,2.9 1,4.2 0.5,1.3 1,3.3 1,3.3 0,0 -1,-1.3 -1.6,-2.6 -0.6,-1.3 -1,-3.1 -1.8,-2.8 -0.7,0.4 0.5,2.6 1,3.8 0.5,1.2 0.8,2.7 1.4,3.8 0.6,1.1 2.1,4.2 2.2,5.2 0.1,1 0.5,7.7 0.6,12.1 0.1,4.4 -0.3,10.6 0,11.7 0.3,1.1 2.8,6.7 3.9,13.2 1.1,6.5 1.2,12.6 2.3,15.7 1.2,3.2 9.9,-3.4 9.9,-3.4 z"
         style="fill:#fbd7c7" />
      <path
         id="path4569"
         d="m 30.2,67.2 c 0,0 -2.8,1.4 -5.4,2.1 -2.6,0.7 -5.2,0.7 -5.5,1.6 -0.3,0.8 3.6,14.4 5.5,19.9 1.8,5.5 7,19 6.9,22 -0.1,3 -2.1,6.2 -2.9,9 -0.8,2.8 -1.5,4.7 -1.5,4.7 0,0 6,0.5 11.6,0.9 5.6,0.4 11.3,-0.3 15.4,0.1 3.7,0.4 5.7,1.8 5.7,1.8 0,0 -2.1,-8 -2.5,-13.4 C 57.1,110.4 56.6,98 57,97.2 c 0.4,-0.8 3.1,-2.3 3,-6.1 -0.1,-3.8 -2.1,-3.5 -2.2,-4.6 -0.1,-1.1 0.5,-2.8 -0.8,-4 -2,-1.9 -5.7,-5 -9,-6.4 -3.4,-1.7 -17.8,-8.9 -17.8,-8.9 z"
         style="fill:#ffcc00" />
      <path
         id="path4571"
         d="m 44.6,45.6 c -5.8,-0.1 -11.3,0.7 -13.9,10 -1,3.4 -1.5,6.8 -2.9,9.9 -2.7,5.8 -6.8,9.2 -3.1,13.6 4.5,5.3 15.4,7.9 18.6,4.9 3.2,-3 3,-7.1 5,-7.7 2,-0.6 4.9,1.6 6,-0.5 1.1,-2.1 -0.4,-4.7 -0.5,-8.6 -0.2,-4 5.4,-21.4 -9.2,-21.6 z"
         style="fill:#825012" />
      <path
         id="path4573"
         d="m 47.1,78.4 c -0.1,1.7 0.3,3.2 2.6,5.4 2.3,2.2 4.5,5.9 5.4,5.6 0.9,-0.3 2.1,-3.3 3.1,-6.7 1,-3.4 2.7,-6.9 2.7,-10.1 0,-3.2 -0.2,-3.2 0.6,-6.3 0.8,-3.1 1.9,-6.5 2,-11.1 0.1,-4.6 0,-8.1 0,-8.1 0,0 2.1,-2.4 2.9,-4.4 0.7,-2 0.5,-2.3 0.8,-2.7 0.3,-0.4 2.7,-2.2 1.9,-3.3 -0.7,-1.1 -2.7,1.1 -2.7,1.1 0,0 0.5,-3.8 0.5,-5.3 0,-1.4 0.5,-4.3 -1,-4 -1.5,0.3 -0.4,2.9 -1.4,5.7 -1,2.8 -3.6,7.8 -4.2,9 -0.6,1.2 -0.2,3 -1.5,6.9 -1.3,3.9 -3.4,8.2 -4.1,12 -0.7,3.9 -0.6,6.7 -1.2,7.9 -1.7,3.8 -6.3,7.7 -6.4,8.4 z"
         style="fill:#fbd7c7" />
    </g>
    <path
       style="fill:#99cc33;fill-opacity:1;stroke-width:0.09772728"
       mask="none"
       clip-path="none"
       d="m 47.381519,31.763507 c 5.077558,7.119155 16.425423,11.916705 21.75394,16.196628 13.630934,0.05368 5.046291,0.03172 12.157355,-1e-6 5.590072,-6.004121 15.476859,-11.739003 21.619156,-16.520106 h -1.95958 l 0.003,10e-4 -4.762497,1.5875 -1.587501,1.5875 -3.175,1.5875 -3.175,3.175 h -3.175 l -3.174999,1.5875 -1.587501,1.5875 -4.762499,1.5875 -4.7625,-1.5875 -1.5875,-1.5875 -3.175,-1.5875 h -3.175 l -3.175,-3.175 -3.175,-1.5875 -1.5875,-1.5875 -4.7625,-1.5875 0.0031,-10e-4 z"
       id="rect4530-3" />
  </g>
</svg>
