<?xml version="1.0" encoding="UTF-8" standalone="no"?>
<svg
   xmlns:dc="http://purl.org/dc/elements/1.1/"
   xmlns:cc="http://creativecommons.org/ns#"
   xmlns:rdf="http://www.w3.org/1999/02/22-rdf-syntax-ns#"
   xmlns:svg="http://www.w3.org/2000/svg"
   xmlns="http://www.w3.org/2000/svg"
   id="svg1124"
   version="1.1"
   viewBox="0 0 40.089909 42.703808"
   height="42.703808mm"
   width="40.089909mm">
  <defs
     id="defs1118" />
  <metadata
     id="metadata1121">
    <rdf:RDF>
      <cc:Work
         rdf:about="">
        <dc:format>image/svg+xml</dc:format>
        <dc:type
           rdf:resource="http://purl.org/dc/dcmitype/StillImage" />
        <dc:title></dc:title>
      </cc:Work>
    </rdf:RDF>
  </metadata>
  <g
     transform="translate(-52.223561,-100.80342)"
     id="layer1">
    <g
       transform="matrix(0.26458333,0,0,0.26458333,52.226691,103.27463)"
       id="g1693">
	<path
   style="opacity:0.2"
   d="m 54.4,127.4 c 9.1,5.9 23.5,12.9 10.6,19.8 C 51.3,154.5 33.1,145.9 26.3,138 17.2,127.5 6.9,124 2.4,122.8 c -3.7,-1 -3.8,-3.1 4.4,-1.8 1.4,0.2 11.6,1.5 21.6,2.9 10.2,1.4 23.2,1.7 26,3.5 z"
   id="path1669" />

	<path
   style="fill:#999999"
   d="m 46.3,127.9 c 0,0 0.8,2.9 2.8,4.1 2,1.2 6.1,3.4 6.5,4.3 0.4,0.9 1.4,3 3.5,2.6 2.1,-0.4 4.8,-2.2 4.1,-3.5 -0.7,-1.3 -1.7,-0.9 -3.8,-1.4 -2.1,-0.5 -5.2,-2.4 -6,-3.7 -0.9,-1.3 -1.7,-4 -1.7,-4 z"
   id="path1671" />

	<path
   style="opacity:0.2"
   d="m 46.3,127.9 c 0,0 0.8,2.9 2.8,4.1 2,1.2 6.1,3.4 6.5,4.3 0.4,0.9 1.4,3 3.5,2.6 2.1,-0.4 4.8,-2.2 4.1,-3.5 -0.7,-1.3 -1.7,-0.9 -3.8,-1.4 -2.1,-0.5 -5.2,-2.4 -6,-3.7 -0.9,-1.3 -1.7,-4 -1.7,-4 z"
   id="path1673" />

	<path
   style="fill:#999999"
   d="m 19.4,120.4 c 0,0 -8.5,-1.5 -12,-8.3 C 4,105.3 5.4,99.8 4.5,98.2 3.6,96.6 1.4,97 0.9,98.8 c -0.5,1.8 -1.2,13.5 4.9,19.8 6.3,6.3 13.8,7.8 13.8,7.8 0,0 1.8,6.3 5.5,8 3.7,1.7 5.1,0.5 5.1,0.5 0,0 -0.9,2 -0.2,3.1 0.7,1 8.4,3.1 9.5,4 1.1,1 2.1,3.8 4.9,2.8 2.8,-1 3.7,-2.1 3,-3.4 -0.7,-1.3 -2.6,-1.8 -4,-1.9 -1.4,-0.1 -6.5,-2.5 -6.5,-2.5 0,0 2.2,-2.1 2.7,-3.7 0.5,-1.6 0.3,-2.7 0.3,-2.7 l 6.9,-2.6 c 0,0 1.2,5.4 1.5,9.2 0.3,3.8 0.5,5.6 0.9,7.4 0.4,1.9 0.2,4.3 3.3,4 3.1,-0.3 4.3,-1.1 3.9,-2.3 -0.4,-1.2 -2.4,-2.4 -2.8,-4.6 -0.4,-2.1 0.1,-12.9 0.4,-14 0.2,-1.1 2.5,-7.1 2.5,-7.1 l 2.5,-0.5 c 0,0 1.1,7.8 1.5,11.3 0.4,3.5 0.7,9.2 0.7,10.4 0,1.2 0.7,2.6 2.2,2.7 1.5,0.2 4.6,-0.8 4.5,-2.1 -0.1,-1.3 -2.3,-3.1 -2.5,-4.6 -0.2,-1.5 -0.5,-14.8 0.9,-19.4 1.4,-4.6 2.4,-7.1 2.4,-7.1 L 60,91.5 c 0,0 -3.5,0.8 -7.9,0.7 -4.5,-0.1 -17.8,-0.1 -25.4,9.5 -7.8,9.7 -7.3,18.7 -7.3,18.7 z"
   id="path1675" />

	<path
   style="fill:#e5e5e5"
   d="m 56.3,120.7 c 0,0 2.5,-2.1 2.7,-4.9 0.2,-2.8 1.8,-5.1 3.2,-6 1.4,-1 6.2,-3.4 6.2,-3.4 0,0 1.3,4.3 -0.5,7.3 -1.8,3 -4.8,5.4 -7.3,6.2 -2.5,0.8 -4.3,0.8 -4.3,0.8 z"
   id="path1677" />

	<path
   style="opacity:0.2"
   d="m 46.8,128 c 0,0 -0.7,-3.1 -1,-5.4 -0.2,-2.4 -0.9,-6 -0.9,-6 0,0 -0.9,2.1 -2.8,3 -1.9,0.9 -3.7,1.3 -5.3,0.6 -1.6,-0.7 -5.4,-2.7 -5.4,-2.7 0,0 5.7,3.8 6.8,6.9 1.2,3.1 1.6,6.3 1.6,6.3 z"
   id="path1679" />

	<path
   style="fill:#999999"
   d="m 58.2,96 c 0,0 -0.5,2.8 0.7,5.7 1.3,2.9 4,5.2 5.4,6.9 1.3,1.6 2.8,3.2 5.8,2.9 3,-0.4 3.2,-1.9 4.1,-3.1 0.9,-1.2 4.1,-5.7 4.6,-8.7 0.5,-3.1 0.1,-5.3 0.1,-5.3 0,0 2.1,-7.3 0.5,-8.2 -1.6,-0.9 -3.2,2.7 -5.1,2.9 -2,0.2 -2.9,-0.3 -5.1,-0.2 -2.2,0.1 -5.7,1 -5.7,1 0,0 -3.3,-3.4 -5.3,-2.7 -2.4,0.9 0,8.8 0,8.8 z"
   id="path1681" />

	<path
   style="fill:#2d3134"
   d="m 69.7,110.5 c -0.6,0 -1.7,-1 -1.6,-1.5 0.1,-0.5 2.9,-0.5 3.1,0.1 0.2,0.5 -0.9,1.4 -1.5,1.4 z"
   id="path1683" />

	<path
   style="fill:#2d3134"
   d="m 72,104.4 c 0,0 0.3,-1.8 1.8,-2.4 1.5,-0.6 2.1,-0.3 2.1,-0.3 0,0 -0.3,1.7 -1.5,2.3 -1.1,0.6 -2.4,0.4 -2.4,0.4 z"
   id="path1685" />

	<path
   style="fill:#2d3134"
   d="m 67.3,104.4 c 0,0 -0.6,-1.8 -2,-2.3 -1.4,-0.5 -2.4,0 -2.4,0 0,0 0.2,1.5 1.4,2 1.2,0.5 3,0.3 3,0.3 z"
   id="path1687" />

	<path
   style="opacity:0.2"
   d="m 72.9,93.3 c 0,0 4.8,-7.5 6.4,-6.9 1.2,0.4 -0.4,8 -0.4,8 0,0 -1.3,-1.2 -3,-1.5 -1.6,-0.3 -3,0.4 -3,0.4 z"
   id="path1689" />

	<path
   style="opacity:0.2"
   d="m 65.2,93.2 c 0,0 -5.3,-6.3 -6.9,-5.8 -2.2,0.7 -0.1,8.6 -0.1,8.6 0,0 1.6,-2.1 2.9,-2.6 1.3,-0.5 4.1,-0.2 4.1,-0.2 z"
   id="path1691" />

</g>
    <g
       transform="matrix(0.26458333,0,0,0.26458333,76.394373,122.7957)"
       id="g1735">
	<path
   style="opacity:0.2"
   d="m 24.5,61.8 c -6.5,4 -6.9,8.7 1.4,13.2 9.2,4.9 14.6,3.9 21.7,-0.3 6.2,-3.6 4.8,-8.5 -5.7,-12.8 C 33.5,58.6 29.1,59 24.5,61.8 Z"
   id="path1715" />

	<path
   style="fill:#baa794"
   d="m 39.7,61.7 c -0.1,1.1 -1.5,7.6 -2.3,8.7 -0.8,1.1 -5.8,4.2 -5.8,4.2 l 5.2,-1.7 1.2,3.1 0.7,-3.4 4.1,-1.8 -3.4,-0.3 c 0,0 1.5,-4.9 1.9,-6.2 0.4,-1.3 0.6,-2.5 0.6,-2.5 z"
   id="path1717" />

	<path
   style="fill:#baa794"
   d="m 32.6,58.1 c 0,0 -1.7,7.3 -2.1,8.1 -0.4,0.9 -6.1,3.6 -6.1,3.6 l 5,-1.4 0.7,3 1.3,-3 4.1,-1.3 -3,-0.6 c 0,0 1.4,-5.4 1.8,-6.8 0.4,-1.4 0.2,-1.9 0.2,-1.9 z"
   id="path1719" />

	<path
   style="fill:#825012"
   d="m 25.5,25.8 c 3.9,-2.7 11.7,-4.7 16.2,-4.3 4.5,0.4 12.4,2.8 13.5,4.6 1.1,1.9 7.9,16.1 0.4,25.6 -4.5,5.7 -9.1,5.7 -9.1,5.7 0,0 -1.3,4.9 -5.3,4.9 -3.6,0 -5.8,-3.6 -5.8,-3.6 0,0 -1.5,0.3 -3.3,-0.1 -1.9,-0.4 -3.3,-2.5 -3.3,-2.5 0,0 -8.9,-0.6 -10.8,-10.4 -2.1,-11 2.9,-16.7 7.5,-19.9 z"
   id="path1721" />

	<path
   style="fill:#762c07"
   d="M 41.4,22.3 C 41,21.6 43.4,16.5 45.2,11.2 47,5.6 47.4,1.6 49,1.4 c 1.6,-0.2 1.9,1.5 1.9,1.5 0,0 0.5,-2.2 2.1,-1.9 1.6,0.3 1.3,2.5 1.3,2.5 0,0 0.6,-1.1 1.9,-0.3 1.3,0.7 0.5,3.2 0.5,3.2 0,0 0.9,-1.1 2,-0.4 1.6,0.9 1.7,8.8 1.2,13.7 -0.7,7.2 -2.2,12.3 -2.2,12.3 0,0 -3.7,-6.2 -7.8,-7 -4.1,-0.8 -7.6,-0.9 -8.5,-2.7 z"
   id="path1723" />

	<path
   style="fill:#762c07"
   d="m 20.2,16.9 c 0.6,-1 2.7,-3.4 5.3,-2.3 2.6,1.1 4.6,4.2 6.4,7.7 1.8,3.5 2.1,5.4 4,6.9 1.1,0.9 5.2,2.6 5.2,2.6 l -6.4,0.6 0.2,4.1 -5,-2.1 -1.5,5.2 -3.5,-4.4 -4.1,4.2 -0.1,-4.4 -3.5,1.6 c 0,0 1.2,-1.8 1.9,-3.3 3.5,-7.7 -0.8,-13.5 1.1,-16.4 z"
   id="path1725" />

	<path
   style="fill:#baa794"
   d="m 17.8,18.3 c -1.3,0.6 -1.8,4.9 -1.8,4.9 0,0 2,-1.4 3.4,-1.8 1.5,-0.4 -0.5,-3.6 -1.6,-3.1 z"
   id="path1727" />

	<path
   style="fill:#cc291f"
   d="m 19.6,18 c 1.1,0 0.9,-1.3 2.7,-2.8 1.5,-1.3 2.6,-1.8 2.6,-2.6 0,-1.4 -2.5,-2 -2.7,-0.7 -0.1,0.7 -1.1,-0.5 -2,0.3 -0.8,0.6 -0.3,1.5 -0.5,1.8 -0.1,0.3 -1.4,0.2 -1.9,1 -0.4,0.8 -0.1,3 1.8,3 z"
   id="path1729" />

	<path
   style="fill:#cc291f"
   d="m 19.9,20.5 c -1.3,0.4 -2.2,2.7 -0.5,3.7 1.9,1.2 3,-2.8 3,-2.8 0,0 3.4,-2.1 3,-3.2 C 25,17.1 20.5,18 20.5,18 c 0,0 -1.8,-0.4 -2.7,0.3 -0.9,0.7 -0.9,1.1 -0.9,1.1 0,0 1.2,-0.3 2.2,0.2 1,0.5 0.8,0.9 0.8,0.9 z"
   id="path1731" />

	<path
   style="fill:#2d3134"
   d="m 23.3,18.2 c 0.6,-0.2 1.1,0.9 0.3,1.1 -0.7,0.3 -1.1,-0.8 -0.3,-1.1 z"
   id="path1733" />

</g>
    <polygon
       style="fill:#cc291f"
       transform="matrix(0.26458333,0,0,0.26458333,79.598634,100.80342)"
       points="16,0 16,40 0,40 24,64 48,40 32,40 32,0 "
       id="polygon1755" />
  </g>
</svg>
