<?xml version="1.0" encoding="UTF-8" standalone="no"?>
<svg
   xmlns:dc="http://purl.org/dc/elements/1.1/"
   xmlns:cc="http://creativecommons.org/ns#"
   xmlns:rdf="http://www.w3.org/1999/02/22-rdf-syntax-ns#"
   xmlns:svg="http://www.w3.org/2000/svg"
   xmlns="http://www.w3.org/2000/svg"
   id="svg1032"
   version="1.1"
   viewBox="0 0 73.550797 90.500801"
   height="90.500801mm"
   width="73.550797mm">
  <defs
     id="defs1026" />
  <metadata
     id="metadata1029">
    <rdf:RDF>
      <cc:Work
         rdf:about="">
        <dc:format>image/svg+xml</dc:format>
        <dc:type
           rdf:resource="http://purl.org/dc/dcmitype/StillImage" />
        <dc:title></dc:title>
      </cc:Work>
    </rdf:RDF>
  </metadata>
  <g
     transform="translate(-69.508009,-104.57493)"
     id="layer1">
    <g
       transform="matrix(0.26458333,0,0,0.26458333,100.72547,120.59819)"
       id="g1678">
      <path
         style="fill:#e5e5e5"
         d="m 0,80 v 120 l 80,40 80,-40 V 80 Z"
         id="path1577" />
      <path
         style="fill:#999999"
         d="m 0,80 v 6 l 78,39 v 12 l 2,1 80,-40 V 80 L 80,40 Z"
         id="path1579" />
      <path
         style="fill:#cc291f"
         d="m 80,138 -2,-1 v 102 l 2,1 80,-40 V 98 Z"
         id="path1581" />
      <path
         style="fill:#2d3134"
         d="m 94,117 v 10 l 24,-12 v -10 z"
         id="path1583" />
      <path
         style="opacity:0.11000001"
         d="M 80,240 0,200 V 80 l 80,40 z"
         id="path1585" />
      <path
         style="opacity:0.2"
         d="m 80,240 80,-40 v -4 l -80,40 -4,-2 v 4 z"
         id="path1587" />
      <path
         style="fill:#3399cc"
         d="m 96,118 v 6 l 20,-10 v -6 z"
         id="path1589" />
      <path
         style="opacity:0.2"
         d="m 80,138 -2,-1 v 2 l 2,1 4,-2 v 6 l 24,-12 v -6 l 52,-26 v -2 z"
         id="path1591" />
      <path
         style="opacity:0.2"
         d="m 86,135 v 6 l 20,-10 v -6 z"
         id="path1593" />
      <path
         style="opacity:0.28999999"
         d="m 80,120 v 120 l 80,-40 V 80 Z"
         id="path1595" />
      <g
         style="fill:#2d3134"
         id="g1615">
        <path
           d="m 123,110.3 c 0,0.8 0.6,1.1 1.4,0.7 0.8,-0.4 1.4,-1.3 1.4,-2.1 0,-0.8 -0.6,-1.1 -1.4,-0.7 -0.8,0.4 -1.4,1.3 -1.4,2.1 z"
           id="path1597" />
        <path
           d="m 129,107.3 c 0,0.8 0.6,1.1 1.4,0.7 0.8,-0.4 1.4,-1.3 1.4,-2.1 0,-0.8 -0.6,-1.1 -1.4,-0.7 -0.8,0.4 -1.4,1.3 -1.4,2.1 z"
           id="path1599" />
        <path
           d="m 135,104.3 c 0,0.8 0.6,1.1 1.4,0.7 0.8,-0.4 1.4,-1.3 1.4,-2.1 0,-0.8 -0.6,-1.1 -1.4,-0.7 -0.8,0.4 -1.4,1.3 -1.4,2.1 z"
           id="path1601" />
        <path
           d="m 141,101.3 c 0,0.8 0.6,1.1 1.4,0.7 0.8,-0.4 1.4,-1.3 1.4,-2.1 0,-0.8 -0.6,-1.1 -1.4,-0.7 -0.8,0.4 -1.4,1.3 -1.4,2.1 z"
           id="path1603" />
        <path
           d="m 123,106.1 c 0,0.8 0.6,1.1 1.4,0.7 0.8,-0.4 1.4,-1.3 1.4,-2.1 0,-0.8 -0.6,-1.1 -1.4,-0.7 -0.8,0.4 -1.4,1.4 -1.4,2.1 z"
           id="path1605" />
        <path
           d="m 129,103.1 c 0,0.8 0.6,1.1 1.4,0.7 0.8,-0.4 1.4,-1.3 1.4,-2.1 0,-0.8 -0.6,-1.1 -1.4,-0.7 -0.8,0.4 -1.4,1.4 -1.4,2.1 z"
           id="path1607" />
        <path
           d="m 135,100.1 c 0,0.8 0.6,1.1 1.4,0.7 0.8,-0.4 1.4,-1.3 1.4,-2.1 0,-0.8 -0.6,-1.1 -1.4,-0.7 -0.8,0.4 -1.4,1.4 -1.4,2.1 z"
           id="path1609" />
        <path
           d="m 141,97.1 c 0,0.8 0.6,1.1 1.4,0.7 0.8,-0.4 1.4,-1.3 1.4,-2.1 0,-0.8 -0.6,-1.1 -1.4,-0.7 -0.8,0.4 -1.4,1.4 -1.4,2.1 z"
           id="path1611" />
        <path
           d="m 151.1,90.4 c 0.8,-0.4 1.6,-0.5 2.2,-0.2 l 1.6,0.8 c 0.6,0.3 1,0.9 1,1.8 0,1.7 -1.4,3.8 -3.1,4.7 -0.9,0.4 -1.6,0.5 -2.2,0.2 0,0 -1.6,-0.8 -1.7,-0.8 -0.5,-0.3 -0.8,-0.9 -0.8,-1.7 -0.1,-1.9 1.3,-4 3,-4.8 z"
           id="path1613" />
      </g>
      <path
         style="opacity:0.11000001"
         d="m 150.5,97.6 c -0.2,-0.1 -1.5,-0.8 -1.6,-0.8 -0.5,-0.3 -0.8,-0.9 -0.8,-1.7 0,-0.7 0.2,-1.5 0.6,-2.2 l 1.6,0.8 c -0.4,0.7 -0.6,1.5 -0.6,2.2 -0.1,0.8 0.2,1.4 0.8,1.7 z"
         id="path1617" />
      <path
         style="opacity:0.28999999"
         d="m 149.6,95.9 c 0,1.7 1.4,2.4 3.1,1.6 1.7,-0.9 3.1,-3 3.1,-4.7 0,-1.7 -1.4,-2.4 -3.1,-1.6 -1.7,0.8 -3.1,2.9 -3.1,4.7 z"
         id="path1619" />
      <path
         style="opacity:0.1"
         d="m 93.8,185.9 c 0,16.4 13.3,23 29.6,14.8 16.3,-8.2 29.6,-28.1 29.6,-44.4 0,-16.3 -13.3,-23 -29.6,-14.8 -16.4,8.2 -29.6,28.1 -29.6,44.4 z"
         id="path1621" />
      <path
         style="fill:#e5e5e5"
         d="m 120.3,139.5 c 7.9,-3.9 15,-4.4 20.3,-2 l 2.1,1.1 c 5.7,2.5 9.3,8.4 9.3,16.8 0,16.4 -13.3,36.2 -29.6,44.4 -8.1,4 -15.4,4.5 -20.8,1.9 0,0 -2,-1 -3.2,-1.7 -4.8,-2.9 -7.7,-8.4 -7.7,-16 0,-16.5 13.3,-36.3 29.6,-44.5 z"
         id="path1623" />
      <path
         style="opacity:0.11000001"
         d="m 101.3,201.5 c -2.1,-1 -1.8,-0.9 -2.9,-1.6 -4.8,-2.9 -7.7,-8.4 -7.7,-16 0,-6.6 2.2,-13.7 5.8,-20.4 l 2.1,1.1 c -3.6,6.7 -5.8,13.9 -5.8,20.4 0,8.1 3.2,13.8 8.5,16.5 z"
         id="path1625" />
      <path
         style="opacity:0.28999999"
         d="m 92.8,185 c 0,16.4 13.3,23 29.6,14.8 16.4,-8.2 29.6,-28.1 29.6,-44.4 0,-16.3 -13.3,-23 -29.6,-14.8 -16.3,8.2 -29.6,28 -29.6,44.4 z"
         id="path1627" />
      <path
         style="fill:#3399cc"
         d="m 138,162.3 c 0,-3.5 0.8,-7.3 2.3,-10.9 0.7,-1.7 0.1,-3.7 -1.5,-4.6 -4.1,-2.4 -9.9,-2.2 -16.4,1 C 110,154 100,169 100,181.3 c 0,12.3 10,17.3 22.4,11.2 7.3,-3.7 13.8,-10.4 17.9,-17.9 0.6,-1.2 0.6,-2.6 -0.1,-3.8 -1.4,-2.2 -2.2,-5 -2.2,-8.5 z"
         id="path1629" />
      <path
         style="opacity:0.28999999"
         d="m 138,162.3 c 0,-3.5 0.8,-7.3 2.3,-10.9 0.7,-1.7 0.1,-3.7 -1.5,-4.6 -4.1,-2.4 -9.9,-2.2 -16.4,1 C 110,154 100,169 100,181.3 c 0,12.3 10,17.3 22.4,11.2 7.3,-3.7 13.8,-10.4 17.9,-17.9 0.6,-1.2 0.6,-2.6 -0.1,-3.8 -1.4,-2.2 -2.2,-5 -2.2,-8.5 z"
         id="path1631" />
      <path
         style="opacity:0.2"
         d="m 140.2,170.8 c -1.4,-2.2 -2.1,-5.1 -2.1,-8.5 0,-3.5 0.8,-7.3 2.3,-10.9 0.7,-1.7 0.1,-3.7 -1.5,-4.6 -1.4,-0.8 -2.9,-1.3 -4.6,-1.5 0.5,0.9 0.5,2.1 0.1,3.1 -1.4,3.7 -2.3,7.4 -2.3,10.9 0,3.4 0.8,6.3 2.1,8.5 0.7,1.1 0.8,2.6 0.1,3.8 -4.1,7.5 -10.6,14.3 -17.9,17.9 -4.6,2.3 -8.9,3.1 -12.5,2.4 4,3.9 10.8,4.4 18.5,0.6 7.3,-3.7 13.8,-10.4 17.9,-17.9 0.6,-1.2 0.6,-2.6 -0.1,-3.8 z"
         id="path1633" />
      <path
         style="opacity:0.2;fill:#ffffff"
         d="m 108,177.6 c 0,-8.7 5.2,-18.8 12.6,-25.9 -9.7,4.9 -17.6,16.7 -17.6,26.4 0,2.5 0.5,4.5 1.4,6.2 1.3,2.4 5,0.8 4.2,-1.8 -0.4,-1.4 -0.6,-3.1 -0.6,-4.9 z"
         id="path1635" />
      <path
         style="opacity:0.2"
         d="m 78,125 -2,-1 v 110 l 2,1 z"
         id="path1637" />
    </g>
    <g
       transform="matrix(0.26458333,0,0,0.26458333,106.01716,117.68777)"
       id="g1833">
      <path
         style="fill:#e5e5e5"
         d="m 0,40 v 40 l 40,20 60,-30 V 30 L 60,10 Z"
         id="path1774" />
      <path
         style="fill:#2d3134"
         d="M 44,94 82,75 V 43 L 44,62 Z"
         id="path1776" />
      <path
         style="fill:#3399cc"
         d="M 48,88 78,73 V 49 L 48,64 Z"
         id="path1778" />
      <path
         style="opacity:0.11000001"
         d="M 40,100 0,80 V 40 l 40,20 z"
         id="path1780" />
      <path
         style="fill:#2d3134"
         d="m 100,41 v -7 l -12,6 v 7 z"
         id="path1782" />
      <path
         style="fill:#3399cc"
         d="m 98,40 v -3 l -8,4 v 3 z"
         id="path1784" />
      <path
         style="opacity:0.28999999"
         d="m 40,60 v 40 L 100,70 V 30 Z"
         id="path1786" />
      <path
         style="opacity:0.2"
         d="m 36,58 v 40 l 2,1 V 59 L 98,29 96,28 Z"
         id="path1788" />
      <path
         style="opacity:0.2"
         d="m 88,36 v 40 l -2,1 V 37 l -2,-1 2,-1 z"
         id="path1790" />
      <path
         style="fill:#656565"
         d="m 93.3,57.6 c 0.8,-0.4 1.6,-0.5 2.2,-0.2 l 1.6,0.8 c 0.6,0.3 1,0.9 1,1.8 0,1.7 -1.4,3.8 -3.1,4.7 -0.9,0.4 -1.6,0.5 -2.2,0.2 0,0 -1.6,-0.8 -1.7,-0.8 -0.5,-0.3 -0.8,-0.9 -0.8,-1.7 -0.1,-1.8 1.3,-4 3,-4.8 z"
         id="path1792" />
      <path
         style="opacity:0.11000001"
         d="M 92.6,64.8 C 92.4,64.7 91.1,64 91,64 c -0.5,-0.3 -0.8,-0.9 -0.8,-1.7 0,-0.7 0.2,-1.5 0.6,-2.2 l 1.6,0.8 c -0.4,0.7 -0.6,1.5 -0.6,2.2 -0.1,0.8 0.3,1.4 0.8,1.7 z"
         id="path1794" />
      <path
         style="opacity:0.28999999"
         d="m 91.7,63.1 c 0,1.7 1.4,2.4 3.1,1.6 1.7,-0.9 3.1,-3 3.1,-4.7 0,-1.7 -1.4,-2.4 -3.1,-1.6 -1.7,0.8 -3.1,2.9 -3.1,4.7 z"
         id="path1796" />
      <path
         style="fill:#656565"
         d="m 93.3,47.6 c 0.8,-0.4 1.6,-0.5 2.2,-0.2 l 1.6,0.8 c 0.6,0.3 1,0.9 1,1.8 0,1.7 -1.4,3.8 -3.1,4.7 -0.9,0.4 -1.6,0.5 -2.2,0.2 0,0 -1.6,-0.8 -1.7,-0.8 -0.5,-0.3 -0.8,-0.9 -0.8,-1.7 -0.1,-1.8 1.3,-4 3,-4.8 z"
         id="path1798" />
      <path
         style="opacity:0.11000001"
         d="M 92.6,54.8 C 92.4,54.7 91.1,54 91,54 c -0.5,-0.3 -0.8,-0.9 -0.8,-1.7 0,-0.7 0.2,-1.5 0.6,-2.2 l 1.6,0.8 c -0.4,0.7 -0.6,1.5 -0.6,2.2 -0.1,0.8 0.3,1.4 0.8,1.7 z"
         id="path1800" />
      <path
         style="opacity:0.28999999"
         d="m 91.7,53.1 c 0,1.7 1.4,2.4 3.1,1.6 1.7,-0.9 3.1,-3 3.1,-4.7 0,-1.7 -1.4,-2.4 -3.1,-1.6 -1.7,0.8 -3.1,2.9 -3.1,4.7 z"
         id="path1802" />
      <path
         style="opacity:0.2"
         d="m 98,71 v -4 l -8,4 v 4 z"
         id="path1804" />
      <path
         style="opacity:0.15;fill:#ffffff"
         d="m 74,51 4,-2 v 4 L 64,74 Z"
         id="path1806" />
    </g>
    <g
       transform="matrix(0.26458333,0,0,0.26458333,129.82966,128.80027)"
       id="g1922">
      <path
         style="fill:#656565"
         d="m 21,12 12,-6 4,2 v 18 l -2,1 -4,-2 V 13 l -6,3 z"
         id="path1869" />
      <path
         style="opacity:0.28999999"
         d="m 37,8 v 18 l -2,1 V 11 l -10,5 v -2 z"
         id="path1871" />
      <path
         style="opacity:0.11000001"
         d="m 31,13 4,-2 v 16 l -4,-2 z"
         id="path1873" />
      <ellipse
         style="fill:#656565"
         cx="20"
         cy="14"
         rx="12"
         ry="6"
         id="ellipse1875" />
      <path
         style="fill:#cc291f"
         d="M 35.9,46.2 32,14 H 8 L 4.1,46.2 C 4.1,46.3 4,47 4,47 v 2 c 0,4.4 7.2,8 16,8 8.8,0 16,-3.6 16,-8 v -1.9 c 0,-0.3 0,-0.6 -0.1,-0.9 z"
         id="path1877" />
      <g
         style="fill:#656565"
         id="g1885">
        <path
           d="m 20,55.1 c -8.8,0 -16,-3.6 -16,-8 V 50 c 0,4.4 7.2,8 16,8 8.8,0 16,-3.6 16,-8 v -2.9 c 0,4.4 -7.2,8 -16,8 z"
           id="path1879" />
        <path
           d="m 20,23 c 6,0 11,-2 12.5,-4.8 L 32,14 C 32,10.7 26.6,8 20,8 13.4,8 8,10.7 8,14 L 7.5,18.2 C 9,21 14,23 20,23 Z"
           id="path1881" />
        <path
           d="M 21.1,47 H 19 c -1.1,0 -1.9,-0.9 -1.9,-1.9 V 28.9 C 17.1,27.8 18,27 19,27 h 2.1 c 1.1,0 1.9,0.9 1.9,1.9 V 45 c 0,1.1 -0.9,2 -1.9,2 z"
           id="path1883" />
      </g>
      <path
         style="fill:#3399cc"
         d="m 19,29 h 2 v 16 h -2 z"
         id="path1887" />
      <ellipse
         style="opacity:0.2;fill:#ffffff"
         cx="20"
         cy="14"
         rx="8"
         ry="4"
         id="ellipse1889" />
      <path
         style="opacity:0.15"
         d="M 35.9,46.2 34.4,33.8 32,14 c 0,3.3 -5.4,6 -12,6 C 13.4,20 8,17.3 8,14 L 7.6,17.5 4.1,46.2 C 4.1,46.3 4,47 4,47 v 3 c 0,4.4 7.2,8 16,8 8.8,0 16,-3.6 16,-8 v -2.9 c 0,-0.3 0,-0.6 -0.1,-0.9 z"
         id="path1891" />
      <path
         style="fill:#656565"
         d="M 8,14 4,19 8,29 12,18 Z"
         id="path1893" />
      <path
         style="opacity:0.28999999"
         d="M 8,29 12,18 4,19 Z"
         id="path1895" />
      <path
         style="opacity:0.28999999"
         d="m 8.7,15.3 -3,3 5,-1 z"
         id="path1897" />
    </g>
    <g
       transform="translate(21.695833,-9.2604201)"
       id="g2296">
      <g
         id="g1772"
         transform="matrix(0.26458333,0,0,0.26458333,58.392137,140.17736)">
        <path
           id="path1680"
           d="m 0,80 v 120 l 80,40 80,-40 V 80 Z"
           style="fill:#e5e5e5" />
        <path
           id="path1682"
           d="m 0,80 v 6 l 80,40 80,-40 V 80 L 80,40 Z"
           style="fill:#999999" />
        <path
           id="path1684"
           d="M 80,240 0,200 V 80 l 80,40 z"
           style="opacity:0.11000001" />
        <path
           id="path1686"
           d="m 80,126 v 14 l 80,-40 V 86 Z"
           style="fill:#656565" />
        <path
           id="path1688"
           d="m 80,142 v 92 l 80,-40 v -92 z"
           style="fill:#656565" />
        <path
           id="path1690"
           d="m 90,147 v 73 l 60,-30 v -73 z"
           style="fill:#2d3134" />
        <path
           id="path1692"
           d="m 96,152 v 57 l 48,-24 v -57 z"
           style="fill:#3399cc" />
        <path
           id="path1694"
           d="m 106,115 v 10 l 28,-14 v -10 z"
           style="fill:#2d3134" />
        <path
           id="path1696"
           d="m 80,240 80,-40 v -4 l -80,40 z"
           style="opacity:0.2" />
        <path
           id="path1698"
           d="m 80,240 2,-1 V 125 l -2,1 z"
           style="opacity:0.2" />
        <path
           id="path1700"
           d="m 158,201 2,-1 V 86 l -2,1 z"
           style="opacity:0.2" />
        <path
           id="path1702"
           d="m 113,184 21,-51 10,-5 v 8 z"
           style="opacity:0.15;fill:#ffffff" />
        <path
           id="path1704"
           d="m 96,188 v 12 l 31,-62 z"
           style="opacity:0.15;fill:#ffffff" />
        <path
           id="path1706"
           d="m 94,153 v 4 l 52,-26 v -4 z"
           style="fill:#e5e5e5" />
        <path
           id="path1708"
           d="m 110,115 v 6 l 20,-10 v -6 z"
           style="fill:#3399cc" />
        <path
           id="path1710"
           d="m 80,120 v 120 l 80,-40 V 80 Z"
           style="opacity:0.28999999" />
        <path
           id="path1712"
           d="m 99.3,119.6 c 0.8,-0.4 1.6,-0.5 2.2,-0.2 l 1.6,0.8 c 0.6,0.3 1,0.9 1,1.8 0,1.7 -1.4,3.8 -3.1,4.7 -0.9,0.4 -1.6,0.5 -2.2,0.2 0,0 -1.6,-0.8 -1.7,-0.8 -0.5,-0.3 -0.8,-0.9 -0.8,-1.7 -0.1,-1.8 1.3,-4 3,-4.8 z"
           style="fill:#2d3134" />
        <path
           id="path1714"
           d="M 98.6,126.8 C 98.4,126.7 97.1,126 97,126 c -0.5,-0.3 -0.8,-0.9 -0.8,-1.7 0,-0.7 0.2,-1.5 0.6,-2.2 l 1.6,0.8 c -0.4,0.7 -0.6,1.5 -0.6,2.2 -0.1,0.8 0.3,1.4 0.8,1.7 z"
           style="opacity:0.11000001" />
        <path
           id="path1716"
           d="m 97.7,125.1 c 0,1.7 1.4,2.4 3.1,1.6 1.7,-0.9 3.1,-3 3.1,-4.7 0,-1.7 -1.4,-2.4 -3.1,-1.6 -1.7,0.8 -3.1,2.9 -3.1,4.7 z"
           style="opacity:0.28999999" />
        <path
           id="path1718"
           d="m 89.3,124.6 c 0.8,-0.4 1.6,-0.5 2.2,-0.2 l 1.6,0.8 c 0.6,0.3 1,0.9 1,1.8 0,1.7 -1.4,3.8 -3.1,4.7 -0.9,0.4 -1.6,0.5 -2.2,0.2 0,0 -1.6,-0.8 -1.7,-0.8 -0.5,-0.3 -0.8,-0.9 -0.8,-1.7 -0.1,-1.8 1.3,-4 3,-4.8 z"
           style="fill:#2d3134" />
        <path
           id="path1720"
           d="M 88.6,131.8 C 88.4,131.7 87.1,131 87,131 c -0.5,-0.3 -0.8,-0.9 -0.8,-1.7 0,-0.7 0.2,-1.5 0.6,-2.2 l 1.6,0.8 c -0.4,0.7 -0.6,1.5 -0.6,2.2 -0.1,0.8 0.3,1.4 0.8,1.7 z"
           style="opacity:0.11000001" />
        <path
           id="path1722"
           d="m 87.7,130.1 c 0,1.7 1.4,2.4 3.1,1.6 1.7,-0.9 3.1,-3 3.1,-4.7 0,-1.7 -1.4,-2.4 -3.1,-1.6 -1.7,0.8 -3.1,2.9 -3.1,4.7 z"
           style="opacity:0.28999999" />
        <path
           id="path1724"
           d="m 149.3,94.6 c 0.8,-0.4 1.6,-0.5 2.2,-0.2 l 1.6,0.8 c 0.6,0.3 1,0.9 1,1.8 0,1.7 -1.4,3.8 -3.1,4.7 -0.9,0.4 -1.6,0.5 -2.2,0.2 0,0 -1.6,-0.8 -1.7,-0.8 -0.5,-0.3 -0.8,-0.9 -0.8,-1.7 -0.1,-1.8 1.3,-4 3,-4.8 z"
           style="fill:#2d3134" />
        <path
           id="path1726"
           d="m 148.6,101.8 c -0.2,-0.1 -1.5,-0.8 -1.6,-0.8 -0.5,-0.3 -0.8,-0.9 -0.8,-1.7 0,-0.7 0.2,-1.5 0.6,-2.2 l 1.6,0.8 c -0.4,0.7 -0.6,1.5 -0.6,2.2 -0.1,0.8 0.3,1.4 0.8,1.7 z"
           style="opacity:0.11000001" />
        <path
           id="path1728"
           d="m 147.7,100.1 c 0,1.7 1.4,2.4 3.1,1.6 1.7,-0.9 3.1,-3 3.1,-4.7 0,-1.7 -1.4,-2.4 -3.1,-1.6 -1.7,0.8 -3.1,2.9 -3.1,4.7 z"
           style="opacity:0.28999999" />
        <path
           id="path1730"
           d="m 139.3,99.6 c 0.8,-0.4 1.6,-0.5 2.2,-0.2 l 1.6,0.8 c 0.6,0.3 1,0.9 1,1.8 0,1.7 -1.4,3.8 -3.1,4.7 -0.9,0.4 -1.6,0.5 -2.2,0.2 0,0 -1.6,-0.8 -1.7,-0.8 -0.5,-0.3 -0.8,-0.9 -0.8,-1.7 -0.1,-1.8 1.3,-4 3,-4.8 z"
           style="fill:#2d3134" />
        <path
           id="path1732"
           d="m 138.6,106.8 c -0.2,-0.1 -1.5,-0.8 -1.6,-0.8 -0.5,-0.3 -0.8,-0.9 -0.8,-1.7 0,-0.7 0.2,-1.5 0.6,-2.2 l 1.6,0.8 c -0.4,0.7 -0.6,1.5 -0.6,2.2 -0.1,0.8 0.3,1.4 0.8,1.7 z"
           style="opacity:0.11000001" />
        <path
           id="path1734"
           d="m 137.7,105.1 c 0,1.7 1.4,2.4 3.1,1.6 1.7,-0.9 3.1,-3 3.1,-4.7 0,-1.7 -1.4,-2.4 -3.1,-1.6 -1.7,0.8 -3.1,2.9 -3.1,4.7 z"
           style="opacity:0.28999999" />
      </g>
      <g
         id="g2181"
         transform="matrix(0.26458333,0,0,0.26458333,58.392137,140.17736)">
        <g
           id="g1936"
           style="fill:#999999">
          <path
             id="path1924"
             d="M 0,80 80,120 160,80 80,40 Z" />
          <ellipse
             id="ellipse1926"
             ry="1"
             rx="2"
             cy="97"
             cx="103" />
          <ellipse
             id="ellipse1928"
             ry="1"
             rx="2"
             cy="93"
             cx="111" />
          <ellipse
             id="ellipse1930"
             ry="1"
             rx="2"
             cy="97"
             cx="111" />
          <ellipse
             id="ellipse1932"
             ry="1"
             rx="2"
             cy="95"
             cx="107" />
          <ellipse
             id="ellipse1934"
             ry="1"
             rx="2"
             cy="93"
             cx="103" />
        </g>
        <path
           id="path1938"
           d="m 66,63 -4,2 v 2 l 2,1 4,-2 v -2 z"
           style="fill:#2d3134" />
        <path
           id="path1940"
           d="m 64,66 4,-2 v 2 l -4,2 z"
           style="opacity:0.28999999" />
        <path
           id="path1942"
           d="m 90,63 -2,1 v 2 l 4,2 2,-1 v -2 z"
           style="fill:#2d3134" />
        <path
           id="path1944"
           d="m 92,66 -4,-2 v 2 l 4,2 z"
           style="opacity:0.11000001" />
        <path
           id="path1946"
           d="M 78,43 46,59 v 2 L 78,77 110,61 V 59 Z M 52,60 78,47 104,60 78,73 Z"
           style="fill:#2d3134" />
        <path
           id="path1948"
           d="M 78,45 50,59 52,60 78,47 Z"
           style="opacity:0.28999999" />
        <path
           id="path1950"
           d="m 78,45 v 2 l 26,13 2,-1 z"
           style="opacity:0.11000001" />
        <path
           id="path1952"
           d="M 78,75 46,59 v 2 l 32,16 z"
           style="opacity:0.11000001" />
        <path
           id="path1954"
           d="m 78,75 v 2 l 32,-16 v -2 z"
           style="opacity:0.28999999" />
        <path
           id="path1956"
           d="m 66,51 -2,1 v 2 l 4,2 2,-1 v -2 z"
           style="fill:#2d3134" />
        <path
           id="path1958"
           d="m 68,54 -4,-2 v 2 l 4,2 z"
           style="opacity:0.11000001" />
        <path
           id="path1960"
           d="m 68,54 2,-1 v 2 l -2,1 z"
           style="opacity:0.28999999" />
        <path
           id="path1962"
           d="m 90,51 -4,2 v 2 l 2,1 4,-2 v -2 z"
           style="fill:#2d3134" />
        <path
           id="path1964"
           d="m 88,54 -2,-1 v 2 l 2,1 z"
           style="opacity:0.11000001" />
        <path
           id="path1966"
           d="m 88,54 4,-2 v 2 l -4,2 z"
           style="opacity:0.28999999" />
        <path
           id="path1968"
           d="m 78,54 c -6.1,0 -11,2.5 -11,5.5 v 2 c 0,3 4.9,5.5 11,5.5 6.1,0 11,-2.5 11,-5.5 v -2 C 89,56.5 84.1,54 78,54 Z"
           style="fill:#656565" />
        <path
           id="path1970"
           d="M 78,65 C 71.9,65 67,62.5 67,59.5 v 2 c 0,3 4.9,5.5 11,5.5 6.1,0 11,-2.5 11,-5.5 v -2 c 0,3 -4.9,5.5 -11,5.5 z"
           style="opacity:0.2" />
        <path
           id="path1972"
           d="m 30,81 -4,2 v 2 l 2,1 4,-2 v -2 z"
           style="fill:#2d3134" />
        <path
           id="path1974"
           d="m 28,84 4,-2 v 2 l -4,2 z"
           style="opacity:0.28999999" />
        <path
           id="path1976"
           d="m 54,81 -2,1 v 2 l 4,2 2,-1 v -2 z"
           style="fill:#2d3134" />
        <path
           id="path1978"
           d="m 56,84 -4,-2 v 2 l 4,2 z"
           style="opacity:0.11000001" />
        <path
           id="path1980"
           d="M 42,61 10,77 v 2 L 42,95 74,79 V 77 Z M 16,78 42,65 68,78 42,91 Z"
           style="fill:#2d3134" />
        <path
           id="path1982"
           d="M 42,63 14,77 16,78 42,65 Z"
           style="opacity:0.28999999" />
        <path
           id="path1984"
           d="m 42,63 v 2 l 26,13 2,-1 z"
           style="opacity:0.11000001" />
        <path
           id="path1986"
           d="M 42,93 10,77 v 2 l 32,16 z"
           style="opacity:0.11000001" />
        <path
           id="path1988"
           d="m 42,93 v 2 L 74,79 v -2 z"
           style="opacity:0.28999999" />
        <path
           id="path1990"
           d="m 30,69 -2,1 v 2 l 4,2 2,-1 v -2 z"
           style="fill:#2d3134" />
        <path
           id="path1992"
           d="m 32,72 -4,-2 v 2 l 4,2 z"
           style="opacity:0.11000001" />
        <path
           id="path1994"
           d="m 32,72 2,-1 v 2 l -2,1 z"
           style="opacity:0.28999999" />
        <path
           id="path1996"
           d="m 54,69 -4,2 v 2 l 2,1 4,-2 v -2 z"
           style="fill:#2d3134" />
        <path
           id="path1998"
           d="m 52,72 -2,-1 v 2 l 2,1 z"
           style="opacity:0.11000001" />
        <path
           id="path2000"
           d="m 52,72 4,-2 v 2 l -4,2 z"
           style="opacity:0.28999999" />
        <path
           id="path2002"
           d="m 42,72 c -6.1,0 -11,2.5 -11,5.5 v 2 c 0,3 4.9,5.5 11,5.5 6.1,0 11,-2.5 11,-5.5 v -2 C 53,74.5 48.1,72 42,72 Z"
           style="fill:#656565" />
        <path
           id="path2004"
           d="M 42,83 C 35.9,83 31,80.5 31,77.5 v 2 c 0,3 4.9,5.5 11,5.5 6.1,0 11,-2.5 11,-5.5 v -2 c 0,3 -4.9,5.5 -11,5.5 z"
           style="opacity:0.2" />
        <path
           id="path2006"
           d="m 66,99 -4,2 v 2 l 2,1 4,-2 v -2 z"
           style="fill:#2d3134" />
        <path
           id="path2008"
           d="m 64,102 4,-2 v 2 l -4,2 z"
           style="opacity:0.28999999" />
        <path
           id="path2010"
           d="M 106,93 78,79 46,95 v 2 l 32,16 18,-9 v -2 l -2,-1 12,-6 z m -18,7 v 2 l 2,1 -12,6 -26,-13 26,-13 22,11 z"
           style="fill:#2d3134" />
        <path
           id="path2012"
           d="m 96,104 -18,9 v -2 l 18,-9 z"
           style="opacity:0.28999999" />
        <path
           id="path2014"
           d="m 106,95 -12,6 -2,-1 14,-7 z"
           style="opacity:0.28999999" />
        <path
           id="path2016"
           d="M 78,83 52,96 50,95 78,81 Z"
           style="opacity:0.28999999" />
        <path
           id="path2018"
           d="m 46,97 32,16 v -2 L 46,95 Z"
           style="opacity:0.11000001" />
        <path
           id="path2020"
           d="m 78,83 22,11 2,-1 -24,-12 z"
           style="opacity:0.11000001" />
        <path
           id="path2022"
           d="m 88,102 2,1 2,-1 -4,-2 z"
           style="opacity:0.11000001" />
        <path
           id="path2024"
           d="m 66,87 -2,1 v 2 l 4,2 2,-1 v -2 z"
           style="fill:#2d3134" />
        <path
           id="path2026"
           d="m 68,90 -4,-2 v 2 l 4,2 z"
           style="opacity:0.11000001" />
        <path
           id="path2028"
           d="m 68,90 2,-1 v 2 l -2,1 z"
           style="opacity:0.28999999" />
        <path
           id="path2030"
           d="m 90,87 -4,2 v 2 l 2,1 4,-2 v -2 z"
           style="fill:#2d3134" />
        <path
           id="path2032"
           d="m 88,90 -2,-1 v 2 l 2,1 z"
           style="opacity:0.11000001" />
        <path
           id="path2034"
           d="m 88,90 4,-2 v 2 l -4,2 z"
           style="opacity:0.28999999" />
        <path
           id="path2036"
           d="m 78,90 c -5,0 -9,2 -9,4.5 v 2 c 0,2.5 4,4.5 9,4.5 5,0 9,-2 9,-4.5 v -2 C 87,92 83,90 78,90 Z"
           style="fill:#656565" />
        <path
           id="path2038"
           d="m 78,99 c -5,0 -9,-2 -9,-4.5 v 2 c 0,2.5 4,4.5 9,4.5 5,0 9,-2 9,-4.5 v -2 C 87,97 83,99 78,99 Z"
           style="opacity:0.2" />
        <path
           id="path2040"
           d="m 102,81 -4,2 v 2 l 2,1 4,-2 v -2 z"
           style="fill:#2d3134" />
        <path
           id="path2042"
           d="m 100,84 4,-2 v 2 l -4,2 z"
           style="opacity:0.28999999" />
        <path
           id="path2044"
           d="M 146,77 114,61 82,77 v 2 l 28,14 16,-8 4,2 16,-8 z m -16,6 -4,-2 -6,3 -10,5 -22,-11 26,-13 26,13 z"
           style="fill:#2d3134" />
        <path
           id="path2046"
           d="m 126,85 -16,8 v -2 l 16,-8 z"
           style="opacity:0.28999999" />
        <path
           id="path2048"
           d="m 146,79 -16,8 v -2 l 16,-8 z"
           style="opacity:0.28999999" />
        <path
           id="path2050"
           d="M 114,65 88,78 86,77 114,63 Z"
           style="opacity:0.28999999" />
        <path
           id="path2052"
           d="m 82,79 28,14 V 91 L 82,77 Z"
           style="opacity:0.11000001" />
        <path
           id="path2054"
           d="m 114,65 26,13 2,-1 -28,-14 z"
           style="opacity:0.11000001" />
        <path
           id="path2056"
           d="m 130,87 -4,-2 v -2 l 4,2 z"
           style="opacity:0.11000001" />
        <path
           id="path2058"
           d="m 102,69 -2,1 v 2 l 4,2 2,-1 v -2 z"
           style="fill:#2d3134" />
        <path
           id="path2060"
           d="m 104,72 -4,-2 v 2 l 4,2 z"
           style="opacity:0.11000001" />
        <path
           id="path2062"
           d="m 104,72 2,-1 v 2 l -2,1 z"
           style="opacity:0.28999999" />
        <path
           id="path2064"
           d="m 126,69 -4,2 v 2 l 2,1 4,-2 v -2 z"
           style="fill:#2d3134" />
        <path
           id="path2066"
           d="m 124,72 -2,-1 v 2 l 2,1 z"
           style="opacity:0.11000001" />
        <path
           id="path2068"
           d="m 124,72 4,-2 v 2 l -4,2 z"
           style="opacity:0.28999999" />
        <path
           id="path2070"
           d="m 114,72 c -5,0 -9,2 -9,4.5 v 2 c 0,2.5 4,4.5 9,4.5 5,0 9,-2 9,-4.5 v -2 C 123,74 119,72 114,72 Z"
           style="fill:#656565" />
        <path
           id="path2072"
           d="m 114,81 c -5,0 -9,-2 -9,-4.5 v 2 c 0,2.5 4,4.5 9,4.5 5,0 9,-2 9,-4.5 v -2 c 0,2.5 -4,4.5 -9,4.5 z"
           style="opacity:0.2" />
        <path
           id="path2074"
           d="m 126,88 c -1.7,0 -3,0.7 -3,1.5 v 2 c 0,0.8 1.3,1.5 3,1.5 1.7,0 3,-0.7 3,-1.5 v -2 c 0,-0.8 -1.3,-1.5 -3,-1.5 z"
           style="fill:#2d3134" />
        <path
           id="path2076"
           d="m 126,91 c -1.7,0 -3,-0.7 -3,-1.5 v 2 c 0,0.8 1.3,1.5 3,1.5 1.7,0 3,-0.7 3,-1.5 v -2 c 0,0.8 -1.3,1.5 -3,1.5 z"
           style="opacity:0.2" />
        <path
           id="path2078"
           d="m 118,92 c -1.7,0 -3,0.7 -3,1.5 v 2 c 0,0.8 1.3,1.5 3,1.5 1.7,0 3,-0.7 3,-1.5 v -2 c 0,-0.8 -1.3,-1.5 -3,-1.5 z"
           style="fill:#2d3134" />
        <path
           id="path2080"
           d="m 118,95 c -1.7,0 -3,-0.7 -3,-1.5 v 2 c 0,0.8 1.3,1.5 3,1.5 1.7,0 3,-0.7 3,-1.5 v -2 c 0,0.8 -1.3,1.5 -3,1.5 z"
           style="opacity:0.2" />
        <path
           id="path2082"
           d="m 110,96 c -1.7,0 -3,0.7 -3,1.5 v 2 c 0,0.8 1.3,1.5 3,1.5 1.7,0 3,-0.7 3,-1.5 v -2 c 0,-0.8 -1.3,-1.5 -3,-1.5 z"
           style="fill:#2d3134" />
        <path
           id="path2084"
           d="m 110,99 c -1.7,0 -3,-0.7 -3,-1.5 v 2 c 0,0.8 1.3,1.5 3,1.5 1.7,0 3,-0.7 3,-1.5 v -2 c 0,0.8 -1.3,1.5 -3,1.5 z"
           style="opacity:0.2" />
        <path
           id="path2086"
           d="m 102,100 c -1.7,0 -3,0.7 -3,1.5 v 2 c 0,0.8 1.3,1.5 3,1.5 1.7,0 3,-0.7 3,-1.5 v -2 c 0,-0.8 -1.3,-1.5 -3,-1.5 z"
           style="fill:#2d3134" />
        <path
           id="path2088"
           d="m 102,103 c -1.7,0 -3,-0.7 -3,-1.5 v 2 c 0,0.8 1.3,1.5 3,1.5 1.7,0 3,-0.7 3,-1.5 v -2 c 0,0.8 -1.3,1.5 -3,1.5 z"
           style="opacity:0.2" />
      </g>
    </g>
    <g
       transform="matrix(0.26458333,0,0,0.26458333,106.01716,113.45444)"
       id="g2435">
      <path
         style="fill:#656565"
         d="m 0,56 v 4 L 30,75 60,60 V 56 L 30,41 Z"
         id="path2298" />
      <path
         style="opacity:0.11000001"
         d="M 30,75 0,60 v -4 l 30,15 z"
         id="path2300" />
      <path
         style="fill:#999999"
         d="m 40,50 -22,11 16,8 v 2 L 56,60 v -2 z m -2,15 -12,-6 2,-1 12,6 z m -4,2 -12,-6 2,-1 12,6 z m 8,-4 -12,-6 2,-1 12,6 z m 4,-2 -12,-6 2,-1 12,6 z m 4,-2 -12,-6 2,-1 12,6 z"
         id="path2302" />
      <path
         style="opacity:0.28999999"
         d="m 30,71 v 4 L 60,60 v -4 z"
         id="path2304" />
      <path
         style="fill:#656565"
         d="M 0,30 V 56 L 10,61 40,46 V 20 L 30,15 Z"
         id="path2306" />
      <path
         style="opacity:0.11000001"
         d="M 10,61 0,56 V 30 l 10,5 z"
         id="path2308" />
      <path
         style="opacity:0.28999999"
         d="M 10,35 V 61 L 40,46 V 20 Z"
         id="path2310" />
      <path
         style="fill:#e5e5e5"
         d="m 19,42.3 c -1.1,0 -2,0.4 -2,1 v 9.6 c 0,0.6 0.9,1 2,1 1.1,0 2,-0.4 2,-1 v -9.6 c 0,-0.6 -0.9,-1 -2,-1 z"
         id="path2312" />
      <path
         style="opacity:0.2"
         d="m 19,44.3 c -1.1,0 -2,-0.4 -2,-1 v 9.6 c 0,0.6 0.9,1 2,1 1.1,0 2,-0.4 2,-1 v -9.6 c 0,0.6 -0.9,1 -2,1 z"
         id="path2314" />
      <path
         style="fill:#2d3134"
         d="m 19,37.5 c -1.1,0 -2,0.4 -2,1 v 4.8 c 0,0.6 0.9,1 2,1 1.1,0 2,-0.4 2,-1 v -4.8 c 0,-0.6 -0.9,-1 -2,-1 z"
         id="path2316" />
      <path
         style="opacity:0.2"
         d="m 19,39.5 c -1.1,0 -2,-0.4 -2,-1 v 4.8 c 0,0.6 0.9,1 2,1 1.1,0 2,-0.4 2,-1 v -4.8 c 0,0.6 -0.9,1 -2,1 z"
         id="path2318" />
      <path
         style="fill:#f8ebcb"
         d="m 34,46.1 c -3.8,0 -6.9,1.5 -6.9,3.4 l 1.4,10.7 c 0,1.5 2.5,2.7 5.5,2.7 3,0 5.5,-1.2 5.5,-2.7 l 1.4,-10.7 c 0,-1.8 -3.1,-3.4 -6.9,-3.4 z"
         id="path2320" />
      <path
         style="fill:#825012"
         d="m 34,48.1 c -3.1,0 -5.7,1.3 -5.7,2.8 V 51 c 1.1,1 3.2,1.7 5.7,1.7 2.5,0 4.6,-0.7 5.7,-1.7 v -0.1 c 0,-1.5 -2.6,-2.8 -5.7,-2.8 z"
         id="path2322" />
      <path
         style="opacity:0.2"
         d="m 34,53 c -3.8,0 -6.9,-1.5 -6.9,-3.4 l 1.4,10.7 c 0,1.5 2.5,2.7 5.5,2.7 3,0 5.5,-1.2 5.5,-2.7 l 1.4,-10.7 c 0,1.9 -3.1,3.4 -6.9,3.4 z"
         id="path2324" />
      <path
         style="fill:#f8ebcb"
         d="m 34,46.1 c -3.8,0 -6.9,1.5 -6.9,3.4 0,1.9 3.1,3.5 6.9,3.5 3.8,0 6.9,-1.5 6.9,-3.4 0,-1.9 -3.1,-3.5 -6.9,-3.5 z m 0,6.6 c -3.5,0 -6.3,-1.4 -6.3,-3.1 0,-1.7 2.8,-3.1 6.3,-3.1 3.5,0 6.3,1.4 6.3,3.1 0,1.7 -2.8,3.1 -6.3,3.1 z"
         id="path2326" />
      <path
         style="fill:#e5e5e5"
         d="m 39,40 c -1.1,0 -2,0.4 -2,1 v 5 c 0,0.6 0.9,1 2,1 1.1,0 2,-0.4 2,-1 v -5 c 0,-0.6 -0.9,-1 -2,-1 z"
         id="path2328" />
      <path
         style="opacity:0.2"
         d="m 39,42 c -1.1,0 -2,-0.4 -2,-1 v 5 c 0,0.6 0.9,1 2,1 1.1,0 2,-0.4 2,-1 v -5 c 0,0.6 -0.9,1 -2,1 z"
         id="path2330" />
      <path
         style="fill:#e5e5e5"
         d="m 31,41 c -1.1,0 -2,0.4 -2,1 v 5 c 0,0.6 0.9,1 2,1 1.1,0 2,-0.4 2,-1 v -5 c 0,-0.6 -0.9,-1 -2,-1 z"
         id="path2332" />
      <path
         style="opacity:0.2"
         d="m 31,43 c -1.1,0 -2,-0.4 -2,-1 v 5 c 0,0.6 0.9,1 2,1 1.1,0 2,-0.4 2,-1 v -5 c 0,0.6 -0.9,1 -2,1 z"
         id="path2334" />
      <path
         style="fill:#999999"
         d="m 34,18 c -6.6,0 -12,2.7 -12,6 v 16 c 0,3.3 5.4,6 12,6 6.6,0 12,-2.7 12,-6 V 24 c 0,-3.3 -5.4,-6 -12,-6 z"
         id="path2336" />
      <path
         style="opacity:0.2"
         d="M 34,30 C 27.4,30 22,27.3 22,24 v 16 c 0,3.3 5.4,6 12,6 6.6,0 12,-2.7 12,-6 V 24 c 0,3.3 -5.4,6 -12,6 z"
         id="path2338" />
      <path
         style="fill:#656565"
         d="M 0,15 V 30 L 26,43 56,28 V 13 L 30,0 Z"
         id="path2340" />
      <path
         style="fill:#e5e5e5"
         d="m 24,27 v 15 l 2,1 30,-15 V 13 l -2,-1 z"
         id="path2342" />
      <path
         style="opacity:0.11000001"
         d="M 26,43 0,30 V 15 l 26,13 z"
         id="path2344" />
      <g
         style="fill:#656565"
         id="g2352">
        <path
           d="m 29,37.1 c 0,0.8 0.6,1.1 1.4,0.7 0.8,-0.4 1.4,-1.3 1.4,-2.1 0,-0.8 -0.6,-1.1 -1.4,-0.7 -0.8,0.4 -1.4,1.4 -1.4,2.1 z"
           id="path2346" />
        <path
           d="m 33,35.3 c 0,0.8 0.6,1.1 1.4,0.7 0.8,-0.4 1.4,-1.3 1.4,-2.1 0,-0.8 -0.6,-1.1 -1.4,-0.7 -0.8,0.4 -1.4,1.3 -1.4,2.1 z"
           id="path2348" />
        <path
           d="m 54,26 -6,3 v -5 l 6,-3 z"
           id="path2350" />
      </g>
      <path
         style="fill:#3399cc"
         d="m 53,25 -4,2 v -2 l 4,-2 z"
         id="path2354" />
      <path
         style="opacity:0.28999999"
         d="M 26,28 V 43 L 56,28 V 13 Z"
         id="path2356" />
      <path
         style="opacity:0.2"
         d="M 30,4 8,15 28,25 30,24 12,15 30,6 l 18,9 2,-1 z"
         id="path2358" />
      <path
         style="fill:#656565"
         d="m 40.3,24.6 c 0.8,-0.4 1.6,-0.5 2.2,-0.2 l 1.6,0.8 c 0.6,0.3 1,0.9 1,1.8 0,1.7 -1.4,3.8 -3.1,4.7 -0.9,0.4 -1.6,0.5 -2.2,0.2 0,0 -1.6,-0.8 -1.7,-0.8 -0.5,-0.3 -0.8,-0.9 -0.8,-1.7 -0.1,-1.8 1.3,-4 3,-4.8 z"
         id="path2360" />
      <path
         style="opacity:0.11000001"
         d="M 39.6,31.8 C 39.4,31.7 38.1,31 38,31 c -0.5,-0.3 -0.8,-0.9 -0.8,-1.7 0,-0.7 0.2,-1.5 0.6,-2.2 l 1.6,0.8 c -0.4,0.7 -0.6,1.5 -0.6,2.2 -0.1,0.8 0.3,1.4 0.8,1.7 z"
         id="path2362" />
      <path
         style="opacity:0.28999999"
         d="m 38.7,30.1 c 0,1.7 1.4,2.4 3.1,1.6 1.7,-0.9 3.1,-3 3.1,-4.7 0,-1.7 -1.4,-2.4 -3.1,-1.6 -1.7,0.8 -3.1,2.9 -3.1,4.7 z"
         id="path2364" />
      <path
         style="fill:#2d3134"
         d="m 41.8,37.3 c 0.7,-0.4 1.4,-0.4 1.9,-0.2 l 12,5.9 c 0.5,0.2 0.9,0.8 0.9,1.6 0,1.5 -1.2,3.4 -2.8,4.1 -0.8,0.4 -1.4,0.4 -1.9,0.2 0,0 -12,-5.9 -12.2,-6 -0.4,-0.3 -0.7,-0.8 -0.7,-1.5 0,-1.5 1.2,-3.3 2.8,-4.1 z"
         id="path2366" />
      <path
         style="opacity:0.11000001"
         d="M 51.8,48.9 C 51.6,48.8 39.8,43 39.7,42.9 39.3,42.6 39,42.1 39,41.4 c 0,-0.6 0.2,-1.3 0.5,-1.9 l 12,5.9 C 51.2,46 51,46.7 51,47.3 c 0,0.8 0.3,1.4 0.8,1.6 z"
         id="path2368" />
      <path
         style="opacity:0.28999999"
         d="m 51,47.4 c 0,1.5 1.2,2.1 2.8,1.4 1.5,-0.8 2.8,-2.6 2.8,-4.1 0,-1.5 -1.2,-2.1 -2.8,-1.4 C 52.3,44 51,45.9 51,47.4 Z"
         id="path2370" />
      <path
         style="fill:#e5e5e5"
         d="m 53.9,43.1 c 0.8,-0.4 1.5,-0.4 2,-0.2 l 1.3,0.7 c 0.6,0.3 0.9,0.8 0.9,1.7 0,1.6 -1.3,3.6 -2.9,4.4 -0.8,0.4 -1.5,0.4 -2,0.2 0,0 -1.3,-0.7 -1.5,-0.8 -0.5,-0.3 -0.8,-0.8 -0.8,-1.6 0.1,-1.7 1.4,-3.6 3,-4.4 z"
         id="path2372" />
      <path
         style="opacity:0.11000001"
         d="M 53.2,49.8 C 53,49.7 51.9,49.1 51.8,49.1 51.3,48.8 51,48.3 51,47.5 c 0,-0.6 0.2,-1.3 0.6,-2 l 1.3,0.7 c -0.4,0.7 -0.6,1.4 -0.6,2 0,0.7 0.4,1.3 0.9,1.6 z"
         id="path2374" />
      <path
         style="opacity:0.28999999"
         d="m 52.3,48.1 c 0,1.6 1.3,2.3 2.9,1.5 1.6,-0.8 2.9,-2.8 2.9,-4.4 0,-1.6 -1.3,-2.3 -2.9,-1.5 -1.6,0.8 -2.9,2.8 -2.9,4.4 z"
         id="path2376" />
      <path
         style="fill:#999999"
         d="M 17.7,27.4 C 16.9,27 16.1,26.9 15.5,27.2 L 14,27.9 c -0.6,0.3 -1,0.9 -1,1.8 0,1.7 1.4,3.8 3.1,4.7 0.9,0.4 1.6,0.5 2.2,0.2 0,0 1.6,-0.8 1.7,-0.8 0.5,-0.3 0.8,-0.9 0.8,-1.7 0,-1.8 -1.4,-3.9 -3.1,-4.7 z"
         id="path2378" />
      <path
         style="opacity:0.28999999"
         d="m 18.4,34.6 c 0.2,-0.1 1.5,-0.8 1.6,-0.8 0.5,-0.3 0.8,-0.9 0.8,-1.7 0,-0.7 -0.2,-1.5 -0.6,-2.2 l -1.6,0.8 c 0.4,0.7 0.6,1.5 0.6,2.2 0.1,0.8 -0.3,1.4 -0.8,1.7 z"
         id="path2380" />
      <path
         style="opacity:0.11000001"
         d="m 19.3,32.9 c 0,1.7 -1.4,2.4 -3.1,1.6 -1.7,-0.9 -3.1,-3 -3.1,-4.7 0,-1.7 1.4,-2.4 3.1,-1.6 1.7,0.8 3.1,2.9 3.1,4.7 z"
         id="path2382" />
    </g>
    <g
       transform="matrix(0.26458333,0,0,0.26458333,123.49278,103.46903)"
       id="g2460">
      <path
         style="fill:#cc291f"
         d="M 30.8,6.7 C 24.6,3.6 18,3.6 13.9,5.4 L 14.9,5 12.3,6.2 C 7.8,8.3 5,12.8 5,19.5 c 0,12.8 10.4,28.4 23.2,34.8 6.3,3.2 12.1,3.5 16.3,1.5 0,0 2.6,-1.2 3.5,-1.7 3.7,-2.2 6,-6.6 6,-12.6 C 54,28.6 43.6,13.1 30.8,6.7 Z"
         id="path2437" />
      <path
         style="fill:#ffffff"
         d="m 47.2,40.6 c 0,10.5 -8.5,14.7 -19,9.5 -10.5,-5.2 -19,-18 -19,-28.5 0,-10.5 8.5,-14.7 19,-9.5 10.5,5.2 19,18 19,28.5 z"
         id="path2439" />
      <path
         style="opacity:0.2"
         d="m 29.5,49.6 c -10.5,-5.2 -19,-18 -19,-28.5 0,-5.4 2.3,-9.1 5.9,-10.8 -4.4,1.3 -7.2,5.2 -7.2,11.3 0,10.5 8.5,23.3 19,28.5 5.1,2.5 9.7,2.8 13.1,1.3 -3.2,0.9 -7.3,0.4 -11.8,-1.8 z"
         id="path2441" />
      <path
         style="opacity:0.28999999"
         d="M 51.4,42.7 C 51.4,55.5 41,60.7 28.2,54.3 15.4,47.9 5,32.3 5,19.5 5,6.7 15.4,1.5 28.2,7.9 41,14.3 51.4,29.9 51.4,42.7 Z"
         id="path2443" />
      <path
         style="fill:#2d3134"
         d="m 26,14 v 18 l 18,9 V 39 L 28,31 V 15 Z"
         id="path2445" />
    </g>
    <g
       transform="matrix(0.52916666,0,0,0.52916666,68.502592,112.52573)"
       id="g1867">
      <path
         style="fill:#825012"
         d="m 20,142 c -6.6,0 -12,2.7 -12,6 v 2 c 0,3.3 5.4,6 12,6 6.6,0 12,-2.7 12,-6 v -2 c 0,-3.3 -5.4,-6 -12,-6 z"
         id="path1835" />
      <path
         style="opacity:0.2"
         d="m 20,154 c -6.6,0 -12,-2.7 -12,-6 v 2 c 0,3.3 5.4,6 12,6 6.6,0 12,-2.7 12,-6 v -2 c 0,3.3 -5.4,6 -12,6 z"
         id="path1837" />
      <path
         style="fill:#825012"
         d="m 20,25 c -1.7,0 -3,0.7 -3,1.5 v 122.1 c 0,0.8 1.3,1.5 3,1.5 1.7,0 3,-0.7 3,-1.5 V 26.5 C 23,25.7 21.7,25 20,25 Z"
         id="path1839" />
      <path
         style="opacity:0.2"
         d="m 20,28 c -1.7,0 -3,-0.7 -3,-1.5 v 122.1 c 0,0.8 1.3,1.5 3,1.5 1.7,0 3,-0.7 3,-1.5 V 26.5 c 0,0.8 -1.3,1.5 -3,1.5 z"
         id="path1841" />
      <path
         style="fill:#f8ebcb"
         d="m 20,22.9 c 10,0 18.1,4 18.1,9 L 34.5,7.2 C 34.5,3.2 28,0 20,0 12,0 5.5,3.2 5.5,7.2 L 1.9,32 C 1.9,27 10,22.9 20,22.9 Z"
         id="path1843" />
      <path
         style="fill:#ffcc00"
         d="m 25,11 c 0,-3.1 -2.8,-5.6 -6.1,-4.9 -2,0.4 -3.5,2 -3.9,4 -0.2,1.5 0.2,2.9 1,3.9 0.8,1.1 1.3,2.4 1.5,3.8 l 0.5,3.2 2,1 2,-1 0.4,-3 c 0.2,-1.4 0.7,-2.8 1.6,-4 0.6,-0.8 1,-1.9 1,-3 z"
         id="path1845" />
      <path
         style="fill:#f8ebcb"
         d="M 20,14.5 C 12,14.5 5.5,11.3 5.5,7.3 L 1.9,32 c 0,5 8.1,9 18.1,9 10,0 18.1,-4 18.1,-9 L 34.5,7.2 c 0,4 -6.5,7.3 -14.5,7.3 z"
         id="path1847" />
      <path
         style="opacity:0.2"
         d="M 20,14.5 C 12,14.5 5.5,11.3 5.5,7.3 L 1.9,32 c 0,5 8.1,9 18.1,9 10,0 18.1,-4 18.1,-9 L 34.5,7.2 c 0,4 -6.5,7.3 -14.5,7.3 z"
         id="path1849" />
    </g>
  </g>
</svg>
