<?xml version="1.0" encoding="UTF-8" standalone="no"?>
<svg
   xmlns:dc="http://purl.org/dc/elements/1.1/"
   xmlns:cc="http://creativecommons.org/ns#"
   xmlns:rdf="http://www.w3.org/1999/02/22-rdf-syntax-ns#"
   xmlns:svg="http://www.w3.org/2000/svg"
   xmlns="http://www.w3.org/2000/svg"
   id="svg1880"
   version="1.1"
   viewBox="0 0 30.766685 37.709251"
   height="37.709251mm"
   width="30.766685mm">
  <defs
     id="defs1874" />
  <metadata
     id="metadata1877">
    <rdf:RDF>
      <cc:Work
         rdf:about="">
        <dc:format>image/svg+xml</dc:format>
        <dc:type
           rdf:resource="http://purl.org/dc/dcmitype/StillImage" />
        <dc:title></dc:title>
      </cc:Work>
    </rdf:RDF>
  </metadata>
  <g
     transform="translate(-74.315898,-97.162905)"
     id="layer1">
    <g
       transform="matrix(0.26458333,0,0,0.26458333,70.608485,89.897267)"
       id="g2690">
	
		<ellipse
   style="opacity:0.2"
   transform="matrix(0.9564,-0.2919,0.2919,0.9564,-38.1725,17.888)"
   cx="40.900002"
   cy="136.89999"
   rx="26.799999"
   ry="14.6"
   id="ellipse2672" />

	<path
   style="fill:#825012"
   d="m 41.1,114.4 c 0,0 -12.3,0.8 -17.3,2.2 -5,1.4 -3.7,8.6 0.8,11.3 4.5,2.7 7.4,3.8 7.4,3.8 0,0 -7.3,0.1 -9.2,1 -1.9,0.9 -6,2.7 -5.6,5.4 0.4,2.7 3.8,4.1 6.3,3.1 2.4,-1 6.2,-4.2 8.3,-4.7 2.1,-0.5 8.3,0 8.8,-0.5 0.5,-0.5 0.9,-1.3 0.9,-1.3 l 3.5,0.9 12.7,-12.9 z"
   id="path2674" />

	<path
   style="opacity:0.2"
   d="m 41.1,114.4 c 0,0 -12.3,0.8 -17.3,2.2 -5,1.4 -3.7,8.6 0.8,11.3 4.5,2.7 7.4,3.8 7.4,3.8 0,0 -7.3,0.1 -9.2,1 -1.9,0.9 -6,2.7 -5.6,5.4 0.4,2.7 3.8,4.1 6.3,3.1 2.4,-1 6.2,-4.2 8.3,-4.7 2.1,-0.5 8.3,0 8.8,-0.5 0.5,-0.5 0.9,-1.3 0.9,-1.3 l 3.5,0.9 12.7,-12.9 z"
   id="path2676" />

	<path
   style="fill:#825012"
   d="m 63.7,127.2 c -0.2,-2.9 -4.9,-6.2 -10.4,-4.4 -5.5,1.8 -10.4,7.2 -10,10.4 0.4,3.2 4.1,6.8 4.1,6.8 0,0 -4.3,-0.1 -5.9,1.3 -1.7,1.4 -1.4,2.4 -2.7,4.2 -1.3,1.8 -3.1,4.2 -0.3,5.2 2.8,1 5,0.9 6.4,-0.6 1.4,-1.5 1.8,-4.9 1.8,-4.9 0,0 5.1,-1.2 6.4,-1.9 2.6,-1.4 1.4,-4.6 1.4,-4.6 0,0 4.3,-1 6.6,-4.2 2.3,-3.2 2.9,-3.4 2.6,-7.3 z"
   id="path2678" />

	<path
   style="fill:#2d3134"
   d="m 14.5,64.7 c 2.5,-2.4 7.6,-5.6 8.1,-6.7 0.5,-1.2 -0.7,-5.2 0.4,-5.9 1.1,-0.7 3.5,-1.4 3.5,-1.4 0,0 0,-2.1 0.8,-4.8 0.8,-2.7 1,-5.3 1,-5.3 0,0 2.3,2.6 2.8,4.1 0.5,1.5 2.2,3.5 2.2,3.5 0,0 2.3,-0.7 4.5,0.4 1.9,0.9 2.5,1.8 2.5,1.8 L 41.2,46 c 0,0 2.5,2.6 3.1,6.1 0.5,3 0.4,3.8 0.4,3.8 0,0 2.2,4.6 2.4,9.5 0.2,4.9 2.3,9.8 5.6,14.3 3.3,4.5 9,11 10.1,17.3 1.1,6.3 4.2,17.6 3.9,22.7 -0.3,5.4 -0.8,13.8 -5.7,17.2 -3.3,2.3 -6.4,1.8 -6.4,1.8 0,0 -4.9,-4.2 -5,-5.1 -0.1,-0.9 7,-6.8 8.8,-8.3 1.8,-1.4 0.5,-2.6 0.5,-2.6 0,0 -4.3,-1.1 -6.2,-1.5 -4.6,-1.2 -9,-4 -9,-4 0,0 -1.5,5.3 -1.3,8.7 0.3,3.4 0.4,6.9 -1.1,9.1 -1.5,2.2 -3.4,6.4 -3.5,8.7 -0.1,2.3 -0.6,5.3 -2.9,6.4 -2.3,1.2 -6.6,-0.2 -6.6,-1.5 0,-1.3 1.5,-3.2 3,-4.8 1.5,-1.6 5.3,-10.1 5.7,-12.6 0.4,-2.5 0.5,-18.2 0.5,-18.2 l -5.6,-2 c 0,0 0.1,8.7 0.2,11.4 0.1,2.8 -0.2,6.3 -1.5,10.2 -1.3,3.9 -2.6,9.3 -3.1,10.7 -0.5,1.3 -2,3.2 -3.9,3.5 -3.2,0.4 -6.2,-1.5 -5.3,-3.3 0.9,-1.7 3.7,-3.8 5,-6 1.4,-2.4 3.2,-6.2 3.4,-10.3 0.3,-8 -1.9,-19.9 -2.3,-22.1 -0.4,-2.2 -3,-4.7 -2,-11 1,-6.3 5.1,-10.9 5.2,-13.1 0.1,-2.2 1.3,-8.3 -0.4,-9 -1.7,-0.7 -6.3,2 -10.5,-1.3 -4.2,-3.2 -2.2,-6 -2.2,-6 z"
   id="path2680" />

	<path
   style="fill:#825012"
   d="m 39.9,65.8 c -0.4,-1 -7.1,-1 -12.8,-2.1 C 23.6,63 19.3,62.9 16.6,63 c -0.8,0.6 -1.5,1.2 -2.1,1.8 0,0 -2,2.8 2.1,6.1 4.1,3.3 8.8,0.5 10.5,1.3 0.5,0.2 0.8,1 0.9,2 0.6,1.2 1.6,2.5 2.6,2.2 1.8,-0.6 9.7,-9.6 9.3,-10.6 z"
   id="path2682" />

	<path
   d="m 28.5,59.5 c -0.1,-0.7 3.8,-0.7 3.9,-0.1 0.1,0.6 -3.7,1.4 -3.9,0.1 z"
   id="path2684" />

	<path
   style="fill:#825012"
   d="m 39.7,59.9 c -1.4,-0.7 -1.2,-3.9 0,-6.3 1.2,-2.3 2.1,-5.3 2.1,-5.3 0,0 2.4,4.7 2,7.4 -0.4,2.6 -1.8,5.3 -4.1,4.2 z"
   id="path2686" />

	<path
   style="fill:#262626"
   d="m 15.8,66.9 c -0.7,-0.6 -1.9,-2.2 -1.3,-3.7 0.6,-1.4 4,-2.9 5.6,-1.6 1.6,1.3 0.2,4.1 -0.5,4.9 -0.8,0.9 -2.7,1.3 -3.8,0.4 z"
   id="path2688" />

</g>
    <g
       transform="matrix(0.26458333,0,0,0.26458333,71.031818,93.733725)"
       id="g2921">
	<path
   style="opacity:0.2"
   d="M 120.5,152.9 C 143.7,141.2 111.8,126.7 96.9,121.6 82,116.4 67.2,110.7 55.4,112.9 43.6,115.1 44.3,125.3 59.7,130.2 75,135 96.1,141 99.9,146 c 3.9,5 6.8,13.9 20.6,6.9 z"
   id="path2889" />

	<path
   style="fill:#28896d"
   d="m 93,111.8 c 0,0 9.1,4.8 12.2,6.9 3.1,2.1 7.5,5.8 7.5,5.8 0,0 -2.1,2 -2.4,4.1 -0.3,2.1 -0.4,4.7 -0.4,4.7 0,0 -10.2,-5.4 -14.2,-6.8 -4.1,-1.4 -14.4,-6 -14.4,-6 z"
   id="path2891" />

	<path
   style="opacity:0.2"
   d="m 93,111.8 c 0,0 9.1,4.8 12.2,6.9 3.1,2.1 7.5,5.8 7.5,5.8 0,0 -2.1,2 -2.4,4.1 -0.3,2.1 -0.4,4.7 -0.4,4.7 0,0 -10.2,-5.4 -14.2,-6.8 -4.1,-1.4 -14.4,-6 -14.4,-6 z"
   id="path2893" />

	<path
   style="fill:#fbd7c7"
   d="m 67.6,80.3 c 0,0 -3.4,8.6 -4.7,9.6 -1.3,1 -4.8,3.7 -5.5,4.8 -0.9,1.4 -2.8,5.9 -2,6.6 0.9,0.9 3.5,-3.9 3.5,-3.9 0,0 0.1,1.5 -1.5,4.5 -0.8,1.6 -2.6,5.7 -1.3,6.3 1.3,0.5 5.9,-2.3 7.2,-4.2 1.3,-1.9 2.7,-5.1 3.2,-6.1 0.4,-1 1.1,-2.5 1.3,-3.6 0.2,-1.1 -0.1,-1.6 0.4,-2.6 0.4,-1 6,-8.6 6,-8.6 z"
   id="path2895" />

	<polygon
   style="fill:#ff9900"
   points="72.1,86.5 78,78.5 69.8,72.9 66.2,83.3 "
   id="polygon2897" />

	<path
   style="fill:#fbd7c7"
   d="m 39.1,78.6 -0.2,6.2 c 0,0 -6.9,-1 -8.6,-1.5 -1.7,-0.4 -7.4,-2.5 -8.4,-3.3 -1,-0.7 -3.4,-3.1 -2.9,-6.2 0.2,-1.6 2.7,-3.9 4.2,-3.8 1.5,0.1 0.9,1.4 0.3,2 -0.6,0.6 -1,1.4 0.1,1.8 1.1,0.4 2.5,-0.1 3.6,1.5 1.1,1.6 0.7,3.2 2.3,3.4 1.6,0.3 9.6,-0.1 9.6,-0.1 z"
   id="path2899" />

	<path
   style="fill:#ff9900"
   d="m 38.4,78.3 -0.7,6.8 c 0,0 6.9,1.5 10.5,1.6 3.6,0.1 8.8,0.3 10,-1.7 1.2,-2 1.7,-8.2 1.9,-10 0.1,-1.8 0.1,-5 0.1,-5 0,0 1.8,2.9 4.3,3.4 2.4,0.5 5.9,-0.7 7.2,1.3 1.3,1.9 6.7,12.3 6.7,12.3 0,0 12.7,-2.9 17.9,-6.1 5.2,-3.3 8.2,-5.9 8.2,-5.9 0,0 -10.8,-16.8 -14.8,-21.1 C 85.6,49.6 75.7,36 71.4,35.7 67.2,35.4 62,35 62,35 l -8.3,5.7 c 0,0 -2.6,7.6 -4.3,10.7 -1.7,3.1 -2.7,7.2 -2,10.7 0.7,3.5 2.4,9 2.6,11 0.2,2 0.5,4.7 0.5,4.7 0,0 -2.4,-0.1 -5.3,-0.1 -2.9,0 -6.8,0.6 -6.8,0.6 z"
   id="path2901" />

	<path
   style="fill:#28896d"
   d="m 50,49.5 1.2,-2.8 c 0,0 6.6,-2.7 12.7,1 6.1,3.6 19.7,19.1 19.7,19.1 L 91.7,62 C 91.7,62 83.8,50.1 78.2,44.1 73.7,39.2 66,35.6 66,35.6 l 3.3,-0.2 c 0,0 5.4,2.2 10.3,7.5 6.9,7.5 15.9,20.6 15.9,20.6 l 5.4,3.3 c 0,0 8,10 10.9,14.9 4.2,7.3 3.7,20 -10.5,26.8 -4.9,2.4 -11.4,7.1 -13.7,9.2 -2.3,2.1 -5,4 -5,4 0,0 8.5,3.8 11.4,5.4 2.9,1.6 8.6,3.6 8.6,3.6 l -3.5,11.2 c 0,0 -12,-5 -15.4,-6.2 -3.5,-1.2 -13.5,-3.7 -16.5,-5 -3,-1.3 -3.6,-6.2 -2.4,-9.5 1.3,-3.9 4.1,-12.2 8.1,-18.6 2,-3.3 5.1,-7.5 6.1,-9.8 1,-2.3 -1.3,-7.2 -2.6,-9 -1.3,-1.8 -2.2,-3.8 -4.8,-6.1 -2.5,-2.3 -7.1,-3.5 -9.8,-5.5 -1,-0.8 -1.5,-2.1 -1.5,-2.1 0,0 4,3.2 9.8,3.4 3,1.6 5.4,4.6 6.2,4.7 3.4,0.2 6.1,-2.5 6.5,-4.4 0.3,-1.5 -1,-4.4 -1.7,-5.4 C 80.4,67.4 64.7,50.6 60.9,49.1 54.9,47 50,49.5 50,49.5 Z"
   id="path2903" />

	<path
   style="fill:#825012"
   d="m 109.6,121.6 c 2,0.8 3.5,1.3 5.7,0.8 2.2,-0.5 4.6,-1.3 6.2,-0.6 1.6,0.7 2.4,1.3 3.1,4.1 0.7,2.9 0.7,3.4 0.7,3.4 l -0.8,0.1 c 0,0 1.1,2.5 2,4.7 0.9,2.1 0.8,10.1 -1.6,12.3 -2.4,2.1 -4.6,1.7 -5.7,0.4 -1.9,-2.3 -2,-7 -3.3,-8 -1.3,-1 -7.8,-2.3 -7.8,-2.3 0,0 1.9,-5.4 2.1,-8.5 0.2,-3.1 -0.6,-6.4 -0.6,-6.4 z"
   id="path2905" />

	<path
   style="opacity:0.5"
   d="m 126.5,134.2 c -0.9,-2.1 -2,-4.7 -2,-4.7 l 0.8,-0.1 c 0,0 0,-0.5 -0.7,-3.4 -0.7,-2.9 -1.5,-3.4 -3.1,-4.1 -0.4,-0.2 -0.8,-0.3 -1.3,-0.3 -1.1,0.5 -1.8,1.2 -1.6,3.3 0.2,3 1,5.2 1.2,8.4 0.2,3.1 -0.8,7.5 0.5,11.6 0.5,1.5 1.2,2.4 2.1,3 0.8,-0.2 1.7,-0.6 2.6,-1.4 2.3,-2.2 2.4,-10.2 1.5,-12.3 z"
   id="path2907" />

	<path
   style="fill:#fbd7c7"
   d="m 36.8,23.5 c -0.8,2.6 1.4,9.5 3.8,12.9 2.4,3.4 4.4,5 5.9,4.8 1.6,-0.1 2.6,-1.4 3.7,-0.7 1.1,0.7 2.5,2.7 2.5,2.7 0,0 2.1,-3.4 4.2,-4.4 2.1,-1 4.5,-3.3 4.5,-3.3 0,0 -4,-2.7 -4.4,-4.2 -0.4,-1.5 1.7,-9.5 -1.5,-12.6 -3.2,-3.1 -15.3,-6 -18.7,4.8 z"
   id="path2909" />

	<path
   style="fill:#762c07"
   d="m 41.5,28.8 c 0.9,-0.2 1.7,-2.4 3.1,-1 1.4,1.4 2.1,4.4 4.3,5.8 2.2,1.4 6.9,-0.3 7.7,-1 0.7,-0.7 2.2,-6.5 1.6,-9.5 -0.6,-3 -5.4,-12.7 -15.4,-9.5 -10,3.2 -7.2,12.8 -6.3,14 0.9,1.4 3.4,1.5 5,1.2 z"
   id="path2911" />

	<path
   style="fill:#ff9900"
   d="m 55.6,22.2 c -3.3,0.8 -4.4,4 -3.3,5.6 1.1,1.6 3.5,0.9 5,0.3 1.6,-0.6 2.1,-3.3 1.6,-4.4 -0.4,-1.2 -2.3,-1.7 -3.3,-1.5 z"
   id="path2913" />

	<path
   style="fill:#762c07"
   d="m 55.7,23.7 c -1.9,1 -4.4,5.7 -2.8,9.1 1.6,3.4 7.3,3.7 8.9,6.9 1.6,3.3 -0.4,10.1 -0.4,10.1 0,0 8.6,-10.1 5.9,-17.5 -2.8,-7.1 -7.4,-10.8 -11.6,-8.6 z"
   id="path2915" />

	<path
   style="fill:#825012"
   d="m 99.3,129.1 c 1.4,0.5 4.5,0.4 6.1,0.3 1.6,-0.1 4.5,-1.3 5.6,1.2 1.1,2.5 1.9,6 1.9,6 l -0.4,0.3 c 0,0 0.8,3.3 2,5.3 1.2,2 4.3,11 1.3,12.3 -3,1.3 -4.5,0.1 -6,-1.1 -1.5,-1.2 -3.4,-5.6 -3.7,-6.5 -0.3,-0.9 -3.3,-2.4 -5,-2.7 -1.8,-0.2 -4.2,-1.1 -4.2,-1.1 0,0 1.4,-6.7 1.8,-9 0.3,-2.4 0.6,-5 0.6,-5 z"
   id="path2917" />

	<path
   style="opacity:0.5"
   d="m 114.5,142.2 c -1.2,-2 -2,-5.3 -2,-5.3 l 0.4,-0.3 c 0,0 -0.8,-3.5 -1.9,-6 -0.4,-0.8 -0.9,-1.2 -1.5,-1.4 -2.8,0.9 -3.4,2.6 -2.9,5.5 0.5,3 0.5,5.8 0.9,9.2 0.3,3.1 1.3,8.6 5.2,11.1 0.9,0.2 1.9,0.1 3.2,-0.5 3,-1.3 -0.2,-10.3 -1.4,-12.3 z"
   id="path2919" />

</g>
  </g>
</svg>
