<?xml version="1.0" encoding="UTF-8" standalone="no"?>
<!-- Created with Inkscape (http://www.inkscape.org/) -->

<svg
   xmlns:dc="http://purl.org/dc/elements/1.1/"
   xmlns:cc="http://creativecommons.org/ns#"
   xmlns:rdf="http://www.w3.org/1999/02/22-rdf-syntax-ns#"
   xmlns:svg="http://www.w3.org/2000/svg"
   xmlns="http://www.w3.org/2000/svg"
   xmlns:sodipodi="http://sodipodi.sourceforge.net/DTD/sodipodi-0.dtd"
   xmlns:inkscape="http://www.inkscape.org/namespaces/inkscape"
   width="83.501602mm"
   height="102.91961mm"
   viewBox="0 0 83.501602 102.91961"
   version="1.1"
   id="svg8"
   inkscape:version="0.92.3 (2405546, 2018-03-11)"
   sodipodi:docname="want-cake.svg">
  <defs
     id="defs2" />
  <sodipodi:namedview
     id="base"
     pagecolor="#ffffff"
     bordercolor="#666666"
     borderopacity="1.0"
     inkscape:pageopacity="0.0"
     inkscape:pageshadow="2"
     inkscape:zoom="5.5134128"
     inkscape:cx="197.50999"
     inkscape:cy="281.09076"
     inkscape:document-units="mm"
     inkscape:current-layer="layer1"
     showgrid="false"
     fit-margin-top="0"
     fit-margin-left="0"
     fit-margin-right="0"
     fit-margin-bottom="0"
     inkscape:window-width="1853"
     inkscape:window-height="2045"
     inkscape:window-x="134"
     inkscape:window-y="55"
     inkscape:window-maximized="0" />
  <metadata
     id="metadata5">
    <rdf:RDF>
      <cc:Work
         rdf:about="">
        <dc:format>image/svg+xml</dc:format>
        <dc:type
           rdf:resource="http://purl.org/dc/dcmitype/StillImage" />
        <dc:title />
      </cc:Work>
    </rdf:RDF>
  </metadata>
  <g
     inkscape:label="Layer 1"
     inkscape:groupmode="layer"
     id="layer1"
     transform="translate(-77.21162,-106.89268)">
    <path
       style="fill:none;stroke:#000000;stroke-width:1;stroke-linecap:round;stroke-linejoin:round;stroke-miterlimit:4;stroke-dasharray:none;stroke-opacity:1"
       inkscape:connector-curvature="0"
       d="m 145.31337,107.47008 c -0.60856,0.11122 -1.43963,0.88598 -2.04438,1.91005 -0.90333,1.52651 -1.45484,3.52861 -1.58036,5.73016 l -0.0247,0.41423 h -0.13312 c -1.5157,0 -2.87925,1.86786 -3.43266,4.69076 -0.0742,0.37971 -0.14263,0.88215 -0.19398,1.41912 l -0.0437,0.45258 -0.18827,0.19561 c -0.36134,0.37204 -0.6542,0.82078 -0.96799,1.47664 -0.3195,0.67121 -0.52298,1.33858 -0.6523,2.13635 -0.17306,1.07009 -0.22441,2.35113 -0.13313,3.37136 0.0723,0.82079 0.28527,1.83718 0.51728,2.46236 0.15785,0.42573 0.55531,1.23501 0.75119,1.52651 0.67132,1.00489 1.36546,1.35008 2.34296,1.16598 0.28716,-0.0575 0.24342,-0.13808 0.35562,0.64435 0.53249,3.72422 1.99684,6.26329 3.9062,6.77341 0.40697,0.10739 1.10111,0.0345 1.5214,-0.16493 0.28906,-0.13424 0.73788,-0.47559 1.0897,-0.83229 0.10079,-0.0997 0.24533,-0.2378 0.3195,-0.30684 l 0.13502,-0.12657 0.22631,0.30684 c 0.60095,0.80928 1.06117,1.22734 1.71918,1.57637 0.46213,0.24163 0.70365,0.31067 1.29319,0.3682 0.69034,0.069 1.62219,-0.26464 2.29161,-0.82462 0.71125,-0.59449 1.31791,-1.41145 1.8542,-2.49304 0.59715,-1.20433 1.02885,-2.57359 1.31982,-4.19215 0.12742,-0.71339 0.20349,-1.33857 0.30618,-2.5429 l 0.0114,-0.12274 0.4317,0.0192 c 0.33661,0.0153 0.48304,0.008 0.66941,-0.0422 0.80635,-0.21862 1.49668,-0.90133 2.08242,-2.07498 1.03645,-2.06347 1.40159,-4.9554 0.96989,-7.64405 -0.0837,-0.51011 -0.29096,-1.36926 -0.44691,-1.83718 -0.52868,-1.59555 -1.40729,-2.83824 -2.30112,-3.24863 -0.37654,-0.17643 -1.18669,-0.17643 -1.6355,-0.004 l -0.0666,0.023 -0.0989,-0.40272 c -0.2187,-0.88599 -0.46023,-1.55336 -0.81585,-2.24758 -0.46593,-0.91283 -1.02505,-1.58787 -1.64692,-1.98676 -0.42409,-0.27615 -0.91664,-0.38354 -1.43582,-0.31451 -0.46403,0.0614 -0.66942,0.14192 -1.06878,0.40273 -0.14454,0.0959 -0.27005,0.17259 -0.27956,0.17259 -0.0209,0 -0.0304,-0.0383 -0.22441,-0.8438 -0.34612,-1.44213 -0.84057,-2.61961 -1.48907,-3.54012 -0.45642,-0.64819 -1.0935,-1.21967 -1.54802,-1.39227 -0.53343,-0.17197 -1.10743,-0.15742 -1.66213,-0.0535 z"
       id="path1141"
       sodipodi:nodetypes="ccccsccccccccccccccccccccsccccccccccccccccsccccc" />
    <g
       id="g874"
       transform="matrix(0.26458333,0,0,0.26458333,108.80287,128.37354)">
      <path
         id="path815"
         d="m 28.6,81.8 c 0,0 -3.2,10.8 -5.9,19.1 -2.7,8.3 -4.4,13.8 -5.3,15.9 -0.9,2.1 -1.3,5.7 -0.8,7.3 0.5,1.6 2.3,5 3,5.7 1.7,1.6 4.4,1.2 4.8,0.8 0.4,-0.5 0.4,-2.2 -0.3,-2.9 -0.7,-0.7 -2.6,-3 -1.4,-6 1.2,-2.9 1,-4.2 1,-6 0,-1.5 -0.5,-1.7 0.7,-4.1 1.2,-2.5 6.9,-14.5 7.5,-16.2 0.6,-1.7 -3.3,-13.6 -3.3,-13.6 z"
         inkscape:connector-curvature="0"
         style="fill:#fbd7c7" />
      <path
         id="path817"
         d="m 24.3,206.2 c -11.8,7.6 -12.4,14.4 0,21 13.5,7.2 22.4,3.3 32.9,-2.7 10.5,-6 11.8,-13.4 -3.6,-19.5 -12.5,-5 -20.4,-4.5 -29.3,1.2 z"
         inkscape:connector-curvature="0"
         style="opacity:0.2" />
      <path
         id="path819"
         d="m 42.3,54.7 c 0,0 -9.1,-4 -12.3,0.3 -3.2,4.3 -1.7,11 -1.7,11 0,0 -5.3,6 -5.3,9.4 0,3.3 5.1,6.5 5.1,6.5 0,0 0.6,15.8 -0.3,22.3 -0.9,6.5 -3.8,23.3 -3.1,33.9 0.7,10.6 1.6,25 1.9,29.2 0.3,4.1 2.2,10 3,14.8 0.9,4.8 4.1,13.2 0.9,19.6 -3.2,6.4 -6.1,9.3 -7.4,10.5 -1.3,1.2 0.2,5.2 3,4.5 2.8,-0.7 7.2,-7.1 9.9,-8.1 2.7,-1.1 7.2,-4 6,-7.7 -1.2,-3.6 -1.7,-2.2 -2,-5.3 -0.3,-3.1 2.2,-16.7 1.3,-22.8 -0.9,-6.1 -3.2,-7.8 -3.6,-8.8 -0.4,-1 5.7,-29.5 5.7,-29.5 0,0 1.2,27.3 1.1,30.2 -0.1,2.9 2.1,17.7 2.7,24.6 0.7,7 1,18.8 -2,22.9 -2.9,4.1 -8,10.3 -6,11.7 2,1.4 8.3,2.7 9.8,-0.9 1.5,-3.6 5.3,-11.1 6.7,-13.1 1.4,-2 1.9,-3.1 1,-5 -0.9,-1.9 -1.5,-5 -0.5,-10.3 1,-5.3 4.1,-14.7 3.3,-19.7 -0.8,-5 -3.2,-8.1 -2.9,-11.7 0.3,-3.5 8.1,-24.8 6.6,-39.7 C 61.6,108.7 54.2,106 52.9,100 51.6,94 55.9,86.1 58.1,81.8 60.3,77.6 63.4,70.2 60.7,67.6 58,64.9 54.8,63.2 53.6,61.2 52.4,59.2 51.1,53 51.1,53 Z"
         inkscape:connector-curvature="0"
         style="fill:#fbd7c7" />
      <path
         id="path821"
         d="m 24.9,210.3 c 0,0 -4.9,1.7 -5.9,3.9 -0.8,1.8 -0.5,3.9 1.2,5 1.8,1 5.2,1.3 8.2,-0.4 2.9,-1.7 6.8,-8.4 7.5,-8.7 0.7,-0.3 0.2,3.7 0.2,3.7 l 2.1,1.1 2.3,-0.9 c 0,0 -0.2,-4.5 0.7,-6 0.9,-1.5 2.6,-3.9 2,-6.9 -0.6,-3 -2.6,-3.3 -2.6,-3.3 0,0 0,3.5 -4,7.3 -3.8,3.6 -5.9,9.6 -9.2,9.3 -4.5,-0.7 -2.5,-4.1 -2.5,-4.1 z"
         inkscape:connector-curvature="0"
         style="fill:#2d3134" />
      <path
         id="path823"
         d="m 41.8,217.1 c 0,0 -4.6,3.5 -4.9,5.7 -0.3,2.2 -0.2,3.7 2.9,4.7 3.1,1 7.1,-0.2 9,-1.8 1.9,-1.6 4.4,-5.8 4.4,-5.8 l 2,1.1 2.3,-1.1 c 0,0 -0.3,-2.7 0.4,-5.1 0.7,-2.4 1.4,-4.4 1.4,-7.4 0,-3 -2.8,-3.3 -2.8,-3.3 0,0 1.7,1.6 -0.8,5.1 -2.5,3.5 -4.4,11.3 -8.1,11.5 -7,0.5 -5.8,-3.6 -5.8,-3.6 z"
         inkscape:connector-curvature="0"
         style="fill:#2d3134" />
      <path
         id="path825"
         d="M 60.3,110.8 C 58.1,107.3 48.7,100.2 58.2,82 60.4,77.8 63.8,69.9 61.1,67.3 58.4,64.6 55.2,62.9 54,60.9 c -1.2,-2 -2.8,-7.8 -2.8,-7.8 l -8.9,1.6 -5.5,-2 c 0,0 -2.5,-0.4 -7.3,1 -4.8,1.4 -4.8,8.9 -4.9,13.6 0,0.8 -2,5 -2,8.1 0,4.2 5.3,7.1 5.4,12.1 0.2,2.1 0.1,4.8 0,7.6 0,2.9 -4.7,26.5 -5.7,30 -1.9,6.8 -4.2,32.1 -3.7,33.1 2.1,4.2 12.6,3.2 17.4,7.6 4.8,4.4 17.8,3.7 24,1.6 6.2,-2.1 9.4,-5.8 9.2,-6.5 -4.6,-18.8 -3.5,-41.7 -8.9,-50.1 z"
         inkscape:connector-curvature="0"
         style="fill:#3399cc" />
      <path
         id="path827"
         d="m 47.9,109.2 c 4.6,-1.1 8.5,-3.7 9.3,-4.1 -0.8,-0.9 -1.4,-1.5 -1.4,-1.6 0,0 -7.3,4.4 -17.3,3.6 -10,-0.8 -12.1,-3.6 -12.1,-3.6 -1.4,6.7 -4.3,18.2 -5.3,21.8 -1.9,6.8 -5.2,17.9 -4.7,18.8 2.1,4.2 13,3.2 17.8,7.6 4.8,4.4 18.9,1.3 18.9,1.3 0,0 1.1,-17.1 -2.6,-33.4 -0.7,-3.3 -1.9,-7.7 -2.6,-10.4 z"
         inkscape:connector-curvature="0"
         style="fill:#ffffff" />
      <path
         id="path829"
         d="M 37.2,54.2 33,74.3 51.2,62.4 51.1,57.1 Z"
         inkscape:connector-curvature="0"
         style="fill:#fbd7c7" />
      <path
         id="path831"
         d="M 54.3,66.6 33,74.3 51.2,62.4 Z"
         inkscape:connector-curvature="0"
         style="fill:#ffffff" />
      <path
         id="path833"
         d="M 37.2,54.2 33,74.3 31.3,55.6 Z"
         inkscape:connector-curvature="0"
         style="fill:#ffffff" />
      <path
         id="path835"
         d="M 22.6,76.1 C 25.7,82 35.1,86.6 49.2,83.5 48.3,85.8 28,91 22.6,76.1 Z"
         inkscape:connector-curvature="0"
         style="opacity:0.15" />
      <path
         id="path837"
         d="M 33.7,33.8 C 32,37 30.9,44.3 31.8,48.6 c 0.9,4.3 2.5,6.8 3.7,7.1 1.2,0.3 2.5,-0.2 2.5,-0.2 0,0 0.4,1.2 0.1,2.7 -0.6,3 -2.2,7.5 -1.8,8 0.5,0.7 8.8,-3 11.5,-5.2 2.2,-1.7 4,-4.8 3.9,-5.3 -0.1,-0.5 -1.7,-3.8 -1.5,-5 0.2,-1.2 3,-3.7 3.2,-4.9 C 53.6,44.6 56.2,34 48.3,31.2 40.4,28.4 35.8,29.8 33.7,33.8 Z"
         inkscape:connector-curvature="0"
         style="fill:#fbd7c7" />
      <path
         id="path839"
         d="m 32.2,35.9 c 0,1.4 1.4,1.6 3.9,2.9 2.5,1.3 4.8,5.8 6.9,6.4 2.1,0.6 4.9,0 6.8,-0.4 2,-0.4 2.9,0.6 3.1,1.4 0.2,0.8 4.6,-6.3 2.6,-11.9 -2.1,-6 -9.3,-9.8 -16.2,-6.9 -6.3,2.8 -7.1,7.3 -7.1,8.5 z"
         inkscape:connector-curvature="0"
         style="fill:#825012" />
      <path
         id="path841"
         d="M 51,75.2 C 49.9,72.3 50.3,65 56.3,64.7 c 6,-0.3 6.7,5.7 7.2,13.6 0.5,7.9 3.5,20.7 3.7,23.3 0.2,2.6 -1.5,9.7 -5.6,16 -4.1,6.3 -6.9,11.4 -7.1,12.3 -0.2,1 -1.4,4.9 -3.1,6.1 -0.7,0.5 -1.5,1.2 -1.9,2.5 -0.4,1.3 0.5,2.4 0.7,2.7 0.3,0.7 -0.2,1.5 -1.4,2.2 -1.3,0.8 -3.2,-0.5 -4.2,-1.3 -0.7,-0.5 -2.5,-2.1 -2,-4.3 0.4,-1.6 1.7,-6.6 3.7,-7.8 2,-1.2 3.9,-2.7 4.6,-4.1 0.7,-1.4 2.2,-11.9 4.8,-17.2 1.4,-2.9 3.1,-4.8 3.1,-5.9 C 58.7,101.9 52.1,78.1 51,75.2 Z"
         inkscape:connector-curvature="0"
         style="fill:#fbd7c7" />
      <path
         id="path843"
         d="m 56.1,94.5 9.6,-2.2 C 64.8,87.2 64,78.7 63.5,72.8 62.9,65.3 57.6,63.4 54.4,65 c -8.2,4.3 -2.6,14.4 -0.9,20.3 0.8,2.6 1.8,6.6 2.6,9.2 z"
         inkscape:connector-curvature="0"
         style="fill:#3399cc" />
      <path
         id="path845"
         d="m 55.5,43.8 c 0,0 4.9,4.5 3.8,9.7 -2.9,15 -4.8,7.8 -6.8,25.2 -3.3,-7.4 -5.5,-20.4 -2.6,-27.4 1.3,-3.2 5.6,-7.5 5.6,-7.5 z"
         inkscape:connector-curvature="0"
         style="fill:#825012" />
      <path
         id="path847"
         d="m 55.6,42.2 c 1.3,0.7 0.9,2.4 -0.4,3.7 -1.3,1.3 -1.9,2.1 -2.8,1.4 -0.8,-0.7 0.3,-1.4 1.3,-2.9 0.9,-1.4 1.2,-2.6 1.9,-2.2 z"
         inkscape:connector-curvature="0"
         style="fill:#3399cc" />
    </g>
    <g
       id="g1030"
       transform="matrix(0.26458333,0,0,0.26458333,77.21162,156.89562)">
      <path
         id="path974"
         d="m 0,160 80,40 80,-40 -80,-40 z"
         inkscape:connector-curvature="0"
         style="opacity:0.2" />
      <path
         id="path976"
         d="m 76,123 v 75 l 4,2 4,-2 v -75 l -4,-2 z"
         inkscape:connector-curvature="0"
         style="fill:#656565" />
      <path
         id="path978"
         d="m 80,200 -4,-2 v -75 l 4,2 z"
         inkscape:connector-curvature="0"
         style="opacity:0.11000001" />
      <path
         id="path980"
         d="m 80,200 4,-2 v -75 l -4,2 z"
         inkscape:connector-curvature="0"
         style="opacity:0.28999999" />
      <path
         id="path982"
         d="m 0,85 v 75 l 4,2 4,-2 V 85 L 4,83 Z"
         inkscape:connector-curvature="0"
         style="fill:#656565" />
      <path
         id="path984"
         d="M 4,162 0,160 V 85 l 4,2 z"
         inkscape:connector-curvature="0"
         style="opacity:0.11000001" />
      <path
         id="path986"
         d="m 4,162 4,-2 V 85 l -4,2 z"
         inkscape:connector-curvature="0"
         style="opacity:0.28999999" />
      <path
         id="path988"
         d="m 152,85 v 75 l 4,2 4,-2 V 85 l -4,-2 z"
         inkscape:connector-curvature="0"
         style="fill:#656565" />
      <path
         id="path990"
         d="m 156,162 -4,-2 V 85 l 4,2 z"
         inkscape:connector-curvature="0"
         style="opacity:0.11000001" />
      <path
         id="path992"
         d="m 156,162 4,-2 V 85 l -4,2 z"
         inkscape:connector-curvature="0"
         style="opacity:0.28999999" />
      <path
         id="path994"
         d="m 0,85 v 5 l 80,40 80,-40 V 85 L 80,45 Z"
         inkscape:connector-curvature="0"
         style="fill:#656565" />
      <path
         id="path996"
         d="M 80,130 0,90 v -5 l 80,40 z"
         inkscape:connector-curvature="0"
         style="opacity:0.11000001" />
      <path
         id="path998"
         d="M 80,130 160,90 V 85 L 80,125 Z"
         inkscape:connector-curvature="0"
         style="opacity:0.28999999" />
      <path
         id="path1000"
         d="m 0,80 v 5 l 80,40 80,-40 V 80 L 80,40 Z"
         inkscape:connector-curvature="0"
         style="fill:#ff9900" />
      <path
         id="path1002"
         d="M 80,125 0,85 v -5 l 80,40 z"
         inkscape:connector-curvature="0"
         style="opacity:0.11000001" />
      <path
         id="path1004"
         d="M 80,125 160,85 V 80 L 80,120 Z"
         inkscape:connector-curvature="0"
         style="opacity:0.28999999" />
    </g>
    <g
       id="g972"
       transform="matrix(0.26458333,0,0,0.26458333,93.305032,172.02853)">
      <ellipse
         id="ellipse916"
         ry="13"
         rx="19.1"
         cy="24"
         cx="19.9"
         style="fill:#2d3134" />
      <path
         id="path918"
         d="M 20,10 C 11.7,10 5,14.5 5,20 v 4 c 0,5.5 6.7,10 15,10 8.3,0 15,-4.5 15,-10 V 20 C 35,14.5 28.3,10 20,10 Z"
         inkscape:connector-curvature="0"
         style="fill:#baa794" />
      <path
         id="path920"
         d="M 20,30 C 11.7,30 5,25.5 5,20 v 4 c 0,5.5 6.7,10 15,10 8.3,0 15,-4.5 15,-10 v -4 c 0,5.5 -6.7,10 -15,10 z"
         inkscape:connector-curvature="0"
         style="opacity:0.15" />
      <path
         id="path922"
         d="M 20,6 C 11.7,6 5,10.5 5,16 v 4 c 0,5.5 6.7,10 15,10 8.3,0 15,-4.5 15,-10 V 16 C 35,10.5 28.3,6 20,6 Z"
         inkscape:connector-curvature="0"
         style="fill:#f8ebcb" />
      <path
         id="path924"
         d="M 35,13 C 35,7.5 28.3,3 20,3 11.7,3 5,7.5 5,13 v 2 c 0,1.7 0.6,3.2 1.7,4.6 -0.3,1.1 -0.8,2.7 -0.8,3.1 0,0.6 0.5,1.2 1.2,1.2 0.6,0 1.2,-0.5 1.2,-1.2 0,-0.3 -0.2,-1.1 -0.4,-1.9 0.8,0.8 1.8,1.4 2.9,2 -0.3,0.9 -0.6,2.1 -0.6,2.4 0,0.6 0.5,1 1,1 0.6,0 1,-0.5 1,-1 0,-0.3 -0.2,-1.1 -0.5,-2 1.2,0.5 2.5,1 3.9,1.3 -0.4,1.2 -1,3.2 -1,3.7 0,0.7 0.6,1.3 1.3,1.3 0.7,0 1.3,-0.6 1.3,-1.3 0,-0.5 -0.6,-2.3 -0.9,-3.6 1.2,0.2 2.5,0.3 3.8,0.3 0.5,0 1.1,0 1.6,-0.1 -0.2,0.7 -0.4,1.3 -0.4,1.5 0,0.6 0.5,1 1,1 0.6,0 1,-0.5 1,-1 0,-0.2 -0.2,-0.9 -0.4,-1.7 2,-0.3 3.9,-0.8 5.6,-1.6 -0.4,1.4 -1.2,3.9 -1.2,4.5 0,0.8 0.7,1.5 1.5,1.5 0.8,0 1.5,-0.7 1.5,-1.5 0,-0.6 -0.9,-3.4 -1.3,-4.8 1.6,-0.8 2.9,-1.8 3.9,-2.9 -0.2,0.8 -0.5,1.6 -0.5,1.9 0,0.6 0.5,1 1,1 0.5,0 1,-0.5 1,-1 0,-0.4 -0.5,-2 -0.8,-2.9 0.8,-1.2 1.3,-2.6 1.3,-4 V 13 Z"
         inkscape:connector-curvature="0"
         style="fill:#762c07" />
      <path
         id="path926"
         d="m 35,13 c 0,5 -5.5,9.1 -12.7,9.9 0,-0.1 0,-0.1 0,-0.1 0,0 0,0 0,0.1 C 21.5,22.9 20.8,23 20,23 11.7,23 5,18.5 5,13 v 2 c 0,1.7 0.6,3.2 1.7,4.6 -0.3,1.1 -0.8,2.7 -0.8,3.1 0,0.6 0.5,1.2 1.2,1.2 0.6,0 1.2,-0.5 1.2,-1.2 0,-0.3 -0.2,-1.1 -0.4,-1.9 0.8,0.8 1.8,1.4 2.9,2 -0.3,0.9 -0.6,2.1 -0.6,2.4 0,0.6 0.5,1 1,1 0.6,0 1,-0.5 1,-1 0,-0.3 -0.2,-1.1 -0.5,-2 1.2,0.5 2.5,1 3.9,1.3 -0.4,1.2 -1,3.2 -1,3.7 0,0.7 0.6,1.3 1.3,1.3 0.7,0 1.3,-0.6 1.3,-1.3 0,-0.5 -0.6,-2.3 -0.9,-3.6 1.2,0.2 2.5,0.3 3.8,0.3 0.5,0 1.1,0 1.6,-0.1 -0.2,0.7 -0.4,1.3 -0.4,1.5 0,0.6 0.5,1 1,1 0.5,0 1,-0.5 1,-1 0,-0.2 -0.2,-0.9 -0.4,-1.7 2,-0.3 3.9,-0.8 5.6,-1.6 -0.4,1.4 -1.2,3.9 -1.2,4.5 0,0.8 0.7,1.5 1.5,1.5 0.8,0 1.5,-0.7 1.5,-1.5 0,-0.6 -0.9,-3.4 -1.3,-4.8 1.6,-0.8 2.9,-1.8 3.9,-2.9 -0.2,0.8 -0.5,1.6 -0.5,1.9 0,0.6 0.5,1 1,1 0.5,0 1,-0.5 1,-1 0,-0.4 -0.5,-2 -0.8,-2.9 0.8,-1.2 1.3,-2.6 1.3,-4 V 13 Z"
         inkscape:connector-curvature="0"
         style="opacity:0.15" />
      <path
         id="path928"
         d="m 22,12 c 0,1.1 -0.9,2 -2,2 -1.1,0 -2,-0.9 -2,-2 0,-1.1 2,-3 2,-3 0,0 2,1.9 2,3 z"
         inkscape:connector-curvature="0"
         style="fill:#f8ebcb" />
      <g
         id="g946"
         style="fill:#baa794">
        <path
           id="path930"
           d="m 9,13 c 0,0.6 -0.4,1 -1,1 -0.6,0 -1,-0.4 -1,-1 0,-0.6 1,-1.5 1,-1.5 0,0 1,0.9 1,1.5 z"
           inkscape:connector-curvature="0" />
        <path
           id="path932"
           d="m 33,13 c 0,0.6 -0.4,1 -1,1 -0.6,0 -1,-0.4 -1,-1 0,-0.6 1,-1.5 1,-1.5 0,0 1,0.9 1,1.5 z"
           inkscape:connector-curvature="0" />
        <path
           id="path934"
           d="m 29,19 c 0,0.6 -0.4,1 -1,1 -0.6,0 -1,-0.4 -1,-1 0,-0.6 1,-1.5 1,-1.5 0,0 1,0.9 1,1.5 z"
           inkscape:connector-curvature="0" />
        <path
           id="path936"
           d="m 21,21 c 0,0.6 -0.4,1 -1,1 -0.6,0 -1,-0.4 -1,-1 0,-0.6 1,-1.5 1,-1.5 0,0 1,0.9 1,1.5 z"
           inkscape:connector-curvature="0" />
        <path
           id="path938"
           d="m 21,4.5 c 0,0.6 -0.4,1 -1,1 -0.6,0 -1,-0.4 -1,-1 0,-0.6 1,-1.5 1,-1.5 0,0 1,0.9 1,1.5 z"
           inkscape:connector-curvature="0" />
        <path
           id="path940"
           d="m 13,19 c 0,0.6 -0.4,1 -1,1 -0.6,0 -1,-0.4 -1,-1 0,-0.6 1,-1.5 1,-1.5 0,0 1,0.9 1,1.5 z"
           inkscape:connector-curvature="0" />
        <path
           id="path942"
           d="m 29,7 c 0,0.6 -0.4,1 -1,1 -0.6,0 -1,-0.4 -1,-1 0,-0.6 1,-1.5 1,-1.5 0,0 1,0.9 1,1.5 z"
           inkscape:connector-curvature="0" />
        <path
           id="path944"
           d="m 13,7 c 0,0.6 -0.4,1 -1,1 -0.6,0 -1,-0.4 -1,-1 0,-0.6 1,-1.5 1,-1.5 0,0 1,0.9 1,1.5 z"
           inkscape:connector-curvature="0" />
      </g>
    </g>
    <g
       id="g1139"
       transform="matrix(0.13229166,0,0,0.13229167,141.10831,107.95535)">
      <path
         id="path1032"
         d="m 30.9,53.6 c -3.4,0.9 -6.1,3.6 -6.3,11.2 -0.2,7.6 -2.2,16.1 -4.7,20.8 -2.5,4.7 -7.3,15.8 -8,16.3 -0.7,0.4 -3.6,3.1 -4.4,4.8 -1.4,3 -1.9,9.2 0.2,10 2.1,0.8 2.8,-4.9 3.3,-5.7 0.5,-0.8 3.8,-3.1 3.8,-3.8 0,-0.7 -0.1,-0.7 -0.1,-0.7 0,0 5.1,-6.1 7.9,-9.4 2.8,-3.3 7.3,-9.6 7.7,-11.9 0.6,-2.4 9.8,-34.1 0.6,-31.6 z"
         inkscape:connector-curvature="0"
         style="fill:#fbd7c7" />
      <path
         id="path1034"
         d="m 24.3,206.2 c -11.8,7.6 -12.4,14.4 0,21 13.5,7.2 22.4,3.3 32.9,-2.7 10.5,-6 11.8,-13.4 -3.6,-19.5 -12.5,-5 -20.4,-4.5 -29.3,1.2 z"
         inkscape:connector-curvature="0"
         style="opacity:0.2" />
      <path
         id="path1036"
         d="m 42.3,54.7 c 0,0 -9.1,-4 -12.3,0.3 -3.2,4.3 -1.7,11 -1.7,11 0,0 -5.3,6 -5.3,9.4 0,3.3 5.1,6.5 5.1,6.5 0,0 0.6,15.8 -0.3,22.3 -0.9,6.5 -3.8,23.3 -3.1,33.9 0.7,10.6 1.6,25 1.9,29.2 0.3,4.1 2.2,10 3,14.8 0.9,4.8 4.1,13.2 0.9,19.6 -3.2,6.4 -6.1,9.3 -7.4,10.5 -1.3,1.2 0.2,5.2 3,4.5 2.8,-0.7 7.2,-7.1 9.9,-8.1 2.7,-1.1 7.2,-4 6,-7.7 -1.2,-3.6 -1.7,-2.2 -2,-5.3 -0.3,-3.1 2.2,-16.7 1.3,-22.8 -0.9,-6.1 -3.2,-7.8 -3.6,-8.8 -0.4,-1 5.7,-29.5 5.7,-29.5 0,0 1.2,27.3 1.1,30.2 -0.1,2.9 2.1,17.7 2.7,24.6 0.7,7 1,18.8 -2,22.9 -2.9,4.1 -8,10.3 -6,11.7 2,1.4 8.3,2.7 9.8,-0.9 1.5,-3.6 5.3,-11.1 6.7,-13.1 1.4,-2 1.9,-3.1 1,-5 -0.9,-1.9 -1.5,-5 -0.5,-10.3 1,-5.3 4.1,-14.7 3.3,-19.7 -0.8,-5 -3.2,-8.1 -2.9,-11.7 0.3,-3.5 8.1,-24.8 6.6,-39.7 C 61.6,108.7 54.2,106 52.9,100 51.6,94 55.9,86.1 58.1,81.8 60.3,77.6 63.4,70.2 60.7,67.6 58,64.9 54.8,63.2 53.6,61.2 52.4,59.2 51.1,53 51.1,53 Z"
         inkscape:connector-curvature="0"
         style="fill:#fbd7c7" />
      <path
         id="path1038"
         d="m 24.9,210.3 c 0,0 -4.9,1.7 -5.9,3.9 -0.8,1.8 -0.5,3.9 1.2,5 1.8,1 5.2,1.3 8.2,-0.4 2.9,-1.7 6.8,-8.4 7.5,-8.7 0.7,-0.3 0.2,3.7 0.2,3.7 l 2.1,1.1 2.3,-0.9 c 0,0 -0.2,-4.5 0.7,-6 0.9,-1.5 2.6,-3.9 2,-6.9 -0.6,-3 -2.6,-3.3 -2.6,-3.3 0,0 0,3.5 -4,7.3 -3.8,3.6 -5.9,9.6 -9.2,9.3 -4.5,-0.7 -2.5,-4.1 -2.5,-4.1 z"
         inkscape:connector-curvature="0"
         style="fill:#2d3134" />
      <path
         id="path1040"
         d="m 41.8,217.1 c 0,0 -4.6,3.5 -4.9,5.7 -0.3,2.2 -0.2,3.7 2.9,4.7 3.1,1 7.1,-0.2 9,-1.8 1.9,-1.6 4.4,-5.8 4.4,-5.8 l 2,1.1 2.3,-1.1 c 0,0 -0.3,-2.7 0.4,-5.1 0.7,-2.4 1.4,-4.4 1.4,-7.4 0,-3 -2.8,-3.3 -2.8,-3.3 0,0 1.7,1.6 -0.8,5.1 -2.5,3.5 -4.4,11.3 -8.1,11.5 -7,0.5 -5.8,-3.6 -5.8,-3.6 z"
         inkscape:connector-curvature="0"
         style="fill:#2d3134" />
      <path
         id="path1042"
         d="M 60.3,110.8 C 58.1,107.3 48.7,100.2 58.2,82 c 2.2,-4.2 5.3,-11.6 2.6,-14.2 -2.7,-2.7 -5.9,-4.4 -7.1,-6.4 -1.2,-2 -2.5,-8.2 -2.5,-8.2 l -8.9,1.6 -5.5,-2 c 0,0 -2.5,-0.4 -7.3,1 -4.8,1.4 -5.7,10 -5.8,14.8 0,0.8 -0.1,1.7 -0.2,2.5 -0.7,1.3 -1.2,2.7 -1.2,4.4 0,0.4 0.1,0.8 0.2,1.2 -0.9,3.8 -2.1,6.7 -2.1,6.7 l 7.6,4.4 c 0.2,2.1 0.4,4.7 0.4,7.5 0,2.9 -5,26.6 -6,30.1 -1.9,6.8 -4.2,32.1 -3.7,33.1 2.1,4.2 12.6,3.2 17.4,7.6 4.8,4.4 17.8,3.7 24,1.6 6.2,-2.1 9.4,-5.8 9.2,-6.5 -4.7,-19.1 -3.6,-42 -9,-50.4 z"
         inkscape:connector-curvature="0"
         style="fill:#3399cc" />
      <path
         id="path1044"
         d="m 48,109.2 c 4.6,-1.1 8.5,-3.7 9.3,-4.1 -0.8,-0.9 -1.4,-1.5 -1.4,-1.6 0,0 -7.3,4.4 -17.3,3.6 -10,-0.8 -11.5,-3 -11.5,-3 -1.4,6.7 -4.9,17.6 -5.9,21.2 -1.9,6.8 -5.2,17.9 -4.7,18.8 2.1,4.2 13,3.2 17.8,7.6 4.8,4.4 18.9,1.3 18.9,1.3 0,0 1.1,-17.1 -2.6,-33.4 -0.8,-3.3 -2,-7.7 -2.6,-10.4 z"
         inkscape:connector-curvature="0"
         style="fill:#ffffff" />
      <path
         id="path1046"
         d="M 37.2,54.2 33,74.3 51.2,62.4 51.1,57.1 Z"
         inkscape:connector-curvature="0"
         style="fill:#fbd7c7" />
      <path
         id="path1048"
         d="M 54.3,66.6 33,74.3 51.2,62.4 Z"
         inkscape:connector-curvature="0"
         style="fill:#ffffff" />
      <path
         id="path1050"
         d="M 37.2,54.2 33,74.3 31.3,55.6 Z"
         inkscape:connector-curvature="0"
         style="fill:#ffffff" />
      <path
         id="path1052"
         d="M 22.6,76.1 C 25.7,82 35.1,86.6 49.2,83.5 48.3,85.8 28.1,91 22.6,76.1 Z"
         inkscape:connector-curvature="0"
         style="opacity:0.15" />
      <ellipse
         id="ellipse1054"
         ry="13"
         rx="19.1"
         cy="113"
         cx="25.200001"
         style="fill:#2d3134" />
      <path
         id="path1056"
         d="m 25.3,99 c -8.3,0 -15,4.5 -15,10 v 4 c 0,5.5 6.7,10 15,10 8.3,0 15,-4.5 15,-10 v -4 c 0,-5.5 -6.7,-10 -15,-10 z"
         inkscape:connector-curvature="0"
         style="fill:#baa794" />
      <path
         id="path1058"
         d="m 25.3,119 c -8.3,0 -15,-4.5 -15,-10 v 4 c 0,5.5 6.7,10 15,10 8.3,0 15,-4.5 15,-10 v -4 c 0,5.5 -6.7,10 -15,10 z"
         inkscape:connector-curvature="0"
         style="opacity:0.15" />
      <path
         id="path1060"
         d="m 25.3,95 c -8.3,0 -15,4.5 -15,10 v 4 c 0,5.5 6.7,10 15,10 8.3,0 15,-4.5 15,-10 v -4 c 0,-5.5 -6.7,-10 -15,-10 z"
         inkscape:connector-curvature="0"
         style="fill:#f8ebcb" />
      <path
         id="path1062"
         d="m 40.3,102 c 0,-5.5 -6.7,-10 -15,-10 -8.3,0 -15,4.5 -15,10 v 2 c 0,1.7 0.6,3.2 1.7,4.6 -0.3,1.1 -0.8,2.7 -0.8,3.1 0,0.6 0.5,1.2 1.2,1.2 0.6,0 1.2,-0.5 1.2,-1.2 0,-0.3 -0.2,-1.1 -0.4,-1.9 0.8,0.8 1.8,1.4 2.9,2 -0.3,0.9 -0.6,2.1 -0.6,2.4 0,0.6 0.5,1 1,1 0.6,0 1,-0.5 1,-1 0,-0.3 -0.2,-1.1 -0.5,-2 1.2,0.5 2.5,1 3.9,1.3 -0.4,1.2 -1,3.2 -1,3.7 0,0.7 0.6,1.3 1.3,1.3 0.7,0 1.3,-0.6 1.3,-1.3 0,-0.5 -0.6,-2.3 -0.9,-3.6 1.2,0.2 2.5,0.3 3.8,0.3 0.5,0 1.1,0 1.6,-0.1 -0.2,0.7 -0.4,1.3 -0.4,1.5 0,0.6 0.5,1 1,1 0.6,0 1,-0.5 1,-1 0,-0.2 -0.2,-0.9 -0.4,-1.7 2,-0.3 3.9,-0.8 5.6,-1.6 -0.4,1.4 -1.2,3.9 -1.2,4.5 0,0.8 0.7,1.5 1.5,1.5 0.8,0 1.5,-0.7 1.5,-1.5 0,-0.6 -0.9,-3.4 -1.3,-4.8 1.6,-0.8 2.9,-1.8 3.9,-2.9 -0.2,0.8 -0.5,1.6 -0.5,1.9 0,0.6 0.5,1 1,1 0.5,0 1,-0.5 1,-1 0,-0.4 -0.5,-2 -0.8,-2.9 0.8,-1.2 1.3,-2.6 1.3,-4 V 102 Z"
         inkscape:connector-curvature="0"
         style="fill:#762c07" />
      <path
         id="path1064"
         d="m 40.3,102 c 0,5 -5.5,9.1 -12.7,9.9 0,-0.1 0,-0.1 0,-0.1 0,0 0,0 0,0.1 -0.7,0.1 -1.5,0.1 -2.3,0.1 -8.3,0 -15,-4.5 -15,-10 v 2 c 0,1.7 0.6,3.2 1.7,4.6 -0.3,1.1 -0.8,2.7 -0.8,3.1 0,0.6 0.5,1.2 1.2,1.2 0.6,0 1.2,-0.5 1.2,-1.2 0,-0.3 -0.2,-1.1 -0.4,-1.9 0.8,0.8 1.8,1.4 2.9,2 -0.3,0.9 -0.6,2.1 -0.6,2.4 0,0.6 0.5,1 1,1 0.6,0 1,-0.5 1,-1 0,-0.3 -0.2,-1.1 -0.5,-2 1.2,0.5 2.5,1 3.9,1.3 -0.4,1.2 -1,3.2 -1,3.7 0,0.7 0.6,1.3 1.3,1.3 0.7,0 1.3,-0.6 1.3,-1.3 0,-0.5 -0.6,-2.3 -0.9,-3.6 1.2,0.2 2.5,0.3 3.8,0.3 0.5,0 1.1,0 1.6,-0.1 -0.2,0.7 -0.4,1.3 -0.4,1.5 0,0.6 0.5,1 1,1 0.5,0 1,-0.5 1,-1 0,-0.2 -0.2,-0.9 -0.4,-1.7 2,-0.3 3.9,-0.8 5.6,-1.6 -0.4,1.4 -1.2,3.9 -1.2,4.5 0,0.8 0.7,1.5 1.5,1.5 0.8,0 1.5,-0.7 1.5,-1.5 0,-0.6 -0.9,-3.4 -1.3,-4.8 1.6,-0.8 2.9,-1.8 3.9,-2.9 -0.2,0.8 -0.5,1.6 -0.5,1.9 0,0.6 0.5,1 1,1 0.5,0 1,-0.5 1,-1 0,-0.4 -0.5,-2 -0.8,-2.9 0.8,-1.2 1.3,-2.6 1.3,-4 V 102 Z"
         inkscape:connector-curvature="0"
         style="opacity:0.15" />
      <path
         id="path1066"
         d="m 27.3,101 c 0,1.1 -0.9,2 -2,2 -1.1,0 -2,-0.9 -2,-2 0,-1.1 2,-3 2,-3 0,0 2,1.9 2,3 z"
         inkscape:connector-curvature="0"
         style="fill:#f8ebcb" />
      <g
         id="g1084"
         style="fill:#baa794">
        <path
           id="path1068"
           d="m 14.3,102 c 0,0.6 -0.4,1 -1,1 -0.6,0 -1,-0.4 -1,-1 0,-0.6 1,-1.5 1,-1.5 0,0 1,0.9 1,1.5 z"
           inkscape:connector-curvature="0" />
        <path
           id="path1070"
           d="m 38.3,102 c 0,0.6 -0.4,1 -1,1 -0.6,0 -1,-0.4 -1,-1 0,-0.6 1,-1.5 1,-1.5 0,0 1,0.9 1,1.5 z"
           inkscape:connector-curvature="0" />
        <path
           id="path1072"
           d="m 34.3,108 c 0,0.6 -0.4,1 -1,1 -0.6,0 -1,-0.4 -1,-1 0,-0.6 1,-1.5 1,-1.5 0,0 1,0.9 1,1.5 z"
           inkscape:connector-curvature="0" />
        <path
           id="path1074"
           d="m 26.3,110 c 0,0.6 -0.4,1 -1,1 -0.6,0 -1,-0.4 -1,-1 0,-0.6 1,-1.5 1,-1.5 0,0 1,0.9 1,1.5 z"
           inkscape:connector-curvature="0" />
        <path
           id="path1076"
           d="m 26.3,93.5 c 0,0.6 -0.4,1 -1,1 -0.6,0 -1,-0.4 -1,-1 0,-0.6 1,-1.5 1,-1.5 0,0 1,0.9 1,1.5 z"
           inkscape:connector-curvature="0" />
        <path
           id="path1078"
           d="m 18.3,108 c 0,0.6 -0.4,1 -1,1 -0.6,0 -1,-0.4 -1,-1 0,-0.6 1,-1.5 1,-1.5 0,0 1,0.9 1,1.5 z"
           inkscape:connector-curvature="0" />
        <path
           id="path1080"
           d="m 34.3,96 c 0,0.6 -0.4,1 -1,1 -0.6,0 -1,-0.4 -1,-1 0,-0.6 1,-1.5 1,-1.5 0,0 1,0.9 1,1.5 z"
           inkscape:connector-curvature="0" />
        <path
           id="path1082"
           d="m 18.3,96 c 0,0.6 -0.4,1 -1,1 -0.6,0 -1,-0.4 -1,-1 0,-0.6 1,-1.5 1,-1.5 0,0 1,0.9 1,1.5 z"
           inkscape:connector-curvature="0" />
      </g>
      <path
         id="path1086"
         d="M 33.7,33.8 C 32,37 30.9,44.3 31.8,48.6 c 0.9,4.3 2.5,6.8 3.7,7.1 1.2,0.3 2.5,-0.2 2.5,-0.2 0,0 0.4,1.2 0.1,2.7 -0.6,3 -2.2,7.5 -1.8,8 0.5,0.7 8.8,-3 11.5,-5.2 2.2,-1.7 4,-4.8 3.9,-5.3 -0.1,-0.5 -1.7,-3.8 -1.5,-5 0.2,-1.2 3,-3.7 3.2,-4.9 C 53.6,44.6 56.2,34 48.3,31.2 40.4,28.4 35.8,29.8 33.7,33.8 Z"
         inkscape:connector-curvature="0"
         style="fill:#fbd7c7" />
      <path
         id="path1088"
         d="m 32.2,35.9 c 0,1.4 1.4,1.6 3.9,2.9 2.5,1.3 4.8,5.8 6.9,6.4 2.1,0.6 4.9,0 6.8,-0.4 2,-0.4 2.9,0.6 3.1,1.4 0.2,0.8 4.6,-6.3 2.6,-11.9 -2.1,-6 -9.3,-9.8 -16.2,-6.9 -6.3,2.8 -7.1,7.3 -7.1,8.5 z"
         inkscape:connector-curvature="0"
         style="fill:#825012" />
      <path
         id="path1090"
         d="m 55.4,68 c 2.7,-2 8.4,-0.4 9.5,6.7 1.1,7.1 3.8,17.6 4.9,21.3 1.1,3.7 2.7,8 -0.8,11 -3.5,3 -19.4,11.7 -22.2,13.8 -2.7,2 -2.9,2.6 -6.4,4.8 -3.5,2.2 -8,2.7 -9.8,1.8 -2.2,-1.1 -1.4,-2.6 0.9,-3.9 2.9,-1.6 6,-4.3 6.7,-5.7 0.7,-1.4 1.5,-2 4,-2.4 2.5,-0.4 1,0.3 4,-1.5 3,-1.8 7.2,-6.9 10.7,-9.6 3,-2.3 5.3,-3.3 5.3,-3.3 0,0 -3.5,-7.5 -5.6,-13 -1.9,-5.7 -7.2,-15.7 -1.2,-20 z"
         inkscape:connector-curvature="0"
         style="fill:#fbd7c7" />
      <path
         id="path1092"
         d="m 59.9,96.4 9.3,-3 c -1.3,-5 -2.8,-12.7 -3.8,-18.5 -1.2,-7.4 -7.3,-9.1 -10.3,-7.3 -7.8,4.9 -1.4,14.6 0.8,20.3 0.9,2.6 2.9,6 4,8.5 z"
         inkscape:connector-curvature="0"
         style="fill:#3399cc" />
      <path
         id="path1094"
         d="m 55.5,43.8 c 0,0 4.9,4.5 3.8,9.7 -2.9,15 -4.8,7.8 -6.8,25.2 C 49.2,71.3 47,58.3 50,51.3 c 1.3,-3.2 5.5,-7.5 5.5,-7.5 z"
         inkscape:connector-curvature="0"
         style="fill:#825012" />
      <path
         id="path1096"
         d="m 55.6,42.2 c 1.3,0.7 0.9,2.4 -0.4,3.7 -1.3,1.3 -1.9,2.1 -2.8,1.4 -0.8,-0.7 0.3,-1.4 1.3,-2.9 0.9,-1.4 1.2,-2.6 1.9,-2.2 z"
         inkscape:connector-curvature="0"
         style="fill:#3399cc" />
    </g>
    <path
       style="fill:none;stroke:#000000;stroke-width:1;stroke-miterlimit:4;stroke-dasharray:none;stroke-opacity:1"
       inkscape:connector-curvature="0"
       d="m 131.83122,128.25346 c -0.5477,0.25314 -0.96419,1.03557 -1.13534,2.13251 -0.0361,0.23779 -0.0437,0.3682 -0.0437,0.76709 0.002,0.57148 0.0304,0.82462 0.15404,1.32323 0.18447,0.75558 0.5439,1.36158 0.94327,1.58404 0.18827,0.10355 0.57242,0.0921 0.75689,-0.023 0.4279,-0.27231 0.75119,-0.81695 0.94137,-1.59938 0.1141,-0.46792 0.15024,-0.83229 0.13692,-1.39994 -0.008,-0.33368 -0.0209,-0.51395 -0.0609,-0.74791 -0.15404,-0.93968 -0.51538,-1.66459 -0.9756,-1.96759 -0.24421,-0.11872 -0.51924,-0.16742 -0.71695,-0.0691 z"
       id="path1143"
       sodipodi:nodetypes="cccccccccccc" />
    <path
       style="fill:none;stroke:#000000;stroke-width:1;stroke-miterlimit:4;stroke-dasharray:none;stroke-opacity:1"
       inkscape:connector-curvature="0"
       d="m 127.42251,131.31651 c -0.14833,0.10356 -0.31569,0.32218 -0.39746,0.52162 -0.0913,0.22246 -0.18257,0.62902 -0.20729,0.92818 -0.0818,0.97804 0.20539,1.87554 0.67702,2.121 0.39747,0.20712 0.82726,-0.16108 1.02695,-0.88215 0.097,-0.34902 0.12741,-0.61751 0.1179,-1.03173 -0.019,-0.78627 -0.25483,-1.41912 -0.62377,-1.66843 -0.16165,-0.11122 -0.42219,-0.10355 -0.59335,0.0115 z"
       id="path1145" />
    <path
       style="fill:none;stroke:#000000;stroke-width:1;stroke-miterlimit:4;stroke-dasharray:none;stroke-opacity:1"
       inkscape:connector-curvature="0"
       d="m 124.20975,133.58271 c -0.29287,0.24163 -0.46592,0.81695 -0.41458,1.36925 0.0399,0.41423 0.17877,0.78627 0.36894,0.98188 0.0799,0.0844 0.12362,0.10356 0.24913,0.10356 0.18257,0.004 0.29097,-0.0844 0.43931,-0.36821 0.14643,-0.27998 0.18827,-0.47559 0.18827,-0.89366 0,-0.29916 -0.008,-0.37203 -0.0513,-0.53696 -0.0266,-0.10739 -0.0951,-0.27999 -0.15214,-0.38738 -0.18257,-0.34903 -0.41078,-0.44875 -0.62758,-0.26848 z"
       id="path1147" />
  </g>
</svg>
