<?xml version="1.0" encoding="UTF-8" standalone="no"?>
<!-- Generator: Adobe Illustrator 18.1.0, SVG Export Plug-In . SVG Version: 6.00 Build 0)  -->

<svg
   xmlns:dc="http://purl.org/dc/elements/1.1/"
   xmlns:cc="http://creativecommons.org/ns#"
   xmlns:rdf="http://www.w3.org/1999/02/22-rdf-syntax-ns#"
   xmlns:svg="http://www.w3.org/2000/svg"
   xmlns="http://www.w3.org/2000/svg"
   xmlns:sodipodi="http://sodipodi.sourceforge.net/DTD/sodipodi-0.dtd"
   xmlns:inkscape="http://www.inkscape.org/namespaces/inkscape"
   version="1.1"
   id="Layer_1"
   x="0px"
   y="0px"
   viewBox="0 0 52.185226 205.62317"
   enable-background="new 0 0 80 240"
   xml:space="preserve"
   sodipodi:docname="woman.svg"
   width="52.185226"
   height="205.62317"
   inkscape:version="0.92.3 (2405546, 2018-03-11)"><metadata
   id="metadata35"><rdf:RDF><cc:Work
       rdf:about=""><dc:format>image/svg+xml</dc:format><dc:type
         rdf:resource="http://purl.org/dc/dcmitype/StillImage" /><dc:title></dc:title></cc:Work></rdf:RDF></metadata><defs
   id="defs33" /><sodipodi:namedview
   pagecolor="#ffffff"
   bordercolor="#666666"
   borderopacity="1"
   objecttolerance="10"
   gridtolerance="10"
   guidetolerance="10"
   inkscape:pageopacity="0"
   inkscape:pageshadow="2"
   inkscape:window-width="874"
   inkscape:window-height="492"
   id="namedview31"
   showgrid="false"
   fit-margin-top="0"
   fit-margin-left="0"
   fit-margin-right="0"
   fit-margin-bottom="0"
   inkscape:zoom="0.98333333"
   inkscape:cx="24.276394"
   inkscape:cy="111.09372"
   inkscape:window-x="134"
   inkscape:window-y="55"
   inkscape:window-maximized="0"
   inkscape:current-layer="Layer_1" />
<g
   id="g28"
   transform="translate(-15.723606,-25.470556)">
	<path
   d="m 33.8,34.9 c -0.6,1.9 -0.5,9.7 -1.2,14 -0.8,5.2 -7.1,24 2.1,18.1 9.2,-5.9 7,-33.5 3.1,-33.7 -3.1,-0.3 -3.4,-0.3 -4,1.6 z"
   id="path2"
   inkscape:connector-curvature="0"
   style="fill:#762c07" />
	<path
   d="m 24.8,206.2 c -11.8,7.6 -12.4,14.4 0,21 13.5,7.2 22.4,3.3 32.9,-2.7 10.5,-6 11.8,-13.4 -3.7,-19.5 -12.5,-5 -20.4,-4.5 -29.2,1.2 z"
   id="path4"
   inkscape:connector-curvature="0"
   style="opacity:0.2" />
	<path
   d="m 28.8,82.2 c 0,0 -3.2,10.8 -5.9,19.1 -2.7,8.3 -4.4,13.8 -5.3,15.9 -0.9,2.1 -1.3,5.7 -0.8,7.3 0.5,1.6 2.3,5 3,5.7 1.7,1.6 4.4,1.2 4.8,0.8 0.4,-0.5 0.4,-2.2 -0.3,-2.9 -0.7,-0.7 -2.6,-3 -1.4,-6 1.2,-2.9 1,-4.2 1,-6 0,-1.5 -0.5,-1.7 0.7,-4.1 1.2,-2.5 6.9,-14.5 7.5,-16.2 0.6,-1.7 -3.3,-13.6 -3.3,-13.6 z"
   id="path6"
   inkscape:connector-curvature="0"
   style="fill:#fbd7c7" />
	<path
   d="m 42.8,54.7 c 0,0 -9.1,-4 -12.3,0.3 -3.2,4.3 -1.7,11 -1.7,11 0,0 -5.4,6.1 -5.4,9.4 0,3.3 5.1,6.5 5.1,6.5 0,0 0.6,15.8 -0.3,22.3 -0.9,6.5 -3.8,23.3 -3.1,33.9 0.7,10.6 1.6,25 1.9,29.2 0.3,4.1 2.2,10 3,14.8 0.9,4.8 4.1,13.2 0.9,19.6 -3.2,6.4 -6.1,9.3 -7.4,10.5 -1.3,1.2 0.2,5.2 3,4.5 2.8,-0.7 7.2,-7.1 9.9,-8.1 2.7,-1.1 7.2,-4 6,-7.7 -1.2,-3.6 -1.7,-2.2 -2,-5.3 -0.3,-3.1 2.2,-16.7 1.3,-22.8 -0.9,-6.1 -3.2,-7.8 -3.6,-8.8 -0.4,-1 5.7,-29.5 5.7,-29.5 0,0 1.2,27.3 1.1,30.2 -0.1,2.9 2.1,17.7 2.7,24.6 0.7,7 1,18.8 -2,22.9 -2.9,4.1 -8,10.3 -6,11.7 2,1.4 8.3,2.7 9.8,-0.9 1.5,-3.6 5.3,-11.1 6.7,-13.1 1.4,-2 1.9,-3.1 1,-5 -0.9,-1.9 -1.5,-5 -0.5,-10.3 1,-5.3 4.1,-14.7 3.3,-19.7 -0.8,-5 -3.2,-8.1 -2.9,-11.7 0.3,-3.5 8.1,-24.8 6.6,-39.7 C 62,108.7 54.6,106 53.3,100 52,94 56.3,86.1 58.5,81.8 60.7,77.6 63.8,70.2 61.1,67.6 58.4,64.9 55.2,63.2 54,61.2 52.8,59.2 51.5,53 51.5,53 Z"
   id="path8"
   inkscape:connector-curvature="0"
   style="fill:#fbd7c7" />
	<path
   d="m 25.4,210.3 c 0,0 -4.9,1.7 -5.9,3.9 -0.8,1.8 -0.5,3.9 1.2,5 1.8,1 5.2,1.3 8.2,-0.4 2.9,-1.7 6.8,-8.4 7.5,-8.7 0.7,-0.3 0.2,3.7 0.2,3.7 l 2.1,1.1 2.3,-0.9 c 0,0 -0.2,-4.5 0.7,-6 0.9,-1.5 2.6,-3.9 2,-6.9 -0.6,-3 -2.6,-3.3 -2.6,-3.3 0,0 0,3.5 -4,7.3 -3.8,3.6 -5.9,9.6 -9.2,9.3 -4.5,-0.7 -2.5,-4.1 -2.5,-4.1 z"
   id="path10"
   inkscape:connector-curvature="0"
   style="fill:#cc291f" />
	<path
   d="m 42.2,217.1 c 0,0 -4.6,3.5 -4.9,5.7 -0.3,2.2 -0.2,3.7 2.9,4.7 3.1,1 7.1,-0.2 9,-1.8 1.9,-1.6 4.4,-5.8 4.4,-5.8 l 2,1.1 2.3,-1.1 c 0,0 -0.3,-2.7 0.4,-5.1 0.7,-2.4 1.4,-4.4 1.4,-7.4 0,-3 -2.8,-3.3 -2.8,-3.3 0,0 1.7,1.6 -0.8,5.1 -2.5,3.5 -4.4,11.3 -8.1,11.5 -6.9,0.5 -5.8,-3.6 -5.8,-3.6 z"
   id="path12"
   inkscape:connector-curvature="0"
   style="fill:#cc291f" />
	<path
   d="m 60.8,110.8 c -2.7,-4.3 -5.3,-6.4 -5.4,-6.8 0,0 -6.4,3.9 -16.4,3.1 -10,-0.8 -10.6,-3.1 -10.6,-3.1 -1.4,6.7 -4.5,17.6 -5.5,21.1 -1.9,6.8 -6.1,18 -5.6,19 2.1,4.2 12.6,3.2 17.4,7.6 4.8,4.4 17.8,3.7 24,1.6 6.2,-2.1 9.4,-5.8 9.2,-6.5 -4.8,-18.7 -1.8,-27.6 -7.1,-36 z"
   id="path14"
   inkscape:connector-curvature="0"
   style="fill:#28896d" />
	<path
   d="m 27.7,82.8 c 0.3,0.6 3.1,5.5 3,11.7 0,2.9 -1.7,6.6 -2.7,9.6 7.4,6.7 22,3.9 27.6,0.3 -4.5,-6.7 1.9,-20.2 3,-22.4 2.2,-4.2 5.3,-11.6 2.6,-14.2 -2.7,-2.7 -5.9,-4.4 -7.1,-6.4 -1.2,-2 -2.5,-8.2 -2.5,-8.2 l -8.9,1.6 c 0,0 -3.6,-1.6 -7,-1.7 -2.2,2.1 -4.9,9.8 -7.4,12.7 -2.5,2.8 -5.4,5.4 -5.4,9.6 0,3.2 4.3,6.5 4.8,7.4 z"
   id="path16"
   inkscape:connector-curvature="0"
   style="fill:#e5e5e5" />
	<path
   d="m 37.9,53.9 c 0,0 -8.9,14.8 -2.4,16.5 6.3,1.7 16,-8.7 16,-8.7 L 43.7,53 Z"
   id="path18"
   inkscape:connector-curvature="0"
   style="fill:#fbd7c7" />
	<path
   d="m 40.2,54.9 c 0,0 -4.3,0.7 -4.9,-0.9 -0.7,-1.7 -4.4,-15.5 2.4,-24.1 6.8,-8.6 20.5,-3.1 20.5,6 0,8.1 -3.2,10.5 -4.7,14.5 -0.9,2.5 -1.6,5.8 -0.1,8.4 1.5,2.7 2.7,4 2.7,4 0,0 -7.6,4.6 -13.3,3.2 -5.7,-1.4 -0.2,-4.2 -1,-6.6 -0.7,-2.1 -1.6,-4.5 -1.6,-4.5 z"
   id="path20"
   inkscape:connector-curvature="0"
   style="fill:#fbd7c7" />
	<path
   d="M 23,76.1 C 26.1,82 35.5,86.6 49.6,83.5 48.8,85.8 28.5,91 23,76.1 Z"
   id="path22"
   inkscape:connector-curvature="0"
   style="opacity:0.15" />
	<path
   d="m 51,74.8 c -1.1,-2.9 -0.7,-10.2 5.3,-10.5 6,-0.3 6.7,5.7 7.2,13.6 0.5,7.9 3.5,20.7 3.7,23.3 0.2,2.6 -1.5,9.7 -5.6,16 -4.1,6.3 -6.9,11.4 -7.1,12.3 -0.2,1 -1.4,4.9 -3.1,6.1 -0.7,0.5 -1.5,1.2 -1.9,2.5 -0.4,1.3 0.5,2.4 0.7,2.7 0.3,0.7 -0.2,1.5 -1.4,2.2 -1.3,0.8 -3.2,-0.5 -4.2,-1.3 -0.7,-0.5 -2.5,-2.1 -2,-4.3 0.4,-1.6 1.7,-6.6 3.7,-7.8 2,-1.2 3.9,-2.7 4.6,-4.1 0.7,-1.4 2.2,-11.9 4.8,-17.2 1.4,-2.9 3.1,-4.8 3.1,-5.9 C 58.7,101.5 52.1,77.7 51,74.8 Z"
   id="path24"
   inkscape:connector-curvature="0"
   style="fill:#fbd7c7" />
	<path
   d="m 33.8,34.9 c 0,0 3.5,-11.5 16.4,-9.1 8.1,1.5 10.4,10.5 9.6,16.7 -0.7,6.2 -3.3,9.9 -2.1,12.9 2.3,5.6 1,9.4 -1.6,12.7 C 51.8,73.6 43,76.3 44,65.2 44.7,56.6 38.9,52.8 40.9,43.7 42.1,38 39.8,35.5 37.3,36 36.4,34.1 35.4,33.4 33.8,34.9 Z"
   id="path26"
   inkscape:connector-curvature="0"
   style="fill:#762c07" />
</g>
</svg>